<?xml version="1.0" encoding="UTF-8"?>
<svg xmlns="http://www.w3.org/2000/svg" xmlns:xlink="http://www.w3.org/1999/xlink" width="432pt" height="360pt" viewBox="0 0 432 360" version="1.1">
<g id="surface603">
<rect x="0" y="0" width="432" height="360" style="fill:rgb(100%,100%,100%);fill-opacity:1;stroke:none;"/>
<path style=" stroke:none;fill-rule:nonzero;fill:rgb(65.098039%,74.117647%,85.882353%);fill-opacity:1;" d="M 90.871094 11.519531 L 96.136719 0 L 122.96875 0 L 132.679688 6.445312 L 127.699219 0 L 90.839844 0 L 89.25 7.464844 L 83.566406 22.175781 Z M 90.871094 11.519531 "/>
<path style=" stroke:none;fill-rule:nonzero;fill:rgb(65.098039%,74.117647%,85.882353%);fill-opacity:1;" d="M 200.816406 223.273438 L 181.328125 200.445312 L 178.082031 195.875 L 174.835938 191.308594 L 164.691406 177.097656 L 175.648438 185.726562 L 179.710938 189.277344 L 183.769531 192.832031 L 188.234375 200.945312 L 190.667969 206.015625 L 193.105469 211.089844 L 203.25 219.203125 L 204.0625 221.242188 L 204.871094 223.273438 Z M 200.816406 223.273438 "/>
<path style=" stroke:none;fill-rule:nonzero;fill:rgb(65.098039%,74.117647%,85.882353%);fill-opacity:1;" d="M 343.25 11.519531 L 337.984375 0 L 311.148438 0 L 301.4375 6.445312 L 306.417969 0 L 343.28125 0 L 344.875 7.464844 L 350.554688 22.175781 Z M 343.25 11.519531 "/>
<path style=" stroke:none;fill-rule:nonzero;fill:rgb(65.098039%,74.117647%,85.882353%);fill-opacity:1;" d="M 231.300781 223.28125 L 250.789062 200.453125 L 254.03125 195.882812 L 257.28125 191.316406 L 267.425781 177.105469 L 256.46875 185.734375 L 252.40625 189.28125 L 248.347656 192.835938 L 243.886719 200.953125 L 241.445312 206.023438 L 239.015625 211.097656 L 228.863281 219.210938 L 228.054688 221.25 L 227.238281 223.28125 Z M 231.300781 223.28125 "/>
<path style=" stroke:none;fill-rule:nonzero;fill:rgb(65.098039%,74.117647%,85.882353%);fill-opacity:1;" d="M 85.945312 0 L 85.898438 0.21875 L 84.261719 7.890625 L 83.074219 13.453125 L 82.710938 15.261719 L 82.5 16.324219 L 81.714844 18.679688 L 80.714844 21.671875 L 75.417969 37.574219 L 55.992188 79.800781 L 48.871094 164.554688 L 40.90625 259.414062 L 59.421875 360 L 217.242188 360 L 217.800781 339.566406 L 213.703125 294.042969 L 213.703125 275.617188 L 212.683594 248.355469 L 212.027344 243.429688 L 211.261719 237.691406 L 210.238281 232.8125 L 209.339844 229.175781 L 215.355469 229.949219 L 217.351562 229.976562 L 223.742188 229.175781 L 222.84375 232.816406 L 221.820312 237.6875 L 221.054688 243.429688 L 220.398438 248.355469 L 219.378906 275.617188 L 219.378906 294.050781 L 215.285156 339.660156 L 215.84375 360 L 373.675781 360 L 392.195312 259.421875 L 384.222656 164.554688 L 377.105469 79.828125 L 357.683594 37.589844 L 352.382812 21.691406 L 351.386719 18.695312 L 350.59375 16.324219 L 350.382812 15.261719 L 350.019531 13.453125 L 348.832031 7.875 L 347.191406 0.199219 L 347.148438 0 Z M 85.945312 0 "/>
<path style=" stroke:none;fill-rule:nonzero;fill:rgb(65.098039%,74.117647%,85.882353%);fill-opacity:1;" d="M 339.597656 0 L 340.144531 2.554688 L 341.769531 10.160156 L 342.949219 15.679688 L 343.308594 17.476562 L 343.65625 19.203125 L 344.449219 21.582031 L 345.652344 25.199219 L 350.839844 40.761719 L 369.964844 82.109375 L 376.96875 165.5 L 384.835938 259.128906 L 366.21875 360 L 223.175781 360 L 222.671875 341.605469 L 224.042969 293.882812 L 224.042969 274.742188 L 227.789062 248.621094 L 228.285156 244.917969 L 229.804688 233.515625 L 232.464844 225.773438 L 232.492188 225.695312 L 234.984375 218.53125 L 223.394531 223.976562 L 210.980469 224.351562 L 198.144531 218.53125 L 200.632812 225.695312 L 200.660156 225.769531 L 203.324219 233.515625 L 204.84375 244.917969 L 205.339844 248.617188 L 209.085938 274.738281 L 209.085938 293.875 L 210.457031 341.511719 L 209.953125 360 L 66.917969 360 L 48.304688 259.117188 L 56.164062 165.496094 L 63.171875 82.074219 L 82.296875 40.738281 L 87.488281 25.179688 L 88.6875 21.578125 L 89.484375 19.191406 L 89.828125 17.46875 L 90.1875 15.671875 L 91.363281 10.164062 L 92.988281 2.5625 L 93.535156 0 Z M 339.597656 0 "/>
<path style="fill-rule:nonzero;fill:rgb(65.098039%,74.117647%,85.882353%);fill-opacity:1;stroke-width:0.426791;stroke-linecap:round;stroke-linejoin:round;stroke:rgb(0%,0%,0%);stroke-opacity:1;stroke-miterlimit:10;" d="M -202.09375 128.914062 L -194.792969 136.019531 L -191.546875 132.460938 L -188.292969 128.914062 L -179.367188 117.75 L -183.421875 109.632812 L -187.078125 108.109375 L -190.328125 109.632812 L -193.574219 111.152344 L -199.257812 112.675781 L -201.28125 117.238281 L -203.3125 121.804688 L -210.617188 131.953125 Z M -213.984375 158.117188 L -211.144531 160.148438 L -207.082031 166.242188 L -202.617188 170.300781 L -208.300781 189.070312 L -210.734375 193.632812 L -213.171875 198.199219 L -217.191406 211.464844 L -220.683594 221.625 L -222.304688 226.191406 L -223.929688 230.753906 L -225.441406 238.03125 L -222.507812 229.65625 L -219.261719 221.542969 L -216.015625 213.425781 L -207.894531 194.144531 L -206.679688 189.070312 L -205.460938 184 L -201.402344 175.371094 L -199.371094 174.867188 L -197.34375 174.359375 L -191.660156 173.851562 L -190.445312 179.433594 L -189.226562 185.007812 L -189.226562 191.097656 L -190.847656 194.144531 L -192.472656 197.183594 L -197.75 208.863281 L -203.429688 221.03125 L -209.519531 235.75 L -216.417969 248.429688 L -209.925781 241.324219 L -207.082031 234.226562 L -204.242188 227.121094 L -195.71875 209.367188 L -194.910156 207.335938 L -194.101562 205.308594 L -187.195312 190.597656 L -185.976562 183.996094 L -183.949219 182.472656 L -181.917969 180.949219 L -177.453125 178.925781 L -170.148438 178.417969 L -166.898438 179.941406 L -170.148438 188.058594 L -176.640625 201.753906 L -186.789062 223.570312 L -176.640625 205.308594 L -175.019531 202.257812 L -173.398438 199.21875 L -166.089844 181.964844 L -161.625 180.949219 L -164.875 176.386719 L -168.523438 175.878906 L -172.179688 175.371094 L -181.917969 177.914062 L -186.382812 176.894531 L -190.847656 175.878906 L -199.367188 170.804688 L -200.996094 169.796875 L -202.617188 168.777344 L -204.242188 161.164062 Z M 90.871094 11.519531 L 97.367188 -2.691406 L 100.613281 -7.253906 L 103.863281 -11.820312 L 116.441406 -5.222656 L 118.066406 -3.699219 L 119.6875 -2.175781 L 132.679688 6.445312 L 121.3125 -8.273438 L 116.847656 -12.328125 L 112.382812 -16.386719 L 107.515625 -24.507812 L 106.296875 -29.070312 L 105.078125 -33.636719 L 105.078125 -83.460938 L 108.324219 -100.210938 L 106.296875 -107.316406 L 100.207031 -47.84375 L 98.992188 -35.15625 L 97.773438 -22.46875 L 92.496094 -7.757812 L 90.871094 -0.144531 L 89.25 7.464844 L 83.566406 22.175781 Z M 214.933594 -14.574219 L 212.5 -7.46875 L 216.152344 -5.953125 L 219.804688 -4.425781 L 219.804688 -8.984375 L 218.183594 -14.066406 L 216.558594 -19.136719 Z M 200.816406 223.273438 L 181.328125 200.445312 L 178.082031 195.875 L 174.835938 191.308594 L 164.691406 177.097656 L 175.648438 185.726562 L 179.710938 189.277344 L 183.769531 192.832031 L 188.234375 200.945312 L 190.667969 206.015625 L 193.105469 211.089844 L 203.25 219.203125 L 204.0625 221.242188 L 204.871094 223.273438 Z M 73.46875 -347.425781 L 81.785156 -313.996094 L 83.410156 -309.9375 L 85.03125 -305.878906 L 92.34375 -284.574219 L 95.585938 -280.003906 L 98.832031 -275.4375 L 111.007812 -269.347656 L 123.589844 -268.335938 L 136.175781 -267.320312 L 147.539062 -268.335938 L 153.222656 -271.886719 L 158.902344 -275.4375 L 179.199219 -298.269531 L 157.6875 -287.109375 L 140.234375 -287.617188 L 122.777344 -288.121094 L 107.761719 -296.238281 L 101.265625 -306.386719 L 94.773438 -316.535156 L 83 -348.5 L 84.21875 -355.597656 L 85.4375 -362.703125 L 86.25 -386.550781 L 88.683594 -391.117188 L 91.121094 -395.683594 L 97.207031 -405.832031 L 97.207031 -411.917969 L 78.941406 -439.824219 L 76.503906 -446.925781 L 73.667969 -424.605469 L 77.722656 -420.546875 L 81.78125 -416.488281 L 83.003906 -407.351562 L 83.410156 -399.742188 L 83.808594 -392.128906 L 79.347656 -373.863281 L 79.347656 -370.820312 L 72.039062 -358.140625 L 73.261719 -349.007812 Z M 201.195312 -716.039062 L 196.824219 -712.734375 L 192.042969 -710.929688 L 188.078125 -709.429688 L 182.703125 -709.816406 L 179.148438 -711.761719 L 176.886719 -713 L 173.996094 -717.054688 L 176.429688 -719.296875 L 182.921875 -724.371094 L 184.953125 -723.863281 L 186.984375 -723.359375 L 198.34375 -719.804688 L 200.378906 -723.355469 L 197.535156 -724.371094 L 194.695312 -725.386719 L 203.621094 -727.921875 L 196.316406 -735.023438 L 192.667969 -734.515625 L 189.007812 -734.007812 L 175.207031 -734.007812 L 168.308594 -728.933594 L 166.683594 -723.859375 L 165.066406 -718.789062 L 163.847656 -711.683594 L 168.71875 -719.804688 L 170.746094 -722.847656 L 172.777344 -725.894531 L 180.894531 -728.429688 L 174.402344 -721.832031 L 173.589844 -718.285156 L 172.777344 -714.734375 L 170.921875 -711.894531 L 177.816406 -704.535156 L 185.765625 -704.371094 L 188.636719 -704.308594 L 195.917969 -706.402344 Z M 638.335938 126.6875 L 631.035156 133.792969 L 627.789062 130.234375 L 624.539062 126.6875 L 615.609375 115.523438 L 617.636719 111.464844 L 619.667969 107.40625 L 623.320312 105.882812 L 626.570312 107.40625 L 629.816406 108.925781 L 635.5 110.449219 L 637.527344 115.011719 L 639.554688 119.578125 L 646.859375 129.722656 Z M 649.78125 154.78125 L 646.941406 156.8125 L 644.910156 159.851562 L 642.878906 162.902344 L 638.417969 166.957031 L 644.09375 185.734375 L 646.53125 190.300781 L 648.96875 194.863281 L 655.054688 211.097656 L 660.332031 223.78125 L 661.957031 228.351562 L 663.578125 232.914062 L 666.421875 237.480469 L 658.304688 226.308594 L 655.054688 218.199219 L 651.808594 210.082031 L 643.6875 190.804688 L 642.472656 185.734375 L 641.253906 180.65625 L 637.195312 172.035156 L 635.164062 171.523438 L 633.136719 171.011719 L 627.457031 170.511719 L 626.242188 176.089844 L 625.019531 181.671875 L 625.019531 187.757812 L 626.640625 190.800781 L 628.261719 193.847656 L 633.542969 205.515625 L 639.222656 217.695312 L 645.308594 232.40625 L 652.214844 245.085938 L 645.714844 237.988281 L 642.878906 230.882812 L 640.035156 223.777344 L 631.511719 206.023438 L 630.699219 203.992188 L 629.890625 201.960938 L 622.988281 187.25 L 621.773438 180.652344 L 619.738281 179.136719 L 617.710938 177.613281 L 613.246094 175.582031 L 605.941406 175.082031 L 602.691406 176.597656 L 604.320312 180.65625 L 605.941406 184.714844 L 612.433594 198.414062 L 622.582031 220.230469 L 612.433594 201.960938 L 609.191406 195.882812 L 601.882812 178.628906 L 597.417969 177.613281 L 600.667969 173.039062 L 604.320312 172.535156 L 607.972656 172.035156 L 617.710938 174.570312 L 622.175781 173.558594 L 626.640625 172.535156 L 635.164062 167.460938 L 636.789062 166.453125 L 638.421875 165.433594 L 640.039062 157.828125 Z M 343.25 11.519531 L 336.753906 -2.691406 L 333.511719 -7.253906 L 330.261719 -11.820312 L 317.675781 -5.222656 L 316.050781 -3.699219 L 314.429688 -2.175781 L 301.4375 6.445312 L 312.804688 -8.273438 L 317.269531 -12.328125 L 321.734375 -16.386719 L 326.605469 -24.507812 L 327.824219 -29.070312 L 329.039062 -33.636719 L 329.039062 -83.460938 L 325.792969 -100.210938 L 327.824219 -107.316406 L 333.914062 -47.84375 L 335.132812 -35.15625 L 336.347656 -22.46875 L 341.628906 -7.757812 L 343.25 -0.144531 L 344.875 7.464844 L 350.554688 22.175781 Z M 218.183594 -14.574219 L 220.621094 -7.46875 L 216.96875 -5.953125 L 213.3125 -4.425781 L 213.308594 -8.984375 L 214.933594 -14.066406 L 216.558594 -19.136719 Z M 231.300781 223.28125 L 250.789062 200.453125 L 254.03125 195.882812 L 257.28125 191.316406 L 267.425781 177.105469 L 256.46875 185.734375 L 252.40625 189.28125 L 248.347656 192.835938 L 243.886719 200.953125 L 241.445312 206.023438 L 239.015625 211.097656 L 228.863281 219.210938 L 228.054688 221.25 L 227.238281 223.28125 Z M 359.988281 -346.589844 L 351.675781 -313.164062 L 350.046875 -309.105469 L 348.425781 -305.046875 L 341.121094 -283.738281 L 334.628906 -274.605469 L 322.449219 -268.515625 L 297.277344 -266.484375 L 285.910156 -267.5 L 280.226562 -271.050781 L 274.546875 -274.601562 L 254.25 -297.429688 L 275.761719 -286.269531 L 293.21875 -286.78125 L 310.671875 -287.285156 L 325.695312 -295.402344 L 332.191406 -305.554688 L 338.683594 -315.699219 L 350.460938 -347.664062 L 349.238281 -354.765625 L 348.023438 -361.871094 L 347.210938 -385.714844 L 342.335938 -394.847656 L 336.25 -404.996094 L 336.25 -411.082031 L 354.515625 -438.988281 L 356.953125 -446.089844 L 359.792969 -423.765625 L 355.734375 -419.707031 L 351.679688 -415.648438 L 350.457031 -406.515625 L 349.644531 -391.296875 L 354.109375 -373.027344 L 354.109375 -369.988281 L 361.417969 -357.304688 L 360.199219 -348.171875 Z M 231.574219 -635.585938 L 228.734375 -642.179688 L 224.675781 -641.675781 L 221.308594 -641.25 L 217.707031 -640.148438 L 216.554688 -639.777344 L 215.40625 -640.148438 L 211.804688 -641.25 L 208.4375 -641.675781 L 204.378906 -642.179688 L 201.539062 -635.585938 L 199.507812 -635.078125 L 197.480469 -634.570312 L 193.011719 -632.03125 L 197.480469 -632.03125 L 202.347656 -633.554688 L 207.21875 -635.078125 L 211.28125 -636.59375 L 212.496094 -635.582031 L 213.714844 -634.570312 L 216.148438 -634.0625 L 216.964844 -634.0625 L 219.398438 -634.570312 L 221.835938 -636.59375 L 225.890625 -635.074219 L 230.761719 -633.554688 L 235.632812 -632.03125 L 240.101562 -632.03125 L 235.636719 -634.570312 Z M 222.34375 -620.3125 L 218.253906 -619.660156 L 216.558594 -619.445312 L 214.863281 -619.660156 L 210.773438 -620.3125 L 207.625 -621.882812 L 203.566406 -623.914062 L 200.320312 -627.972656 L 204.375 -618.84375 L 207.632812 -614.78125 L 215.917969 -614.273438 L 217.195312 -614.273438 L 225.480469 -614.78125 L 227.109375 -616.8125 L 228.734375 -618.84375 L 232.792969 -627.972656 L 229.546875 -623.914062 L 225.488281 -621.882812 Z M 231.640625 -589.859375 L 216.625 -593.117188 L 201.609375 -589.859375 L 174.003906 -615.230469 L 187.394531 -598.996094 L 193.890625 -594.933594 L 199.539062 -591.40625 L 207.507812 -588.261719 L 210.886719 -587.5 L 216.21875 -587.324219 L 221.722656 -587.355469 L 221.960938 -587.410156 L 222.199219 -587.355469 L 217.027344 -587.324219 L 222.359375 -587.5 L 225.738281 -588.265625 L 233.707031 -591.410156 L 239.351562 -594.933594 L 245.855469 -598.996094 L 259.246094 -615.230469 Z M 229.167969 -671.746094 L 229.390625 -667.023438 L 225.390625 -666.46875 L 223.5 -666.1875 L 221.054688 -661.742188 L 212.039062 -661.742188 L 210.050781 -666.1875 L 208.050781 -666.464844 L 206.050781 -666.746094 L 204.050781 -667.023438 L 204.269531 -671.746094 L 202.714844 -670.636719 L 203.160156 -666.882812 L 204.269531 -665.769531 L 205.382812 -664.660156 L 208.828125 -665.496094 L 212.605469 -660.910156 L 213.578125 -659.734375 L 216.941406 -656.183594 L 220.15625 -659.785156 L 221.164062 -660.910156 L 226.277344 -666.605469 L 228.058594 -664.105469 L 229.167969 -665.214844 L 230.277344 -666.328125 L 230.726562 -670.636719 Z M 231.917969 -716.039062 L 236.289062 -712.734375 L 241.070312 -710.929688 L 245.035156 -709.429688 L 250.410156 -709.816406 L 253.960938 -711.761719 L 256.226562 -713 L 259.117188 -717.054688 L 256.683594 -719.296875 L 250.191406 -724.371094 L 248.160156 -723.863281 L 246.128906 -723.359375 L 234.765625 -719.804688 L 232.734375 -723.355469 L 235.578125 -724.371094 L 238.417969 -725.386719 L 229.492188 -727.921875 L 236.792969 -735.023438 L 240.445312 -734.515625 L 244.105469 -734.007812 L 257.90625 -734.007812 L 264.804688 -728.933594 L 266.429688 -723.859375 L 268.046875 -718.789062 L 269.265625 -711.683594 L 264.394531 -719.804688 L 262.367188 -722.847656 L 260.335938 -725.894531 L 252.21875 -728.429688 L 258.710938 -721.832031 L 259.523438 -718.285156 L 260.335938 -714.734375 L 262.1875 -711.894531 L 255.296875 -704.535156 L 247.347656 -704.371094 L 244.472656 -704.308594 L 237.199219 -706.402344 Z M 670.890625 196.882812 L 670.496094 195.625 L 670.261719 194.824219 L 668.613281 189.144531 L 656.542969 151.175781 L 655.203125 146.996094 L 654.511719 144.84375 L 653.886719 142.535156 L 653.351562 140.359375 L 656.222656 141.898438 L 659.035156 143.109375 L 662.585938 143.109375 L 670.503906 141.222656 L 672.472656 135.871094 L 673.320312 133.5625 L 673.007812 130.988281 L 671.628906 128.976562 L 669.765625 126.261719 L 663.519531 116.882812 L 659.296875 109.203125 L 656.089844 103.367188 L 654.304688 98.148438 L 653.066406 96.160156 L 652.570312 95.367188 L 652.097656 94.273438 L 651.492188 92.894531 L 649.285156 87.820312 L 643.453125 78.910156 L 631.957031 68.640625 L 620.023438 57.988281 L 610.382812 45.042969 L 603.863281 37.421875 L 602.753906 36.125 L 601.824219 35.039062 L 601.132812 34.246094 L 596.765625 28.730469 L 559.910156 -57.265625 L 555.804688 -71.523438 L 552.824219 -81.878906 L 524.300781 -173.898438 L 518.144531 -186.535156 L 512.765625 -197.578125 L 495.445312 -217.113281 L 492.695312 -220.746094 L 490.617188 -226.40625 L 474.605469 -269.257812 L 466.96875 -285.492188 L 458.890625 -302.65625 L 436.449219 -357.378906 L 434.089844 -365.730469 L 433.515625 -367.769531 L 433.082031 -370.390625 L 432.484375 -374.019531 L 430.828125 -384.09375 L 430.414062 -402.855469 L 418.464844 -442.433594 L 403.519531 -491.957031 L 378.371094 -503.339844 L 368.90625 -507.621094 L 367.792969 -508.125 L 366.894531 -508.523438 L 366.265625 -508.890625 L 360.074219 -512.5 L 317.789062 -516.457031 L 308.34375 -518.054688 L 305.730469 -519.214844 L 289.359375 -526.511719 L 284.351562 -529.644531 L 277.621094 -533.847656 L 266.941406 -546.210938 L 265.109375 -553.832031 L 263.484375 -560.613281 L 261.128906 -590.980469 L 261.75 -610.464844 L 263.5 -614.390625 L 272.5625 -629 L 274.777344 -637.765625 L 276.1875 -643.347656 L 279.164062 -660.886719 L 280.726562 -668.441406 L 282.882812 -667.78125 L 285.363281 -667.730469 L 287.128906 -668.835938 L 291.847656 -671.785156 L 296.136719 -689.746094 L 296.050781 -692.589844 L 295.859375 -698.8125 L 296.339844 -704.578125 L 296.734375 -709.214844 L 297.207031 -714.820312 L 297.546875 -718.871094 L 296.628906 -721.921875 L 295.363281 -726.144531 L 288.9375 -728.003906 L 285.894531 -728.828125 L 286.164062 -733.863281 L 289.28125 -742.164062 L 289.550781 -746.886719 L 289.910156 -753.214844 L 290.863281 -786.300781 L 274.296875 -816.269531 L 253.042969 -854.714844 L 218.0625 -855.480469 L 216.53125 -855.492188 L 215.050781 -855.480469 L 180.066406 -854.714844 L 158.816406 -816.269531 L 142.242188 -786.292969 L 143.199219 -753.210938 L 143.5625 -746.886719 L 143.832031 -742.164062 L 146.949219 -733.863281 L 147.21875 -728.828125 L 144.171875 -728.003906 L 137.746094 -726.144531 L 136.480469 -721.921875 L 135.5625 -718.871094 L 135.90625 -714.820312 L 136.378906 -709.210938 L 136.765625 -704.578125 L 137.253906 -698.8125 L 137.066406 -692.59375 L 136.976562 -689.75 L 141.253906 -671.785156 L 145.980469 -668.835938 L 147.746094 -667.730469 L 150.226562 -667.777344 L 152.382812 -668.441406 L 153.949219 -660.886719 L 156.925781 -643.351562 L 158.335938 -637.765625 L 160.550781 -629 L 169.613281 -614.390625 L 171.367188 -610.464844 L 171.984375 -590.980469 L 169.628906 -560.613281 L 168 -553.832031 L 166.171875 -546.210938 L 158.164062 -537.183594 L 151.425781 -532.980469 L 146.421875 -529.851562 L 127.378906 -519.21875 L 124.769531 -518.058594 L 115.328125 -516.460938 L 73.042969 -512.503906 L 66.855469 -508.894531 L 66.226562 -508.523438 L 65.324219 -508.128906 L 64.214844 -507.625 L 54.746094 -503.339844 L 29.601562 -491.960938 L 14.652344 -442.4375 L 2.707031 -402.867188 L 2.289062 -384.109375 L 0.632812 -374.03125 L 0.0351562 -370.398438 L -0.394531 -367.773438 L -0.972656 -365.734375 L -3.511719 -356.738281 L -20.640625 -312.21875 L -28.507812 -295.5 L -36.226562 -279.101562 L -54.417969 -224.023438 L -56.890625 -217.429688 L -59.613281 -213.832031 L -76.964844 -194.261719 L -82.355469 -183.203125 L -88.523438 -170.539062 L -117.03125 -78.535156 L -120.011719 -68.195312 L -124.117188 -53.9375 L -160.96875 32.0625 L -165.3125 37.550781 L -166.035156 38.375 L -166.96875 39.46875 L -168.082031 40.773438 L -174.597656 48.390625 L -186.726562 62.578125 L -198.660156 73.222656 L -210.160156 83.492188 L -213.496094 91.160156 L -215.703125 96.230469 L -216.308594 97.609375 L -216.78125 98.703125 L -217.277344 99.496094 L -218.511719 101.484375 L -220.660156 109.199219 L -223.867188 115.035156 L -228.085938 122.714844 L -232.003906 129.273438 L -233.871094 131.988281 L -235.246094 134.003906 L -235.5625 136.578125 L -234.714844 138.890625 L -232.746094 144.238281 L -226.792969 146.445312 L -223.234375 146.445312 L -220.429688 145.234375 L -217.554688 143.699219 L -218.09375 145.867188 L -218.503906 152.886719 L -219.195312 155.046875 L -220.539062 159.242188 L -229.648438 192.363281 L -231.644531 197.839844 L -231.933594 198.640625 L -232.265625 199.878906 L -232.757812 201.429688 L -240.636719 226.3125 L -244.625 235.410156 L -240.582031 239.351562 L -238.878906 241 L -235.425781 242.574219 L -232.976562 242.300781 L -235.453125 249.046875 L -238.191406 256.519531 L -237.425781 260.359375 L -236.226562 266.320312 L -231.003906 267.917969 L -225.617188 267.917969 L -224.097656 267.324219 L -222.976562 266.195312 L -221.375 264.59375 L -219.371094 261.734375 L -217.105469 258.285156 L -214.25 259.945312 L -209.601562 259.082031 L -206.304688 257.859375 L -202.320312 256.363281 L -194.660156 242.132812 L -187.414062 229.796875 L -184.886719 231.113281 L -180.527344 234.820312 L -178.273438 232.941406 L -175.269531 230.441406 L -158.953125 203.945312 L -156.289062 198.394531 L -152.59375 190.695312 L -146.359375 176.113281 L -146.066406 175.335938 L -145.5 173.640625 L -130.914062 134.996094 L -127.636719 118.089844 L -126.128906 110.300781 L -125.390625 101.820312 L -124.683594 93.621094 L -123.859375 84.148438 L -123.085938 75.195312 L -121.226562 68.230469 L -117.929688 55.859375 L -81.167969 -9.003906 L -75.976562 -17.121094 L -69.222656 -27.671875 L -25.847656 -104.96875 L -20.203125 -115.339844 L -8.011719 -137.730469 L -7.140625 -168.421875 L -6.53125 -174.695312 L -2.109375 -183.351562 L 38.421875 -258.957031 L 47.097656 -275.457031 L 50.28125 -281.511719 L 65.359375 -317.859375 L 72.960938 -336.292969 L 74.894531 -327.011719 L 77.464844 -314.535156 L 78.644531 -308.367188 L 80.324219 -299.660156 L 85.082031 -275.0625 L 100.390625 -209.71875 L 101.535156 -198.734375 L 102.808594 -186.535156 L 104.070312 -125.507812 L 103.320312 -116.117188 L 102.71875 -108.585938 L 90.929688 -23.351562 L 85.898438 0.21875 L 84.261719 7.890625 L 83.074219 13.453125 L 82.710938 15.261719 L 82.5 16.324219 L 81.714844 18.679688 L 80.714844 21.671875 L 75.417969 37.574219 L 55.992188 79.800781 L 48.871094 164.554688 L 40.90625 259.414062 L 73.980469 439.09375 L 83.296875 484.304688 L 92.941406 531.136719 L 106.261719 580.78125 L 106.675781 627.429688 L 106.972656 660.609375 L 99.183594 710.230469 L 97.378906 725.332031 L 96.707031 730.960938 L 96.175781 735.402344 L 95.949219 739.058594 L 95.796875 741.539062 L 95.398438 744.925781 L 94.894531 749.226562 L 92.8125 766.976562 L 91.605469 803.355469 L 94.550781 859.472656 L 97.1875 909.597656 L 111.785156 979.304688 L 119.679688 1018.8125 L 122.753906 1034.1875 L 125.183594 1046.339844 L 126.082031 1053.09375 L 126.371094 1055.273438 L 129.355469 1077.628906 L 134.90625 1119.253906 L 134.167969 1128.5 L 135.570312 1148.464844 L 128.660156 1168.347656 L 127.628906 1175.445312 L 127.339844 1177.453125 L 127.054688 1179.417969 L 126.835938 1181.125 L 126.332031 1183.046875 L 121.238281 1190.105469 L 106.039062 1213.929688 L 104.757812 1215.9375 L 103.855469 1217.351562 L 103.582031 1217.808594 L 103.074219 1218.527344 L 100.679688 1220.695312 L 98.753906 1222.433594 L 90.164062 1230.214844 L 84.945312 1235.335938 L 84.945312 1247.523438 L 88.390625 1252.421875 L 94.472656 1254.328125 L 94.824219 1254.4375 L 95.085938 1254.445312 L 95.289062 1254.410156 L 96.613281 1257.316406 L 99.566406 1261.625 L 105.300781 1261.625 L 106.597656 1261.46875 L 107.578125 1261.277344 L 109.242188 1262.710938 L 112.390625 1266.734375 L 118.566406 1266.734375 L 121.433594 1265.378906 L 123.210938 1264.300781 L 124.769531 1265.148438 L 127.089844 1266.273438 L 129.023438 1266.671875 L 131.964844 1267.296875 L 134.265625 1265.765625 L 135.871094 1263.824219 L 138.394531 1265.609375 L 142.140625 1267.691406 L 146.660156 1267.691406 L 147.476562 1267.589844 L 148.246094 1267.371094 L 151.003906 1266.613281 L 159.792969 1264.238281 L 163.757812 1263 L 165.535156 1261.515625 L 165.828125 1261.277344 L 174.246094 1254.300781 L 179.226562 1248.707031 L 181.042969 1244.160156 L 183.9375 1236.933594 L 181.90625 1231.164062 L 181.816406 1226.539062 L 181.738281 1222.664062 L 181.488281 1220.574219 L 182.917969 1218.839844 L 183.636719 1217.980469 L 184.1875 1216.867188 L 184.855469 1215.84375 L 188.941406 1209.660156 L 195.9375 1201.960938 L 195.097656 1191.117188 L 193.375 1168.816406 L 192.3125 1154.746094 L 192.339844 1154.328125 L 192.453125 1150.53125 L 195.027344 1130.632812 L 191.691406 1123.125 L 185.988281 1110.292969 L 186.695312 1082.617188 L 188.082031 1065.242188 L 191.414062 1014.210938 L 196.992188 928.792969 L 198.554688 921.632812 L 201.171875 909.632812 L 204.507812 822.539062 L 204.351562 808.304688 L 204.160156 790.996094 L 198.503906 765.859375 L 196.527344 751.441406 L 195.828125 746.359375 L 195.109375 741.097656 L 195.03125 739.511719 L 195.222656 738.132812 L 196.167969 732.667969 L 197.160156 726.898438 L 199.871094 711.222656 L 206.632812 660.835938 L 207.65625 650.515625 L 210.382812 623.089844 L 212.953125 553.988281 L 212.535156 545.175781 L 212.3125 540.453125 L 214.558594 458.292969 L 216.359375 392.273438 L 217.800781 339.566406 L 213.703125 294.042969 L 213.703125 275.617188 L 212.683594 248.355469 L 212.027344 243.429688 L 211.261719 237.691406 L 210.238281 232.8125 L 209.339844 229.175781 L 215.355469 229.949219 L 217.351562 229.976562 L 223.742188 229.175781 L 222.84375 232.816406 L 221.820312 237.6875 L 221.054688 243.429688 L 220.398438 248.355469 L 219.378906 275.617188 L 219.378906 294.050781 L 215.285156 339.660156 L 216.726562 392.453125 L 218.527344 458.398438 L 220.769531 540.464844 L 220.542969 545.179688 L 220.097656 554.675781 L 223.386719 617.695312 L 226.40625 651.296875 L 226.945312 657.277344 L 231.84375 698.039062 L 234 711.636719 L 235.792969 722.957031 L 238.03125 737.046875 L 238.054688 739.289062 L 238.054688 742.355469 L 232.8125 767.851562 L 230.933594 784.027344 L 229.90625 792.886719 L 228.957031 801.050781 L 228.417969 806.097656 L 226.683594 822.375 L 231.957031 909.839844 L 234.53125 921.636719 L 236.097656 928.804688 L 241.675781 1014.28125 L 245.011719 1065.351562 L 246.398438 1082.726562 L 247.085938 1110.328125 L 241.398438 1123.128906 L 238.066406 1130.640625 L 240.636719 1150.542969 L 240.746094 1154.335938 L 240.773438 1154.753906 L 239.714844 1168.828125 L 237.988281 1191.125 L 237.148438 1201.96875 L 244.144531 1209.667969 L 248.230469 1215.851562 L 248.898438 1216.875 L 249.453125 1217.988281 L 250.167969 1218.847656 L 251.601562 1220.582031 L 251.351562 1222.667969 L 251.273438 1226.546875 L 251.183594 1231.171875 L 249.152344 1236.9375 L 252.042969 1244.167969 L 253.863281 1248.710938 L 258.839844 1254.308594 L 267.261719 1261.28125 L 267.554688 1261.523438 L 269.332031 1263.007812 L 273.296875 1264.242188 L 282.089844 1266.621094 L 284.839844 1267.378906 L 285.609375 1267.589844 L 286.429688 1267.699219 L 290.953125 1267.699219 L 294.691406 1265.613281 L 297.21875 1263.832031 L 298.828125 1265.769531 L 301.125 1267.300781 L 304.066406 1266.679688 L 306 1266.28125 L 308.316406 1265.152344 L 309.878906 1264.308594 L 311.652344 1265.386719 L 314.523438 1266.742188 L 320.699219 1266.742188 L 323.847656 1262.714844 L 325.511719 1261.28125 L 326.492188 1261.480469 L 327.789062 1261.632812 L 333.523438 1261.632812 L 336.476562 1257.320312 L 337.800781 1254.417969 L 338.003906 1254.449219 L 338.265625 1254.445312 L 338.617188 1254.335938 L 344.699219 1252.433594 L 348.144531 1247.527344 L 348.144531 1235.339844 L 342.925781 1230.222656 L 334.335938 1222.441406 L 332.410156 1220.703125 L 330.019531 1218.53125 L 329.507812 1217.816406 L 329.234375 1217.359375 L 328.328125 1215.941406 L 327.050781 1213.933594 L 311.851562 1190.109375 L 306.761719 1183.050781 L 306.25 1181.132812 L 306.035156 1179.425781 L 305.75 1177.457031 L 305.460938 1175.453125 L 304.433594 1168.355469 L 297.515625 1148.472656 L 298.921875 1128.503906 L 298.183594 1119.238281 L 303.75 1077.511719 L 306.738281 1055.097656 L 307.007812 1053.09375 L 307.90625 1046.34375 L 310.335938 1034.191406 L 313.410156 1018.808594 L 321.304688 979.308594 L 335.910156 909.601562 L 338.542969 859.476562 L 341.492188 803.378906 L 340.289062 766.992188 L 338.207031 749.238281 L 337.707031 744.941406 L 337.304688 741.539062 L 337.152344 739.058594 L 336.925781 735.398438 L 336.394531 730.96875 L 335.722656 725.359375 L 333.914062 710.257812 L 326.445312 660.632812 L 326.738281 627.429688 L 327.15625 580.789062 L 340.15625 531.136719 L 349.800781 484.304688 L 359.113281 439.097656 L 392.195312 259.421875 L 384.222656 164.554688 L 377.105469 79.828125 L 357.683594 37.589844 L 352.382812 21.691406 L 351.386719 18.695312 L 350.59375 16.324219 L 350.382812 15.261719 L 350.019531 13.453125 L 348.832031 7.875 L 347.191406 0.199219 L 342.15625 -23.363281 L 330.371094 -108.585938 L 329.773438 -116.117188 L 329.023438 -125.488281 L 330.285156 -186.523438 L 331.558594 -198.734375 L 332.710938 -209.777344 L 348.523438 -277.714844 L 352.84375 -300.039062 L 354.453125 -308.367188 L 355.640625 -314.597656 L 358.253906 -327.257812 L 360.191406 -336.566406 L 368.988281 -316.035156 L 388.0625 -271.675781 L 391.339844 -265.453125 L 399.964844 -249.046875 L 438.089844 -185.886719 L 442.304688 -177.984375 L 442.929688 -171.597656 L 443.8125 -141.015625 L 455.972656 -118.683594 L 461.609375 -108.324219 L 504.972656 -31.039062 L 511.746094 -20.457031 L 516.9375 -12.339844 L 553.699219 52.523438 L 556.996094 64.890625 L 558.851562 71.859375 L 559.628906 80.804688 L 560.453125 90.28125 L 561.164062 98.480469 L 561.898438 106.96875 L 563.40625 114.757812 L 566.6875 131.660156 L 580.070312 171.597656 L 580.710938 173.496094 L 580.929688 174.0625 L 588.445312 187.074219 L 592.144531 194.789062 L 594.804688 200.324219 L 613.367188 225.34375 L 616.375 227.851562 L 618.628906 229.730469 L 621.40625 228.601562 L 623.933594 227.296875 L 631.179688 239.632812 L 640.617188 252.753906 L 644.605469 254.246094 L 647.886719 255.476562 L 650.015625 256.609375 L 652.875 254.941406 L 655.140625 258.394531 L 657.953125 261.769531 L 660.679688 264.496094 L 662.199219 265.082031 L 667.585938 265.082031 L 672.984375 262.703125 L 674.171875 256.746094 L 674.941406 252.90625 L 672.867188 244.878906 L 670.390625 238.132812 L 671.90625 237.210938 L 673.679688 235.941406 L 675.378906 234.285156 L 679.441406 230.363281 L 679.25 223.3125 L 671.390625 198.453125 L 668.457031 231.90625 L 667.699219 232.957031 L 667.679688 232.96875 L 663.519531 234.527344 L 665.464844 239.382812 L 668.078125 245.921875 L 669.425781 253.386719 L 669.523438 255.644531 L 669.042969 256.390625 L 667.078125 260.648438 L 662.5 259.539062 L 662.46875 259.535156 L 662.4375 259.539062 L 662.410156 259.535156 L 661.074219 257.964844 L 657.035156 252.605469 L 654.242188 248.246094 L 652.214844 245.089844 L 649.464844 247.21875 L 647.890625 248.4375 L 647.066406 248.417969 L 644.679688 248.417969 L 644.484375 248.371094 L 644.527344 248.417969 L 642.101562 246.777344 L 631.507812 235.671875 L 624.640625 223.792969 L 622.582031 220.230469 L 619.652344 222.664062 L 618.796875 223.390625 L 616.835938 222.300781 L 614.617188 219.800781 L 611.457031 216.371094 L 598.273438 195.046875 L 596.085938 190.488281 L 592.570312 183.164062 L 584.613281 168.671875 L 584.605469 168.671875 L 584.042969 166.480469 L 572.410156 130.691406 L 569.269531 114.488281 L 567.871094 107.273438 L 568.417969 97.21875 L 567.730469 89.304688 L 566.867188 79.328125 L 563.378906 69.90625 L 561.273438 62.007812 L 557.335938 47.246094 L 521.886719 -19.246094 L 517.46875 -26.152344 L 511.125 -36.066406 L 468.089844 -112.675781 L 462.027344 -123.8125 L 449.734375 -146.390625 L 446.839844 -179.726562 L 446.8125 -180.066406 L 446.71875 -181.1875 L 446.214844 -182.125 L 445.875 -182.765625 L 406.683594 -252.921875 L 397.460938 -270.460938 L 394.25 -276.5625 L 373.027344 -325.902344 L 362.253906 -351.144531 L 357.871094 -361.417969 L 355.5 -350.15625 L 355.4375 -349.867188 L 349.375 -321.0625 L 347.359375 -310.476562 L 345.757812 -302.183594 L 340.953125 -277.363281 L 328.199219 -211.445312 L 326.996094 -199.910156 L 325.753906 -187.984375 L 321.660156 -125.921875 L 322.515625 -115.207031 L 323.125 -107.582031 L 331.933594 -35.886719 L 340.144531 2.554688 L 341.769531 10.160156 L 342.949219 15.679688 L 343.308594 17.476562 L 343.65625 19.203125 L 344.449219 21.582031 L 345.652344 25.199219 L 350.839844 40.761719 L 369.964844 82.109375 L 376.96875 165.5 L 384.835938 259.128906 L 351.980469 437.167969 L 342.738281 482.027344 L 332.988281 529.355469 L 321.941406 579.671875 L 321.515625 627.421875 L 321.210938 661.351562 L 326.667969 711.3125 L 328.507812 726.703125 L 329.160156 732.140625 L 329.675781 736.425781 L 329.878906 739.757812 L 330.050781 742.554688 L 330.464844 746.082031 L 330.988281 750.5625 L 333.03125 767.976562 L 334.164062 803.734375 L 331.265625 858.867188 L 328.671875 908.175781 L 314.167969 977.402344 L 306.332031 1016.585938 L 303.21875 1032.164062 L 300.753906 1044.472656 L 299.808594 1051.585938 L 299.542969 1053.585938 L 295.132812 1086.648438 L 290.890625 1119.738281 L 291.664062 1129.402344 L 291.304688 1149.570312 L 300.191406 1170.085938 L 301.28125 1177.574219 L 301.5625 1179.535156 L 301.84375 1181.460938 L 302.09375 1183.355469 L 302.535156 1186.65625 L 306.621094 1191.546875 L 323.542969 1218.054688 L 324.75 1219.960938 L 325.613281 1221.304688 L 325.917969 1221.8125 L 326.808594 1223.292969 L 328.84375 1224.734375 L 332.472656 1228.023438 L 335.417969 1230.699219 L 341.703125 1238.371094 L 342.792969 1240.921875 L 342.648438 1244.53125 L 341.804688 1248.617188 L 338.027344 1248.113281 L 337.742188 1248.078125 L 337.496094 1248.152344 L 337.226562 1248.171875 L 337.914062 1245.496094 L 338.363281 1242.539062 L 337.785156 1240.371094 L 337.433594 1239.066406 L 336.75 1238.089844 L 335.8125 1237.527344 L 331.160156 1234.800781 L 327.152344 1232.300781 L 327.109375 1232.234375 L 322.148438 1227.519531 L 322.339844 1227.804688 L 328.929688 1238.421875 L 334.292969 1241.574219 L 334.765625 1243.207031 L 335.828125 1250.683594 L 332.070312 1253.074219 L 331.757812 1253.835938 L 329.910156 1254.8125 L 328.714844 1254.8125 L 328.414062 1254.796875 L 328.109375 1254.777344 L 329.261719 1251.648438 L 330.136719 1247.78125 L 328.84375 1245.101562 L 327.070312 1241.417969 L 320.980469 1235.710938 L 319.421875 1234.285156 L 316.195312 1231.988281 L 312.421875 1228.023438 L 316.742188 1237.382812 L 317.03125 1237.648438 L 319.796875 1240.136719 L 324.617188 1244.988281 L 325.773438 1247.398438 L 326.257812 1248.402344 L 325.613281 1251.011719 L 324.546875 1253.675781 L 321.953125 1255.199219 L 321.003906 1256.242188 L 319.007812 1257.792969 L 316.941406 1257.792969 L 316.121094 1257.609375 L 315.371094 1257.355469 L 315.6875 1256.847656 L 315.992188 1256.289062 L 316.25 1255.65625 L 317.746094 1252.027344 L 317.613281 1247.457031 L 315.863281 1242.0625 L 314.496094 1237.84375 L 308.085938 1233.039062 L 306.355469 1231.792969 L 302.695312 1230.257812 L 296.742188 1224.542969 L 304.398438 1235.542969 L 307.355469 1237.636719 L 311.847656 1241.558594 L 312.558594 1243.746094 L 313.894531 1247.871094 L 314.070312 1251.199219 L 313.078125 1253.609375 L 312.757812 1254.390625 L 311.066406 1257.308594 L 310.640625 1257.796875 L 307.460938 1260.03125 L 302.910156 1257.851562 L 302.300781 1257.8125 L 301.679688 1256.75 L 301.402344 1255.988281 L 300.632812 1253.890625 L 301.238281 1250.515625 L 301.148438 1246.402344 L 298.589844 1244.078125 L 296.425781 1242.105469 L 292.15625 1242.792969 L 287.632812 1243.523438 L 285.605469 1243.851562 L 282.40625 1244.371094 L 281.023438 1244.117188 L 281.722656 1243.753906 L 281.617188 1242.554688 L 282.253906 1242.410156 L 283.015625 1242.246094 L 284.5625 1241.617188 L 285.035156 1241.421875 L 286.117188 1240.964844 L 289.804688 1240.234375 L 293.171875 1239.9375 L 298.144531 1241.152344 L 296.703125 1238.050781 L 295.628906 1235.757812 L 291.855469 1228.191406 L 288.363281 1227.320312 L 285.5625 1226.617188 L 282.695312 1226.300781 L 282.652344 1226.28125 L 279.476562 1227.027344 L 279.675781 1227.117188 L 284.574219 1230.921875 L 287.660156 1231.695312 L 288.625 1231.933594 L 290.425781 1234.402344 L 292.039062 1237.253906 L 289.332031 1237.550781 L 285.730469 1238.023438 L 284.46875 1238.550781 L 284.125 1238.695312 L 283.617188 1238.792969 L 283.058594 1238.914062 L 281.046875 1239.359375 L 278.539062 1239.914062 L 277.523438 1242.191406 L 277.175781 1242.96875 L 276.875 1244.261719 L 277.421875 1245.960938 L 278.546875 1249.484375 L 282.757812 1248.800781 L 288.097656 1247.949219 L 290.851562 1247.503906 L 295.46875 1246.765625 L 296.488281 1247.6875 L 297.660156 1248.75 L 297.457031 1251.289062 L 297.070312 1253.230469 L 295.992188 1254.21875 L 294.640625 1255.476562 L 290.429688 1258.753906 L 286.960938 1258.753906 L 286.667969 1258.710938 L 286.402344 1258.640625 L 283.613281 1257.878906 L 279.847656 1256.847656 L 272.835938 1254.953125 L 271.464844 1254.023438 L 271.21875 1253.816406 L 270.835938 1253.503906 L 270.488281 1253.191406 L 270.125 1252.894531 L 269.472656 1249.917969 L 269.40625 1243.878906 L 269.945312 1241.164062 L 266.773438 1244.640625 L 266.144531 1251.050781 L 266.378906 1253.324219 L 260.960938 1248.246094 L 258.890625 1241.25 L 258.453125 1240.164062 L 256.359375 1234.914062 L 256.4375 1230.773438 L 256.519531 1226.765625 L 256.589844 1223.085938 L 256.664062 1218.976562 L 254.796875 1214.992188 L 254.59375 1210.050781 L 254.15625 1204.039062 L 253.179688 1201.585938 L 251.386719 1197.125 L 249.597656 1188.933594 L 250.296875 1209.902344 L 247.789062 1205.710938 L 244.703125 1197.316406 L 245.121094 1191.976562 L 246.921875 1168.71875 L 245.761719 1153.753906 L 245.714844 1153.128906 L 245.484375 1144.996094 L 245.917969 1131.378906 L 247.664062 1127.457031 L 254.039062 1113.117188 L 252.421875 1080.242188 L 252.304688 1064.59375 L 252.3125 1064.59375 L 252.3125 1064.566406 L 252.308594 1064.539062 L 252.304688 1064.515625 L 252.304688 1064.488281 L 247.582031 992.136719 L 241.339844 929.089844 L 239.730469 921.71875 L 237.441406 911.226562 L 231.835938 821.71875 L 233.394531 807.097656 L 233.929688 802.085938 L 235.371094 792.996094 L 236.394531 784.175781 L 239.128906 760.628906 L 245.382812 742.734375 L 245.382812 736.5625 L 244.105469 728.226562 L 241.1875 709.84375 L 239.160156 697.050781 L 232.566406 648.867188 L 232.058594 643.273438 L 229.148438 610.820312 L 226.632812 553.128906 L 227.058594 544.074219 L 227.28125 539.300781 L 226.421875 479.042969 L 224.050781 392.136719 L 222.671875 341.605469 L 224.042969 293.882812 L 224.042969 274.742188 L 227.789062 248.621094 L 228.285156 244.917969 L 229.804688 233.515625 L 232.464844 225.773438 L 232.492188 225.695312 L 234.984375 218.53125 L 223.394531 223.976562 L 210.980469 224.351562 L 198.144531 218.53125 L 200.632812 225.695312 L 200.660156 225.769531 L 203.324219 233.515625 L 204.84375 244.917969 L 205.339844 248.617188 L 209.085938 274.738281 L 209.085938 293.875 L 210.457031 341.511719 L 209.078125 391.953125 L 206.703125 478.964844 L 206.832031 538.042969 L 207.058594 542.824219 L 207.453125 551.238281 L 205.003906 619.863281 L 202.390625 646.191406 L 201.402344 656.101562 L 192.5625 710.382812 L 190.042969 724.957031 L 187.875 737.527344 L 187.746094 738.378906 L 187.746094 741.199219 L 188.265625 745.082031 L 189.351562 752.972656 L 191.289062 767.109375 L 198.871094 791.339844 L 199.058594 807.929688 L 199.265625 826.738281 L 195.914062 909.5625 L 193.71875 919.628906 L 192.113281 927.003906 L 185.550781 992.140625 L 180.824219 1064.484375 L 180.714844 1080.105469 L 179.082031 1113.082031 L 185.46875 1127.453125 L 187.214844 1131.375 L 187.652344 1144.992188 L 187.417969 1153.125 L 187.363281 1153.753906 L 186.210938 1168.71875 L 188.007812 1191.972656 L 188.429688 1197.3125 L 185.339844 1205.707031 L 182.835938 1209.898438 L 183.53125 1188.929688 L 181.742188 1197.125 L 179.953125 1201.585938 L 178.976562 1204.03125 L 178.535156 1210.042969 L 178.335938 1214.988281 L 176.464844 1218.972656 L 176.539062 1223.085938 L 176.613281 1226.761719 L 176.691406 1230.765625 L 176.777344 1234.90625 L 174.675781 1240.160156 L 174.242188 1241.246094 L 172.171875 1248.242188 L 166.75 1253.320312 L 166.984375 1251.046875 L 166.355469 1244.636719 L 163.183594 1241.160156 L 163.722656 1243.875 L 163.65625 1249.914062 L 163.007812 1252.890625 L 162.640625 1253.191406 L 162.292969 1253.503906 L 161.90625 1253.8125 L 161.664062 1254.019531 L 160.296875 1254.949219 L 153.285156 1256.847656 L 149.515625 1257.875 L 146.722656 1258.640625 L 146.464844 1258.707031 L 146.167969 1258.75 L 142.699219 1258.75 L 138.488281 1255.472656 L 137.136719 1254.21875 L 136.054688 1253.226562 L 135.667969 1251.285156 L 135.46875 1248.746094 L 136.640625 1247.683594 L 137.660156 1246.761719 L 142.273438 1247.5 L 145.035156 1247.945312 L 150.371094 1248.800781 L 154.582031 1249.484375 L 155.707031 1245.957031 L 156.253906 1244.257812 L 155.953125 1242.96875 L 155.605469 1242.1875 L 154.589844 1239.90625 L 152.082031 1239.351562 L 150.070312 1238.914062 L 149.511719 1238.789062 L 149.007812 1238.691406 L 148.660156 1238.550781 L 147.398438 1238.023438 L 143.792969 1237.546875 L 141.089844 1237.253906 L 142.703125 1234.402344 L 144.503906 1231.929688 L 145.46875 1231.691406 L 148.554688 1230.917969 L 153.453125 1227.113281 L 153.65625 1227.023438 L 150.476562 1226.277344 L 150.433594 1226.296875 L 147.566406 1226.613281 L 144.765625 1227.316406 L 141.273438 1228.1875 L 137.5 1235.753906 L 136.429688 1238.050781 L 134.984375 1241.148438 L 139.957031 1239.933594 L 143.324219 1240.234375 L 147.011719 1240.964844 L 148.09375 1241.417969 L 148.566406 1241.613281 L 150.113281 1242.242188 L 150.875 1242.40625 L 151.511719 1242.550781 L 151.40625 1243.746094 L 152.105469 1244.113281 L 150.71875 1244.367188 L 147.519531 1243.847656 L 145.496094 1243.519531 L 140.976562 1242.789062 L 136.707031 1242.101562 L 134.539062 1244.074219 L 131.984375 1246.398438 L 131.894531 1250.515625 L 132.5 1253.886719 L 131.726562 1255.984375 L 131.449219 1256.75 L 130.824219 1257.808594 L 130.21875 1257.847656 L 125.667969 1260.027344 L 122.492188 1257.796875 L 122.0625 1257.308594 L 120.371094 1254.390625 L 120.050781 1253.605469 L 119.058594 1251.195312 L 119.234375 1247.867188 L 120.574219 1243.742188 L 121.28125 1241.554688 L 125.769531 1237.632812 L 128.730469 1235.542969 L 136.386719 1224.542969 L 130.433594 1230.253906 L 126.777344 1231.789062 L 125.042969 1233.035156 L 118.628906 1237.839844 L 117.265625 1242.058594 L 115.515625 1247.453125 L 115.382812 1252.023438 L 116.875 1255.652344 L 117.132812 1256.28125 L 117.433594 1256.839844 L 117.753906 1257.351562 L 117.003906 1257.605469 L 116.1875 1257.789062 L 114.113281 1257.789062 L 112.121094 1256.238281 L 111.175781 1255.199219 L 108.578125 1253.671875 L 107.515625 1251.007812 L 106.871094 1248.398438 L 107.351562 1247.394531 L 108.511719 1244.984375 L 113.328125 1240.132812 L 116.09375 1237.644531 L 116.382812 1237.378906 L 120.707031 1228.019531 L 116.933594 1231.984375 L 113.707031 1234.28125 L 112.144531 1235.707031 L 106.054688 1241.414062 L 104.285156 1245.097656 L 102.992188 1247.78125 L 103.867188 1251.644531 L 105.019531 1254.773438 L 104.710938 1254.792969 L 104.40625 1254.808594 L 103.214844 1254.808594 L 101.367188 1253.832031 L 101.054688 1253.070312 L 97.296875 1250.679688 L 98.359375 1243.203125 L 98.835938 1241.570312 L 104.195312 1238.417969 L 110.78125 1227.800781 L 110.976562 1227.515625 L 106.015625 1232.230469 L 105.972656 1232.296875 L 101.964844 1234.796875 L 97.3125 1237.527344 L 96.371094 1238.085938 L 95.691406 1239.0625 L 95.339844 1240.367188 L 94.765625 1242.535156 L 95.210938 1245.492188 L 95.898438 1248.167969 L 95.632812 1248.148438 L 95.386719 1248.078125 L 95.097656 1248.109375 L 91.324219 1248.609375 L 90.476562 1244.527344 L 90.332031 1240.917969 L 91.421875 1238.367188 L 97.710938 1230.695312 L 100.652344 1228.019531 L 104.285156 1224.730469 L 106.316406 1223.292969 L 107.511719 1221.300781 L 108.375 1219.957031 L 109.585938 1218.050781 L 126.503906 1191.542969 L 130.589844 1186.652344 L 131.027344 1183.351562 L 131.28125 1181.457031 L 131.5625 1179.53125 L 131.847656 1177.570312 L 132.933594 1170.082031 L 141.824219 1149.570312 L 141.464844 1129.398438 L 142.234375 1119.753906 L 138.003906 1086.75 L 133.605469 1053.761719 L 133.316406 1051.589844 L 132.371094 1044.46875 L 129.910156 1032.167969 L 126.796875 1016.589844 L 118.964844 977.40625 L 104.460938 908.175781 L 101.871094 858.867188 L 98.972656 803.71875 L 100.105469 767.957031 L 102.148438 750.539062 L 102.671875 746.070312 L 103.085938 742.542969 L 103.257812 739.753906 L 103.464844 736.414062 L 103.980469 732.117188 L 104.632812 726.671875 L 106.472656 711.28125 L 111.921875 661.324219 L 111.621094 627.414062 L 111.195312 579.660156 L 100.148438 529.351562 L 90.398438 482.019531 L 81.15625 437.160156 L 48.304688 259.117188 L 56.164062 165.496094 L 63.171875 82.074219 L 82.296875 40.738281 L 87.488281 25.179688 L 88.6875 21.578125 L 89.484375 19.191406 L 89.828125 17.46875 L 90.1875 15.671875 L 91.363281 10.164062 L 92.988281 2.5625 L 101.199219 -35.878906 L 110.011719 -107.589844 L 110.617188 -115.207031 L 111.476562 -125.953125 L 107.382812 -188 L 106.136719 -199.917969 L 105.078125 -210.085938 L 95.59375 -259.710938 L 87.449219 -301.808594 L 85.777344 -310.484375 L 83.722656 -321.292969 L 77.972656 -348.574219 L 77.605469 -350.320312 L 77.613281 -350.277344 L 77.621094 -350.242188 L 77.640625 -350.164062 L 75.207031 -361.703125 L 70.855469 -351.085938 L 61.933594 -329.316406 L 44.214844 -286.550781 L 41.019531 -280.476562 L 31.777344 -262.902344 L -10.050781 -179.496094 L -10.449219 -178.722656 L -10.914062 -177.8125 L -11 -176.734375 L -11.027344 -176.402344 L -13.890625 -143.121094 L -26.214844 -120.484375 L -32.28125 -109.332031 L -75.328125 -32.710938 L -81.65625 -22.828125 L -86.074219 -15.921875 L -121.527344 50.574219 L -125.464844 65.339844 L -127.566406 73.234375 L -128.378906 82.585938 L -129.242188 92.5625 L -129.929688 100.46875 L -130.636719 108.648438 L -132.039062 115.863281 L -135.179688 132.058594 L -149.820312 171.714844 L -151.503906 172.875 L -151.558594 173.003906 L -154.964844 186.875 L -158.488281 194.21875 L -160.6875 198.804688 L -174.828125 222.398438 L -177.828125 225.625 L -178.675781 225.535156 L -182.351562 225.546875 L -183.347656 224.722656 L -186.273438 222.289062 L -188.335938 225.851562 L -195.21875 237.765625 L -206.34375 250.179688 L -208.515625 251.652344 L -208.628906 251.691406 L -208.832031 251.742188 L -211.253906 251.742188 L -213.164062 252.113281 L -214.726562 250.902344 L -216.398438 248.414062 L -218.429688 251.585938 L -221.222656 255.941406 L -223.171875 260.351562 L -226.285156 262.019531 L -228.507812 263.683594 L -231.816406 259.71875 L -232.300781 258.976562 L -232.199219 256.714844 L -229.953125 249.390625 L -227.335938 242.84375 L -225.417969 238.015625 L -229.542969 236.429688 L -229.578125 236.417969 L -232.640625 235.226562 L -235.527344 232.640625 L -235.707031 230.242188 L -234.5625 223.410156 L -228.765625 205.082031 L -228.242188 203.4375 L -227.824219 202.113281 L -227.578125 201.261719 L -225.960938 195.695312 L -213.9375 157.882812 L -212.601562 153.707031 L -210.089844 145.84375 L -208.4375 136.644531 L -208.367188 136.261719 L -206.664062 126.691406 L -212.503906 133.644531 L -218.0625 138.925781 L -221.601562 139.605469 L -222.949219 139.761719 L -223.730469 139.714844 L -229.84375 138.648438 L -231.398438 135.867188 L -232.957031 133.085938 L -223.050781 123.191406 L -219.171875 116.140625 L -216.160156 110.660156 L -212.941406 104.640625 L -211.835938 102.867188 L -210.976562 101.480469 L -210.316406 99.964844 L -209.613281 98.355469 L -207.613281 93.757812 L -204.515625 89.683594 L -194.386719 80.640625 L -182.066406 69.640625 L -172.375 55.191406 L -165.734375 47.429688 L -164.644531 46.152344 L -163.730469 45.085938 L -163.019531 44.269531 L -157.21875 37.628906 L -119.0625 -53.710938 L -115.78125 -65.113281 L -112.160156 -77.6875 L -81.53125 -167.277344 L -76.085938 -178.464844 L -70.671875 -189.578125 L -54 -211.460938 L -53.832031 -211.679688 L -53.421875 -212.226562 L -53.167969 -212.902344 L -52.964844 -213.445312 L -30.121094 -274.015625 L -22.1875 -290.886719 L -13.941406 -308.394531 L 0.597656 -353.226562 L 3.277344 -362.714844 L 4.015625 -365.34375 L 4.492188 -368.21875 L 5.148438 -372.210938 L 6.875 -382.730469 L 9.773438 -400.335938 L 21.511719 -439.230469 L 35.277344 -484.820312 L 57.316406 -494.796875 L 66.726562 -499.054688 L 68.09375 -499.671875 L 69.195312 -500.175781 L 69.96875 -500.632812 L 74.039062 -503.007812 L 106.585938 -509.125 L 126.148438 -512.425781 L 126.871094 -512.644531 L 127.660156 -512.992188 L 146.230469 -521.1875 L 152.050781 -524.824219 L 154.054688 -526.078125 L 171.71875 -537.457031 L 175.019531 -551.226562 L 177.558594 -561.804688 L 176.152344 -606.851562 L 175.984375 -611.953125 L 175.945312 -613.054688 L 175.507812 -614.015625 L 175.433594 -614.1875 L 164.941406 -631.46875 L 162.65625 -640.53125 L 160.796875 -647.894531 L 158.53125 -672.011719 L 158.480469 -672.253906 L 157.359375 -677.738281 L 153.308594 -675.207031 L 152.617188 -674.773438 L 150.785156 -673.855469 L 149.503906 -673.703125 L 147.734375 -677.003906 L 141.820312 -689.601562 L 141.71875 -692.257812 L 141.925781 -699.132812 L 141.410156 -705.257812 L 140.996094 -710.183594 L 140.71875 -713.5 L 143.035156 -717.628906 L 143.238281 -718.488281 L 143.78125 -719.261719 L 146.464844 -720.179688 L 148.648438 -720.34375 L 152.335938 -720.597656 L 152.089844 -725.207031 L 151.273438 -740.441406 L 150.871094 -747.550781 L 150.667969 -751.097656 L 146.671875 -783.046875 L 162.175781 -811.097656 L 181.21875 -845.539062 L 216.285156 -849.707031 L 216.539062 -849.714844 L 216.867188 -849.710938 L 251.933594 -845.542969 L 270.972656 -811.097656 L 286.472656 -783.058594 L 282.480469 -751.101562 L 282.28125 -747.554688 L 281.871094 -740.445312 L 281.058594 -725.210938 L 280.824219 -720.621094 L 284.492188 -720.347656 L 286.683594 -720.183594 L 289.367188 -719.265625 L 289.804688 -718.742188 L 290.113281 -717.636719 L 292.429688 -713.507812 L 292.15625 -710.191406 L 291.738281 -705.265625 L 291.222656 -699.136719 L 291.4375 -692.375 L 291.332031 -689.625 L 285.4375 -677.113281 L 283.667969 -673.75 L 282.546875 -673.820312 L 280.78125 -674.628906 L 279.84375 -675.210938 L 275.789062 -677.742188 L 274.667969 -672.253906 L 274.617188 -672.011719 L 272.351562 -647.898438 L 270.492188 -640.53125 L 268.203125 -631.46875 L 257.71875 -614.1875 L 257.636719 -614.015625 L 257.207031 -613.050781 L 257.167969 -611.953125 L 257 -606.851562 L 255.589844 -561.804688 L 258.125 -551.226562 L 261.433594 -537.457031 L 279.097656 -526.078125 L 281.097656 -524.828125 L 286.917969 -521.1875 L 305.492188 -512.992188 L 306.273438 -512.644531 L 307.003906 -512.425781 L 326.5625 -509.125 L 359.113281 -503.007812 L 363.1875 -500.632812 L 363.960938 -500.179688 L 365.0625 -499.671875 L 366.429688 -499.054688 L 375.839844 -494.792969 L 397.882812 -484.820312 L 411.640625 -439.230469 L 423.386719 -400.328125 L 426.28125 -382.722656 L 428.011719 -372.203125 L 428.664062 -368.21875 L 429.140625 -365.34375 L 429.882812 -362.714844 L 432.285156 -354.183594 L 452.449219 -298.367188 L 460.683594 -280.882812 L 468.609375 -264.03125 L 488.835938 -216.691406 L 488.984375 -216.28125 L 489.242188 -215.578125 L 489.664062 -215.027344 L 489.832031 -214.804688 L 506.503906 -192.917969 L 511.914062 -181.808594 L 517.351562 -170.644531 L 547.988281 -81.042969 L 551.613281 -68.453125 L 554.894531 -57.050781 L 593.054688 34.285156 L 598.851562 40.929688 L 599.558594 41.738281 L 600.46875 42.800781 L 601.554688 44.066406 L 608.199219 51.835938 L 619.445312 65.734375 L 631.773438 76.742188 L 641.902344 85.785156 L 644.644531 92.085938 L 646.648438 96.679688 L 647.34375 98.289062 L 648.007812 99.808594 L 648.867188 101.195312 L 649.972656 102.964844 L 651.265625 108.703125 L 654.277344 114.183594 L 658.160156 121.234375 L 664.648438 128.359375 L 666.648438 132.253906 L 667.097656 134.679688 L 663.980469 137.808594 L 659.3125 136.695312 L 657.855469 136.539062 L 650.054688 131.902344 L 648.417969 128.921875 L 642.488281 123.34375 L 645.308594 132.253906 L 646.640625 133.523438 L 648.796875 141.613281 L 651.308594 149.480469 L 652.984375 154.714844 L 664.210938 190.292969 L 665.757812 195.609375 L 666.003906 196.460938 L 666.425781 197.800781 L 666.957031 199.476562 L 672.730469 217.792969 L 671.527344 226.925781 L 671.34375 229.316406 Z M 670.890625 196.882812 "/>
<path style="fill-rule:nonzero;fill:rgb(85.098039%,37.254902%,0.784314%);fill-opacity:1;stroke-width:0.426791;stroke-linecap:round;stroke-linejoin:round;stroke:rgb(0%,0%,0%);stroke-opacity:1;stroke-miterlimit:10;" d="M 227.480469 112.246094 L 232.039062 116.3125 L 234.527344 118.488281 L 237.210938 121.355469 L 228.148438 123.683594 L 227.855469 124.160156 L 227.230469 119.824219 L 213.535156 114.042969 Z M 227.480469 112.246094 "/>
<path style="fill-rule:nonzero;fill:rgb(85.098039%,37.254902%,0.784314%);fill-opacity:1;stroke-width:0.426791;stroke-linecap:round;stroke-linejoin:round;stroke:rgb(0%,0%,0%);stroke-opacity:1;stroke-miterlimit:10;" d="M 217.734375 169.132812 L 218.042969 168.636719 L 218.417969 168.0625 L 219.101562 167.015625 L 219.878906 164.421875 L 223.210938 153.300781 L 226.621094 138.046875 L 228.570312 125.550781 L 228.753906 124.371094 L 228.980469 123.203125 L 229.074219 122.953125 L 229.929688 120.640625 L 232.992188 118.242188 L 238.195312 115.8125 L 239.925781 115.003906 L 239.875 115.03125 L 239.804688 114.945312 L 239.777344 114.902344 L 239.449219 114.988281 L 239.078125 115.105469 L 238.59375 115.265625 L 238.050781 115.34375 L 237.195312 115.382812 L 235.511719 115.449219 L 234.402344 115.222656 L 232.851562 114.4375 L 230.894531 113.453125 L 226.742188 112.621094 L 221.851562 112.242188 L 219.738281 112.074219 L 212.691406 112.074219 L 210.316406 112.234375 L 205.476562 112.570312 L 201.992188 113.0625 L 201.066406 113.542969 L 198.460938 114.894531 L 195.910156 115.28125 L 193.140625 114.742188 L 192.25 114.570312 L 192.304688 114.574219 L 192.304688 114.742188 L 192.570312 114.828125 L 192.894531 114.894531 L 197.039062 115.761719 L 201.851562 118.40625 L 204.425781 121.226562 L 205.066406 121.933594 L 205.75 122.941406 L 205.898438 123.40625 L 205.949219 123.570312 L 206.164062 124.804688 L 206.371094 126.148438 L 208.148438 137.679688 L 210.941406 151.691406 L 213.5 161.914062 L 214.578125 166.226562 L 214.664062 166.488281 L 215.335938 167.757812 L 215.675781 168.390625 L 215.933594 168.933594 L 215.914062 168.960938 L 215.835938 169.050781 L 213.730469 166.832031 L 213.546875 166.460938 L 213.070312 165.507812 L 211.9375 162.871094 L 210.871094 160.230469 L 206.582031 149.601562 L 203.101562 137.65625 L 200.792969 125.625 L 200.46875 123.9375 L 200.21875 122.859375 L 200.058594 122.464844 L 198.558594 118.777344 L 194.816406 115.753906 L 190.144531 114.453125 L 189.246094 114.207031 L 190.304688 114.140625 L 194.015625 113.894531 L 197.160156 113.085938 L 199.070312 111.890625 L 201.644531 110.273438 L 205.636719 108.910156 L 209.625 108.28125 L 211.695312 107.957031 L 212.664062 107.863281 L 214.859375 107.773438 L 219.945312 107.5625 L 224.8125 108.109375 L 228.894531 109.34375 L 230.878906 109.949219 L 233.953125 111.292969 L 234.835938 111.945312 L 235.199219 112.214844 L 236.566406 112.800781 L 237.535156 113.109375 L 239.171875 113.625 L 241.21875 113.980469 L 243.535156 114.144531 L 244.117188 114.199219 L 244.5 114.234375 L 244.390625 114.261719 L 243.496094 114.425781 L 241.078125 115.351562 L 239.835938 116.003906 L 237.816406 117.0625 L 235.8125 118.902344 L 234.683594 120.726562 L 233.792969 122.167969 L 233.539062 122.921875 L 233.015625 125.695312 L 230.695312 137.988281 L 226.851562 150.929688 L 222.226562 162.027344 L 221.738281 163.199219 L 221.066406 164.753906 L 220.734375 165.484375 L 220.164062 166.726562 L 220.082031 166.855469 L 219.398438 167.550781 L 218.277344 168.699219 L 217.734375 169.222656 Z M 217.734375 169.132812 "/>
<path style="fill-rule:nonzero;fill:rgb(85.098039%,37.254902%,0.784314%);fill-opacity:1;stroke-width:0.426791;stroke-linecap:round;stroke-linejoin:round;stroke:rgb(0%,0%,0%);stroke-opacity:1;stroke-miterlimit:10;" d="M 216.269531 205.953125 L 215.339844 205.738281 L 214.90625 205.421875 L 214.777344 205.324219 L 214.734375 205.257812 L 214.625 204.964844 L 214.242188 203.949219 L 214.117188 202.839844 L 214.03125 199.757812 L 213.710938 188.464844 L 212.792969 179.785156 L 211.261719 173.640625 L 211.140625 173.148438 L 211.03125 172.703125 L 211.019531 172.65625 L 211.003906 172.582031 L 211.011719 172.582031 L 211.117188 172.679688 L 212.078125 173.59375 L 213.144531 174.074219 L 215.03125 174.441406 L 216.214844 174.671875 L 217.21875 174.761719 L 219.125 174.761719 L 219.800781 174.738281 L 220.0625 174.71875 L 221.6875 174.574219 L 223.117188 174.273438 L 224.160156 173.863281 L 224.683594 173.65625 L 225.460938 173.1875 L 225.824219 172.863281 L 225.96875 172.734375 L 226.09375 172.632812 L 226.101562 172.640625 L 226.109375 172.652344 L 226.074219 172.800781 L 226.027344 172.972656 L 225.601562 174.535156 L 225.050781 177.253906 L 224.695312 179.554688 L 223.847656 185.066406 L 223.324219 191.644531 L 223.097656 199.625 L 223.070312 200.65625 L 223.03125 201.730469 L 223.011719 202.011719 L 222.894531 203.773438 L 222.59375 205.097656 L 222.246094 205.394531 L 221.675781 205.882812 L 219.597656 206.167969 L 217.566406 206.035156 Z M 216.269531 205.953125 "/>
<path style="fill-rule:nonzero;fill:rgb(85.098039%,37.254902%,0.784314%);fill-opacity:1;stroke-width:0.426791;stroke-linecap:round;stroke-linejoin:round;stroke:rgb(0%,0%,0%);stroke-opacity:1;stroke-miterlimit:10;" d="M 170.6875 146.324219 L 170.382812 146.472656 L 170.0625 146.578125 L 169.730469 146.648438 L 169.386719 146.675781 L 169.039062 146.660156 L 168.679688 146.605469 L 168.3125 146.511719 L 167.945312 146.378906 L 167.574219 146.203125 L 167.199219 145.992188 L 166.824219 145.738281 L 166.449219 145.453125 L 166.082031 145.128906 L 165.714844 144.769531 L 165.351562 144.378906 L 165 143.957031 L 164.652344 143.503906 L 164.316406 143.019531 L 163.992188 142.511719 L 163.679688 141.980469 L 163.382812 141.425781 L 163.097656 140.855469 L 162.832031 140.261719 L 162.578125 139.65625 L 162.347656 139.035156 L 162.132812 138.402344 L 161.9375 137.765625 L 161.765625 137.121094 L 161.609375 136.472656 L 161.480469 135.828125 L 161.371094 135.179688 L 161.285156 134.539062 L 161.222656 133.90625 L 161.183594 133.28125 L 161.167969 132.671875 L 161.171875 132.074219 L 161.203125 131.492188 L 161.257812 130.933594 L 161.335938 130.390625 L 161.4375 129.875 L 161.558594 129.386719 L 161.703125 128.921875 L 161.871094 128.488281 L 162.054688 128.085938 L 162.261719 127.71875 L 162.488281 127.382812 L 162.734375 127.082031 L 162.996094 126.816406 L 163.273438 126.589844 L 163.566406 126.402344 L 163.871094 126.257812 L 164.191406 126.148438 L 164.523438 126.082031 L 164.867188 126.054688 L 165.21875 126.066406 L 165.574219 126.121094 L 165.941406 126.214844 L 166.308594 126.347656 L 166.683594 126.523438 L 167.054688 126.734375 L 167.429688 126.988281 L 167.804688 127.273438 L 168.175781 127.597656 L 168.539062 127.957031 L 168.902344 128.347656 L 169.253906 128.773438 L 169.601562 129.226562 L 169.9375 129.707031 L 170.261719 130.214844 L 170.574219 130.746094 L 170.871094 131.300781 L 171.15625 131.875 L 171.421875 132.464844 L 171.675781 133.074219 L 171.90625 133.691406 L 172.121094 134.324219 L 172.316406 134.960938 L 172.492188 135.605469 L 172.644531 136.253906 L 172.773438 136.902344 L 172.882812 137.546875 L 172.96875 138.1875 L 173.03125 138.820312 L 173.070312 139.445312 L 173.089844 140.058594 L 173.082031 140.652344 L 173.050781 141.234375 L 172.996094 141.796875 L 172.917969 142.335938 L 172.820312 142.851562 L 172.695312 143.339844 L 172.550781 143.804688 L 172.386719 144.238281 L 172.199219 144.640625 L 171.992188 145.011719 L 171.765625 145.347656 L 171.519531 145.644531 L 171.261719 145.910156 L 170.980469 146.136719 Z M 182.320312 131.90625 L 181.71875 132.238281 L 181.117188 132.566406 L 180.523438 132.886719 L 179.929688 133.203125 L 179.347656 133.507812 L 178.773438 133.800781 L 178.214844 134.085938 L 177.667969 134.355469 L 177.140625 134.613281 L 176.632812 134.855469 L 176.144531 135.082031 L 175.679688 135.292969 L 175.238281 135.484375 L 174.824219 135.660156 L 174.4375 135.816406 L 174.082031 135.953125 L 173.757812 136.070312 L 173.464844 136.167969 L 173.207031 136.242188 L 172.980469 136.296875 L 172.792969 136.332031 L 172.640625 136.34375 L 172.523438 136.332031 L 172.445312 136.304688 L 172.402344 136.25 L 172.398438 136.179688 L 172.433594 136.085938 L 172.503906 135.96875 L 172.613281 135.835938 L 172.761719 135.683594 L 172.941406 135.507812 L 173.160156 135.320312 L 173.414062 135.109375 L 173.699219 134.886719 L 174.019531 134.644531 L 174.371094 134.390625 L 174.75 134.121094 L 175.160156 133.839844 L 175.59375 133.546875 L 176.054688 133.242188 L 176.539062 132.929688 L 177.046875 132.609375 L 177.570312 132.28125 L 178.113281 131.949219 L 178.671875 131.613281 L 179.242188 131.273438 L 179.820312 130.933594 L 180.410156 130.589844 L 181.007812 130.25 L 181.609375 129.914062 L 182.207031 129.578125 L 182.808594 129.25 L 183.40625 128.929688 L 183.996094 128.617188 L 184.578125 128.3125 L 185.152344 128.015625 L 185.710938 127.734375 L 186.257812 127.460938 L 186.785156 127.207031 L 187.296875 126.964844 L 187.785156 126.738281 L 188.25 126.527344 L 188.691406 126.332031 L 189.105469 126.15625 L 189.488281 126 L 189.84375 125.863281 L 190.171875 125.746094 L 190.464844 125.652344 L 190.722656 125.574219 L 190.945312 125.519531 L 191.136719 125.488281 L 191.289062 125.476562 L 191.40625 125.484375 L 191.484375 125.515625 L 191.523438 125.566406 L 191.527344 125.640625 L 191.492188 125.734375 L 191.421875 125.847656 L 191.3125 125.984375 L 191.167969 126.136719 L 190.984375 126.308594 L 190.765625 126.5 L 190.511719 126.707031 L 190.226562 126.933594 L 189.90625 127.171875 L 189.558594 127.425781 L 189.175781 127.695312 L 188.769531 127.976562 L 188.332031 128.269531 L 187.871094 128.574219 L 187.386719 128.886719 L 186.882812 129.207031 L 186.355469 129.535156 L 185.8125 129.867188 L 185.257812 130.207031 L 184.6875 130.546875 L 184.105469 130.886719 L 183.515625 131.226562 Z M 264.730469 146.285156 L 264.441406 146.09375 L 264.164062 145.863281 L 263.902344 145.597656 L 263.660156 145.292969 L 263.4375 144.957031 L 263.234375 144.582031 L 263.050781 144.179688 L 262.886719 143.742188 L 262.746094 143.28125 L 262.625 142.789062 L 262.53125 142.269531 L 262.457031 141.730469 L 262.40625 141.167969 L 262.378906 140.585938 L 262.375 139.992188 L 262.398438 139.378906 L 262.441406 138.753906 L 262.507812 138.121094 L 262.601562 137.484375 L 262.714844 136.839844 L 262.847656 136.191406 L 263.007812 135.546875 L 263.183594 134.90625 L 263.382812 134.269531 L 263.601562 133.640625 L 263.839844 133.023438 L 264.09375 132.417969 L 264.367188 131.828125 L 264.65625 131.257812 L 264.957031 130.707031 L 265.273438 130.179688 L 265.601562 129.675781 L 265.941406 129.199219 L 266.289062 128.75 L 266.644531 128.328125 L 267.011719 127.941406 L 267.378906 127.585938 L 267.75 127.269531 L 268.128906 126.984375 L 268.503906 126.738281 L 268.878906 126.527344 L 269.253906 126.359375 L 269.621094 126.226562 L 269.988281 126.136719 L 270.347656 126.085938 L 270.695312 126.078125 L 271.039062 126.109375 L 271.371094 126.179688 L 271.6875 126.292969 L 271.996094 126.445312 L 272.289062 126.632812 L 272.5625 126.863281 L 272.824219 127.128906 L 273.066406 127.433594 L 273.289062 127.769531 L 273.492188 128.144531 L 273.675781 128.546875 L 273.839844 128.984375 L 273.980469 129.449219 L 274.101562 129.941406 L 274.195312 130.457031 L 274.269531 130.996094 L 274.320312 131.558594 L 274.347656 132.140625 L 274.351562 132.738281 L 274.328125 133.347656 L 274.285156 133.972656 L 274.21875 134.605469 L 274.128906 135.246094 L 274.015625 135.890625 L 273.878906 136.535156 L 273.722656 137.179688 L 273.542969 137.824219 L 273.34375 138.460938 L 273.125 139.085938 L 272.886719 139.703125 L 272.632812 140.308594 L 272.359375 140.898438 L 272.070312 141.46875 L 271.769531 142.019531 L 271.453125 142.546875 L 271.125 143.050781 L 270.785156 143.53125 L 270.4375 143.980469 L 270.082031 144.398438 L 269.71875 144.785156 L 269.347656 145.140625 L 268.976562 145.460938 L 268.601562 145.742188 L 268.222656 145.988281 L 267.847656 146.199219 L 267.476562 146.367188 L 267.105469 146.5 L 266.738281 146.589844 L 266.382812 146.640625 L 266.03125 146.648438 L 265.6875 146.617188 L 265.355469 146.546875 L 265.039062 146.433594 Z M 253.164062 131.902344 L 252.566406 131.558594 L 251.972656 131.210938 L 251.386719 130.863281 L 250.808594 130.515625 L 250.238281 130.167969 L 249.683594 129.824219 L 249.144531 129.488281 L 248.621094 129.152344 L 248.117188 128.828125 L 247.636719 128.507812 L 247.175781 128.199219 L 246.742188 127.902344 L 246.335938 127.617188 L 245.957031 127.34375 L 245.609375 127.085938 L 245.292969 126.839844 L 245.007812 126.613281 L 244.757812 126.402344 L 244.539062 126.210938 L 244.359375 126.035156 L 244.214844 125.878906 L 244.105469 125.742188 L 244.035156 125.628906 L 244 125.535156 L 244.003906 125.460938 L 244.046875 125.410156 L 244.125 125.378906 L 244.242188 125.371094 L 244.394531 125.386719 L 244.582031 125.421875 L 244.808594 125.480469 L 245.066406 125.558594 L 245.355469 125.65625 L 245.679688 125.777344 L 246.035156 125.917969 L 246.421875 126.078125 L 246.835938 126.257812 L 247.273438 126.457031 L 247.738281 126.671875 L 248.222656 126.90625 L 248.730469 127.152344 L 249.257812 127.414062 L 249.800781 127.691406 L 250.359375 127.980469 L 250.929688 128.28125 L 251.511719 128.59375 L 252.101562 128.914062 L 252.695312 129.242188 L 253.292969 129.578125 L 253.890625 129.917969 L 254.488281 130.261719 L 255.082031 130.609375 L 255.667969 130.957031 L 256.246094 131.304688 L 256.816406 131.648438 L 257.371094 131.992188 L 257.910156 132.332031 L 258.433594 132.664062 L 258.9375 132.992188 L 259.417969 133.308594 L 259.878906 133.617188 L 260.3125 133.914062 L 260.71875 134.203125 L 261.097656 134.472656 L 261.445312 134.734375 L 261.761719 134.976562 L 262.046875 135.207031 L 262.296875 135.414062 L 262.515625 135.609375 L 262.695312 135.785156 L 262.839844 135.9375 L 262.949219 136.074219 L 263.019531 136.191406 L 263.054688 136.285156 L 263.050781 136.355469 L 263.007812 136.410156 L 262.929688 136.4375 L 262.8125 136.445312 L 262.660156 136.433594 L 262.472656 136.398438 L 262.246094 136.339844 L 261.988281 136.261719 L 261.695312 136.160156 L 261.375 136.039062 L 261.019531 135.898438 L 260.632812 135.738281 L 260.21875 135.558594 L 259.78125 135.363281 L 259.316406 135.144531 L 258.832031 134.914062 L 258.324219 134.664062 L 257.796875 134.402344 L 257.253906 134.125 L 256.695312 133.835938 L 256.125 133.535156 L 255.542969 133.226562 L 254.953125 132.902344 L 254.359375 132.574219 L 253.761719 132.242188 Z M 253.164062 131.902344 "/>
<path style="fill-rule:nonzero;fill:rgb(85.098039%,37.254902%,0.784314%);fill-opacity:1;stroke-width:0.426791;stroke-linecap:round;stroke-linejoin:round;stroke:rgb(0%,0%,0%);stroke-opacity:1;stroke-miterlimit:10;" d="M 189.804688 118.011719 L 188.867188 117.421875 L 186.996094 115.195312 L 148.644531 70.890625 L 157.648438 115.839844 L 158.195312 118.382812 L 159.101562 121.945312 L 158.230469 126.394531 L 157.058594 130.398438 L 160.203125 129.996094 L 160.351562 128.324219 L 160.160156 125.429688 L 161.507812 126.636719 L 162.859375 128.804688 L 163.824219 127.117188 L 164.402344 126.152344 L 164.039062 125.164062 L 164.230469 122.269531 L 165.589844 124.652344 L 167.601562 126.777344 L 167.710938 124 L 167.710938 122.9375 L 167.15625 121.804688 L 167.203125 121.128906 L 168.429688 121.640625 L 169.113281 121.980469 L 170.273438 122.578125 L 172.179688 123.34375 L 172.386719 121.296875 L 172.386719 120.277344 L 171.566406 119.765625 L 164.679688 119.167969 L 162.839844 113.203125 L 155.613281 87.632812 L 179.449219 111.183594 L 182 114.054688 L 184.027344 116.054688 L 187.363281 120.292969 L 189.429688 120.871094 L 192.089844 121.128906 L 194.886719 119.59375 L 193.113281 117.976562 L 192.171875 117.957031 Z M 246.054688 118.011719 L 246.996094 117.421875 L 248.863281 115.195312 L 287.21875 70.890625 L 278.210938 115.839844 L 277.667969 118.382812 L 276.757812 121.945312 L 277.632812 126.394531 L 278.800781 130.398438 L 275.660156 129.996094 L 275.511719 128.324219 L 275.703125 125.429688 L 274.355469 126.636719 L 273.003906 128.804688 L 272.039062 127.117188 L 271.460938 126.152344 L 271.824219 125.164062 L 271.632812 122.269531 L 270.269531 124.652344 L 268.261719 126.777344 L 268.148438 124 L 268.148438 122.9375 L 268.707031 121.804688 L 268.660156 121.128906 L 267.429688 121.640625 L 266.75 121.980469 L 265.589844 122.578125 L 263.679688 123.34375 L 263.476562 121.296875 L 263.476562 120.277344 L 264.296875 119.765625 L 271.179688 119.167969 L 273.023438 113.203125 L 280.25 87.632812 L 256.414062 111.183594 L 253.863281 114.054688 L 251.832031 116.054688 L 248.5 120.292969 L 246.429688 120.871094 L 243.773438 121.128906 L 240.976562 119.59375 L 242.75 117.976562 L 243.691406 117.957031 Z M 246.054688 118.011719 "/>
<path style="fill-rule:nonzero;fill:rgb(85.098039%,37.254902%,0.784314%);fill-opacity:1;stroke-width:0.426791;stroke-linecap:round;stroke-linejoin:round;stroke:rgb(0%,0%,0%);stroke-opacity:1;stroke-miterlimit:10;" d="M 229.582031 170.457031 L 229.730469 170.1875 L 230.695312 168.933594 L 233.847656 164.832031 L 237 158.414062 L 239.167969 151.679688 L 242.199219 142.25 L 243.71875 132.59375 L 244.070312 120.5 L 244.132812 118.230469 L 243.757812 118.316406 L 243.339844 118.414062 L 242.261719 118.8125 L 241.3125 119.222656 L 240.359375 119.636719 L 238.421875 120.90625 L 237.539062 121.695312 L 235.957031 123.109375 L 234.625 125.027344 L 234.175781 126.527344 L 234.0625 126.902344 L 233.644531 128.789062 L 233.25 130.714844 L 230.730469 142.949219 L 227.6875 153.273438 L 223.582031 163.542969 L 221.882812 167.785156 L 221.023438 169.691406 L 219.996094 171.480469 L 225.625 171.617188 L 224.890625 171.511719 L 229.261719 171.542969 Z M 191.777344 116.070312 L 192.941406 113.933594 L 193.566406 112.886719 L 196.222656 108.476562 L 199.628906 104.589844 L 203.0625 102.0625 L 206.578125 99.476562 L 210.636719 97.789062 L 214.242188 97.421875 L 215.328125 97.308594 L 219.347656 97.3125 L 220.449219 97.421875 L 222.046875 97.585938 L 223.691406 97.996094 L 225.5625 98.703125 L 232.199219 101.210938 L 238.195312 107.09375 L 242.535156 115.359375 L 243.445312 117.085938 L 243.566406 117.363281 L 243.214844 117.363281 L 240.21875 116.757812 L 239.164062 116.5 L 237.042969 115.984375 L 236.078125 115.625 L 235.289062 115.058594 L 234.214844 114.285156 L 232.265625 113.378906 L 230.367188 112.765625 L 225.703125 111.253906 L 219.132812 110.476562 L 214.414062 110.875 L 207.628906 111.449219 L 202.609375 112.828125 L 199.296875 115.019531 L 198.539062 115.519531 L 197.699219 115.878906 L 196.515625 116.203125 L 195.589844 116.457031 L 193.761719 116.867188 L 192.492188 117.105469 L 191.96875 117.203125 L 191.449219 117.304688 L 191.339844 117.332031 L 191.144531 117.375 L 191.300781 117.046875 Z M 205.433594 170.542969 L 205.285156 170.273438 L 204.320312 169.019531 L 201.167969 164.917969 L 198.015625 158.496094 L 195.851562 151.765625 L 192.816406 142.335938 L 191.296875 132.679688 L 190.949219 120.585938 L 190.882812 118.316406 L 191.257812 118.402344 L 191.675781 118.5 L 192.753906 118.898438 L 193.703125 119.308594 L 194.660156 119.722656 L 196.59375 120.988281 L 197.476562 121.78125 L 199.058594 123.195312 L 200.390625 125.113281 L 200.84375 126.613281 L 200.953125 126.988281 L 201.371094 128.875 L 201.769531 130.800781 L 204.289062 143.035156 L 207.328125 153.359375 L 211.4375 163.628906 L 213.132812 167.871094 L 213.996094 169.777344 L 215.019531 171.5625 L 209.394531 171.703125 L 210.125 171.597656 L 205.753906 171.628906 Z M 205.433594 170.542969 "/>
<path style="fill-rule:nonzero;fill:rgb(85.098039%,37.254902%,0.784314%);fill-opacity:1;stroke-width:0.426791;stroke-linecap:round;stroke-linejoin:round;stroke:rgb(0%,0%,0%);stroke-opacity:1;stroke-miterlimit:10;" d="M 213.929688 190.636719 L 213.175781 190.320312 L 212.765625 190.0625 L 211.394531 189.199219 L 209.964844 187.15625 L 209.5 185.386719 L 208.835938 182.886719 L 208.601562 180.796875 L 208.46875 176.296875 L 208.378906 173.175781 L 208.183594 171.5625 L 207.785156 170.578125 L 207.660156 170.269531 L 212.105469 170.226562 L 216.824219 170.183594 L 218.351562 171.359375 L 219.132812 172.746094 L 219.007812 175.121094 L 218.578125 178.140625 L 218.664062 179.667969 L 218.671875 181.371094 L 218.71875 184.332031 L 219.226562 183.445312 L 219.269531 187.449219 L 219.394531 188.421875 L 218.714844 189.269531 L 218.152344 189.871094 L 217.863281 190.183594 L 217.039062 190.550781 L 216.277344 190.703125 L 215.875 190.78125 L 214.667969 190.800781 L 214.332031 190.726562 Z M 220.082031 189.808594 L 220.835938 189.488281 L 221.242188 189.230469 L 222.617188 188.367188 L 224.042969 186.328125 L 224.511719 184.558594 L 225.171875 182.058594 L 225.410156 179.96875 L 225.542969 175.46875 L 225.632812 172.347656 L 225.824219 170.734375 L 226.226562 169.75 L 226.351562 169.441406 L 221.90625 169.398438 L 217.1875 169.355469 L 215.660156 170.53125 L 214.878906 171.917969 L 215.003906 174.289062 L 215.433594 177.3125 L 215.34375 178.835938 L 215.339844 180.542969 L 215.292969 183.503906 L 214.78125 182.617188 L 214.738281 186.621094 L 214.617188 187.59375 L 215.292969 188.441406 L 215.855469 189.042969 L 216.148438 189.355469 L 216.972656 189.71875 L 217.734375 189.875 L 218.132812 189.949219 L 219.339844 189.972656 L 219.675781 189.894531 Z M 220.082031 189.808594 "/>
<path style="fill-rule:nonzero;fill:rgb(85.098039%,37.254902%,0.784314%);fill-opacity:1;stroke-width:0.426791;stroke-linecap:round;stroke-linejoin:round;stroke:rgb(0%,0%,0%);stroke-opacity:1;stroke-miterlimit:10;" d="M 208.425781 189.089844 L 211.1875 189.304688 L 217.40625 189.707031 L 216.078125 185.28125 L 216.164062 183.976562 L 211.664062 183.722656 L 206.652344 184.574219 Z M 224.203125 189.089844 L 221.445312 189.304688 L 215.222656 189.707031 L 216.554688 185.28125 L 216.464844 183.976562 L 220.964844 183.722656 L 225.976562 184.574219 Z M 224.203125 189.089844 "/>
</g>
</svg>
