<?xml version="1.0" encoding="UTF-8"?>
<svg xmlns="http://www.w3.org/2000/svg" xmlns:xlink="http://www.w3.org/1999/xlink" width="216pt" height="360pt" viewBox="0 0 216 360" version="1.1">
<g id="surface52">
<rect x="0" y="0" width="216" height="360" style="fill:rgb(100%,100%,100%);fill-opacity:1;stroke:none;"/>
<path style=" stroke:none;fill-rule:nonzero;fill:rgb(65.098039%,74.117647%,85.882353%);fill-opacity:1;" d="M 45.4375 11.519531 L 48.070312 0 L 61.484375 0 L 66.339844 6.445312 L 63.851562 0 L 45.421875 0 L 44.625 7.464844 L 41.78125 22.175781 Z M 45.4375 11.519531 "/>
<path style=" stroke:none;fill-rule:nonzero;fill:rgb(65.098039%,74.117647%,85.882353%);fill-opacity:1;" d="M 100.40625 223.273438 L 90.664062 200.445312 L 89.042969 195.875 L 87.417969 191.308594 L 82.34375 177.097656 L 87.824219 185.726562 L 89.855469 189.277344 L 91.886719 192.832031 L 94.117188 200.945312 L 95.335938 206.015625 L 96.554688 211.089844 L 101.625 219.203125 L 102.03125 221.242188 L 102.4375 223.273438 Z M 100.40625 223.273438 "/>
<path style=" stroke:none;fill-rule:nonzero;fill:rgb(65.098039%,74.117647%,85.882353%);fill-opacity:1;" d="M 171.625 11.519531 L 168.992188 0 L 155.574219 0 L 150.71875 6.445312 L 153.207031 0 L 171.640625 0 L 172.4375 7.464844 L 175.277344 22.175781 Z M 171.625 11.519531 "/>
<path style=" stroke:none;fill-rule:nonzero;fill:rgb(65.098039%,74.117647%,85.882353%);fill-opacity:1;" d="M 115.652344 223.28125 L 125.394531 200.453125 L 127.015625 195.882812 L 128.640625 191.316406 L 133.710938 177.105469 L 128.234375 185.734375 L 126.203125 189.28125 L 124.175781 192.835938 L 121.941406 200.953125 L 120.722656 206.023438 L 119.507812 211.097656 L 114.433594 219.210938 L 114.027344 221.25 L 113.621094 223.28125 Z M 115.652344 223.28125 "/>
<path style=" stroke:none;fill-rule:nonzero;fill:rgb(65.098039%,74.117647%,85.882353%);fill-opacity:1;" d="M 42.972656 0 L 42.949219 0.21875 L 42.132812 7.890625 L 41.535156 13.453125 L 41.355469 15.261719 L 41.25 16.324219 L 40.859375 18.679688 L 40.355469 21.671875 L 37.707031 37.574219 L 27.996094 79.800781 L 24.4375 164.554688 L 20.453125 259.414062 L 29.710938 360 L 108.621094 360 L 108.898438 339.566406 L 106.851562 294.042969 L 106.851562 275.617188 L 106.339844 248.355469 L 106.011719 243.429688 L 105.628906 237.691406 L 105.121094 232.8125 L 104.667969 229.175781 L 107.679688 229.949219 L 108.675781 229.976562 L 111.871094 229.175781 L 111.421875 232.816406 L 110.910156 237.6875 L 110.527344 243.429688 L 110.199219 248.355469 L 109.6875 275.617188 L 109.6875 294.050781 L 107.644531 339.660156 L 107.921875 360 L 186.839844 360 L 196.097656 259.421875 L 192.113281 164.554688 L 188.554688 79.828125 L 178.84375 37.589844 L 176.191406 21.691406 L 175.691406 18.695312 L 175.296875 16.324219 L 175.191406 15.261719 L 175.007812 13.453125 L 174.414062 7.875 L 173.597656 0.199219 L 173.574219 0 Z M 42.972656 0 "/>
<path style=" stroke:none;fill-rule:nonzero;fill:rgb(65.098039%,74.117647%,85.882353%);fill-opacity:1;" d="M 169.800781 0 L 170.070312 2.554688 L 170.882812 10.160156 L 171.476562 15.679688 L 171.652344 17.476562 L 171.828125 19.203125 L 172.226562 21.582031 L 172.828125 25.199219 L 175.421875 40.761719 L 184.980469 82.109375 L 188.484375 165.5 L 192.417969 259.128906 L 183.109375 360 L 111.585938 360 L 111.335938 341.605469 L 112.019531 293.882812 L 112.019531 274.742188 L 113.894531 248.621094 L 114.144531 244.917969 L 114.902344 233.515625 L 116.234375 225.773438 L 116.246094 225.695312 L 117.492188 218.53125 L 111.695312 223.976562 L 108.59375 224.164062 L 105.488281 224.351562 L 99.074219 218.53125 L 100.316406 225.695312 L 100.332031 225.769531 L 101.660156 233.515625 L 102.421875 244.917969 L 102.667969 248.617188 L 104.542969 274.738281 L 104.542969 293.875 L 105.226562 341.511719 L 104.976562 360 L 33.460938 360 L 24.152344 259.117188 L 28.082031 165.496094 L 31.585938 82.074219 L 41.148438 40.738281 L 43.742188 25.179688 L 44.34375 21.578125 L 44.742188 19.191406 L 44.914062 17.46875 L 45.09375 15.671875 L 45.683594 10.164062 L 46.492188 2.5625 L 46.765625 0 Z M 169.800781 0 "/>
<path style="fill-rule:nonzero;fill:rgb(65.098039%,74.117647%,85.882353%);fill-opacity:1;stroke-width:0.426791;stroke-linecap:round;stroke-linejoin:round;stroke:rgb(0%,0%,0%);stroke-opacity:1;stroke-miterlimit:10;" d="M -101.046875 128.914062 L -97.394531 136.019531 L -95.773438 132.460938 L -94.148438 128.914062 L -89.683594 117.75 L -90.699219 113.691406 L -91.710938 109.632812 L -93.539062 108.109375 L -95.164062 109.632812 L -96.785156 111.152344 L -99.628906 112.675781 L -100.640625 117.238281 L -101.65625 121.804688 L -105.308594 131.953125 Z M -106.992188 158.117188 L -105.574219 160.148438 L -103.542969 166.242188 L -101.308594 170.300781 L -104.148438 189.070312 L -105.367188 193.632812 L -106.585938 198.199219 L -108.597656 211.464844 L -110.34375 221.625 L -111.152344 226.191406 L -111.964844 230.753906 L -112.71875 238.03125 L -111.253906 229.65625 L -109.628906 221.542969 L -108.007812 213.425781 L -103.945312 194.144531 L -103.339844 189.070312 L -102.730469 184 L -100.699219 175.371094 L -99.6875 174.867188 L -98.671875 174.359375 L -95.828125 173.851562 L -95.222656 179.433594 L -94.613281 185.007812 L -94.613281 191.097656 L -95.421875 194.144531 L -96.234375 197.183594 L -98.875 208.863281 L -101.714844 221.03125 L -104.757812 235.75 L -108.210938 248.429688 L -104.960938 241.324219 L -103.542969 234.226562 L -102.121094 227.121094 L -97.859375 209.367188 L -97.453125 207.335938 L -97.050781 205.308594 L -93.597656 190.597656 L -92.988281 183.996094 L -91.972656 182.472656 L -90.960938 180.949219 L -88.726562 178.925781 L -85.074219 178.417969 L -83.449219 179.941406 L -85.074219 188.058594 L -88.320312 201.753906 L -93.394531 223.570312 L -88.320312 205.308594 L -87.511719 202.257812 L -86.699219 199.21875 L -83.042969 181.964844 L -80.8125 180.949219 L -82.4375 176.386719 L -84.261719 175.878906 L -86.089844 175.371094 L -90.960938 177.914062 L -93.191406 176.894531 L -95.421875 175.878906 L -99.683594 170.804688 L -100.5 169.796875 L -101.308594 168.777344 L -102.121094 161.164062 Z M 45.4375 11.519531 L 48.683594 -2.691406 L 50.304688 -7.253906 L 51.929688 -11.820312 L 58.21875 -5.222656 L 59.84375 -2.175781 L 66.339844 6.445312 L 60.65625 -8.273438 L 58.421875 -12.328125 L 56.191406 -16.386719 L 53.757812 -24.507812 L 53.148438 -29.070312 L 52.539062 -33.636719 L 52.539062 -83.460938 L 54.164062 -100.210938 L 53.148438 -107.316406 L 50.101562 -47.84375 L 49.496094 -35.15625 L 48.886719 -22.46875 L 46.246094 -7.757812 L 45.4375 -0.144531 L 44.625 7.464844 L 41.78125 22.175781 Z M 107.46875 -14.574219 L 106.25 -7.46875 L 108.074219 -5.953125 L 109.902344 -4.425781 L 109.902344 -8.984375 L 109.09375 -14.066406 L 108.28125 -19.136719 Z M 100.40625 223.273438 L 90.664062 200.445312 L 89.042969 195.875 L 87.417969 191.308594 L 82.34375 177.097656 L 87.824219 185.726562 L 89.855469 189.277344 L 91.886719 192.832031 L 94.117188 200.945312 L 95.335938 206.015625 L 96.554688 211.089844 L 101.625 219.203125 L 102.03125 221.242188 L 102.4375 223.273438 Z M 36.734375 -347.425781 L 40.890625 -313.996094 L 41.707031 -309.9375 L 42.515625 -305.878906 L 46.171875 -284.574219 L 47.792969 -280.003906 L 49.417969 -275.4375 L 55.503906 -269.347656 L 61.792969 -268.335938 L 68.085938 -267.320312 L 73.769531 -268.335938 L 76.609375 -271.886719 L 79.453125 -275.4375 L 89.597656 -298.269531 L 78.84375 -287.109375 L 70.117188 -287.617188 L 61.390625 -288.121094 L 53.878906 -296.238281 L 47.386719 -316.535156 L 41.5 -348.5 L 42.109375 -355.597656 L 42.71875 -362.703125 L 43.125 -386.550781 L 44.339844 -391.117188 L 45.558594 -395.683594 L 48.601562 -405.832031 L 48.601562 -411.917969 L 39.46875 -439.824219 L 38.863281 -443.375 L 38.253906 -446.925781 L 36.832031 -424.605469 L 38.863281 -420.546875 L 40.890625 -416.488281 L 41.5 -407.351562 L 41.703125 -399.742188 L 41.90625 -392.128906 L 39.671875 -373.863281 L 39.671875 -370.820312 L 36.019531 -358.140625 L 36.628906 -349.007812 Z M 100.597656 -716.039062 L 98.410156 -712.734375 L 96.019531 -710.929688 L 94.039062 -709.429688 L 91.351562 -709.816406 L 89.574219 -711.761719 L 88.441406 -713 L 87 -717.054688 L 88.214844 -719.296875 L 91.460938 -724.371094 L 92.476562 -723.863281 L 93.492188 -723.359375 L 99.171875 -719.804688 L 100.1875 -723.355469 L 98.765625 -724.371094 L 97.347656 -725.386719 L 101.8125 -727.921875 L 98.160156 -735.023438 L 94.503906 -734.007812 L 87.605469 -734.007812 L 84.152344 -728.933594 L 83.34375 -723.859375 L 82.53125 -718.789062 L 81.921875 -711.683594 L 84.359375 -719.804688 L 85.371094 -722.847656 L 86.390625 -725.894531 L 90.449219 -728.429688 L 87.199219 -721.832031 L 86.796875 -718.285156 L 86.390625 -714.734375 L 85.460938 -711.894531 L 88.910156 -704.535156 L 92.882812 -704.371094 L 94.320312 -704.308594 L 97.960938 -706.402344 Z M 319.167969 126.6875 L 315.515625 133.792969 L 313.894531 130.234375 L 312.269531 126.6875 L 307.804688 115.523438 L 308.820312 111.464844 L 309.832031 107.40625 L 311.660156 105.882812 L 313.285156 107.40625 L 314.90625 108.925781 L 317.75 110.449219 L 318.765625 115.011719 L 319.777344 119.578125 L 323.429688 129.722656 Z M 324.890625 154.78125 L 323.472656 156.8125 L 322.453125 159.851562 L 321.441406 162.902344 L 319.207031 166.957031 L 322.046875 185.734375 L 323.265625 190.300781 L 324.484375 194.863281 L 327.527344 211.097656 L 330.167969 223.78125 L 330.976562 228.351562 L 331.789062 232.914062 L 333.210938 237.480469 L 329.152344 226.308594 L 327.527344 218.199219 L 325.902344 210.082031 L 321.84375 190.804688 L 321.234375 185.734375 L 320.625 180.65625 L 318.597656 172.035156 L 316.566406 171.011719 L 313.726562 170.511719 L 313.121094 176.089844 L 312.511719 181.671875 L 312.511719 187.757812 L 313.320312 190.800781 L 314.132812 193.847656 L 316.773438 205.515625 L 319.613281 217.695312 L 322.65625 232.40625 L 326.105469 245.085938 L 322.859375 237.988281 L 321.4375 230.882812 L 320.019531 223.777344 L 315.753906 206.023438 L 315.351562 203.992188 L 314.945312 201.960938 L 311.496094 187.25 L 310.886719 180.652344 L 309.867188 179.136719 L 308.855469 177.613281 L 306.621094 175.582031 L 302.96875 175.082031 L 301.347656 176.597656 L 302.160156 180.65625 L 302.96875 184.714844 L 306.214844 198.414062 L 311.292969 220.230469 L 306.214844 201.960938 L 304.597656 195.882812 L 300.941406 178.628906 L 298.710938 177.613281 L 300.332031 173.039062 L 302.160156 172.535156 L 303.988281 172.035156 L 308.855469 174.570312 L 311.085938 173.558594 L 313.320312 172.535156 L 317.582031 167.460938 L 318.394531 166.453125 L 319.210938 165.433594 L 320.019531 157.828125 Z M 171.625 11.519531 L 168.375 -2.691406 L 166.753906 -7.253906 L 165.128906 -11.820312 L 158.835938 -5.222656 L 158.027344 -3.699219 L 157.214844 -2.175781 L 150.71875 6.445312 L 156.402344 -8.273438 L 158.636719 -12.328125 L 160.867188 -16.386719 L 163.304688 -24.507812 L 163.914062 -29.070312 L 164.519531 -33.636719 L 164.519531 -83.460938 L 162.894531 -100.210938 L 163.914062 -107.316406 L 166.957031 -47.84375 L 168.175781 -22.46875 L 170.8125 -7.757812 L 171.625 -0.144531 L 172.4375 7.464844 L 175.277344 22.175781 Z M 109.09375 -14.574219 L 110.308594 -7.46875 L 108.484375 -5.953125 L 106.65625 -4.425781 L 106.65625 -8.984375 L 107.46875 -14.066406 L 108.28125 -19.136719 Z M 115.652344 223.28125 L 125.394531 200.453125 L 127.015625 195.882812 L 128.640625 191.316406 L 133.710938 177.105469 L 128.234375 185.734375 L 126.203125 189.28125 L 124.175781 192.835938 L 121.941406 200.953125 L 120.722656 206.023438 L 119.507812 211.097656 L 114.433594 219.210938 L 114.027344 221.25 L 113.621094 223.28125 Z M 179.992188 -346.589844 L 175.835938 -313.164062 L 175.023438 -309.105469 L 174.214844 -305.046875 L 170.558594 -283.738281 L 168.9375 -279.171875 L 167.3125 -274.605469 L 161.222656 -268.515625 L 154.929688 -267.5 L 148.640625 -266.484375 L 142.957031 -267.5 L 140.113281 -271.050781 L 137.273438 -274.601562 L 127.125 -297.429688 L 137.878906 -286.269531 L 146.609375 -286.78125 L 155.335938 -287.285156 L 162.847656 -295.402344 L 166.097656 -305.554688 L 169.34375 -315.699219 L 175.230469 -347.664062 L 174.621094 -354.765625 L 174.011719 -361.871094 L 173.605469 -385.714844 L 171.167969 -394.847656 L 168.125 -404.996094 L 168.125 -411.082031 L 177.257812 -438.988281 L 178.476562 -446.089844 L 179.894531 -423.765625 L 175.839844 -415.648438 L 175.226562 -406.515625 L 175.027344 -398.90625 L 174.824219 -391.296875 L 177.054688 -373.027344 L 177.054688 -369.988281 L 180.707031 -357.304688 L 180.097656 -348.171875 Z M 115.789062 -635.585938 L 114.367188 -642.179688 L 112.339844 -641.675781 L 110.65625 -641.25 L 108.851562 -640.148438 L 108.277344 -639.777344 L 107.703125 -640.148438 L 105.902344 -641.25 L 104.21875 -641.675781 L 102.191406 -642.179688 L 100.769531 -635.585938 L 98.738281 -634.570312 L 96.507812 -632.03125 L 98.738281 -632.03125 L 101.175781 -633.554688 L 103.609375 -635.078125 L 105.640625 -636.59375 L 106.25 -635.582031 L 106.855469 -634.570312 L 108.074219 -634.0625 L 108.480469 -634.0625 L 109.699219 -634.570312 L 110.917969 -636.59375 L 112.945312 -635.074219 L 115.378906 -633.554688 L 117.816406 -632.03125 L 120.050781 -632.03125 L 117.820312 -634.570312 Z M 111.171875 -620.3125 L 109.125 -619.660156 L 108.28125 -619.445312 L 107.429688 -619.660156 L 105.386719 -620.3125 L 103.8125 -621.882812 L 101.78125 -623.914062 L 100.160156 -627.972656 L 102.1875 -618.84375 L 103.003906 -616.8125 L 103.816406 -614.78125 L 107.960938 -614.273438 L 108.597656 -614.273438 L 112.742188 -614.78125 L 114.367188 -618.84375 L 116.398438 -627.972656 L 114.773438 -623.914062 L 112.746094 -621.882812 Z M 115.820312 -589.859375 L 108.3125 -593.117188 L 100.804688 -589.859375 L 87 -615.230469 L 93.699219 -598.996094 L 96.945312 -594.933594 L 99.769531 -591.40625 L 103.753906 -588.261719 L 105.445312 -587.5 L 108.109375 -587.324219 L 110.863281 -587.355469 L 110.980469 -587.410156 L 111.097656 -587.355469 L 108.515625 -587.324219 L 111.179688 -587.5 L 112.867188 -588.265625 L 116.851562 -591.410156 L 119.675781 -594.933594 L 122.929688 -598.996094 L 129.621094 -615.230469 Z M 114.585938 -671.746094 L 114.695312 -667.023438 L 112.695312 -666.46875 L 111.75 -666.1875 L 110.527344 -661.742188 L 106.019531 -661.742188 L 105.023438 -666.1875 L 104.027344 -666.464844 L 103.027344 -666.746094 L 102.027344 -667.023438 L 102.136719 -671.746094 L 101.359375 -670.636719 L 101.582031 -666.882812 L 102.136719 -665.769531 L 102.691406 -664.660156 L 104.414062 -665.496094 L 106.304688 -660.910156 L 106.789062 -659.734375 L 108.46875 -656.183594 L 110.078125 -659.785156 L 110.582031 -660.910156 L 113.136719 -666.605469 L 114.03125 -664.105469 L 114.585938 -665.214844 L 115.140625 -666.328125 L 115.363281 -670.636719 Z M 115.960938 -716.039062 L 118.144531 -712.734375 L 120.535156 -710.929688 L 122.515625 -709.429688 L 125.203125 -709.816406 L 126.980469 -711.761719 L 128.113281 -713 L 129.558594 -717.054688 L 128.34375 -719.296875 L 125.09375 -724.371094 L 124.082031 -723.863281 L 123.0625 -723.359375 L 117.382812 -719.804688 L 116.367188 -723.355469 L 119.210938 -725.386719 L 114.746094 -727.921875 L 118.398438 -735.023438 L 120.222656 -734.515625 L 122.050781 -734.007812 L 128.953125 -734.007812 L 132.402344 -728.933594 L 133.214844 -723.859375 L 134.023438 -718.789062 L 134.632812 -711.683594 L 132.199219 -719.804688 L 131.183594 -722.847656 L 130.167969 -725.894531 L 126.109375 -728.429688 L 129.355469 -721.832031 L 129.761719 -718.285156 L 130.167969 -714.734375 L 131.09375 -711.894531 L 127.648438 -704.535156 L 123.671875 -704.371094 L 122.238281 -704.308594 L 118.597656 -706.402344 Z M 335.445312 196.882812 L 335.25 195.625 L 335.132812 194.824219 L 334.308594 189.144531 L 328.269531 151.175781 L 327.601562 146.996094 L 327.253906 144.84375 L 326.941406 142.535156 L 326.675781 140.359375 L 328.113281 141.898438 L 329.515625 143.109375 L 331.292969 143.109375 L 335.253906 141.222656 L 336.238281 135.871094 L 336.660156 133.5625 L 336.503906 130.988281 L 335.8125 128.976562 L 334.882812 126.261719 L 331.761719 116.882812 L 329.648438 109.203125 L 328.042969 103.367188 L 327.152344 98.148438 L 326.535156 96.160156 L 326.285156 95.367188 L 326.046875 94.273438 L 325.746094 92.894531 L 324.640625 87.820312 L 321.726562 78.910156 L 315.976562 68.640625 L 310.011719 57.988281 L 305.191406 45.042969 L 301.929688 37.421875 L 301.378906 36.125 L 300.914062 35.039062 L 300.566406 34.246094 L 298.382812 28.730469 L 279.957031 -57.265625 L 277.902344 -71.523438 L 276.414062 -81.878906 L 262.148438 -173.898438 L 259.074219 -186.535156 L 256.382812 -197.578125 L 247.722656 -217.113281 L 246.347656 -220.746094 L 245.308594 -226.40625 L 237.300781 -269.257812 L 233.484375 -285.492188 L 229.445312 -302.65625 L 218.222656 -357.378906 L 217.046875 -365.730469 L 216.757812 -367.769531 L 216.539062 -370.390625 L 216.242188 -374.019531 L 215.414062 -384.09375 L 215.207031 -402.855469 L 209.230469 -442.433594 L 201.757812 -491.957031 L 189.1875 -503.339844 L 184.453125 -507.621094 L 183.894531 -508.125 L 183.449219 -508.523438 L 183.132812 -508.890625 L 180.035156 -512.5 L 158.894531 -516.457031 L 154.171875 -518.054688 L 152.867188 -519.214844 L 144.679688 -526.511719 L 142.175781 -529.644531 L 138.808594 -533.847656 L 133.472656 -546.210938 L 132.554688 -553.832031 L 131.742188 -560.613281 L 130.566406 -590.980469 L 130.875 -610.464844 L 131.75 -614.390625 L 136.28125 -629 L 137.386719 -637.765625 L 138.09375 -643.347656 L 139.582031 -660.886719 L 140.363281 -668.441406 L 141.441406 -667.78125 L 142.683594 -667.730469 L 143.566406 -668.835938 L 145.925781 -671.785156 L 148.066406 -689.746094 L 148.023438 -692.589844 L 147.929688 -698.8125 L 148.171875 -704.578125 L 148.367188 -709.214844 L 148.601562 -714.820312 L 148.773438 -718.871094 L 148.316406 -721.921875 L 147.679688 -726.144531 L 144.46875 -728.003906 L 142.945312 -728.828125 L 143.082031 -733.863281 L 144.640625 -742.164062 L 144.773438 -746.886719 L 144.953125 -753.214844 L 145.433594 -786.300781 L 137.148438 -816.269531 L 126.519531 -854.714844 L 109.03125 -855.480469 L 108.265625 -855.492188 L 107.527344 -855.480469 L 90.035156 -854.714844 L 79.40625 -816.269531 L 71.121094 -786.292969 L 71.601562 -753.210938 L 71.78125 -746.886719 L 71.917969 -742.164062 L 73.476562 -733.863281 L 73.609375 -728.828125 L 72.085938 -728.003906 L 68.871094 -726.144531 L 68.242188 -721.921875 L 67.78125 -718.871094 L 67.953125 -714.820312 L 68.1875 -709.210938 L 68.382812 -704.578125 L 68.625 -698.8125 L 68.53125 -692.59375 L 68.488281 -689.75 L 70.625 -671.785156 L 72.988281 -668.835938 L 73.871094 -667.730469 L 75.113281 -667.777344 L 76.191406 -668.441406 L 76.976562 -660.886719 L 78.464844 -643.351562 L 79.167969 -637.765625 L 80.273438 -629 L 84.808594 -614.390625 L 85.683594 -610.464844 L 85.992188 -590.980469 L 84.8125 -560.613281 L 84 -553.832031 L 83.085938 -546.210938 L 79.082031 -537.183594 L 75.714844 -532.980469 L 73.210938 -529.851562 L 63.691406 -519.21875 L 62.382812 -518.058594 L 57.664062 -516.460938 L 36.523438 -512.503906 L 33.425781 -508.894531 L 33.113281 -508.523438 L 32.664062 -508.128906 L 32.105469 -507.625 L 27.375 -503.339844 L 14.800781 -491.960938 L 7.324219 -442.4375 L 1.351562 -402.867188 L 1.144531 -384.109375 L 0.316406 -374.03125 L 0.0195312 -370.398438 L -0.199219 -367.773438 L -0.484375 -365.734375 L -1.753906 -356.738281 L -10.320312 -312.21875 L -14.253906 -295.5 L -18.113281 -279.101562 L -27.207031 -224.023438 L -28.445312 -217.429688 L -29.808594 -213.832031 L -38.484375 -194.261719 L -41.175781 -183.203125 L -44.261719 -170.539062 L -58.515625 -78.535156 L -60.003906 -68.195312 L -62.058594 -53.9375 L -80.484375 32.0625 L -82.65625 37.550781 L -83.019531 38.375 L -83.484375 39.46875 L -84.042969 40.773438 L -87.300781 48.390625 L -93.363281 62.578125 L -99.328125 73.222656 L -105.078125 83.492188 L -106.746094 91.160156 L -107.851562 96.230469 L -108.152344 97.609375 L -108.390625 98.703125 L -108.636719 99.496094 L -109.257812 101.484375 L -110.328125 109.199219 L -111.933594 115.035156 L -114.042969 122.714844 L -116.003906 129.273438 L -116.933594 131.988281 L -117.625 134.003906 L -117.78125 136.578125 L -117.355469 138.890625 L -116.371094 144.238281 L -113.398438 146.445312 L -111.617188 146.445312 L -110.214844 145.234375 L -108.777344 143.699219 L -109.046875 145.867188 L -109.25 152.886719 L -109.597656 155.046875 L -110.269531 159.242188 L -114.824219 192.363281 L -115.820312 197.839844 L -115.96875 198.640625 L -116.132812 199.878906 L -116.378906 201.429688 L -120.316406 226.3125 L -122.3125 235.410156 L -120.289062 239.351562 L -119.441406 241 L -117.710938 242.574219 L -116.488281 242.300781 L -117.726562 249.046875 L -119.097656 256.519531 L -118.714844 260.359375 L -118.113281 266.320312 L -115.503906 267.917969 L -112.808594 267.917969 L -112.050781 267.324219 L -111.488281 266.195312 L -110.6875 264.59375 L -109.683594 261.734375 L -108.550781 258.285156 L -107.125 259.945312 L -104.800781 259.082031 L -103.152344 257.859375 L -101.160156 256.363281 L -97.332031 242.132812 L -93.707031 229.796875 L -92.445312 231.113281 L -90.265625 234.820312 L -89.136719 232.941406 L -87.636719 230.441406 L -79.476562 203.945312 L -78.144531 198.394531 L -76.296875 190.695312 L -73.179688 176.113281 L -73.035156 175.335938 L -72.75 173.640625 L -65.457031 134.996094 L -63.820312 118.089844 L -63.0625 110.300781 L -62.695312 101.820312 L -62.339844 93.621094 L -61.929688 84.148438 L -61.542969 75.195312 L -60.613281 68.230469 L -58.964844 55.859375 L -40.582031 -9.003906 L -37.988281 -17.121094 L -34.609375 -27.671875 L -12.921875 -104.96875 L -10.101562 -115.339844 L -4.003906 -137.730469 L -3.570312 -168.421875 L -3.265625 -174.695312 L -1.054688 -183.351562 L 19.210938 -258.957031 L 23.550781 -275.457031 L 25.140625 -281.511719 L 32.679688 -317.859375 L 36.480469 -336.292969 L 37.445312 -327.011719 L 38.734375 -314.535156 L 39.324219 -308.367188 L 40.160156 -299.660156 L 42.539062 -275.0625 L 50.195312 -209.71875 L 50.769531 -198.734375 L 51.40625 -186.535156 L 52.035156 -125.507812 L 51.660156 -116.117188 L 51.359375 -108.585938 L 45.464844 -23.351562 L 42.949219 0.21875 L 42.132812 7.890625 L 41.535156 13.453125 L 41.355469 15.261719 L 41.25 16.324219 L 40.859375 18.679688 L 40.355469 21.671875 L 37.707031 37.574219 L 27.996094 79.800781 L 24.4375 164.554688 L 20.453125 259.414062 L 36.992188 439.09375 L 41.648438 484.304688 L 46.46875 531.136719 L 53.128906 580.78125 L 53.335938 627.429688 L 53.484375 660.609375 L 49.589844 710.230469 L 48.6875 725.332031 L 48.351562 730.960938 L 48.085938 735.402344 L 47.972656 739.058594 L 47.898438 741.539062 L 47.699219 744.925781 L 47.449219 749.226562 L 46.40625 766.976562 L 45.804688 803.355469 L 47.277344 859.472656 L 48.59375 909.597656 L 55.894531 979.304688 L 59.839844 1018.8125 L 61.378906 1034.1875 L 62.589844 1046.339844 L 63.039062 1053.09375 L 63.1875 1055.273438 L 64.679688 1077.628906 L 67.453125 1119.253906 L 67.085938 1128.5 L 67.785156 1148.464844 L 64.328125 1168.347656 L 63.8125 1175.445312 L 63.667969 1177.453125 L 63.527344 1179.417969 L 63.417969 1181.125 L 63.164062 1183.046875 L 60.621094 1190.105469 L 53.019531 1213.929688 L 52.378906 1215.9375 L 51.925781 1217.351562 L 51.792969 1217.808594 L 51.535156 1218.527344 L 50.339844 1220.695312 L 49.375 1222.433594 L 45.082031 1230.214844 L 42.472656 1235.335938 L 42.472656 1247.523438 L 44.195312 1252.421875 L 47.238281 1254.328125 L 47.410156 1254.4375 L 47.542969 1254.445312 L 47.644531 1254.410156 L 48.304688 1257.316406 L 49.78125 1261.625 L 52.652344 1261.625 L 53.296875 1261.46875 L 53.789062 1261.277344 L 54.621094 1262.710938 L 56.195312 1266.734375 L 59.28125 1266.734375 L 60.71875 1265.378906 L 61.605469 1264.300781 L 62.386719 1265.148438 L 63.542969 1266.273438 L 64.511719 1266.671875 L 65.984375 1267.296875 L 67.132812 1265.765625 L 67.933594 1263.824219 L 69.199219 1265.609375 L 71.070312 1267.691406 L 73.332031 1267.691406 L 73.738281 1267.589844 L 74.125 1267.371094 L 75.5 1266.613281 L 79.894531 1264.238281 L 81.878906 1263 L 82.769531 1261.515625 L 82.914062 1261.277344 L 87.125 1254.300781 L 89.613281 1248.707031 L 90.519531 1244.160156 L 91.96875 1236.933594 L 90.953125 1231.164062 L 90.910156 1226.539062 L 90.867188 1222.664062 L 90.746094 1220.574219 L 91.457031 1218.839844 L 91.820312 1217.980469 L 92.09375 1216.867188 L 92.429688 1215.84375 L 94.472656 1209.660156 L 97.96875 1201.960938 L 97.550781 1191.117188 L 96.6875 1168.816406 L 96.15625 1154.746094 L 96.167969 1154.328125 L 96.226562 1150.53125 L 97.511719 1130.632812 L 95.847656 1123.125 L 92.992188 1110.292969 L 93.347656 1082.617188 L 94.039062 1065.242188 L 95.707031 1014.210938 L 98.496094 928.792969 L 99.277344 921.632812 L 100.585938 909.632812 L 102.253906 822.539062 L 102.175781 808.304688 L 102.082031 790.996094 L 99.253906 765.859375 L 98.261719 751.441406 L 97.914062 746.359375 L 97.554688 741.097656 L 97.515625 739.511719 L 97.609375 738.132812 L 98.082031 732.667969 L 98.582031 726.898438 L 99.9375 711.222656 L 103.316406 660.835938 L 103.828125 650.515625 L 105.191406 623.089844 L 106.476562 553.988281 L 106.269531 545.175781 L 106.15625 540.453125 L 107.28125 458.292969 L 108.179688 392.273438 L 108.898438 339.566406 L 106.851562 294.042969 L 106.851562 275.617188 L 106.339844 248.355469 L 106.011719 243.429688 L 105.628906 237.691406 L 105.121094 232.8125 L 104.667969 229.175781 L 107.679688 229.949219 L 108.675781 229.976562 L 111.871094 229.175781 L 111.421875 232.816406 L 110.910156 237.6875 L 110.527344 243.429688 L 110.199219 248.355469 L 109.6875 275.617188 L 109.6875 294.050781 L 107.644531 339.660156 L 108.363281 392.453125 L 109.265625 458.398438 L 110.382812 540.464844 L 110.273438 545.179688 L 110.046875 554.675781 L 111.695312 617.695312 L 113.203125 651.296875 L 113.472656 657.277344 L 115.921875 698.039062 L 117 711.636719 L 117.898438 722.957031 L 119.015625 737.046875 L 119.027344 739.289062 L 119.027344 742.355469 L 116.40625 767.851562 L 115.46875 784.027344 L 114.953125 792.886719 L 114.480469 801.050781 L 114.210938 806.097656 L 113.34375 822.375 L 115.976562 909.839844 L 117.265625 921.636719 L 118.046875 928.804688 L 120.839844 1014.28125 L 122.503906 1065.351562 L 122.507812 1065.351562 L 123.199219 1082.726562 L 123.542969 1110.328125 L 120.699219 1123.128906 L 119.03125 1130.640625 L 120.316406 1150.542969 L 120.375 1154.335938 L 120.386719 1154.753906 L 119.859375 1168.828125 L 118.996094 1191.125 L 118.574219 1201.96875 L 122.074219 1209.667969 L 124.113281 1215.851562 L 124.449219 1216.875 L 124.726562 1217.988281 L 125.085938 1218.847656 L 125.800781 1220.582031 L 125.675781 1222.667969 L 125.636719 1226.546875 L 125.589844 1231.171875 L 124.578125 1236.9375 L 126.023438 1244.167969 L 126.933594 1248.710938 L 129.421875 1254.308594 L 133.632812 1261.28125 L 133.777344 1261.523438 L 134.667969 1263.007812 L 136.648438 1264.242188 L 141.042969 1266.621094 L 142.421875 1267.378906 L 142.804688 1267.589844 L 143.214844 1267.699219 L 145.476562 1267.699219 L 147.347656 1265.613281 L 148.609375 1263.832031 L 149.414062 1265.769531 L 150.5625 1267.300781 L 152.03125 1266.679688 L 153 1266.28125 L 154.160156 1265.152344 L 154.9375 1264.308594 L 155.828125 1265.386719 L 157.261719 1266.742188 L 160.351562 1266.742188 L 161.925781 1262.714844 L 162.757812 1261.28125 L 163.246094 1261.480469 L 163.894531 1261.632812 L 166.761719 1261.632812 L 168.238281 1257.320312 L 168.902344 1254.417969 L 169.003906 1254.449219 L 169.132812 1254.445312 L 169.308594 1254.335938 L 172.347656 1252.433594 L 174.070312 1247.527344 L 174.070312 1235.339844 L 171.464844 1230.222656 L 167.167969 1222.441406 L 166.207031 1220.703125 L 165.007812 1218.53125 L 164.753906 1217.816406 L 164.617188 1217.359375 L 164.164062 1215.941406 L 163.527344 1213.933594 L 155.925781 1190.109375 L 153.378906 1183.050781 L 153.125 1181.132812 L 153.015625 1179.425781 L 152.875 1177.457031 L 152.730469 1175.453125 L 152.214844 1168.355469 L 148.757812 1148.472656 L 149.460938 1128.503906 L 149.089844 1119.238281 L 151.875 1077.511719 L 153.371094 1055.097656 L 153.503906 1053.09375 L 153.953125 1046.34375 L 155.167969 1034.191406 L 156.707031 1018.808594 L 160.652344 979.308594 L 167.957031 909.601562 L 169.273438 859.476562 L 170.746094 803.378906 L 170.144531 766.992188 L 169.105469 749.238281 L 168.851562 744.941406 L 168.652344 741.539062 L 168.574219 739.058594 L 168.460938 735.398438 L 168.199219 730.96875 L 167.863281 725.359375 L 166.957031 710.257812 L 163.222656 660.632812 L 163.367188 627.429688 L 163.578125 580.789062 L 170.078125 531.136719 L 174.898438 484.304688 L 179.554688 439.097656 L 196.097656 259.421875 L 192.113281 164.554688 L 188.554688 79.828125 L 178.84375 37.589844 L 176.191406 21.691406 L 175.691406 18.695312 L 175.296875 16.324219 L 175.191406 15.261719 L 175.007812 13.453125 L 174.414062 7.875 L 173.597656 0.199219 L 171.078125 -23.363281 L 165.1875 -108.585938 L 164.886719 -116.117188 L 164.511719 -125.488281 L 165.140625 -186.523438 L 165.78125 -198.734375 L 166.355469 -209.777344 L 174.261719 -277.714844 L 176.421875 -300.039062 L 177.226562 -308.367188 L 177.820312 -314.597656 L 179.125 -327.257812 L 180.09375 -336.566406 L 184.492188 -316.035156 L 194.03125 -271.675781 L 195.667969 -265.453125 L 199.984375 -249.046875 L 219.042969 -185.886719 L 221.152344 -177.984375 L 221.464844 -171.597656 L 221.90625 -141.015625 L 227.984375 -118.683594 L 230.804688 -108.324219 L 252.488281 -31.039062 L 255.875 -20.457031 L 258.46875 -12.339844 L 276.847656 52.523438 L 278.5 64.890625 L 279.425781 71.859375 L 279.8125 80.804688 L 280.226562 90.28125 L 280.582031 98.480469 L 280.949219 106.96875 L 281.703125 114.757812 L 283.34375 131.660156 L 290.035156 171.597656 L 290.355469 173.496094 L 290.464844 174.0625 L 294.222656 187.074219 L 296.070312 194.789062 L 297.402344 200.324219 L 306.683594 225.34375 L 308.1875 227.851562 L 309.316406 229.730469 L 310.703125 228.601562 L 311.964844 227.296875 L 315.589844 239.632812 L 320.308594 252.753906 L 322.304688 254.246094 L 323.945312 255.476562 L 325.007812 256.609375 L 326.4375 254.941406 L 327.570312 258.394531 L 328.976562 261.769531 L 329.777344 263.375 L 330.339844 264.496094 L 331.097656 265.082031 L 333.792969 265.082031 L 336.492188 262.703125 L 337.085938 256.746094 L 337.472656 252.90625 L 336.433594 244.878906 L 335.195312 238.132812 L 335.953125 237.210938 L 336.839844 235.941406 L 337.691406 234.285156 L 339.722656 230.363281 L 339.625 223.3125 L 335.695312 198.453125 L 334.230469 231.90625 L 333.851562 232.957031 L 333.839844 232.96875 L 331.761719 234.527344 L 332.730469 239.382812 L 334.039062 245.921875 L 334.710938 253.386719 L 334.761719 255.644531 L 334.519531 256.390625 L 333.539062 260.648438 L 331.25 259.539062 L 331.234375 259.535156 L 331.21875 259.539062 L 331.203125 259.535156 L 330.535156 257.964844 L 328.515625 252.605469 L 327.121094 248.246094 L 326.105469 245.089844 L 324.730469 247.21875 L 323.945312 248.4375 L 323.535156 248.417969 L 322.339844 248.417969 L 322.242188 248.371094 L 322.265625 248.417969 L 321.050781 246.777344 L 315.753906 235.671875 L 312.320312 223.792969 L 311.292969 220.230469 L 309.828125 222.664062 L 309.398438 223.390625 L 308.417969 222.300781 L 307.308594 219.800781 L 305.730469 216.371094 L 299.136719 195.046875 L 298.042969 190.488281 L 296.285156 183.164062 L 292.304688 168.671875 L 292.023438 166.480469 L 286.207031 130.691406 L 284.632812 114.488281 L 283.933594 107.273438 L 284.207031 97.21875 L 283.867188 89.304688 L 283.433594 79.328125 L 281.6875 69.90625 L 280.636719 62.007812 L 278.667969 47.246094 L 260.945312 -19.246094 L 258.734375 -26.152344 L 255.5625 -36.066406 L 234.046875 -112.675781 L 231.011719 -123.8125 L 224.867188 -146.390625 L 223.421875 -179.726562 L 223.40625 -180.066406 L 223.359375 -181.1875 L 223.109375 -182.125 L 222.9375 -182.765625 L 203.339844 -252.921875 L 198.730469 -270.460938 L 197.125 -276.5625 L 186.515625 -325.902344 L 181.128906 -351.144531 L 178.933594 -361.417969 L 177.75 -350.15625 L 177.71875 -349.867188 L 174.6875 -321.0625 L 173.679688 -310.476562 L 172.878906 -302.183594 L 170.476562 -277.363281 L 164.097656 -211.445312 L 163.496094 -199.910156 L 162.875 -187.984375 L 160.828125 -125.921875 L 161.257812 -115.207031 L 161.5625 -107.582031 L 165.964844 -35.886719 L 170.070312 2.554688 L 170.882812 10.160156 L 171.476562 15.679688 L 171.652344 17.476562 L 171.828125 19.203125 L 172.226562 21.582031 L 172.828125 25.199219 L 175.421875 40.761719 L 184.980469 82.109375 L 188.484375 165.5 L 192.417969 259.128906 L 175.988281 437.167969 L 171.367188 482.027344 L 166.496094 529.355469 L 160.96875 579.671875 L 160.757812 627.421875 L 160.605469 661.351562 L 163.332031 711.3125 L 164.253906 726.703125 L 164.578125 732.140625 L 164.835938 736.425781 L 164.941406 739.757812 L 165.023438 742.554688 L 165.234375 746.082031 L 165.496094 750.5625 L 166.515625 767.976562 L 167.082031 803.734375 L 165.632812 858.867188 L 164.335938 908.175781 L 157.085938 977.402344 L 153.167969 1016.585938 L 151.609375 1032.164062 L 150.378906 1044.472656 L 149.90625 1051.585938 L 149.769531 1053.585938 L 147.566406 1086.648438 L 145.445312 1119.738281 L 145.832031 1129.402344 L 145.652344 1149.570312 L 150.097656 1170.085938 L 150.640625 1177.574219 L 150.78125 1179.535156 L 150.921875 1181.460938 L 151.046875 1183.355469 L 151.265625 1186.65625 L 153.3125 1191.546875 L 161.769531 1218.054688 L 162.375 1219.960938 L 162.804688 1221.304688 L 162.960938 1221.8125 L 163.40625 1223.292969 L 164.421875 1224.734375 L 166.234375 1228.023438 L 167.707031 1230.699219 L 170.851562 1238.371094 L 171.394531 1240.921875 L 171.324219 1244.53125 L 170.902344 1248.617188 L 169.015625 1248.113281 L 168.871094 1248.078125 L 168.746094 1248.152344 L 168.613281 1248.171875 L 168.957031 1245.496094 L 169.179688 1242.539062 L 168.894531 1240.371094 L 168.71875 1239.066406 L 168.375 1238.089844 L 167.90625 1237.527344 L 165.578125 1234.800781 L 163.578125 1232.300781 L 163.554688 1232.234375 L 161.074219 1227.519531 L 161.171875 1227.804688 L 164.464844 1238.421875 L 167.144531 1241.574219 L 167.382812 1243.207031 L 167.914062 1250.683594 L 166.035156 1253.074219 L 165.878906 1253.835938 L 164.953125 1254.8125 L 164.359375 1254.8125 L 164.207031 1254.796875 L 164.054688 1254.777344 L 164.632812 1251.648438 L 165.066406 1247.78125 L 164.421875 1245.101562 L 163.535156 1241.417969 L 160.492188 1235.710938 L 159.710938 1234.285156 L 158.097656 1231.988281 L 156.210938 1228.023438 L 158.371094 1237.382812 L 158.515625 1237.648438 L 159.898438 1240.136719 L 162.308594 1244.988281 L 162.886719 1247.398438 L 163.128906 1248.402344 L 162.804688 1251.011719 L 162.273438 1253.675781 L 160.976562 1255.199219 L 160.503906 1256.242188 L 159.503906 1257.792969 L 158.46875 1257.792969 L 158.058594 1257.609375 L 157.683594 1257.355469 L 157.84375 1256.847656 L 157.996094 1256.289062 L 158.125 1255.65625 L 158.871094 1252.027344 L 158.804688 1247.457031 L 157.929688 1242.0625 L 157.25 1237.84375 L 154.042969 1233.039062 L 153.175781 1231.792969 L 151.347656 1230.257812 L 148.371094 1224.542969 L 152.199219 1235.542969 L 153.675781 1237.636719 L 155.921875 1241.558594 L 156.277344 1243.746094 L 156.949219 1247.871094 L 157.035156 1251.199219 L 156.539062 1253.609375 L 156.378906 1254.390625 L 155.53125 1257.308594 L 155.320312 1257.796875 L 153.730469 1260.03125 L 151.453125 1257.851562 L 151.148438 1257.8125 L 150.839844 1256.75 L 150.699219 1255.988281 L 150.316406 1253.890625 L 150.621094 1250.515625 L 150.574219 1246.402344 L 149.296875 1244.078125 L 148.210938 1242.105469 L 146.078125 1242.792969 L 143.816406 1243.523438 L 142.804688 1243.851562 L 141.203125 1244.371094 L 140.511719 1244.117188 L 140.863281 1243.753906 L 140.808594 1242.554688 L 141.128906 1242.410156 L 141.507812 1242.246094 L 142.28125 1241.617188 L 142.515625 1241.421875 L 143.058594 1240.964844 L 144.902344 1240.234375 L 146.585938 1239.9375 L 149.070312 1241.152344 L 148.351562 1238.050781 L 147.816406 1235.757812 L 145.929688 1228.191406 L 144.179688 1227.320312 L 142.78125 1226.617188 L 141.347656 1226.300781 L 141.324219 1226.28125 L 139.738281 1227.027344 L 139.835938 1227.117188 L 142.289062 1230.921875 L 143.832031 1231.695312 L 144.3125 1231.933594 L 145.214844 1234.402344 L 146.019531 1237.253906 L 144.667969 1237.550781 L 142.863281 1238.023438 L 142.234375 1238.550781 L 142.0625 1238.695312 L 141.808594 1238.792969 L 141.527344 1238.914062 L 140.523438 1239.359375 L 139.269531 1239.914062 L 138.761719 1242.191406 L 138.585938 1242.96875 L 138.4375 1244.261719 L 138.710938 1245.960938 L 139.273438 1249.484375 L 141.378906 1248.800781 L 144.046875 1247.949219 L 145.425781 1247.503906 L 147.734375 1246.765625 L 148.242188 1247.6875 L 148.828125 1248.75 L 148.730469 1251.289062 L 148.535156 1253.230469 L 147.996094 1254.21875 L 147.320312 1255.476562 L 145.214844 1258.753906 L 143.480469 1258.753906 L 143.335938 1258.710938 L 143.199219 1258.640625 L 141.808594 1257.878906 L 139.925781 1256.847656 L 136.417969 1254.953125 L 135.730469 1254.023438 L 135.609375 1253.816406 L 135.417969 1253.503906 L 135.242188 1253.191406 L 135.0625 1252.894531 L 134.738281 1249.917969 L 134.703125 1243.878906 L 134.972656 1241.164062 L 133.386719 1244.640625 L 133.074219 1251.050781 L 133.1875 1253.324219 L 130.480469 1248.246094 L 129.445312 1241.25 L 129.226562 1240.164062 L 128.179688 1234.914062 L 128.21875 1230.773438 L 128.257812 1226.765625 L 128.296875 1223.085938 L 128.332031 1218.976562 L 127.398438 1214.992188 L 127.296875 1210.050781 L 127.078125 1204.039062 L 126.589844 1201.585938 L 125.695312 1197.125 L 124.800781 1188.933594 L 125.148438 1209.902344 L 123.894531 1205.710938 L 122.351562 1197.316406 L 122.5625 1191.976562 L 123.460938 1168.71875 L 122.882812 1153.753906 L 122.859375 1153.128906 L 122.742188 1144.996094 L 122.957031 1131.378906 L 123.832031 1127.457031 L 127.019531 1113.117188 L 126.210938 1080.242188 L 126.152344 1064.59375 L 126.15625 1064.59375 L 126.15625 1064.539062 L 126.152344 1064.515625 L 126.152344 1064.488281 L 123.792969 992.136719 L 120.671875 929.089844 L 119.867188 921.71875 L 118.722656 911.226562 L 115.917969 821.71875 L 116.695312 807.097656 L 116.964844 802.085938 L 117.6875 792.996094 L 118.199219 784.175781 L 119.5625 760.628906 L 122.691406 742.734375 L 122.691406 736.5625 L 122.050781 728.226562 L 120.59375 709.84375 L 119.582031 697.050781 L 116.285156 648.867188 L 116.03125 643.273438 L 114.574219 610.820312 L 113.316406 553.128906 L 113.527344 544.074219 L 113.640625 539.300781 L 113.210938 479.042969 L 112.027344 392.136719 L 111.335938 341.605469 L 112.019531 293.882812 L 112.019531 274.742188 L 113.894531 248.621094 L 114.144531 244.917969 L 114.902344 233.515625 L 116.234375 225.773438 L 116.246094 225.695312 L 117.492188 218.53125 L 111.695312 223.976562 L 108.59375 224.164062 L 105.488281 224.351562 L 99.074219 218.53125 L 100.316406 225.695312 L 100.332031 225.769531 L 101.660156 233.515625 L 102.421875 244.917969 L 102.667969 248.617188 L 104.542969 274.738281 L 104.542969 293.875 L 105.226562 341.511719 L 104.539062 391.953125 L 103.351562 478.964844 L 103.417969 538.042969 L 103.527344 542.824219 L 103.726562 551.238281 L 102.5 619.863281 L 101.195312 646.191406 L 100.703125 656.101562 L 96.28125 710.382812 L 95.023438 724.957031 L 93.9375 737.527344 L 93.871094 738.378906 L 93.871094 741.199219 L 94.132812 745.082031 L 94.675781 752.972656 L 95.644531 767.109375 L 99.4375 791.339844 L 99.527344 807.929688 L 99.632812 826.738281 L 97.957031 909.5625 L 96.859375 919.628906 L 96.054688 927.003906 L 92.773438 992.140625 L 90.414062 1064.484375 L 90.359375 1080.105469 L 89.539062 1113.082031 L 92.734375 1127.453125 L 93.605469 1131.375 L 93.824219 1144.992188 L 93.707031 1153.125 L 93.683594 1153.753906 L 93.105469 1168.71875 L 94.003906 1191.972656 L 94.214844 1197.3125 L 92.671875 1205.707031 L 91.417969 1209.898438 L 91.765625 1188.929688 L 90.871094 1197.125 L 89.976562 1201.585938 L 89.488281 1204.03125 L 89.269531 1210.042969 L 89.167969 1214.988281 L 88.230469 1218.972656 L 88.269531 1223.085938 L 88.308594 1226.761719 L 88.34375 1230.765625 L 88.386719 1234.90625 L 87.335938 1240.160156 L 87.121094 1241.246094 L 86.085938 1248.242188 L 83.375 1253.320312 L 83.492188 1251.046875 L 83.179688 1244.636719 L 81.589844 1241.160156 L 81.863281 1243.875 L 81.828125 1249.914062 L 81.503906 1252.890625 L 81.320312 1253.191406 L 81.144531 1253.503906 L 80.953125 1253.8125 L 80.832031 1254.019531 L 80.148438 1254.949219 L 76.640625 1256.847656 L 74.757812 1257.875 L 73.363281 1258.640625 L 73.230469 1258.707031 L 73.082031 1258.75 L 71.347656 1258.75 L 69.242188 1255.472656 L 68.570312 1254.21875 L 68.027344 1253.226562 L 67.832031 1251.285156 L 67.734375 1248.746094 L 68.320312 1247.683594 L 68.832031 1246.761719 L 71.136719 1247.5 L 72.519531 1247.945312 L 75.183594 1248.800781 L 77.292969 1249.484375 L 77.855469 1245.957031 L 78.125 1244.257812 L 77.976562 1242.96875 L 77.804688 1242.1875 L 77.296875 1239.90625 L 76.042969 1239.351562 L 75.035156 1238.914062 L 74.757812 1238.789062 L 74.503906 1238.691406 L 74.332031 1238.550781 L 73.699219 1238.023438 L 71.894531 1237.546875 L 70.546875 1237.253906 L 71.351562 1234.402344 L 72.25 1231.929688 L 72.734375 1231.691406 L 74.277344 1230.917969 L 76.726562 1227.113281 L 76.828125 1227.023438 L 75.238281 1226.277344 L 75.214844 1226.296875 L 73.785156 1226.613281 L 72.382812 1227.316406 L 70.636719 1228.1875 L 68.75 1235.753906 L 68.214844 1238.050781 L 67.492188 1241.148438 L 69.976562 1239.933594 L 71.660156 1240.234375 L 73.507812 1240.964844 L 74.046875 1241.417969 L 74.285156 1241.613281 L 75.054688 1242.242188 L 75.4375 1242.40625 L 75.757812 1242.550781 L 75.703125 1243.746094 L 76.054688 1244.113281 L 75.359375 1244.367188 L 73.757812 1243.847656 L 72.746094 1243.519531 L 70.488281 1242.789062 L 68.351562 1242.101562 L 67.269531 1244.074219 L 65.992188 1246.398438 L 65.945312 1250.515625 L 66.25 1253.886719 L 65.863281 1255.984375 L 65.726562 1256.75 L 65.414062 1257.808594 L 65.109375 1257.847656 L 62.832031 1260.027344 L 61.246094 1257.796875 L 61.03125 1257.308594 L 60.1875 1254.390625 L 60.027344 1253.605469 L 59.53125 1251.195312 L 59.617188 1247.867188 L 60.285156 1243.742188 L 60.640625 1241.554688 L 62.882812 1237.632812 L 64.363281 1235.542969 L 68.195312 1224.542969 L 65.21875 1230.253906 L 63.386719 1231.789062 L 62.523438 1233.035156 L 59.316406 1237.839844 L 58.632812 1242.058594 L 57.757812 1247.453125 L 57.691406 1252.023438 L 58.4375 1255.652344 L 58.566406 1256.28125 L 58.71875 1256.839844 L 58.875 1257.351562 L 58.5 1257.605469 L 58.09375 1257.789062 L 57.054688 1257.789062 L 56.0625 1256.238281 L 55.585938 1255.199219 L 54.289062 1253.671875 L 53.757812 1251.007812 L 53.433594 1248.398438 L 53.675781 1247.394531 L 54.257812 1244.984375 L 56.664062 1240.132812 L 58.046875 1237.644531 L 58.191406 1237.378906 L 60.351562 1228.019531 L 58.46875 1231.984375 L 56.851562 1234.28125 L 56.074219 1235.707031 L 53.027344 1241.414062 L 52.140625 1245.097656 L 51.496094 1247.78125 L 51.933594 1251.644531 L 52.507812 1254.773438 L 52.355469 1254.792969 L 52.203125 1254.808594 L 51.609375 1254.808594 L 50.683594 1253.832031 L 50.527344 1253.070312 L 48.648438 1250.679688 L 49.179688 1243.203125 L 49.417969 1241.570312 L 52.097656 1238.417969 L 55.390625 1227.800781 L 55.488281 1227.515625 L 53.007812 1232.230469 L 52.988281 1232.296875 L 50.984375 1234.796875 L 48.65625 1237.527344 L 48.1875 1238.085938 L 47.847656 1239.0625 L 47.671875 1240.367188 L 47.382812 1242.535156 L 47.605469 1245.492188 L 47.949219 1248.167969 L 47.816406 1248.148438 L 47.695312 1248.078125 L 47.550781 1248.109375 L 45.660156 1248.609375 L 45.238281 1244.527344 L 45.167969 1240.917969 L 45.710938 1238.367188 L 48.855469 1230.695312 L 50.328125 1228.019531 L 52.140625 1224.730469 L 53.160156 1223.292969 L 53.757812 1221.300781 L 54.1875 1219.957031 L 54.792969 1218.050781 L 63.253906 1191.542969 L 65.296875 1186.652344 L 65.515625 1183.351562 L 65.640625 1181.457031 L 65.78125 1179.53125 L 65.925781 1177.570312 L 66.464844 1170.082031 L 70.910156 1149.570312 L 70.730469 1129.398438 L 71.117188 1119.753906 L 69.003906 1086.75 L 66.804688 1053.761719 L 66.65625 1051.589844 L 66.183594 1044.46875 L 64.957031 1032.167969 L 63.398438 1016.589844 L 59.480469 977.40625 L 52.230469 908.175781 L 50.933594 858.867188 L 49.484375 803.71875 L 50.050781 767.957031 L 51.074219 750.539062 L 51.335938 746.070312 L 51.542969 742.542969 L 51.628906 739.753906 L 51.734375 736.414062 L 51.992188 732.117188 L 52.316406 726.671875 L 53.234375 711.28125 L 55.960938 661.324219 L 55.808594 627.414062 L 55.597656 579.660156 L 50.074219 529.351562 L 45.199219 482.019531 L 40.578125 437.160156 L 24.152344 259.117188 L 28.082031 165.496094 L 31.585938 82.074219 L 41.148438 40.738281 L 43.742188 25.179688 L 44.34375 21.578125 L 44.742188 19.191406 L 44.914062 17.46875 L 45.09375 15.671875 L 45.683594 10.164062 L 46.492188 2.5625 L 50.597656 -35.878906 L 55.003906 -107.589844 L 55.308594 -115.207031 L 55.738281 -125.953125 L 53.691406 -188 L 53.070312 -199.917969 L 52.539062 -210.085938 L 47.796875 -259.710938 L 43.726562 -301.808594 L 42.890625 -310.484375 L 41.859375 -321.292969 L 38.984375 -348.574219 L 38.800781 -350.320312 L 38.808594 -350.277344 L 38.8125 -350.242188 L 38.820312 -350.164062 L 37.605469 -361.703125 L 35.429688 -351.085938 L 30.964844 -329.316406 L 22.109375 -286.550781 L 20.511719 -280.476562 L 15.886719 -262.902344 L -5.027344 -179.496094 L -5.226562 -178.722656 L -5.457031 -177.8125 L -5.5 -176.734375 L -5.515625 -176.402344 L -6.945312 -143.121094 L -13.105469 -120.484375 L -16.140625 -109.332031 L -37.664062 -32.710938 L -40.828125 -22.828125 L -43.039062 -15.921875 L -60.761719 50.574219 L -62.730469 65.339844 L -63.785156 73.234375 L -64.191406 82.585938 L -64.621094 92.5625 L -64.964844 100.46875 L -65.316406 108.648438 L -66.019531 115.863281 L -67.589844 132.058594 L -74.910156 171.714844 L -75.75 172.875 L -75.777344 173.003906 L -77.480469 186.875 L -79.246094 194.21875 L -80.34375 198.804688 L -87.414062 222.398438 L -88.914062 225.625 L -89.335938 225.535156 L -91.175781 225.546875 L -91.675781 224.722656 L -93.136719 222.289062 L -94.167969 225.851562 L -97.609375 237.765625 L -103.171875 250.179688 L -104.257812 251.652344 L -104.3125 251.691406 L -104.414062 251.742188 L -105.625 251.742188 L -106.582031 252.113281 L -107.363281 250.902344 L -108.199219 248.414062 L -109.214844 251.585938 L -110.609375 255.941406 L -111.585938 260.351562 L -113.140625 262.019531 L -114.253906 263.683594 L -115.90625 259.71875 L -116.152344 258.976562 L -116.097656 256.714844 L -114.976562 249.390625 L -113.667969 242.84375 L -112.710938 238.015625 L -114.773438 236.429688 L -114.789062 236.417969 L -116.320312 235.226562 L -117.761719 232.640625 L -117.855469 230.242188 L -117.28125 223.410156 L -114.382812 205.082031 L -114.121094 203.4375 L -113.910156 202.113281 L -113.789062 201.261719 L -112.980469 195.695312 L -106.96875 157.882812 L -106.300781 153.707031 L -105.042969 145.84375 L -104.21875 136.644531 L -104.183594 136.261719 L -103.332031 126.691406 L -106.25 133.644531 L -109.03125 138.925781 L -110.800781 139.605469 L -111.476562 139.761719 L -111.867188 139.714844 L -114.921875 138.648438 L -116.476562 133.085938 L -111.527344 123.191406 L -109.585938 116.140625 L -108.078125 110.660156 L -106.46875 104.640625 L -105.917969 102.867188 L -105.488281 101.480469 L -105.160156 99.964844 L -104.804688 98.355469 L -103.804688 93.757812 L -102.257812 89.683594 L -97.191406 80.640625 L -91.035156 69.640625 L -86.1875 55.191406 L -82.867188 47.429688 L -82.324219 46.152344 L -81.863281 45.085938 L -81.507812 44.269531 L -78.609375 37.628906 L -59.53125 -53.710938 L -57.890625 -65.113281 L -56.082031 -77.6875 L -40.765625 -167.277344 L -38.042969 -178.464844 L -35.335938 -189.578125 L -27 -211.460938 L -26.917969 -211.679688 L -26.710938 -212.226562 L -26.582031 -212.902344 L -26.480469 -213.445312 L -15.0625 -274.015625 L -11.09375 -290.886719 L -6.96875 -308.394531 L 0.300781 -353.226562 L 1.640625 -362.714844 L 2.007812 -365.34375 L 2.246094 -368.21875 L 2.574219 -372.210938 L 3.4375 -382.730469 L 4.886719 -400.335938 L 10.757812 -439.230469 L 17.636719 -484.820312 L 28.65625 -494.796875 L 33.363281 -499.054688 L 34.046875 -499.671875 L 34.597656 -500.175781 L 34.984375 -500.632812 L 37.019531 -503.007812 L 53.292969 -509.125 L 63.074219 -512.425781 L 63.4375 -512.644531 L 63.828125 -512.992188 L 73.117188 -521.1875 L 76.027344 -524.824219 L 77.027344 -526.078125 L 85.859375 -537.457031 L 87.511719 -551.226562 L 88.78125 -561.804688 L 88.074219 -606.851562 L 87.992188 -611.953125 L 87.972656 -613.054688 L 87.753906 -614.015625 L 87.714844 -614.1875 L 82.472656 -631.46875 L 81.328125 -640.53125 L 80.398438 -647.894531 L 79.265625 -672.011719 L 79.238281 -672.253906 L 78.679688 -677.738281 L 76.652344 -675.207031 L 76.308594 -674.773438 L 75.394531 -673.855469 L 74.75 -673.703125 L 73.867188 -677.003906 L 70.910156 -689.601562 L 70.859375 -692.257812 L 70.960938 -699.132812 L 70.707031 -705.257812 L 70.496094 -710.183594 L 70.359375 -713.5 L 71.519531 -717.628906 L 71.617188 -718.488281 L 71.890625 -719.261719 L 73.230469 -720.179688 L 74.324219 -720.34375 L 76.167969 -720.597656 L 76.042969 -725.207031 L 75.636719 -740.441406 L 75.4375 -747.550781 L 75.335938 -751.097656 L 73.335938 -783.046875 L 81.085938 -811.097656 L 90.609375 -845.539062 L 108.140625 -849.707031 L 108.269531 -849.714844 L 108.433594 -849.710938 L 125.964844 -845.542969 L 135.488281 -811.097656 L 143.238281 -783.058594 L 141.242188 -751.101562 L 141.140625 -747.554688 L 140.9375 -740.445312 L 140.53125 -725.210938 L 140.414062 -720.621094 L 142.246094 -720.347656 L 143.34375 -720.183594 L 144.683594 -719.265625 L 144.902344 -718.742188 L 145.054688 -717.636719 L 146.214844 -713.507812 L 146.078125 -710.191406 L 145.871094 -705.265625 L 145.609375 -699.136719 L 145.71875 -692.375 L 145.664062 -689.625 L 142.71875 -677.113281 L 141.832031 -673.75 L 141.273438 -673.820312 L 140.390625 -674.628906 L 139.921875 -675.210938 L 137.894531 -677.742188 L 137.332031 -672.253906 L 137.308594 -672.011719 L 136.175781 -647.898438 L 135.246094 -640.53125 L 134.101562 -631.46875 L 128.859375 -614.1875 L 128.820312 -614.015625 L 128.601562 -613.050781 L 128.585938 -611.953125 L 128.5 -606.851562 L 127.796875 -561.804688 L 129.0625 -551.226562 L 130.71875 -537.457031 L 139.546875 -526.078125 L 140.546875 -524.828125 L 143.460938 -521.1875 L 152.746094 -512.992188 L 153.136719 -512.644531 L 153.5 -512.425781 L 163.28125 -509.125 L 179.558594 -503.007812 L 181.59375 -500.632812 L 181.980469 -500.179688 L 182.53125 -499.671875 L 183.214844 -499.054688 L 187.921875 -494.792969 L 198.941406 -484.820312 L 205.820312 -439.230469 L 211.691406 -400.328125 L 213.140625 -382.722656 L 214.003906 -372.203125 L 214.332031 -368.21875 L 214.570312 -365.34375 L 214.941406 -362.714844 L 216.144531 -354.183594 L 226.226562 -298.367188 L 230.339844 -280.882812 L 234.304688 -264.03125 L 244.417969 -216.691406 L 244.492188 -216.28125 L 244.621094 -215.578125 L 244.832031 -215.027344 L 244.914062 -214.804688 L 253.25 -192.917969 L 255.957031 -181.808594 L 258.675781 -170.644531 L 273.992188 -81.042969 L 275.808594 -68.453125 L 277.449219 -57.050781 L 296.527344 34.285156 L 299.425781 40.929688 L 299.78125 41.738281 L 300.234375 42.800781 L 300.777344 44.066406 L 304.097656 51.835938 L 309.722656 65.734375 L 315.886719 76.742188 L 320.949219 85.785156 L 322.320312 92.085938 L 323.324219 96.679688 L 323.671875 98.289062 L 324.003906 99.808594 L 324.433594 101.195312 L 324.988281 102.964844 L 325.632812 108.703125 L 327.140625 114.183594 L 329.078125 121.234375 L 332.324219 128.359375 L 333.324219 132.253906 L 333.550781 134.679688 L 331.988281 137.808594 L 329.65625 136.695312 L 328.925781 136.539062 L 325.027344 131.902344 L 324.207031 128.921875 L 321.242188 123.34375 L 322.652344 132.253906 L 323.320312 133.523438 L 324.398438 141.613281 L 325.65625 149.480469 L 326.492188 154.714844 L 332.105469 190.292969 L 332.878906 195.609375 L 333.003906 196.460938 L 333.214844 197.800781 L 333.476562 199.476562 L 336.367188 217.792969 L 335.761719 226.925781 L 335.671875 229.316406 Z M 335.445312 196.882812 "/>
<path style="fill-rule:nonzero;fill:rgb(85.098039%,37.254902%,0.784314%);fill-opacity:1;stroke-width:0.426791;stroke-linecap:round;stroke-linejoin:round;stroke:rgb(0%,0%,0%);stroke-opacity:1;stroke-miterlimit:10;" d="M 113.742188 112.246094 L 116.019531 116.3125 L 117.261719 118.488281 L 118.605469 121.355469 L 114.074219 123.683594 L 113.925781 124.160156 L 113.617188 119.824219 L 106.765625 114.042969 Z M 113.742188 112.246094 "/>
<path style="fill-rule:nonzero;fill:rgb(85.098039%,37.254902%,0.784314%);fill-opacity:1;stroke-width:0.426791;stroke-linecap:round;stroke-linejoin:round;stroke:rgb(0%,0%,0%);stroke-opacity:1;stroke-miterlimit:10;" d="M 108.867188 169.132812 L 109.019531 168.636719 L 109.207031 168.0625 L 109.550781 167.015625 L 109.9375 164.421875 L 111.605469 153.300781 L 113.3125 138.046875 L 114.285156 125.550781 L 114.378906 124.371094 L 114.492188 123.203125 L 114.539062 122.953125 L 114.964844 120.640625 L 116.496094 118.242188 L 119.097656 115.8125 L 119.960938 115.003906 L 119.9375 115.03125 L 119.902344 114.945312 L 119.890625 114.902344 L 119.726562 114.988281 L 119.539062 115.105469 L 119.296875 115.265625 L 119.027344 115.34375 L 118.597656 115.382812 L 117.753906 115.449219 L 117.203125 115.222656 L 116.425781 114.4375 L 115.445312 113.453125 L 113.371094 112.621094 L 110.925781 112.242188 L 109.867188 112.074219 L 106.34375 112.074219 L 105.160156 112.234375 L 102.738281 112.570312 L 100.996094 113.0625 L 100.53125 113.542969 L 99.230469 114.894531 L 97.953125 115.28125 L 96.570312 114.742188 L 96.125 114.570312 L 96.152344 114.574219 L 96.152344 114.742188 L 96.285156 114.828125 L 96.445312 114.894531 L 98.519531 115.761719 L 100.925781 118.40625 L 102.210938 121.226562 L 102.535156 121.933594 L 102.875 122.941406 L 102.949219 123.40625 L 102.976562 123.570312 L 103.082031 124.804688 L 103.183594 126.148438 L 104.074219 137.679688 L 105.472656 151.691406 L 106.75 161.914062 L 107.289062 166.226562 L 107.332031 166.488281 L 107.667969 167.757812 L 107.839844 168.390625 L 107.96875 168.933594 L 107.957031 168.960938 L 107.917969 169.050781 L 106.867188 166.832031 L 106.773438 166.460938 L 106.535156 165.507812 L 105.96875 162.871094 L 105.4375 160.230469 L 103.289062 149.601562 L 101.550781 137.65625 L 100.398438 125.625 L 100.234375 123.9375 L 100.109375 122.859375 L 100.03125 122.464844 L 99.28125 118.777344 L 97.40625 115.753906 L 95.070312 114.453125 L 94.625 114.207031 L 95.152344 114.140625 L 97.007812 113.894531 L 98.578125 113.085938 L 99.535156 111.890625 L 100.824219 110.273438 L 102.816406 108.910156 L 104.8125 108.28125 L 105.847656 107.957031 L 106.332031 107.863281 L 107.429688 107.773438 L 109.972656 107.5625 L 112.40625 108.109375 L 114.445312 109.34375 L 115.4375 109.949219 L 116.976562 111.292969 L 117.417969 111.945312 L 117.601562 112.214844 L 118.285156 112.800781 L 118.769531 113.109375 L 119.585938 113.625 L 120.609375 113.980469 L 121.765625 114.144531 L 122.058594 114.199219 L 122.25 114.234375 L 122.195312 114.261719 L 121.75 114.425781 L 120.539062 115.351562 L 119.917969 116.003906 L 118.910156 117.0625 L 117.90625 118.902344 L 117.339844 120.726562 L 116.894531 122.167969 L 116.769531 122.921875 L 116.507812 125.695312 L 115.347656 137.988281 L 113.425781 150.929688 L 111.113281 162.027344 L 110.871094 163.199219 L 110.535156 164.753906 L 110.367188 165.484375 L 110.082031 166.726562 L 110.039062 166.855469 L 109.699219 167.550781 L 109.136719 168.699219 L 108.867188 169.222656 Z M 108.867188 169.132812 "/>
<path style="fill-rule:nonzero;fill:rgb(85.098039%,37.254902%,0.784314%);fill-opacity:1;stroke-width:0.426791;stroke-linecap:round;stroke-linejoin:round;stroke:rgb(0%,0%,0%);stroke-opacity:1;stroke-miterlimit:10;" d="M 108.136719 205.953125 L 107.671875 205.738281 L 107.453125 205.421875 L 107.386719 205.324219 L 107.367188 205.257812 L 107.3125 204.964844 L 107.121094 203.949219 L 107.058594 202.839844 L 107.015625 199.757812 L 106.855469 188.464844 L 106.394531 179.785156 L 105.632812 173.640625 L 105.570312 173.148438 L 105.515625 172.703125 L 105.507812 172.65625 L 105.5 172.582031 L 105.503906 172.582031 L 105.558594 172.679688 L 106.039062 173.59375 L 106.574219 174.074219 L 107.515625 174.441406 L 108.109375 174.671875 L 108.609375 174.761719 L 109.5625 174.761719 L 109.902344 174.738281 L 110.03125 174.71875 L 110.84375 174.574219 L 111.558594 174.273438 L 112.082031 173.863281 L 112.34375 173.65625 L 112.730469 173.1875 L 112.914062 172.863281 L 112.984375 172.734375 L 113.046875 172.632812 L 113.050781 172.640625 L 113.054688 172.652344 L 113.039062 172.800781 L 113.015625 172.972656 L 112.800781 174.535156 L 112.527344 177.253906 L 112.347656 179.554688 L 111.921875 185.066406 L 111.660156 191.644531 L 111.550781 199.625 L 111.535156 200.65625 L 111.515625 201.730469 L 111.503906 202.011719 L 111.445312 203.773438 L 111.296875 205.097656 L 111.121094 205.394531 L 110.835938 205.882812 L 109.796875 206.167969 L 108.785156 206.035156 Z M 108.136719 205.953125 "/>
<path style="fill-rule:nonzero;fill:rgb(85.098039%,37.254902%,0.784314%);fill-opacity:1;stroke-width:0.426791;stroke-linecap:round;stroke-linejoin:round;stroke:rgb(0%,0%,0%);stroke-opacity:1;stroke-miterlimit:10;" d="M 94.902344 118.011719 L 94.433594 117.421875 L 93.5 115.195312 L 74.324219 70.890625 L 78.824219 115.839844 L 79.097656 118.382812 L 79.550781 121.945312 L 79.113281 126.394531 L 78.53125 130.398438 L 80.101562 129.996094 L 80.175781 128.324219 L 80.078125 125.429688 L 80.753906 126.636719 L 81.429688 128.804688 L 81.910156 127.117188 L 82.199219 126.152344 L 82.019531 125.164062 L 82.117188 122.269531 L 82.796875 124.652344 L 83.800781 126.777344 L 83.855469 124 L 83.855469 122.9375 L 83.578125 121.804688 L 83.601562 121.128906 L 84.214844 121.640625 L 84.554688 121.980469 L 85.136719 122.578125 L 86.089844 123.34375 L 86.191406 121.296875 L 86.191406 120.277344 L 85.785156 119.765625 L 82.339844 119.167969 L 81.421875 113.203125 L 77.804688 87.632812 L 89.722656 111.183594 L 91 114.054688 L 92.015625 116.054688 L 93.683594 120.292969 L 94.714844 120.871094 L 96.046875 121.128906 L 97.441406 119.59375 L 96.554688 117.976562 L 96.085938 117.957031 Z M 94.902344 118.011719 "/>
<path style="fill-rule:nonzero;fill:rgb(85.098039%,37.254902%,0.784314%);fill-opacity:1;stroke-width:0.426791;stroke-linecap:round;stroke-linejoin:round;stroke:rgb(0%,0%,0%);stroke-opacity:1;stroke-miterlimit:10;" d="M 123.027344 118.011719 L 123.5 117.421875 L 124.433594 115.195312 L 143.609375 70.890625 L 139.105469 115.839844 L 138.832031 118.382812 L 138.378906 121.945312 L 138.816406 126.394531 L 139.402344 130.398438 L 137.828125 129.996094 L 137.753906 128.324219 L 137.851562 125.429688 L 137.175781 126.636719 L 136.503906 128.804688 L 136.019531 127.117188 L 135.730469 126.152344 L 135.910156 125.164062 L 135.816406 122.269531 L 135.136719 124.652344 L 134.132812 126.777344 L 134.074219 124 L 134.074219 122.9375 L 134.351562 121.804688 L 134.328125 121.128906 L 133.714844 121.640625 L 133.375 121.980469 L 132.796875 122.578125 L 131.839844 123.34375 L 131.738281 121.296875 L 131.738281 120.277344 L 132.148438 119.765625 L 135.589844 119.167969 L 136.511719 113.203125 L 140.125 87.632812 L 128.207031 111.183594 L 126.933594 114.054688 L 125.917969 116.054688 L 124.25 120.292969 L 123.214844 120.871094 L 121.886719 121.128906 L 120.488281 119.59375 L 121.375 117.976562 L 121.84375 117.957031 Z M 123.027344 118.011719 "/>
<path style="fill-rule:nonzero;fill:rgb(85.098039%,37.254902%,0.784314%);fill-opacity:1;stroke-width:0.426791;stroke-linecap:round;stroke-linejoin:round;stroke:rgb(0%,0%,0%);stroke-opacity:1;stroke-miterlimit:10;" d="M 95.886719 116.070312 L 96.46875 113.933594 L 96.785156 112.886719 L 98.109375 108.476562 L 99.816406 104.589844 L 101.53125 102.0625 L 103.289062 99.476562 L 105.316406 97.789062 L 107.121094 97.421875 L 107.664062 97.308594 L 109.675781 97.3125 L 110.226562 97.421875 L 111.023438 97.585938 L 111.847656 97.996094 L 112.78125 98.703125 L 116.101562 101.210938 L 119.097656 107.09375 L 121.269531 115.359375 L 121.722656 117.085938 L 121.785156 117.363281 L 121.609375 117.363281 L 120.109375 116.757812 L 119.582031 116.5 L 118.523438 115.984375 L 118.039062 115.625 L 117.644531 115.058594 L 117.105469 114.285156 L 116.132812 113.378906 L 115.183594 112.765625 L 112.851562 111.253906 L 109.566406 110.476562 L 107.207031 110.875 L 103.8125 111.449219 L 101.304688 112.828125 L 99.648438 115.019531 L 99.269531 115.519531 L 98.847656 115.878906 L 98.257812 116.203125 L 97.792969 116.457031 L 96.878906 116.867188 L 96.246094 117.105469 L 95.984375 117.203125 L 95.726562 117.304688 L 95.671875 117.332031 L 95.570312 117.375 L 95.652344 117.046875 Z M 95.886719 116.070312 "/>
<path style="fill-rule:nonzero;fill:rgb(85.098039%,37.254902%,0.784314%);fill-opacity:1;stroke-width:0.426791;stroke-linecap:round;stroke-linejoin:round;stroke:rgb(0%,0%,0%);stroke-opacity:1;stroke-miterlimit:10;" d="M 102.714844 170.542969 L 102.640625 170.273438 L 102.160156 169.019531 L 100.585938 164.917969 L 99.007812 158.496094 L 97.925781 151.765625 L 96.40625 142.335938 L 95.648438 132.679688 L 95.472656 120.585938 L 95.441406 118.316406 L 95.628906 118.402344 L 95.839844 118.5 L 96.378906 118.898438 L 96.851562 119.308594 L 97.328125 119.722656 L 98.296875 120.988281 L 98.738281 121.78125 L 99.527344 123.195312 L 100.195312 125.113281 L 100.421875 126.613281 L 100.476562 126.988281 L 100.683594 128.875 L 100.882812 130.800781 L 102.144531 143.035156 L 103.664062 153.359375 L 105.71875 163.628906 L 106.566406 167.871094 L 106.996094 169.777344 L 107.507812 171.5625 L 104.695312 171.703125 L 105.0625 171.597656 L 102.878906 171.628906 Z M 102.714844 170.542969 "/>
<path style="fill-rule:nonzero;fill:rgb(85.098039%,37.254902%,0.784314%);fill-opacity:1;stroke-width:0.426791;stroke-linecap:round;stroke-linejoin:round;stroke:rgb(0%,0%,0%);stroke-opacity:1;stroke-miterlimit:10;" d="M 114.792969 170.457031 L 114.867188 170.1875 L 115.347656 168.933594 L 116.925781 164.832031 L 118.5 158.414062 L 119.582031 151.679688 L 121.101562 142.25 L 121.859375 132.59375 L 122.035156 120.5 L 122.066406 118.230469 L 121.878906 118.316406 L 121.667969 118.414062 L 121.132812 118.8125 L 120.65625 119.222656 L 120.179688 119.636719 L 119.210938 120.90625 L 118.769531 121.695312 L 117.980469 123.109375 L 117.3125 125.027344 L 117.085938 126.527344 L 117.03125 126.902344 L 116.824219 128.789062 L 116.625 130.714844 L 115.363281 142.949219 L 113.84375 153.273438 L 111.789062 163.542969 L 110.941406 167.785156 L 110.511719 169.691406 L 110 171.480469 L 112.8125 171.617188 L 112.445312 171.511719 L 114.628906 171.542969 Z M 114.792969 170.457031 "/>
<path style="fill-rule:nonzero;fill:rgb(85.098039%,37.254902%,0.784314%);fill-opacity:1;stroke-width:0.426791;stroke-linecap:round;stroke-linejoin:round;stroke:rgb(0%,0%,0%);stroke-opacity:1;stroke-miterlimit:10;" d="M 106.964844 190.636719 L 106.585938 190.320312 L 106.382812 190.0625 L 105.695312 189.199219 L 104.984375 187.15625 L 104.75 185.386719 L 104.417969 182.886719 L 104.300781 180.796875 L 104.234375 176.296875 L 104.1875 173.175781 L 104.09375 171.5625 L 103.890625 170.578125 L 103.828125 170.269531 L 106.050781 170.226562 L 108.410156 170.183594 L 109.175781 171.359375 L 109.566406 172.746094 L 109.503906 175.121094 L 109.289062 178.140625 L 109.332031 179.667969 L 109.335938 181.371094 L 109.359375 184.332031 L 109.613281 183.445312 L 109.636719 187.449219 L 109.695312 188.421875 L 109.359375 189.269531 L 109.078125 189.871094 L 108.929688 190.183594 L 108.519531 190.550781 L 108.136719 190.703125 L 107.9375 190.78125 L 107.335938 190.800781 L 107.167969 190.726562 Z M 106.964844 190.636719 "/>
<path style="fill-rule:nonzero;fill:rgb(85.098039%,37.254902%,0.784314%);fill-opacity:1;stroke-width:0.426791;stroke-linecap:round;stroke-linejoin:round;stroke:rgb(0%,0%,0%);stroke-opacity:1;stroke-miterlimit:10;" d="M 110.039062 189.808594 L 110.417969 189.488281 L 110.621094 189.230469 L 111.308594 188.367188 L 112.023438 186.328125 L 112.257812 184.558594 L 112.585938 182.058594 L 112.707031 179.96875 L 112.769531 175.46875 L 112.816406 172.347656 L 112.914062 170.734375 L 113.113281 169.75 L 113.175781 169.441406 L 110.953125 169.398438 L 108.59375 169.355469 L 107.828125 170.53125 L 107.4375 171.917969 L 107.5 174.289062 L 107.714844 177.3125 L 107.671875 178.835938 L 107.667969 180.542969 L 107.644531 183.503906 L 107.390625 182.617188 L 107.371094 186.621094 L 107.308594 187.59375 L 107.648438 188.441406 L 107.929688 189.042969 L 108.074219 189.355469 L 108.488281 189.71875 L 108.867188 189.875 L 109.066406 189.949219 L 109.671875 189.972656 L 109.839844 189.894531 Z M 110.039062 189.808594 "/>
<path style="fill-rule:nonzero;fill:rgb(85.098039%,37.254902%,0.784314%);fill-opacity:1;stroke-width:0.426791;stroke-linecap:round;stroke-linejoin:round;stroke:rgb(0%,0%,0%);stroke-opacity:1;stroke-miterlimit:10;" d="M 104.210938 189.089844 L 105.59375 189.304688 L 108.703125 189.707031 L 108.039062 185.28125 L 108.082031 183.976562 L 105.832031 183.722656 L 103.328125 184.574219 Z M 104.210938 189.089844 "/>
<path style="fill-rule:nonzero;fill:rgb(85.098039%,37.254902%,0.784314%);fill-opacity:1;stroke-width:0.426791;stroke-linecap:round;stroke-linejoin:round;stroke:rgb(0%,0%,0%);stroke-opacity:1;stroke-miterlimit:10;" d="M 112.101562 189.089844 L 110.722656 189.304688 L 107.609375 189.707031 L 108.277344 185.28125 L 108.234375 183.976562 L 110.484375 183.722656 L 112.988281 184.574219 Z M 112.101562 189.089844 "/>
</g>
</svg>
