<?xml version="1.0" encoding="UTF-8" standalone="no"?>
<!-- Created with Inkscape (http://www.inkscape.org/) -->

<svg
   xmlns:dc="http://purl.org/dc/elements/1.1/"
   xmlns:cc="http://creativecommons.org/ns#"
   xmlns:rdf="http://www.w3.org/1999/02/22-rdf-syntax-ns#"
   xmlns:svg="http://www.w3.org/2000/svg"
   xmlns="http://www.w3.org/2000/svg"
   xmlns:xlink="http://www.w3.org/1999/xlink"
   xmlns:sodipodi="http://sodipodi.sourceforge.net/DTD/sodipodi-0.dtd"
   xmlns:inkscape="http://www.inkscape.org/namespaces/inkscape"
   height="56.242912"
   width="129.00903"
   viewBox="0 0 129.00903 56.242912"
   preserveAspectRatio="none"
   id="svg2"
   version="1.1"
   inkscape:version="0.91 r13725"
   sodipodi:docname="anolis_carolinensis.svg">
  <defs
     id="defs4" />
  <sodipodi:namedview
     id="base"
     pagecolor="#ffffff"
     bordercolor="#666666"
     borderopacity="1.0"
     inkscape:pageopacity="0.0"
     inkscape:pageshadow="2"
     inkscape:zoom="7.919596"
     inkscape:cx="100.19729"
     inkscape:cy="1.5595391"
     inkscape:document-units="px"
     inkscape:current-layer="LAYER_OUTLINE"
     showgrid="false"
     showguides="true"
     inkscape:guide-bbox="true"
     inkscape:window-width="1680"
     inkscape:window-height="995"
     inkscape:window-x="-3"
     inkscape:window-y="38"
     inkscape:window-maximized="0"
     fit-margin-top="0"
     fit-margin-left="0"
     fit-margin-right="0"
     fit-margin-bottom="0" />
  <metadata
     id="metadata">
    <rdf:RDF>
      <cc:Work
         rdf:about="">
        <dc:format>image/svg+xml</dc:format>
        <dc:type
           rdf:resource="http://purl.org/dc/dcmitype/StillImage" />
        <dc:title></dc:title>
      </cc:Work>
    </rdf:RDF>
  </metadata>
  <g
     inkscape:label="Outline"
     inkscape:groupmode="layer"
     id="LAYER_OUTLINE">
    <a
       id="a4174"
       xlink:href="https://www.ebi.ac.uk/gxa/licence.html"
       transform="matrix(1.6295183,0,0,1.6295183,-81.213553,-35.405942)">
      <g
         id="g3"
         transform="matrix(0.07645089,0,0,0.07645089,123.6957,51.617633)">
        <circle
           id="circle5"
           r="28.275999"
           cy="28.806"
           cx="37.637001"
           style="fill:#ffffff" />
        <g
           id="g7">
          <path
             style="fill:#009600;fill-opacity:1"
             id="path9"
             d="M 37.443,-3.5 C 46.431,-3.5 54.013,-0.415 60.185,5.757 66.393,11.967 69.5,19.548 69.5,28.5 69.5,37.491 66.451,44.976 60.355,50.956 53.879,57.319 46.242,60.5 37.443,60.5 28.794,60.5 21.29,57.356 14.929,51.07 8.644,44.784 5.5,37.262 5.5,28.5 5.5,19.739 8.644,12.158 14.929,5.758 21.101,-0.415 28.604,-3.5 37.443,-3.5 Z M 37.557,2.272 C 30.281,2.272 24.129,4.825 19.1,9.929 13.88,15.263 11.271,21.454 11.271,28.501 11.271,35.587 13.861,41.721 19.041,46.899 24.222,52.081 30.393,54.67 37.555,54.67 44.678,54.67 50.889,52.063 56.184,46.842 61.213,42.004 63.727,35.89 63.727,28.499 63.727,21.223 61.174,15.034 56.071,9.928 50.967,4.824 44.795,2.272 37.557,2.272 Z M 46.129,20.557 46.129,33.642 42.473,33.642 42.473,49.184 32.529,49.184 32.529,33.643 28.873,33.643 28.873,20.557 C 28.873,19.985 29.073,19.5 29.472,19.1 29.873,18.701 30.359,18.5 30.929,18.5 L 44.073,18.5 C 44.606,18.5 45.083,18.7 45.501,19.1 45.918,19.5 46.129,19.986 46.129,20.557 Z M 33.042,12.329 C 33.042,9.321 34.527,7.815 37.5,7.815 40.473,7.815 41.957,9.319 41.957,12.329 41.957,15.3 40.471,16.786 37.5,16.786 34.529,16.786 33.042,15.3 33.042,12.329 Z"
             inkscape:connector-curvature="0" />
        </g>
      </g>
    </a>
    <path
       style="fill:#a0a1a2;fill-opacity:1"
       d="M 107.80736,56.1323 C 107.80736,55.90742 108.37632,55.36771 109.98794,54.06383 114.97159,49.23877 120.17331,43.97193 124.00821,38.39077 126.20232,34.93234 127.13657,31.69045 126.11223,27.849759 125.15938,24.124161 123.00248,21.940175 117.66192,19.785301 112.71422,17.788951 109.9951,17.085525 105.90117,16.742852 103.6734,16.556382 98.756595,16.44253 96.110566,16.516142 93.089653,16.600183 89.175253,19.228517 86.353012,23.067872 85.149434,24.70521 82.668289,27.304877 82.442411,27.165278 82.369768,27.12038 82.577097,26.848125 82.903144,26.560266 83.22919,26.272404 83.705699,25.814926 83.962054,25.543644 84.476061,24.999708 86.312835,22.616478 86.731668,21.950048 87.308819,21.031705 89.090922,19.392102 91.442906,17.615525 94.527509,15.285563 95.119114,14.705095 95.474365,13.659962 95.623851,13.220182 95.79644,12.860363 95.857899,12.860363 96.010471,12.860363 95.998878,12.965324 95.758956,13.756136 95.470621,14.706527 95.096075,15.265543 94.197232,16.087033 L 93.423961,16.79376 94.168331,16.555733 C 94.807966,16.351196 95.561194,16.068737 99.739035,16.069675 104.67601,16.070803 107.791,16.495077 109.85078,16.891969 113.58211,17.610945 119.65254,19.95639 122.29711,21.700876 124.25192,22.990376 125.76177,25.078771 126.40259,27.379531 126.7943,28.785898 127.08055,31.82196 126.85544,32.18244 126.69339,33.69117 126.24658,35.00482 125.70983,36.18351 125.17491,37.3371 123.65432,39.6698 122.12714,41.6796 121.4062,42.62836 118.92409,45.60814 118.66416,45.83689 118.62012,45.87565 117.5319,47.04885 116.24587,48.44401 113.82077,51.0749 110.71169,54.15149 110.47812,54.15149 110.40436,54.15149 110.34402,54.22008 110.34402,54.30391 110.34402,54.82128 116.39975,50.27059 118.24701,48.36507 120.55503,45.98424 123.48891,42.64618 124.68037,41.04543 127.62095,36.79452 129.95105,32.37344 127.69951,25.606136 123.69341,17.853324 113.27279,14.757083 107.41665,13.01425 101.07425,11.148864 96.024425,8.9661822 92.79882,7.4302202 88.739898,5.4974492 86.337999,4.9633612 79.833688,4.5472812 74.018284,4.1752702 72.104743,4.0987872 70.603078,4.1783392 69.711725,4.2255592 66.667737,4.3966342 63.838661,4.5585042 54.839882,5.0733852 49.367931,4.7975612 44.813738,3.5995172 40.603429,2.4919372 40.259709,2.4337172 37.062844,2.2866622 33.107771,2.1047302 32.476068,1.9995242 30.411348,1.1788842 27.442261,-0.00120078 27.01389,-0.01776478 24.238637,0.94018622 L 22.19522,1.6455262 20.017286,1.6849752 C 18.819422,1.7066742 17.61451,1.7971382 17.339705,1.8860072 15.987529,2.3232872 14.657884,3.2150882 12.96461,4.8204092 12.058443,5.6795092 10.973438,6.5272032 7.9617601,8.7290462 5.6977041,10.3843 5.0452367,10.811149 3.1880445,11.85204 1.1311821,13.004841 0.43540255,13.595173 0.33862625,14.269616 0.18900015,15.312371 0.98381915,15.953037 2.8763213,16.315132 7.8137335,17.259815 11.798203,17.316567 16.677182,16.511706 17.780175,16.329752 18.887941,16.233339 19.512964,16.264902 20.467895,16.313124 20.697909,16.395964 22.846659,17.465555 24.116055,18.097426 25.682808,18.778864 26.328332,18.979861 27.574831,19.367985 29.737931,19.764197 30.615509,19.765138 31.123227,19.765702 31.14398,19.746788 31.14398,19.283992 31.14398,18.739105 31.260943,18.356451 31.427497,18.356451 31.489338,18.356451 31.507164,18.600781 31.46711,18.899404 31.346389,19.799452 31.93276,20.809731 33.696738,22.740903 33.881655,22.943345 34.096366,23.203304 34.173875,23.318588 34.251384,23.433872 34.631882,23.924031 35.019427,24.407831 35.406971,24.891631 35.739438,25.329252 35.758243,25.380324 35.850365,25.630525 34.791019,26.107043 33.821561,26.25149 30.019612,26.817969 29.950693,26.833807 28.607323,27.449753 26.61099,28.365087 25.072008,28.756324 20.926892,29.40226 19.742576,29.58681 19.71235,29.59947 20.470574,29.59339 20.917179,29.58981 21.321366,29.62567 21.368766,29.67307 21.590034,29.89433 21.227608,30.15518 20.274688,30.46049 19.229905,30.79523 17.927169,31.39943 17.403979,31.7919 16.807266,32.23952 17.391747,32.1924 18.732047,31.68481 20.115466,31.1609 22.468604,30.61833 23.361342,30.61743 24.036783,30.61672 24.180327,31.08688 23.82554,32.1378 23.676665,32.57878 23.577103,32.96183 23.604289,32.98902 23.631476,33.0162 24.168502,32.55703 24.79768,31.96863 25.45455,31.35433 26.074118,30.89197 26.252773,30.88274 26.807991,30.85407 27.238859,30.78251 29.100562,30.40977 30.108178,30.20804 31.978962,29.95423 33.25786,29.84576 34.536757,29.73728 35.90021,29.57949 36.287755,29.4951 37.955131,29.132012 40.197059,28.036646 40.927395,27.228252 41.410043,26.694018 41.457291,26.5744 41.396988,26.03939 41.332485,25.467119 40.723379,24.104436 40.179249,23.315085 38.536106,20.931428 36.526395,17.175011 36.802852,17.004151 36.870887,16.962104 37.159687,17.418614 37.444628,18.018621 37.729571,18.618628 37.98836,19.032575 38.019718,18.938503 38.056519,18.828098 38.134319,18.814253 38.239183,18.899451 38.510086,19.119549 41.505561,19.899984 43.174296,20.185235 46.111479,20.687312 48.668575,20.789467 56.354924,20.711803 65.581048,20.618579 67.93823,20.465726 73.139734,19.623375 74.49614,19.403713 76.684006,19.090664 78.001658,18.927711 79.31931,18.764757 80.999845,18.481803 81.73618,18.298926 83.000088,17.985017 83.312558,17.954452 83.101658,18.165352 82.924244,18.342765 79.941824,18.929792 77.790502,19.210744 76.588986,19.367654 74.527849,19.682745 73.210197,19.910944 67.87823,20.834369 63.637181,21.107768 55.030826,21.082879 46.332745,21.057725 43.268943,20.749275 39.176724,19.486761 38.672916,19.331329 38.211858,19.203672 38.152152,19.20308 37.963738,19.201206 38.548592,20.212241 39.909433,22.240873 41.479958,24.582081 41.74521,25.108684 41.821499,26.036883 41.896503,26.949477 41.529065,27.517087 40.350348,28.309471 38.657295,29.44761 35.981339,30.18892 33.53971,30.1962 32.351042,30.19973 30.278109,30.46444 27.973159,30.90701 27.120561,31.07072 26.296005,31.22824 26.140814,31.25705 25.985623,31.28585 25.399427,31.75608 24.838155,32.30198 24.276885,32.84789 23.720143,33.29454 23.600952,33.29454 23.256933,33.29454 23.19932,32.90986 23.446431,32.2628 23.727459,31.52694 23.738376,31.05523 23.476705,30.95482 23.131322,30.82228 20.262043,31.4774 19.235787,31.92311 17.989837,32.46424 17.384423,32.60237 16.962239,32.44186 16.22419,32.16125 16.793052,31.4505 18.346254,30.71263 L 19.303984,30.25765 18.494796,30.26115 C 17.766728,30.26429 17.681181,30.23351 17.641433,29.9541 17.603594,29.68811 17.704687,29.61305 18.346059,29.43091 18.757901,29.31396 19.824151,29.119655 20.715504,28.999124 24.639144,28.468561 26.562842,28.004373 28.584268,27.100389 29.771906,26.569275 30.992044,26.304582 33.469248,26.040658 34.550616,25.925448 35.185165,25.724949 35.284061,25.46723 35.33214,25.341939 34.970762,24.841333 34.345276,24.16676 32.748051,22.444186 32.09387,21.63736 31.624603,20.811253 L 31.189212,20.044782 30.285812,20.748952 C 27.137346,23.203079 24.556706,24.225004 21.13828,24.371347 19.568705,24.43854 19.292237,24.414092 18.601623,24.147035 17.325994,23.653755 16.387659,22.620034 15.071607,20.258174 14.610338,19.430358 14.232938,18.717367 14.232938,18.673749 14.232938,18.630131 14.074397,18.386585 13.880624,18.132537 13.477838,17.604455 13.453257,17.510899 13.717302,17.510899 13.821247,17.510899 14.084088,17.843835 14.301392,18.250757 15.929021,21.298633 17.234078,23.012449 18.378746,23.605179 20.045545,24.468281 24.292217,23.847137 27.38437,22.28796 28.566589,21.691843 30.605411,20.202232 30.491456,20.01785 30.453651,19.956678 30.170122,19.90663 29.861393,19.90663 28.207367,19.90663 25.45965,19.051564 22.702361,17.678799 20.028115,16.347379 19.658803,16.300942 16.346818,16.879662 14.540451,17.195298 13.601606,17.273002 10.921193,17.328719 7.8601064,17.39235 7.5178974,17.372478 4.7657338,16.971288 2.9886811,16.712243 1.6016585,16.435939 1.2111262,16.263187 0.39211165,15.900899 7.1125441e-4,15.28374 2.3544069e-6,14.353489 -4.2044559e-4,13.732675 0.05562845,13.608858 0.55078655,13.137825 0.85400715,12.849378 1.4723172,12.405508 1.9248088,12.151448 4.1575475,10.897832 5.9335596,9.7721642 7.5688095,8.5741822 7.8952504,8.3350312 8.6114399,7.8222812 9.1603439,7.4347372 10.609319,6.4117102 11.77748,5.4829332 12.717538,4.6064972 14.022856,3.3895212 15.523256,2.3205462 16.502178,1.9100922 17.321136,1.5667112 17.623304,1.5244672 19.799489,1.4491162 L 22.19522,1.3661642 24.379563,0.63946222 C 25.401772,0.36880322 26.567177,-0.30689878 28.286236,0.16040822 28.458427,0.16958322 29.309202,0.46599822 30.176846,0.81911722 32.579128,1.7968172 32.949827,1.8635422 36.780994,2.0078652 40.432554,2.1454212 41.267127,2.2690872 44.29192,3.1208342 46.159005,3.6465842 46.861151,3.7760742 49.777511,4.1324872 54.104382,4.6612812 55.85312,4.6519632 67.573183,4.0376692 71.035382,3.8562022 72.24752,3.8454952 74.267137,3.9785412 75.623543,4.0678982 77.874826,4.1957452 79.269987,4.2626472 85.340135,4.5537282 88.521113,5.1773992 92.129425,6.7839002 95.49083,8.2804732 96.239194,8.5934592 99.140465,9.7161032 104.75291,12.217212 111.19679,13.275012 116.7841,15.683261 121.5054,17.777633 125.57792,20.660468 127.88827,25.070538 128.61188,26.576641 128.88829,28.527516 128.99183,30.41763 129.1931,34.09216 127.60664,37.29133 125.3435,40.69312 123.84297,42.94862 119.29865,48.08065 117.03797,50.07279 115.59395,51.34528 112.18515,53.80582 110.24707,54.9746 108.15156,56.23833 107.80736,56.40165 107.80736,56.1323 Z M 89.221537,36.78091 C 89.061663,36.45065 88.806924,35.57868 88.65545,34.84319 88.326561,33.24624 88.167375,32.79536 87.895628,32.69108 87.652007,32.59759 87.111139,32.91298 85.926987,33.83901 84.508803,34.94807 83.339709,35.414 83.07002,34.97763 82.840656,34.60651 83.211921,34.09378 84.380881,33.16727 86.039681,31.85252 86.244004,31.49192 85.646859,30.93301 85.250791,30.5623 84.588633,30.3385 82.049832,29.71727 79.52019,29.098278 78.950534,28.800053 78.577224,27.899293 78.323471,27.287015 78.312841,27.123207 78.460927,26.107191 78.700182,24.465667 79.531104,22.615134 80.675587,21.174958 80.829575,20.981186 81.781221,19.9943 82.790358,18.981878 84.497903,17.268771 86.449371,15.694549 86.635154,15.880332 86.679368,15.924546 86.689119,15.980819 86.656824,16.005384 85.828365,16.635539 82.713041,19.346518 82.098471,19.9721 80.06511,22.041893 78.907517,24.202959 78.688834,26.337416 78.576651,27.432395 78.869068,28.222026 79.540391,28.636927 79.780641,28.785411 81.132494,29.189834 82.54451,29.53565 85.267152,30.20244 85.926318,30.47804 86.212017,31.06907 86.545476,31.7589 86.1717,32.29437 84.453259,33.58865 83.62768,34.21045 83.269213,34.70379 83.642979,34.70379 83.97684,34.70379 84.335221,34.48907 85.911753,33.34448 87.487276,32.20062 88.042621,32.04094 88.413605,32.62514 88.524351,32.79954 88.782514,33.69858 88.987301,34.62301 89.330422,36.17188 89.683172,37.09952 89.929037,37.09952 90.2373,37.09952 90.178878,36.14716 89.778607,34.64731 89.540756,33.75605 89.347014,32.72243 89.348073,32.35037 89.352639,30.74525 89.605164,30.60421 92.719433,30.46739 95.004618,30.367 95.613963,30.27583 95.477342,30.05478 95.394496,29.92073 94.094271,29.68675 92.325811,29.48766 89.860259,29.305436 89.778595,28.855025 88.747216,28.64938 87.287528,28.363971 85.38307,27.695989 84.448993,27.141795 83.964562,26.854378 83.56821,26.562179 83.56821,26.492465 83.56821,26.345508 83.522565,26.32767 84.647983,26.914449 87.669067,28.356279 88.476454,28.040241 90.159656,28.823872 90.492136,29.010075 91.120122,29.116312 94.122859,29.48478 95.321008,29.63181 95.68779,29.78642 95.68779,30.14446 95.68779,30.48959 94.980958,30.63074 92.691759,30.74278 90.769126,30.83687 90.410182,30.89146 90.080587,31.13989 89.726942,31.40644 89.699521,31.50009 89.712668,32.39645 89.721433,32.99457 89.86966,33.84775 90.100212,34.62724 90.649659,36.48488 90.567236,37.38137 89.847001,37.38137 89.592434,37.38137 89.442567,37.2375 89.221537,36.78091 Z M 20.943814,9.2694002 C 21.155426,8.8071762 21.279641,8.3119422 21.253099,8.0363032 L 21.208742,7.5756622 20.926892,8.1375032 C 20.540266,8.9082042 19.859274,9.3372292 19.022565,9.3372292 18.273711,9.3372292 17.615146,8.9362122 17.615146,8.4802172 17.615146,8.2335582 17.687025,8.2158132 18.363887,8.2953642 18.964711,8.3659792 19.226574,8.3252332 19.689406,8.0891142 20.274483,7.7906302 21.034267,6.9743112 20.911655,6.7759192 20.874773,6.7162432 20.596877,6.5931982 20.29411,6.5024862 19.514846,6.2690142 19.018837,6.5096732 18.474503,7.3853172 18.130843,7.9381522 17.969699,8.0788012 17.720588,8.0433522 17.454285,8.0054562 17.409842,7.9224342 17.441909,7.5227672 17.520471,6.5436212 18.348731,5.9550212 19.648,5.9550212 19.959071,5.9550212 20.133399,5.8983282 20.08134,5.8140952 19.932622,5.5734672 20.236621,5.6589352 20.629968,5.9683422 21.610392,6.7395442 21.846754,8.4143672 21.13002,9.5116412 20.628754,10.27905 20.536516,10.159055 20.943814,9.2694002 Z M 20.041086,8.5412052 C 20.337315,8.3359182 20.547215,8.1354882 20.507532,8.0958052 20.467848,8.0561222 20.324013,8.1231422 20.187897,8.2447362 20.051782,8.3663322 19.718457,8.5615892 19.447175,8.6786402 19.110275,8.8240042 19.040872,8.8951052 19.228213,8.9029582 19.379065,8.9092852 19.744858,8.7464912 20.041086,8.5412052 Z M 18.320208,6.9062672 C 18.527685,6.6228522 18.561716,6.5244222 18.409479,6.6480582 18.178392,6.8357282 17.828979,7.3642742 17.935999,7.3642742 17.962905,7.3642742 18.135799,7.1581712 18.320208,6.9062672 Z M 15.642191,8.2353532 C 15.642191,7.7579902 16.046166,6.9733952 16.521181,6.5281942 16.774071,6.2911742 17.022913,6.0969562 17.074162,6.0965982 17.125412,6.0961762 16.887601,6.5131162 16.545692,7.0229902 16.203784,7.5328632 15.924042,8.0364512 15.924042,8.1420752 15.924042,8.2476982 15.860625,8.3733112 15.783116,8.4212142 15.705607,8.4691182 15.642191,8.3854802 15.642191,8.2353532 Z"
       id="path4142"
       inkscape:connector-curvature="0"
       sodipodi:nodetypes="scccsssscsssssssscsssssccscsssscccsssssssscssssssssssscssssssssssssssscscsssssssssssssssssssssscssssssssssssscssssssssscsssssssssscsssssscssssssscccsssssssscccssssssssssssssssssssssssssssssssssccssccsssscssssscssssssssssssssssssscssssssscssss"
       inkscape:label="outline" />
  </g>
  <g
     inkscape:groupmode="layer"
     id="LAYER_EFO"
     inkscape:label="EFO">
    <path
       style="fill:none;stroke:none"
       d="M 21.00318,4.6029388 C 21.439429,2.6654588 22.925004,3.0705588 22.925004,3.0705588 23.581375,3.1423588 24.443078,2.7703488 24.857261,2.8505988 25.459799,2.8921988 25.970591,3.5327388 25.970591,3.5327388 26.240708,4.0054088 26.72722,3.5337388 26.72722,3.5337388 28.799679,2.0117588 30.027326,3.9630288 30.027326,3.9630288 30.42385,4.7975488 30.335567,5.3464088 30.335567,5.3464088 30.228986,6.5990888 29.427722,6.9418388 29.427722,6.9418388 28.495122,7.1627188 27.982606,6.5463888 27.982606,6.5463888 26.069409,7.2216888 25.125778,7.0052988 25.125778,7.0052988 23.519015,6.8944488 22.850668,6.3439888 22.850668,6.3439888 22.871438,6.0427088 23.628065,6.0444088 23.628065,6.0444088 22.275867,5.5234388 20.925738,5.0383188 21.00318,4.6022288 Z"
       id="UBERON_0000955"
       inkscape:connector-curvature="0"
       sodipodi:nodetypes="ccccccccccccc"
       inkscape:label="UBERON_0000955">
      <title
         id="brain">brain</title>
    </path>
    <path
       style="fill:none;stroke:none"
       d="M 38.027455,14.263308 C 35.379494,15.057678 37.056536,16.911258 37.056536,16.911258 L 37.056536,16.911258 37.409598,17.176038 C 40.896083,18.323508 42.793789,17.838058 42.793789,17.838058 43.676443,17.484988 43.764709,16.646458 43.764709,16.646458 43.588179,15.807938 38.027455,14.263308 38.027455,14.263308 Z"
       id="UBERON_0000948"
       inkscape:connector-curvature="0"
       inkscape:label="UBERON_0000948">
      <title
         id="heart">heart</title>
    </path>
    <path
       style="fill:none;stroke:none"
       d="M 96.39603,10.293518 C 96.39603,10.293518 92.01598,7.7457388 85.947678,6.7933988 85.947678,6.7933988 84.142809,6.8283988 83.816149,8.0300888 83.414364,9.2297884 85.27567,10.061698 85.27567,10.061698 85.979543,10.536028 95.626093,11.136618 95.626093,11.136618 96.57614,11.122818 96.73179,10.521748 96.39603,10.293518 Z"
       id="UBERON_0002113"
       inkscape:connector-curvature="0"
       sodipodi:nodetypes="cccccc"
       inkscape:label="UBERON_0002113">
      <title
         id="kidney">kidney</title>
    </path>
    <g
       id="UBERON_0014892"
       inkscape:label="UBERON_0014892"
       style="fill:none;stroke:none"
       transform="matrix(0.14092535,0,0,0.14092535,0.61228801,-27.666613)">
      <title
         id="skeletal muscle organ">skeletal muscle organ</title>
      <path
         sodipodi:nodetypes="ccccc"
         inkscape:connector-curvature="0"
         id="path4656"
         d="M 623.94776,306.11939 C 557.2777,351.07118 563.33861,382.3859 563.33861,382.3859 566.62161,374.55722 576.21806,358.89986 576.21806,358.89986 588.84497,338.44427 625.21046,311.42269 625.21046,311.42269 626.85196,310.15999 623.94776,306.11939 623.94776,306.11939 Z" />
      <path
         sodipodi:nodetypes="cccccccc"
         inkscape:connector-curvature="0"
         id="path4658"
         d="M 627.63649,305.79288 C 633.19233,304.78273 654.17838,305.2878 654.17838,305.2878 647.48612,306.9293 645.09969,308.7927 645.09969,308.7927 618.3359,333.45478 571.25921,382.34257 571.25921,382.34257 569.74398,384.61541 567.05272,389.63554 567.05272,389.63554 565.03241,382.81701 567.72367,380.32226 567.72367,380.32226 583.75985,342.44154 628.79458,313.25173 628.79458,313.25173 630.3098,310.34754 627.63649,305.79288 627.63649,305.79288 Z" />
      <path
         sodipodi:nodetypes="ccccccc"
         inkscape:connector-curvature="0"
         id="path4691"
         d="M 658.57143,306.23734 C 658.57143,306.23734 648.75,307.84448 645.71429,311.23734 602.7801,356.38464 575.71429,380.8802 575.71429,380.8802 587.5,381.23734 595.71429,374.6302 595.71429,374.6302 613.21429,353.73734 622.67857,341.41591 622.67857,341.41591 627.85714,333.73734 654.10714,314.09448 654.10714,314.09448 657.5,311.05877 658.57143,306.23734 658.57143,306.23734 Z" />
    </g>
  </g>
</svg>
