<?xml version="1.0" encoding="UTF-8" standalone="no"?>
<!-- Created with Inkscape (http://www.inkscape.org/) -->

<svg
   xmlns:dc="http://purl.org/dc/elements/1.1/"
   xmlns:cc="http://creativecommons.org/ns#"
   xmlns:rdf="http://www.w3.org/1999/02/22-rdf-syntax-ns#"
   xmlns:svg="http://www.w3.org/2000/svg"
   xmlns="http://www.w3.org/2000/svg"
   xmlns:xlink="http://www.w3.org/1999/xlink"
   xmlns:sodipodi="http://sodipodi.sourceforge.net/DTD/sodipodi-0.dtd"
   xmlns:inkscape="http://www.inkscape.org/namespaces/inkscape"
   width="108.98891"
   height="60.884159"
   viewBox="0 0 108.98891 60.884159"
   preserveAspectRatio="none"
   id="svg2"
   version="1.1"
   inkscape:version="0.91 r13725"
   sodipodi:docname="bos_taurus.svg">
  <defs
     id="defs4" />
  <sodipodi:namedview
     id="base"
     pagecolor="#ffffff"
     bordercolor="#666666"
     borderopacity="1.0"
     inkscape:pageopacity="0.0"
     inkscape:pageshadow="2"
     inkscape:zoom="5.6"
     inkscape:cx="39.406385"
     inkscape:cy="46.162841"
     inkscape:document-units="px"
     inkscape:current-layer="LAYER_OUTLINE"
     showgrid="false"
     inkscape:window-width="1680"
     inkscape:window-height="1001"
     inkscape:window-x="0"
     inkscape:window-y="1"
     inkscape:window-maximized="1"
     showguides="true"
     inkscape:guide-bbox="true"
     fit-margin-top="0"
     fit-margin-left="0"
     fit-margin-right="0"
     fit-margin-bottom="0" />
  <metadata
     id="metadata">
    <rdf:RDF>
      <cc:Work
         rdf:about="">
        <dc:format>image/svg+xml</dc:format>
        <dc:type
           rdf:resource="http://purl.org/dc/dcmitype/StillImage" />
        <dc:title></dc:title>
      </cc:Work>
    </rdf:RDF>
  </metadata>
  <g
     transform="matrix(0.88194703,0,0,0.88194703,0,-11.115842)"
     id="LAYER_OUTLINE"
     inkscape:groupmode="layer"
     inkscape:label="Outline">
    <path
       inkscape:label="#path3068"
       inkscape:connector-curvature="0"
       id="cow_outline"
       d="M 85.283733,81.363351 C 82.615505,80.657251 82.338696,80.409151 82.187804,78.589151 82.086908,77.372051 82.082033,77.360151 81.541095,77.010451 81.172842,76.772451 80.99605,76.550351 80.99605,76.325751 80.99605,76.142951 80.837466,75.834751 80.643643,75.640951 80.126706,75.124051 79.425629,73.649651 79.167515,72.536751 78.697804,70.511351 78.90728,66.999151 79.636627,64.671151 79.861999,63.951951 79.861946,63.682351 79.636041,60.674251 79.212809,55.042851 78.300616,51.894551 76.309766,49.194251 75.585405,48.211751 75.46044,47.606251 76.15353,48.437251 77.526578,50.083451 78.567537,52.294551 79.232695,54.977751 79.630938,56.584251 79.784491,57.768551 80.125539,61.864351 80.429544,65.515151 80.652385,66.829751 81.410792,69.446151 82.269786,72.409551 82.30773,73.209551 81.682037,75.165451 81.369649,76.141951 81.368463,76.171851 81.635818,76.328251 82.515428,76.843151 82.614415,77.024651 82.7004,78.279051 82.811893,79.905751 82.960517,80.074451 84.779387,80.639551 85.570562,80.885351 86.413607,81.065851 86.652821,81.040551 L 87.087725,80.995151 86.364362,79.759751 C 85.563908,78.392551 85.113089,77.110151 84.627291,74.817951 84.253169,73.052751 84.214075,71.404251 84.463632,67.916551 84.55505,66.638951 84.630029,63.793751 84.630256,61.594051 84.63084,54.558251 84.923041,53.471251 87.517423,50.847751 88.55955,49.793951 89.739497,49.042251 90.843357,48.729051 91.230621,48.619151 91.299871,48.913651 90.916,49.038051 89.697237,49.433151 88.798381,50.048651 87.58908,51.316051 85.12446,53.899151 85.100592,54.011051 84.901649,63.917051 84.72313,72.805951 84.720401,72.649351 85.08554,74.454651 85.614243,77.068451 86.160108,78.528051 87.15844,79.997251 87.58697,80.627851 87.66256,81.424451 87.306821,81.561051 86.931792,81.704951 86.362792,81.649451 85.283873,81.363951 Z M 81.495862,73.073251 C 81.5215,72.553651 81.452259,71.801451 81.341996,71.401751 80.631004,68.824251 80.235627,67.264951 80.179897,66.818751 80.144622,66.536351 80.063295,66.111251 79.999151,65.874051 79.89892,65.503251 79.855162,65.616251 79.687792,66.678051 79.451499,68.177151 79.435245,71.762951 79.661072,72.564551 79.751173,72.884351 79.829613,73.193851 79.83539,73.252251 79.868964,73.592651 80.350559,74.511551 80.676297,74.856751 L 81.056256,75.259551 81.25274,74.638751 C 81.360814,74.297351 81.470196,73.592851 81.495826,73.073251 Z M 25.256129,79.229851 C 23.258675,78.927551 22.670815,78.427851 22.188671,76.622251 22.003571,75.929051 21.824536,75.334351 21.790815,75.300651 21.757067,75.266651 21.4111,75.160751 21.021945,75.064651 L 20.314388,74.890051 20.339931,73.945251 C 20.353997,73.425751 20.386455,72.477251 20.412085,71.837751 20.465167,70.513951 20.378511,70.184551 18.250825,63.625751 17.563606,61.507351 16.88128,59.316351 16.734542,58.756751 16.430999,57.599151 16.375956,55.469451 16.620154,54.330851 16.825492,53.373451 17.124939,53.334051 16.95164,54.287251 16.882608,54.666951 16.829828,55.697051 16.834352,56.576451 L 16.842549,58.175151 18.235947,62.317551 C 20.801146,69.943451 20.901671,70.314351 20.855902,71.983051 20.833988,72.782351 20.801294,73.662451 20.783225,73.938651 20.7517,74.421351 20.777208,74.448351 21.441551,74.637651 22.2291,74.862051 22.414974,75.131151 22.701132,76.461551 22.940566,77.574651 23.511035,78.229251 24.496781,78.522051 25.499554,78.819751 26.980633,78.813151 27.284298,78.509851 27.496908,78.297151 27.44644,78.147351 26.684192,76.729351 25.184357,73.938951 24.878535,73.232751 24.390901,71.434351 23.9352,69.753751 22.959492,65.006451 22.576958,62.608651 22.417546,61.609351 22.121222,60.269351 21.918468,59.630751 21.364042,57.884651 21.412295,57.064551 22.167536,55.397651 22.723028,54.171551 23.003268,53.763151 23.003268,54.179951 23.003268,54.260151 22.733458,54.958151 22.403683,55.729951 21.865259,56.990151 21.81287,57.216051 21.890055,57.945051 21.937338,58.391551 22.134781,59.222151 22.328828,59.790651 22.522875,60.359251 22.79197,61.536451 22.926813,62.406851 23.262565,64.574051 24.363484,69.620351 24.905031,71.474251 25.348192,72.991551 26.003582,74.415751 27.278052,76.630851 28.054451,77.980251 28.139085,78.607951 27.592903,78.965851 27.226096,79.206251 26.00827,79.343951 25.256123,79.230051 Z M 5.7317291,78.961751 C 5.3854941,78.853851 4.9699311,78.645651 4.8082511,78.499451 4.3549471,78.089151 3.8685021,77.149251 3.6745432,76.308851 3.4708515,75.426251 3.1073846,74.907551 2.4604203,74.576251 1.868277,74.272851 1.78778,74.138151 1.7850906,73.446051 1.783329,73.017351 1.9816572,72.525751 2.5763962,71.483851 3.0128369,70.719151 3.444402,69.745551 3.5354344,69.320151 3.6427499,68.818551 3.6783402,67.464251 3.6366621,65.468451 3.5794725,62.729251 3.5206103,62.134251 3.1022813,60.064851 2.6797159,57.974351 2.6391216,57.555651 2.7007456,55.922551 2.7507232,54.597051 2.871771,53.721851 3.148149,52.686751 3.3565221,51.906351 3.526856,50.892551 3.5266685,50.433851 3.5262351,49.277151 2.8680264,43.035251 2.4961921,40.661251 2.1330476,38.342751 2.1780364,35.454031 2.6433284,31.213801 3.0575674,27.438861 3.7413411,24.998881 4.0023499,26.364261 4.0475836,26.600931 3.9625666,26.938601 3.7797614,27.248461 3.5135431,27.699671 3.4931352,27.904721 3.5755892,29.300101 3.6782111,31.036931 3.8793112,32.469571 4.1976108,34.898051 4.4834711,37.495751 4.7296271,39.787751 4.9060411,42.260051 4.9036871,48.597951 4.9756661,47.968551 3.8197653,51.780151 3.2531518,53.648451 3.196836,53.981451 3.1313566,55.849851 3.06883,57.633951 3.1055175,58.108451 3.4292037,59.701551 4.0306988,62.661751 4.1394384,63.860051 4.0786062,66.857851 4.0153209,69.976751 3.9889917,70.087251 2.8457968,72.031551 2.1071268,73.287751 2.061095,73.695251 2.61882,74.041151 3.4858064,74.578651 3.8070969,75.005951 4.1210868,76.038651 4.5173021,77.341851 4.8641461,77.917551 5.4677211,78.273651 6.1605061,78.682351 7.1722561,78.801551 7.7829851,78.546351 8.5791431,78.213751 8.5791601,77.855051 7.7830901,75.573451 7.1113061,73.648151 7.0885071,73.528751 7.0977821,71.983151 7.1057171,70.651751 7.1866051,70.092651 7.5810691,68.640151 8.0391661,66.953551 8.0588541,66.764351 8.1788491,62.899051 8.3630411,56.965951 8.6883631,55.585551 10.525303,52.942851 12.751152,49.740751 15.220555,47.524951 17.43639,46.741651 19.106109,46.151351 21.665858,46.418551 23.803522,47.406151 25.42384,48.154851 28.399937,49.974851 30.270763,51.361151 32.969048,53.360651 33.751816,53.658851 38.848955,54.629451 40.92332,55.024451 41.663115,55.095151 44.369258,55.157151 50.610131,55.299951 55.595765,54.817351 60.35724,53.609351 62.756622,53.000751 67.487834,51.641751 68.932614,51.146351 71.527403,50.256551 73.67773,50.190551 75.218798,50.953451 75.803471,51.242851 76.05453,51.309151 76.05453,51.174051 76.05453,51.067651 76.1126,50.980751 76.183614,50.980751 76.254608,50.980751 76.463695,51.585751 76.648261,52.325251 77.143478,54.309351 77.090848,55.466751 76.411634,57.529951 75.743382,59.559751 75.697866,60.799451 76.198503,63.335151 76.500668,64.865451 76.521194,65.264151 76.441798,68.058751 76.351182,71.248451 76.212946,72.468451 75.750455,74.160451 75.356319,75.602251 75.379048,75.810351 75.957093,76.051851 76.543641,76.296851 76.725612,76.501751 76.862646,77.070951 77.040656,77.810551 77.349349,78.291351 77.793917,78.521251 78.410459,78.840051 79.951345,78.802951 81.017821,78.443651 81.852363,78.162451 82.234668,78.158251 81.931328,78.434051 81.480823,78.842851 79.487547,79.208451 78.403826,79.081051 77.437908,78.967551 76.77646,78.382451 76.500791,77.397951 76.369346,76.928451 76.207092,76.690251 75.931394,76.562151 75.719329,76.463551 75.447714,76.334851 75.327807,76.276051 74.974788,76.102751 74.99434,75.106951 75.382538,73.487951 75.74989,71.955951 76.054534,68.788351 76.054534,66.500951 76.054534,65.827151 75.92126,64.535751 75.758368,63.631051 75.237827,60.740351 75.350188,59.235351 76.279648,56.649651 76.630481,55.673651 76.663142,55.422651 76.591692,54.251451 76.497314,52.704451 76.289813,51.919251 75.94321,51.797351 75.804588,51.748551 75.477437,51.550751 75.216206,51.357651 74.929925,51.146051 74.344895,50.935851 73.743547,50.828451 72.414696,50.590951 71.098062,50.791751 68.521303,51.625951 67.428517,51.979651 65.487934,52.563651 64.208894,52.923751 56.603528,55.064951 54.492711,55.384451 46.617745,55.586251 43.228498,55.673451 41.553295,55.567051 39.282177,55.121151 38.682627,55.003551 37.326254,54.740851 36.268016,54.537651 33.35319,53.977651 32.228804,53.457851 29.435369,51.378951 27.798493,50.160651 24.498063,48.236751 22.997965,47.626251 20.830839,46.744351 18.798825,46.682251 17.173486,47.448251 15.912137,48.042751 14.076978,49.436451 13.178479,50.482151 11.960325,51.899951 10.399809,54.045251 10.017838,54.827151 9.1607891,56.581351 8.7615221,58.737851 8.7552101,61.646851 8.7480601,64.942051 8.5465441,66.985251 8.0224411,69.076651 7.3336991,71.825151 7.3643251,72.727651 8.2318221,75.246051 9.1392681,77.880451 9.1154081,78.547651 8.0985781,78.972551 7.4917281,79.226051 6.5643311,79.222051 5.7319561,78.962951 Z M 4.2302171,48.864351 C 4.3335781,48.419651 4.4495421,46.800951 4.4879041,45.267051 4.5262831,43.733051 4.4009511,42.134651 4.4259441,41.714951 4.3270641,40.198451 4.1634749,38.651451 4.010106,37.128851 3.6813863,34.743181 3.6078632,32.838311 3.245632,30.600491 L 3.1230284,29.978361 3.0967795,30.777761 C 3.0823033,31.217441 3.0261166,32.002301 2.9718441,32.521911 2.9175846,33.041521 2.8731829,34.938271 2.8731829,36.736951 2.8731829,39.767251 2.9545285,40.789551 3.3878176,43.204751 3.459527,43.604451 3.5487124,44.552851 3.586019,45.312251 3.7136027,47.909851 3.8616006,49.672651 3.9520697,49.672651 4.0018206,49.672651 4.1270857,49.308951 4.2304461,48.864351 Z M 87.104224,57.048851 C 86.463148,56.720951 86.083942,56.309251 86.260438,56.132751 86.312326,56.080451 86.531919,56.202551 86.748407,56.403351 87.94495,57.512951 89.640475,57.111451 91.494602,55.279551 93.530361,53.268351 96.68626,48.612051 99.24939,43.837851 100.64211,41.243851 101.60007,39.866451 102.89317,38.598851 105.10894,36.426811 106.55386,35.443731 108.53898,34.757641 109.55901,34.405111 109.92477,34.354731 111.51856,34.347251 113.4672,34.338091 114.71615,34.484261 114.71615,34.721451 114.71615,34.816441 114.42081,34.828571 113.88043,34.755801 112.43412,34.561011 110.21218,34.636441 109.26571,34.912461 105.90865,35.891491 102.20168,39.329451 100.13203,43.383351 99.19647,45.215951 97.5698,47.930351 96.07016,50.161551 93.259552,54.343051 91.345872,56.385751 89.591404,57.077451 88.612554,57.463151 87.898129,57.455051 87.104224,57.048651 Z M 25.795625,56.612851 C 25.650822,56.437651 25.304927,55.191451 25.129981,54.214651 25.072269,53.892551 25.101971,53.742651 25.223428,53.743351 25.323536,53.743351 25.51033,54.195651 25.650141,54.775351 25.893876,55.785851 26.155038,56.306851 26.330593,56.132651 26.379166,56.084651 26.451596,55.427951 26.491563,54.673851 26.53235,53.904051 26.627977,53.303251 26.709581,53.303751 26.90749,53.303751 26.975969,55.921651 26.79084,56.408651 26.631106,56.828651 26.06932,56.944051 25.795625,56.612851 Z M 18.517679,56.249551 C 18.274787,55.793451 18.242015,53.306251 18.47889,53.306251 18.548558,53.306251 18.635994,53.831951 18.673183,54.474351 18.748006,55.766751 18.96148,56.180851 19.309723,55.708951 19.503302,55.446651 19.619073,55.102751 19.886052,53.996651 19.950227,53.730751 19.924728,53.596951 19.809887,53.596951 19.497245,53.596951 17.728602,52.836351 16.866906,52.331351 15.907042,51.768751 14.282554,50.459651 14.282554,50.248751 14.282554,49.961651 14.620298,50.127551 15.349195,50.772551 16.322617,51.634051 18.717652,52.809051 20.103117,53.104851 21.701537,53.446251 24.597338,53.305951 26.008894,52.818751 26.582797,52.620551 27.340704,52.289551 27.693132,52.083051 28.384622,51.677751 28.526391,51.636051 28.526391,51.837651 28.526391,52.084351 27.142925,52.851451 25.982849,53.247951 24.963055,53.596451 24.540097,53.653451 22.542848,53.710951 L 20.265611,53.776351 20.100006,54.727251 C 19.867785,56.060851 19.613532,56.503751 19.080328,56.503751 18.821985,56.503751 18.599602,56.403251 18.517675,56.249451 Z M 2.3642436,52.050851 C 2.3642436,51.600151 2.2675686,50.406551 2.149413,49.398251 2.0312574,48.390051 1.8346438,46.613751 1.7124862,45.450951 1.5587167,43.987251 1.2610981,42.422051 0.7451919,40.363851 L 0,37.390951 4.336e-4,34.193381 C 7.266e-4,31.890631 0.0633761,30.690721 0.2240533,29.905701 0.4418194,28.841721 1.5162006,25.982221 2.2989459,24.383271 3.5121435,21.905031 5.1506361,20.437151 8.5413541,18.790871 10.367026,17.904461 11.753247,17.428341 14.137149,16.868881 15.657041,16.512201 16.072241,16.476421 18.715529,16.474321 21.595807,16.471711 22.752765,16.574571 27.692596,17.269801 29.466853,17.519501 30.559931,17.551301 37.358054,17.550911 42.889583,17.550621 45.62985,17.492661 47.203204,17.342581 48.402303,17.228241 50.266356,17.092751 51.345547,17.041511 52.502025,16.986571 54.471466,16.746411 56.14194,16.456531 57.700768,16.186051 59.761035,15.891751 60.720319,15.802541 61.679597,15.713331 63.576264,15.514371 64.935138,15.360411 67.931539,15.020911 72.223831,14.992251 74.509886,15.296491 76.315508,15.536781 78.070311,15.967401 80.777965,16.834621 83.194656,17.608651 84.732802,17.731701 86.459198,17.289121 87.741202,16.960471 88.449209,16.669321 88.989972,16.248411 89.495504,15.854931 92.196181,15.192281 93.267165,15.198951 94.36599,15.205921 94.75966,15.353341 96.04666,16.240731 97.11149,16.974951 98.54441,17.551321 99.3049,17.551321 99.54725,17.551321 99.74552,17.616731 99.74552,17.696671 99.74552,17.911551 98.80664,17.873111 97.95109,17.623161 97.53907,17.502801 96.55179,17.012261 95.7571,16.533071 93.999424,15.473171 93.591815,15.420281 91.411268,15.969221 90.78445,16.127021 90.012495,16.359801 89.695825,16.486511 L 89.12004,16.716891 89.436012,17.053221 C 89.927478,17.576361 90.464649,17.775021 93.946978,18.721431 95.73401,19.207111 97.2247,19.633051 97.25961,19.667971 97.5374,19.945761 96.68971,19.801151 93.828186,19.082591 90.222574,18.177171 89.267095,17.837331 88.855335,17.313851 88.592034,16.979131 88.571838,16.976521 87.952266,17.197221 86.744248,17.627521 85.442064,17.860821 84.272651,17.856481 83.276002,17.852991 82.681032,17.728291 80.354081,17.036571 76.881442,16.004281 75.56898,15.721751 73.238874,15.505001 70.810986,15.279151 67.631992,15.400011 63.772567,15.864901 62.093831,16.067121 60.066265,16.305811 59.266861,16.395321 58.467464,16.484841 57.028543,16.719021 56.069265,16.915741 55.109986,17.112451 53.376746,17.335821 52.217614,17.412111 51.058487,17.488411 48.965513,17.665351 47.566565,17.805351 45.488767,18.013271 43.585884,18.059881 37.174379,18.059931 29.803097,18.059991 29.197552,18.040401 27.218228,17.738081 23.353164,17.147711 21.06207,16.930471 18.642854,16.924981 16.592887,16.920621 15.978701,16.975381 14.413082,17.304551 12.224077,17.764711 10.482329,18.359041 8.6140291,19.283381 4.7439731,21.198061 3.3804757,22.705101 1.6289599,27.003801 0.4740932,29.838151 0.4134187,30.191611 0.4073191,34.120641 L 0.5285894,37.536251 1.1073733,40.370451 C 1.575866,42.664551 1.8827532,43.853251 2.1659283,46.474951 2.6287303,50.759751 2.7489191,52.870151 2.5301336,52.870151 2.4254779,52.870151 2.3642708,52.567951 2.3642708,52.050751 Z M 117.55039,35.343421 C 117.39051,35.305311 116.96537,35.202661 116.60564,35.115441 116.24592,35.028241 115.50581,34.732061 114.96097,34.457291 113.8322,33.888041 112.65554,33.634091 110.07913,33.403701 108.32343,33.246711 107.49377,33.012721 106.79506,32.477491 106.25356,32.062681 106.67019,32.083101 107.53401,32.513681 108.26747,32.879311 108.67095,32.965491 110.28312,33.100811 113.12673,33.339521 113.91382,33.506961 115.66091,34.244821 117.0846,34.846111 117.37909,34.920071 118.34978,34.920071 119.76184,34.920071 120.5574,34.539291 121.85363,33.243061 123.31153,31.785161 123.48172,30.794691 122.53859,29.256791 121.90452,28.222841 121.67657,27.965451 118.80117,25.036581 115.93707,22.119231 115.50191,21.612521 114.13979,19.608671 113.06925,18.033781 112.65026,17.697071 111.17614,17.227071 109.87248,16.811421 109.22174,16.201591 108.86393,15.060251 108.4025,13.588421 107.72753,13.045601 106.3588,13.045601 105.4629,13.045601 105.18828,13.160481 103.58982,14.203961 102.28037,15.058781 101.53797,15.313721 99.81827,15.499111 99.0988,15.576641 98.32604,15.710411 98.10099,15.796311 97.597,15.988711 97.56542,15.989141 97.56542,15.803281 97.56542,15.558441 98.26555,15.365551 99.88549,15.164081 101.67151,14.941981 102.16676,14.756281 103.62691,13.761231 105.31836,12.608551 106.40707,12.352331 107.56257,12.835011 108.38728,13.179511 108.85054,13.715701 109.21469,14.747161 109.6044,15.851071 110.17423,16.423421 111.18949,16.730691 113.08071,17.303081 113.51124,17.662021 115.0498,19.949221 115.85621,21.148011 116.14828,21.476421 119.00704,24.398811 122.7679,28.243391 123.57402,29.381221 123.57761,30.850121 123.58284,32.905701 121.14179,35.194521 118.77824,35.350601 118.2628,35.384611 117.71027,35.381211 117.55039,35.342751 Z M 120.83376,31.813581 C 120.46501,31.710421 119.83376,30.989491 119.98221,30.841041 120.15726,30.666001 121.40204,31.524721 121.40204,31.820521 121.40204,31.954821 121.33585,31.954021 120.83376,31.813541 Z M 110.52482,23.859561 C 110.20615,23.636351 110.09376,22.901551 110.32314,22.540951 110.4929,22.274081 111.16954,22.160951 111.5091,22.342671 111.88073,22.541561 111.78119,22.787221 111.3723,22.680301 110.76869,22.522451 110.43547,23.181771 110.87397,23.666311 111.17542,23.999401 110.9235,24.138831 110.52482,23.859561 Z"
       style="fill:#a0a1a2;fill-opacity:1"
       sodipodi:nodetypes="cccscscccssssscscccssscsccsscccccccccsccccccccscccccssssccscccscccssccscccccsccccccccscsscscssccscccscscccccscsssccsccssssscsssscccccccccsscsscccccccccccscscscccccccccccscsscccccccsssscsssccccccsccccccssccscsccccscccsscccssscssssscssccssssssccssscssccsscscscssssscsssccssscsssccccssscsssssssssssccssscssssccccccscccssccc" />
    <a
       transform="matrix(1.560979,0,0,1.560979,-77.802786,-6.1564471)"
       id="a4174"
       xlink:href="https://www.ebi.ac.uk/gxa/licence.html">
      <g
         id="g3"
         transform="matrix(0.07645089,0,0,0.07645089,123.6957,51.617633)">
        <circle
           id="circle5"
           r="28.275999"
           cy="28.806"
           cx="37.637001"
           style="fill:#ffffff" />
        <g
           id="g7">
          <path
             style="fill:#009600;fill-opacity:1"
             id="path9"
             d="M 37.443,-3.5 C 46.431,-3.5 54.013,-0.415 60.185,5.757 66.393,11.967 69.5,19.548 69.5,28.5 69.5,37.491 66.451,44.976 60.355,50.956 53.879,57.319 46.242,60.5 37.443,60.5 28.794,60.5 21.29,57.356 14.929,51.07 8.644,44.784 5.5,37.262 5.5,28.5 5.5,19.739 8.644,12.158 14.929,5.758 21.101,-0.415 28.604,-3.5 37.443,-3.5 Z M 37.557,2.272 C 30.281,2.272 24.129,4.825 19.1,9.929 13.88,15.263 11.271,21.454 11.271,28.501 11.271,35.587 13.861,41.721 19.041,46.899 24.222,52.081 30.393,54.67 37.555,54.67 44.678,54.67 50.889,52.063 56.184,46.842 61.213,42.004 63.727,35.89 63.727,28.499 63.727,21.223 61.174,15.034 56.071,9.928 50.967,4.824 44.795,2.272 37.557,2.272 Z M 46.129,20.557 46.129,33.642 42.473,33.642 42.473,49.184 32.529,49.184 32.529,33.643 28.873,33.643 28.873,20.557 C 28.873,19.985 29.073,19.5 29.472,19.1 29.873,18.701 30.359,18.5 30.929,18.5 L 44.073,18.5 C 44.606,18.5 45.083,18.7 45.501,19.1 45.918,19.5 46.129,19.986 46.129,20.557 Z M 33.042,12.329 C 33.042,9.321 34.527,7.815 37.5,7.815 40.473,7.815 41.957,9.319 41.957,12.329 41.957,15.3 40.471,16.786 37.5,16.786 34.529,16.786 33.042,15.3 33.042,12.329 Z"
             inkscape:connector-curvature="0" />
        </g>
      </g>
    </a>
  </g>
  <g
     transform="matrix(0.88194703,0,0,0.88194703,0,-11.115842)"
     inkscape:label="EFO"
     id="LAYER_EFO"
     inkscape:groupmode="layer">
    <g
       transform="matrix(0.1453453,0,0,0.1453453,-16.980129,-7.7687126)"
       style="fill:none;stroke:none"
       inkscape:label="UBERON_0001013"
       id="UBERON_0001013">
      <title
         id="adipose tissue">adipose tissue</title>
      <path
         d="M 156.80852,320.78729 C 156.79852,313.88188 156.556,309.54748 155.91822,304.89313 155.41129,301.19366 154.98562,299.48069 153.09686,293.53963 149.19628,281.27039 146.42469,267.96652 145.04735,254.90129 144.4924,249.63714 144.27875,238.07291 144.6531,233.56182 145.37182,224.901 147.3286,215.92584 149.70874,210.37322 151.15042,207.00992 159.79557,200.18932 173.67508,191.46499 186.56695,183.36145 204.23404,176.34015 219.55478,173.23135 233.74528,170.35189 245.20393,170.32038 273.34938,173.08341 284.6339,174.1912 319.7251,178.47594 320.16219,178.79939 320.42302,178.99239 316.11295,183.64548 311.17346,188.50349 302.51927,197.01491 293.16087,204.58482 283.2356,211.10209 280.57391,212.84985 273.79366,217.03287 268.16837,220.39769 235.45697,239.96434 205.49562,260.45667 184.76246,277.44389 180.36323,281.04829 179.41525,282.09676 176.37446,286.7211 169.76668,296.76997 164.07175,308.34095 158.53848,322.96032 L 156.81799,327.50601 156.80899,320.78729 156.80899,320.78729 Z"
         id="path3052"
         inkscape:connector-curvature="0" />
      <path
         d="M 712.98905,427.00704 C 706.0566,425.28372 697.23096,422.26012 690.67875,419.36371 678.23325,413.86215 660.9899,405.68711 652.33735,401.18613 639.26521,394.38611 630.22275,391.73727 616.63887,390.72884 L 611.7075,390.36275 613.51586,387.68096 C 617.18428,382.24071 624.72884,376.0106 630.99103,373.2504 636.31594,370.90333 655.51419,367.5887 666.77457,367.07227 672.62118,366.80414 674.925,366.953 682.93701,368.11662 700.56022,370.67613 711.18238,373.08032 721.90002,376.93541 731.52212,380.39645 750.25075,382.27339 763.19172,381.07359 766.63529,380.75432 769.51051,380.55457 769.5811,380.6297 769.846,380.91164 745.48373,413.64368 743.42368,415.77362 740.22952,419.07615 735.19368,422.76957 731.18607,424.74902 724.44816,428.07704 719.67566,428.66924 712.98905,427.00704 L 712.98905,427.00704 Z"
         id="path3056"
         inkscape:connector-curvature="0" />
      <path
         d="M 641.31216,256.05247 C 622.61557,252.60186 600.61922,246.93763 574.88359,238.94659 570.26752,237.51328 564.80323,235.70514 562.74073,234.92851 548.83166,229.69103 528.25581,219.43655 514.70502,210.98874 507.02362,206.20001 501.73008,202.57568 490.68811,194.54509 481.78671,188.07128 463.59279,179.70903 453.99073,177.67831 L 451.84787,177.22512 453.81789,176.60962 C 458.83703,175.04146 469.47777,173.8282 480.59787,173.55617 L 488.99073,173.35085 521.13359,168.58548 C 552.38345,163.95251 553.60387,163.79974 565.06216,163.0867 585.81987,161.79495 594.05028,161.48242 607.74073,161.46605 L 621.13359,161.45005 627.9193,162.80989 C 644.79553,166.19183 657.65606,169.54378 675.65939,175.25279 L 684.82805,178.16025 685.12368,181.23372 C 685.68928,187.114 685.39108,200.21334 684.54151,206.8072 683.09405,218.04156 680.67377,228.39145 677.17232,238.32024 676.08036,241.41664 675.10635,244.20678 675.00786,244.52056 674.56322,245.9371 664.43503,251.05589 657.89099,253.17144 651.50038,255.23738 643.97834,256.54455 641.31216,256.05249 L 641.31216,256.05249 Z"
         id="path3060"
         inkscape:connector-curvature="0" />
    </g>
    <path
       sodipodi:nodetypes="ccccccccccccccccccccc"
       inkscape:connector-curvature="0"
       id="UBERON_0002114"
       d="M 41.624558,43.215507 C 42.155948,40.503857 42.95686,41.201427 43.163522,35.295647 43.161022,34.644107 43.256002,33.240167 41.844521,33.915587 40.916875,34.067447 40.050789,34.657307 39.101046,34.332667 36.879582,33.974147 33.912305,33.066557 32.456385,33.181107 31.521056,33.484847 30.366734,33.853437 29.467352,33.352137 28.886901,32.910017 28.953772,32.092417 29.229058,31.509837 29.810683,30.558187 30.249511,29.497087 31.15595,28.719807 31.88817,28.433927 32.748636,28.495667 33.53806,28.396667 34.441514,28.349567 36.923063,28.270607 37.820571,28.362667 38.670931,28.883907 35.348731,29.197897 34.841371,29.087637 33.806155,29.097937 32.729115,29.182137 31.761358,29.541267 31.08041,30.060427 30.783751,30.854577 30.429317,31.551577 29.817095,32.477847 30.140101,33.139557 31.876902,32.275907 32.705224,32.071017 33.750659,32.400457 34.56486,32.488967 36.439644,32.787247 38.179674,33.401857 40.11234,33.387707 40.974119,33.342507 41.526977,32.532827 42.459613,32.621887 43.390359,32.529787 44.007066,33.252457 44.126889,33.958887 44.578931,35.746847 44.095159,37.644727 43.816022,39.436487 43.496881,40.972277 42.706398,41.859247 42.136365,43.351507 41.804453,43.271607 41.596382,43.704927 41.624555,43.215497 Z"
       style="fill:none;stroke:none"
       inkscape:label="UBERON_0002114">
      <title
         id="duodenum">duodenum</title>
    </path>
    <path
       inkscape:label="UBERON_0000955"
       inkscape:connector-curvature="0"
       id="UBERON_0000955"
       d="M 109.26558,20.170457 C 110.78414,19.259327 109.11373,17.386437 109.11373,17.386437 107.79765,16.222217 105.82353,16.323447 105.82353,16.323447 104.15312,16.323447 103.74818,17.234587 103.74818,17.234587 102.38148,16.019737 101.31849,17.386437 101.31849,17.386437 100.50859,18.246957 101.11602,19.563037 101.11602,19.563037 101.87529,20.980357 103.84942,20.018607 103.84942,20.018607 104.60868,19.917357 105.57044,20.069207 105.57044,20.069207 107.69641,20.676637 109.26558,20.170447 109.26558,20.170447 Z"
       style="fill:none;stroke:none">
      <title
         id="brain">brain</title>
    </path>
    <ellipse
       ry="0.55057847"
       rx="0.6056363"
       cy="19.226654"
       cx="105.45016"
       inkscape:label="UBERON_0001898"
       id="UBERON_0001898"
       style="fill:none;stroke:none">
      <title
         id="hypothalamus">hypothalamus</title>
    </ellipse>
    <path
       inkscape:label="UBERON_0002113"
       inkscape:connector-curvature="0"
       id="UBERON_0002113"
       d="M 31.827261,27.751727 C 31.156542,27.329087 30.690377,26.657407 30.583553,25.959717 30.491513,25.358657 30.820714,25.016147 32.190047,24.288257 L 33.045959,23.833287 34.940288,23.847687 C 38.64905,23.875787 40.854386,24.461957 41.704057,25.645447 41.899997,25.918367 41.894308,25.996007 41.658407,26.268567 41.340122,26.636287 40.286284,26.832487 38.109648,26.929257 37.014947,26.977857 36.245995,27.112097 34.634256,27.535707 33.495948,27.834867 32.525315,28.085657 32.477307,28.093017 32.429317,28.101017 32.136786,27.946797 31.827267,27.751767 Z"
       style="fill:none;stroke:none">
      <title
         id="kidney">kidney</title>
    </path>
    <path
       inkscape:label="UBERON_0002048"
       inkscape:connector-curvature="0"
       id="UBERON_0002048"
       d="M 69.319525,47.747207 C 68.460907,47.373807 65.526244,43.242327 63.351184,39.344827 60.649933,34.504467 58.318591,28.719467 58.318591,26.856947 58.318591,25.586077 58.528265,25.520967 61.738625,25.794727 74.442554,26.878037 88.557515,28.604077 89.841547,29.231267 90.51046,29.557987 90.913477,30.116437 91.193337,31.104347 91.323198,31.562717 91.589598,32.048767 91.811096,32.231407 92.025277,32.408017 92.278562,32.856277 92.373913,33.227527 92.68276,34.429867 91.90206,37.813937 90.922761,39.517817 90.573928,40.124757 89.686947,40.600847 84.925384,42.737007 79.586755,45.132037 71.656088,48.025247 70.476706,48.008077 70.159558,48.003077 69.638826,47.886057 69.319525,47.747207 L 69.319525,47.747207 Z"
       style="fill:none;stroke:none">
      <title
         id="lung">lung</title>
    </path>
    <path
       inkscape:label="UBERON_0001155"
       inkscape:connector-curvature="0"
       id="UBERON_0001155"
       d="M 8.1062212,22.072587 C 8.5521792,21.104387 11.079271,20.458907 11.079271,20.458907 15.315869,19.652067 20.072749,19.894107 20.072749,19.894107 26.018849,20.378227 28.620269,20.620267 28.620269,20.620267 30.627078,20.943017 31.073036,21.346427 31.073036,21.346427 31.221688,22.072587 30.998716,22.718067 30.998716,22.718067 30.404101,23.040807 29.883817,22.879437 29.883817,22.879437 26.985093,22.233957 21.782256,21.830537 21.782256,21.830537 L 18.288921,21.830537 C 13.829344,21.911237 9.8900538,22.637377 9.8900538,22.637377 8.4778552,22.879437 8.1062232,22.072587 8.1062232,22.072587 Z"
       style="fill:none;stroke:none">
      <title
         id="colon">colon</title>
    </path>
    <path
       inkscape:label="UBERON_0000948"
       sodipodi:nodetypes="ccccccccccc"
       inkscape:connector-curvature="0"
       id="UBERON_0000948"
       d="M 91.692937,39.434157 C 93.511745,40.536007 93.326503,42.998937 93.326503,42.998937 93.057053,44.991967 90.32883,46.515107 90.32883,46.515107 89.578299,46.956317 89.022164,46.963717 88.425814,47.341477 87.651136,47.811387 86.421753,47.568337 86.421753,47.568337 85.15329,47.127047 85.303106,41.942147 85.882846,40.244337 86.118619,39.434157 87.213272,39.304527 87.213272,39.304527 86.539639,38.721207 86.893297,38.218897 86.893297,38.218897 87.095387,37.894827 87.651136,37.943437 87.651136,37.943437 88.223725,37.943437 89.200494,38.040637 89.200494,38.040637 90.596845,38.099337 91.706997,38.115637 91.692937,39.434137 Z"
       style="fill:none;stroke:none">
      <title
         id="heart">heart</title>
    </path>
    <path
       inkscape:label="UBERON_0002107"
       sodipodi:nodetypes="cccccccc"
       inkscape:connector-curvature="0"
       id="UBERON_0002107"
       d="M 42.636148,24.756677 C 50.944748,24.452407 52.329517,25.327147 52.329517,25.327147 55.768362,28.286077 60.765088,39.517097 60.765088,39.517097 62.342191,42.749857 61.699819,45.035627 61.699819,45.035627 59.976556,46.229857 55.610681,40.734147 55.610681,40.734147 53.360432,38.965647 51.902573,36.139827 51.902573,36.139827 50.24854,33.629667 46.809696,30.670737 46.809696,30.670737 42.926463,28.229447 41.568688,25.444317 42.636148,24.756677 Z"
       style="fill:none;stroke:none">
      <title
         id="liver">liver</title>
    </path>
    <g
       style="fill:none;stroke:none"
       inkscape:label="UBERON_0014892"
       id="UBERON_0014892"
       transform="translate(-5.5125598,-655.16638)">
      <title
         id="skeletal muscle organ">skeletal muscle organ</title>
      <path
         d="M 4.9999999,20.437501 C 4.2023211,22.039831 6.1172089,32.515247 6.0714288,40.437501 6.4285717,40.080358 7.0089288,39.321429 7.0089288,39.321429 6.964286,31.776786 6.4285717,25.75 6.4285717,25.75 6.2500003,23.160714 6.5178574,18.919643 6.5178574,18.919643 6.2053574,18.5625 4.9999999,20.437501 4.9999999,20.437501 Z"
         id="path3947"
         inkscape:connector-curvature="0"
         transform="matrix(1.1338549,0,0,1.1338549,4.3791557,659.19966)"
         sodipodi:nodetypes="cccccc" />
      <path
         d="M 6.6964285,18.651786 C 7.0089285,17.133929 12.053571,14.678572 12.053571,14.678572 12.410715,14.455357 12.946429,14.455357 12.946429,14.455357 9.7321432,21.330357 10,30.482143 10,30.482143 L 10,30.482143 10.08929,31.017857 C 10.446429,33.116072 11.428572,35.303572 11.428572,35.303572 L 11.428572,35.303572 10.892858,35.75 C 9.7767861,36.866072 9.5089289,37.178572 9.5089289,37.178572 L 9.5089289,37.178572 9.3303575,36.598215 C 6.6964288,27.446429 6.6964285,18.651786 6.6964285,18.651786 Z"
         id="path3949"
         inkscape:connector-curvature="0"
         transform="matrix(1.1338549,0,0,1.1338549,4.3791557,659.19966)" />
      <path
         d="M 7.4107142,39.1875 C 8.3928571,38.116072 9.1517857,37.491072 9.1517857,37.491072 7.4107146,31.017857 6.8303574,25.080357 6.8303574,25.080357 7.5000003,35.303572 7.4107142,39.1875 7.4107142,39.1875 Z"
         id="path3951"
         inkscape:connector-curvature="0"
         transform="matrix(1.1338549,0,0,1.1338549,4.3791557,659.19966)" />
      <path
         d="M 14.962884,19.21953 C 14.962884,19.21953 13.668627,22.56566 10.764438,23.449544 11.080111,21.555507 11.364216,20.608489 11.364216,20.608489 12.216532,20.387518 14.962884,19.21953 14.962884,19.21953 Z"
         id="path3953"
         inkscape:connector-curvature="0"
         transform="matrix(1.1338549,0,0,1.1338549,4.3791557,659.19966)"
         sodipodi:nodetypes="cccc" />
      <path
         d="M 13.352954,14.358171 C 13.352954,14.358171 12.374369,16.473177 11.490486,20.166548 13.28982,19.661471 14.994452,18.714453 14.994452,18.714453 15.98327,18.201657 16.061971,16.349133 17.077892,15.683995 17.803939,15.210486 19.129764,14.137199 19.129764,14.137199 15.878338,13.063912 13.352954,14.358171 13.352954,14.358171 Z"
         id="path3955"
         inkscape:connector-curvature="0"
         transform="matrix(1.1338549,0,0,1.1338549,4.3791557,659.19966)"
         sodipodi:nodetypes="cccccc" />
      <path
         d="M 10.85914,23.95462 C 10.227794,29.573593 10.480333,30.962553 10.480333,30.962553 10.669737,32.667186 12.374369,36.455258 12.374369,36.455258 13.131983,36.07645 15.467961,33.235396 15.467961,33.235396 16.351845,30.836284 16.036172,27.427019 16.036172,27.427019 16.036172,25.469848 17.298863,22.881332 17.298863,22.881332 18.687823,20.671624 19.003495,14.736977 19.003495,14.736977 17.551401,15.873399 17.046325,16.189072 17.046325,16.189072 16.351845,17.009821 15.215423,19.661471 15.215423,19.661471 14.015867,21.681776 12.690042,23.070736 12.690042,23.070736 11.616755,23.828351 10.85914,23.95462 10.85914,23.95462 Z"
         id="path3957"
         inkscape:connector-curvature="0"
         transform="matrix(1.1338549,0,0,1.1338549,4.3791557,659.19966)"
         sodipodi:nodetypes="ccccccccccc" />
    </g>
    <path
       inkscape:label="UBERON_0002016"
       sodipodi:nodetypes="cccccccc"
       inkscape:connector-curvature="0"
       id="UBERON_0002016"
       d="M 32.629151,24.523637 C 29.693278,24.523637 28.984619,25.232297 28.984619,25.232297 27.972248,26.649617 28.579671,28.370647 28.579671,28.370647 30.503174,33.027557 39.816982,37.380747 39.816982,37.380747 42.651619,38.190647 44.676361,37.380747 44.676361,37.380747 45.018594,36.572897 44.678861,35.892207 43.866465,35.356007 41.32536,34.158997 36.619416,29.844037 35.919357,28.117557 35.076206,25.388857 34.876666,24.783967 32.629151,24.523637 Z"
       style="fill:none;stroke:none">
      <title
         id="pulmonary vein">pulmonary vein</title>
    </path>
  </g>
</svg>
