<?xml version="1.0" encoding="UTF-8" standalone="no"?>
<!-- Created with Inkscape (http://www.inkscape.org/) -->

<svg
   xmlns:dc="http://purl.org/dc/elements/1.1/"
   xmlns:cc="http://creativecommons.org/ns#"
   xmlns:rdf="http://www.w3.org/1999/02/22-rdf-syntax-ns#"
   xmlns:svg="http://www.w3.org/2000/svg"
   xmlns="http://www.w3.org/2000/svg"
   xmlns:xlink="http://www.w3.org/1999/xlink"
   xmlns:sodipodi="http://sodipodi.sourceforge.net/DTD/sodipodi-0.dtd"
   xmlns:inkscape="http://www.inkscape.org/namespaces/inkscape"
   width="127.44675"
   height="158.60735"
   viewBox="0 0 127.44675 158.60735"
   preserveAspectRatio="none"
   id="svg2"
   version="1.1"
   inkscape:version="0.91 r13725"
   sodipodi:docname="brachypodium_distachyon_flower_parts.svg">
  <defs
     id="defs4" />
  <sodipodi:namedview
     id="base"
     pagecolor="#ffffff"
     bordercolor="#666666"
     borderopacity="1.0"
     inkscape:pageopacity="0.0"
     inkscape:pageshadow="2"
     inkscape:zoom="2.8"
     inkscape:cx="20.917792"
     inkscape:cy="93.800244"
     inkscape:document-units="px"
     inkscape:current-layer="LAYER_OUTLINE"
     showgrid="false"
     inkscape:window-width="1680"
     inkscape:window-height="1001"
     inkscape:window-x="0"
     inkscape:window-y="1"
     inkscape:window-maximized="1"
     fit-margin-top="0"
     fit-margin-left="0"
     fit-margin-right="0"
     fit-margin-bottom="0"
     units="px" />
  <metadata
     id="metadata">
    <rdf:RDF>
      <cc:Work
         rdf:about="">
        <dc:format>image/svg+xml</dc:format>
        <dc:type
           rdf:resource="http://purl.org/dc/dcmitype/StillImage" />
        <dc:title></dc:title>
      </cc:Work>
    </rdf:RDF>
  </metadata>
  <g
     id="LAYER_OUTLINE"
     inkscape:groupmode="layer"
     inkscape:label="Outline">
    <a
       transform="matrix(1.6096935,0,0,1.6096935,-80.218261,68.073496)"
       id="a4174"
       xlink:href="https://www.ebi.ac.uk/gxa/licence.html">
      <g
         id="g3"
         transform="matrix(0.07645089,0,0,0.07645089,123.6957,51.617633)">
        <circle
           id="circle5"
           r="28.275999"
           cy="28.806"
           cx="37.637001"
           style="fill:#ffffff" />
        <g
           id="g7">
          <path
             style="fill:#009600;fill-opacity:1"
             id="path9"
             d="M 37.443,-3.5 C 46.431,-3.5 54.013,-0.415 60.185,5.757 66.393,11.967 69.5,19.548 69.5,28.5 69.5,37.491 66.451,44.976 60.355,50.956 53.879,57.319 46.242,60.5 37.443,60.5 28.794,60.5 21.29,57.356 14.929,51.07 8.644,44.784 5.5,37.262 5.5,28.5 5.5,19.739 8.644,12.158 14.929,5.758 21.101,-0.415 28.604,-3.5 37.443,-3.5 Z M 37.557,2.272 C 30.281,2.272 24.129,4.825 19.1,9.929 13.88,15.263 11.271,21.454 11.271,28.501 11.271,35.587 13.861,41.721 19.041,46.899 24.222,52.081 30.393,54.67 37.555,54.67 44.678,54.67 50.889,52.063 56.184,46.842 61.213,42.004 63.727,35.89 63.727,28.499 63.727,21.223 61.174,15.034 56.071,9.928 50.967,4.824 44.795,2.272 37.557,2.272 Z M 46.129,20.557 46.129,33.642 42.473,33.642 42.473,49.184 32.529,49.184 32.529,33.643 28.873,33.643 28.873,20.557 C 28.873,19.985 29.073,19.5 29.472,19.1 29.873,18.701 30.359,18.5 30.929,18.5 L 44.073,18.5 C 44.606,18.5 45.083,18.7 45.501,19.1 45.918,19.5 46.129,19.986 46.129,20.557 Z M 33.042,12.329 C 33.042,9.321 34.527,7.815 37.5,7.815 40.473,7.815 41.957,9.319 41.957,12.329 41.957,15.3 40.471,16.786 37.5,16.786 34.529,16.786 33.042,15.3 33.042,12.329 Z"
             inkscape:connector-curvature="0" />
        </g>
      </g>
    </a>
    <path
       inkscape:label="caryopsis_outline"
       inkscape:connector-curvature="0"
       id="caryopsis_outline"
       d="M 117.62309,146.47365 C 117.12167,146.1639 117.06105,146.1603 116.42127,146.40235 115.66336,146.68909 114.85053,146.63752 114.28477,146.26683 114.07562,146.12979 113.62594,145.46052 113.28546,144.77955 112.57367,143.35594 110.95981,138.66038 110.22115,135.86388 109.94385,134.81402 109.62317,133.66028 109.50853,133.29999 109.2474,132.47936 108.91107,131.10381 108.36886,128.63888 108.13623,127.58127 107.84744,126.35542 107.72713,125.91476 107.15694,123.82646 106.58402,120.59663 106.13537,116.94117 106.08127,116.5005 105.93314,115.44214 105.80616,114.58924 105.67918,113.73634 105.43034,111.64518 105.2532,109.9422 104.25935,100.38825 104.21312,99.81135 104.04849,94.90782 103.99969,93.45361 103.92439,91.50666 103.8812,90.58126 103.45682,81.48753 103.21162,61.89895 103.48696,59.08494 103.57266,58.20837 103.75372,56.22925 103.88919,54.68692 104.14721,51.74916 104.21303,51.16296 104.44701,49.7194 104.52561,49.23467 104.63731,48.36936 104.6953,47.79649 104.85737,46.19538 106.32124,38.86941 107.0167,36.178906 107.63797,33.775503 109.24485,28.730721 110.20677,26.163743 111.24891,23.3827 112.29985,21.162703 114.91,16.228703 115.8497,14.452359 116.1112,14.108962 116.40079,14.271029 116.65798,14.414955 117.83014,16.208526 118.12912,16.915616 118.24887,17.198813 118.50704,17.791066 118.70282,18.231735 119.58638,20.220452 119.85611,20.862942 120.21641,21.837191 120.42827,22.410059 120.83297,23.455641 121.11575,24.16071 121.39853,24.865777 121.83736,26.114405 122.09092,26.935443 122.34448,27.756475 122.59513,28.498106 122.64791,28.583507 122.82557,28.870969 123.92211,32.791474 124.07944,33.70171 124.13214,34.006566 124.31593,34.933763 124.48789,35.762134 124.88155,37.658572 125.70244,42.40493 125.84867,43.63019 125.88547,43.93865 125.9821,44.47947 126.06336,44.832 126.14466,45.18453 126.25006,45.90562 126.29767,46.43443 126.34527,46.96323 126.4548,47.86459 126.54107,48.43746 126.62737,49.01033 126.74494,50.95728 126.80239,52.76401 126.85979,54.57075 126.93993,56.62586 126.98034,57.33093 127.13598,60.04615 127.20377,64.79038 127.31922,81.04684 127.47855,103.48242 127.47118,103.87979 126.79187,109.48989 126.65847,110.59156 126.54544,111.67319 126.54069,111.89353 126.53669,112.11386 126.47149,112.61863 126.39764,113.01523 126.32374,113.41183 126.22406,114.40803 126.17619,115.22902 126.12829,116.05 126.05923,116.77109 126.02265,116.83144 125.98605,116.89174 125.90884,117.44593 125.85102,118.06287 125.79312,118.6798 125.71206,119.32878 125.67072,119.50505 125.62942,119.68131 125.45523,121.41194 125.28374,123.35087 125.11224,125.28981 124.8557,127.45308 124.71366,128.15815 124.5716,128.86322 124.42288,129.65642 124.38316,129.92082 124.31506,130.37439 124.00712,131.97 123.42461,134.88834 123.28388,135.59341 123.03606,136.56688 122.8739,137.05161 122.71174,137.53635 122.28589,138.91966 121.92756,140.12565 121.24699,142.41621 119.82782,145.57131 119.12156,146.36397 118.64262,146.9015 118.35031,146.9229 117.62309,146.47366 Z M 116.63325,145.11308 C 116.85116,144.96395 117.07973,144.76755 117.1412,144.67661 117.2108,144.57354 117.3939,144.64371 117.62727,144.86295 118.00076,145.21383 118.00276,145.21393 118.51003,144.90545 119.07982,144.55894 119.36281,144.00363 120.22586,141.53841 120.54983,140.613 120.88168,139.67559 120.9633,139.45526 121.40047,138.27516 122.44329,134.30526 122.80192,132.45581 123.06511,131.09854 123.43813,128.46034 123.60216,126.79609 123.65856,126.22323 123.73128,125.57425 123.76363,125.35391 123.79603,125.13358 123.9018,124.19616 123.99876,123.27076 124.09576,122.34535 124.20336,121.48004 124.23794,121.34784 124.27244,121.21564 124.34709,120.63877 124.40363,120.0659 124.46013,119.49303 124.71253,117.7902 124.96442,116.28183 125.2163,114.77345 125.46474,112.76257 125.5165,111.81318 125.5682,110.8638 125.6416,110.03688 125.67949,109.97558 125.74479,109.86984 126.04202,107.13488 126.17609,105.40546 126.27069,104.18487 126.39718,96.95845 126.40889,92.10357 126.42909,83.72582 126.27469,63.04977 126.18972,62.75599 126.08148,62.38181 125.89329,59.16838 125.84384,56.8502 125.71574,50.84467 125.41481,47.22257 124.61902,42.10788 123.3771,34.125861 121.18642,26.343462 118.72032,21.152756 118.36321,20.401101 118.07103,19.744357 118.07103,19.693321 118.07103,19.592956 116.7826,16.918827 116.57516,16.588642 116.42576,16.350841 115.95314,16.876897 115.3149,17.991372 114.66808,19.12085 112.75045,22.905924 112.10815,24.320956 110.95487,26.861741 108.96983,32.536023 108.40836,34.896964 108.1778,35.866437 107.83445,37.308615 107.64535,38.101822 107.45626,38.89502 107.06048,40.84196 106.76583,42.42837 106.47119,44.01477 106.0094,46.35832 105.73964,47.63625 105.46988,48.91419 105.14117,51.00535 105.00918,52.28329 104.8772,53.56122 104.72429,54.96735 104.6694,55.40802 104.28005,58.5336 104.17113,62.55114 104.24146,71.19192 104.32856,81.88807 104.30596,80.66025 104.46433,83.29023 104.53333,84.43597 104.63204,86.95979 104.68363,88.89873 104.78953,92.87753 104.90277,94.89002 105.15255,97.23134 105.29554,98.57175 105.39968,99.87708 105.4977,101.55788 105.5491,102.43922 105.65487,103.66507 105.73276,104.282 105.81066,104.89895 105.91766,105.90847 105.97057,106.5254 106.22211,109.45829 106.48948,111.78609 106.85403,114.21705 106.93333,114.74585 107.11537,116.04381 107.25856,117.10141 107.40177,118.15902 107.58344,119.27766 107.66227,119.58729 107.74117,119.89693 107.88573,120.8686 107.98363,121.74655 108.08153,122.62451 108.20324,123.41018 108.25409,123.49246 108.35712,123.65917 108.57715,124.63408 109.18051,127.5973 109.40483,128.69897 109.65985,129.78157 109.74724,130.00309 109.83464,130.2246 109.93865,130.58516 109.97839,130.80431 110.05169,131.20822 110.67522,133.63689 111.41788,136.41065 112.43048,140.19265 113.93709,144.0288 114.81039,145.04874 115.16672,145.46491 116.07244,145.49689 116.63325,145.11314 Z"
       style="fill:#a0a1a2;fill-opacity:1" />
    <path
       inkscape:label="spikelet_outline"
       inkscape:connector-curvature="0"
       id="spikelet_outline"
       d="M 21.189054,158.47494 C 21.113354,158.39924 21.051524,158.19133 21.051524,158.01281 21.051524,157.58585 20.756044,156.89142 20.497234,156.71014 20.103214,156.43416 19.793174,155.01093 19.759824,153.32514 19.736524,152.14823 19.759354,151.96324 19.954144,151.74659 20.169064,151.50761 20.169474,151.48403 19.970144,150.84476 19.857564,150.48371 19.665724,149.95622 19.543824,149.67255 19.311034,149.13078 19.229764,148.96893 17.759774,146.1195 17.255694,145.14242 16.733754,144.047 16.599884,143.68524 16.466034,143.32349 16.181154,142.67878 15.966804,142.25256 15.752464,141.82634 15.281864,140.72976 14.921024,139.81571 14.560174,138.90166 14.162944,137.92794 14.038264,137.65191 13.913614,137.37585 13.580764,136.55063 13.298634,135.81808 13.016514,135.0855 12.586274,133.97037 12.342554,133.34 11.749364,131.80571 10.721654,128.89501 10.298924,127.55197 9.4919036,124.988 8.6166136,121.96312 8.4582536,121.19086 8.3936536,120.87568 8.2838836,120.3599 8.2143736,120.04472 8.0673436,119.37802 7.7611736,117.58926 7.7582436,117.37994 7.7532436,117.01947 8.0715836,117.29394 8.2754336,117.82584 8.4816436,118.3639 9.1647036,119.52588 9.6723536,120.20223 9.7846936,120.35191 9.9124936,120.53093 9.9563336,120.60006 10.101334,120.82867 10.166124,120.60406 10.053134,120.26388 9.9920336,120.08031 9.8347836,118.97594 9.7036936,117.80974 9.5725836,116.64353 9.4178036,115.35239 9.3597336,114.94053 9.3016336,114.52867 9.2268136,113.3682 9.1934336,112.36171 9.1064336,109.73889 8.9454636,106.76913 8.8364136,105.77522 8.7732136,105.19948 8.1151236,101.30025 7.7047336,99.07028 7.6119336,98.56597 7.4792636,97.74075 7.4099236,97.23644 7.3405236,96.73214 7.2577436,96.22927 7.2258136,96.11895 7.1938136,96.00864 7.2168136,95.91838 7.2762136,95.91838 7.5065536,95.91838 7.8659336,97.20969 8.2660836,99.4751 8.4278836,100.39116 8.6136236,101.31954 8.6788336,101.53816 8.7441336,101.75677 8.8204236,102.06458 8.8485636,102.22218 9.1248836,103.76984 10.212224,107.48362 10.348984,107.34686 10.370184,107.32566 10.339984,107.01871 10.282684,106.66465 10.225084,106.31058 10.093004,105.28334 9.9892236,104.38189 9.8854536,103.48044 9.7827436,102.7141 9.7609936,102.67891 9.7392936,102.64371 9.6909936,102.04948 9.6537336,101.35837 9.6165336,100.66726 9.5596336,99.61183 9.5273436,99.01297 9.4951436,98.41411 9.4185836,96.6863 9.3573536,95.17339 9.2961536,93.66047 9.1936336,92.01002 9.1296036,91.50573 8.9974536,90.4649 8.7868836,88.72076 8.4518236,85.89167 8.3250336,84.82116 8.1940936,83.81542 8.1608436,83.65669 8.0674436,83.2107 7.9256036,81.84094 7.7037536,79.24197 7.6714536,78.86375 7.5868436,77.8838 7.5156836,77.0643 7.4445836,76.24481 7.3740636,74.56857 7.3590536,73.33933 7.3441536,72.11009 7.3011536,70.58858 7.2637536,69.95821 7.2263536,69.32783 7.1638536,67.4195 7.1248236,65.71748 7.0858236,64.01545 7.0066536,62.21969 6.9488936,61.72689 6.8910936,61.23409 6.8125336,60.35729 6.7742336,59.77844 6.6619236,58.08092 6.2900036,55.14907 6.0300736,53.91219 5.8975936,53.2818 5.7428336,52.48237 5.6861736,52.13566 5.6295736,51.78895 5.3194736,50.68006 4.9972036,49.67145 3.6719536,45.52371 2.7840136,42.85341 2.4176236,41.91378 1.8177136,40.37532 1.4030836,39.00297 0.70989365,36.261563 -0.01480235,33.395569 -0.05136135,33.224832 0.03110565,33.091397 0.11578365,32.954376 0.53557365,33.200418 0.53557365,33.38707 0.53557365,33.540875 0.61777365,33.829049 1.2244836,35.803101 1.3988536,36.370447 1.6805136,37.370865 1.8503936,38.026264 2.0202736,38.68166 2.2051036,39.30059 2.2611236,39.40164 2.3615836,39.58288 3.0132736,41.50242 4.1912736,45.08687 4.5227336,46.09548 4.8371536,47.02385 4.8899536,47.14994 4.9427536,47.27601 5.0387536,47.58547 5.1032536,47.83762 5.1676536,48.08978 5.4590336,49.04394 5.7505536,49.95798 6.0420736,50.87204 6.3513136,51.95514 6.4377436,52.36489 6.5241436,52.77464 6.6765736,53.49671 6.7764136,53.96949 7.0243436,55.1436 7.2702836,56.82081 7.3562436,57.9237 7.3955436,58.42799 7.4943636,59.40795 7.5758236,60.10137 7.6573236,60.79479 7.7352136,62.10998 7.7489836,63.02403 7.7926836,65.9271 7.9569236,69.75576 8.0604936,70.28774 8.0957936,70.46897 8.0795936,70.58938 8.0243936,70.55529 7.9258936,70.49439 7.9532936,71.03108 8.2048736,74.08433 8.2723736,74.90382 8.3543036,75.90956 8.3869036,76.31931 8.4976536,77.71104 8.5729536,78.43752 8.7373736,79.70044 8.8276736,80.39386 8.9833536,81.73484 9.0833836,82.68041 9.2688136,84.43343 9.3004236,84.7526 9.4181836,86.06154 9.5177836,87.16909 9.7993136,89.11721 10.130304,90.98996 10.291864,91.90401 10.459394,92.90975 10.502614,93.22494 10.580614,93.79373 11.421094,96.28587 11.720214,96.8353 L 11.876224,97.12183 11.824524,96.77799 C 11.796024,96.58887 11.719164,95.89259 11.653634,95.23069 11.588134,94.5688 11.514174,93.8983 11.489334,93.7407 11.334664,92.75941 11.195574,77.9769 11.338754,77.73623 11.393854,77.64363 11.464574,76.18723 11.599684,72.36511 11.630884,71.48258 11.680284,70.42526 11.709474,70.01551 11.738674,69.60577 11.796174,67.43955 11.837394,65.20171 11.878494,62.96386 11.921994,60.77185 11.933994,60.33059 11.945894,59.88933 11.891794,58.80622 11.813634,57.9237 11.735434,57.04116 11.638834,55.62281 11.598854,54.7718 11.558854,53.92078 11.503854,52.91504 11.476604,52.53681 11.375834,51.13749 11.302234,48.29648 11.258344,44.11265 11.211844,39.68116 11.068444,37.592043 10.609154,34.656961 9.6550536,28.559558 9.4166936,27.177723 9.1955636,26.462027 9.0288036,25.922293 8.8519236,25.117867 8.7293436,24.34166 8.5775136,23.380331 7.7307436,20.686233 7.3618736,19.990925 6.9688636,19.250099 6.9818536,19.012087 7.4153736,19.012087 7.6784936,19.012087 8.1431836,20.090718 8.5016836,21.533605 8.6661436,22.195504 8.9491736,23.175458 9.1306636,23.71128 9.4521536,24.660471 9.6790636,25.618233 9.7893236,26.491399 9.8192236,26.728187 9.8898236,26.95043 9.9462036,26.985273 10.002504,27.020113 10.048704,27.222743 10.048704,27.435552 10.048704,27.648361 10.100804,27.959376 10.164374,28.126695 10.307134,28.502203 10.795194,31.313503 10.959794,32.708514 11.026794,33.275856 11.108934,33.972138 11.142474,34.255804 11.176074,34.539477 11.275464,35.209974 11.363494,35.745797 11.451494,36.28162 11.555874,37.261571 11.595404,37.923468 11.634904,38.58537 11.714454,39.53954 11.772114,40.04384 11.911624,41.26391 12.000634,43.78604 12.049174,47.89493 12.071174,49.75455 12.143574,51.92076 12.210044,52.70873 12.276544,53.49671 12.357484,54.96664 12.389924,55.97524 12.422324,56.98386 12.505004,58.58273 12.573584,59.5283 12.642184,60.47387 12.669384,62.1501 12.634084,63.25327 12.398434,70.62084 12.340854,69.48907 13.251694,75.39381 13.481024,76.8805 13.700064,77.66008 13.560034,76.49123 13.522334,76.17604 13.568034,74.91241 13.661574,73.68318 13.887224,70.71964 14.040084,69.63329 14.524414,67.5513 15.373084,63.90304 16.207564,59.36665 16.368664,57.52558 16.446164,56.63918 16.446464,55.11079 16.369364,52.88066 16.260994,49.74313 16.284064,33.128061 16.399364,31.275833 16.428864,30.80305 16.482264,29.668367 16.518194,28.754316 16.608794,26.448371 16.699024,24.580955 16.758984,23.769677 16.947114,21.224597 17.025274,12.935603 16.883844,10.53062 16.830044,9.616569 16.788044,8.791345 16.790344,8.696788 16.793344,8.602228 16.740344,7.895183 16.674024,7.125568 16.547474,5.65627 16.581224,5.33603 16.851894,5.439883 17.289324,5.607741 17.674144,12.737045 17.491674,17.292871 17.444974,18.459072 17.394074,20.754227 17.378674,22.393215 17.363174,24.0322 17.311274,25.837379 17.263304,26.40472 17.189704,27.27452 17.008074,32.689907 17.034564,33.224278 17.038564,33.318838 17.030564,33.55093 17.015764,33.740044 16.961864,34.417212 16.994164,36.860387 17.075364,38.26731 17.120864,39.05528 17.182544,40.57679 17.212394,41.64844 17.242294,42.72008 17.299894,44.13844 17.340564,44.80034 17.381164,45.46223 17.427364,46.98651 17.443224,48.18762 17.477424,50.78205 17.584634,52.77903 17.732084,53.56834 17.790984,53.88353 17.894774,55.30189 17.962764,56.72024 18.030764,58.1386 18.124634,59.53115 18.171374,59.81483 18.252874,60.30985 18.259374,60.31677 18.331314,59.98675 18.372514,59.79764 18.440444,59.33345 18.482214,58.95523 18.566214,58.19404 18.689724,57.54467 19.201184,55.17294 20.268374,50.22422 20.728634,47.5371 20.708224,46.37438 20.700224,45.91285 20.908654,40.67371 20.978454,39.58538 21.006754,39.14411 20.985454,37.854698 20.931154,36.720015 20.876854,35.585332 20.803584,32.568111 20.768344,30.015074 20.687944,24.190424 20.612054,21.090405 20.544094,20.856011 20.515094,20.755903 20.460894,20.106655 20.423914,19.413238 20.386814,18.71982 20.333214,17.971962 20.304734,17.751329 20.276234,17.530697 20.222034,16.900697 20.184204,16.351331 20.146404,15.801967 20.098704,15.208838 20.078254,15.033265 20.057754,14.857693 20.006654,14.095128 19.964664,13.338673 19.922664,12.582217 19.812244,11.21544 19.719324,10.301392 19.626424,9.38734 19.525114,8.330022 19.494254,7.951795 19.463354,7.573567 19.364944,6.645189 19.275484,5.888734 19.186084,5.132278 19.056254,3.739713 18.987094,2.794144 18.917894,1.848574 18.837414,0.95887995 18.808174,0.81704495 18.746574,0.51827095 19.036794,0.44999595 19.147054,0.73732495 19.261414,1.035353 19.453734,2.377198 19.514194,3.298886 19.545594,3.777734 19.617374,4.45319 19.673674,4.799898 19.777614,5.439752 19.867904,6.386822 19.963274,7.837182 20.055374,9.237385 20.358704,12.372462 20.539994,13.797132 20.859894,16.311239 21.072204,18.59518 21.115334,19.986313 21.138834,20.742768 21.210334,22.212698 21.274274,23.252825 21.338274,24.29295 21.417604,26.588105 21.450634,28.353167 21.483634,30.118229 21.530134,31.665525 21.553944,31.791601 21.577744,31.917675 21.630544,32.742901 21.671284,33.625431 21.767884,35.718246 21.835664,36.786099 21.969604,38.32463 22.084994,39.65002 22.142954,40.54831 22.295024,43.36766 22.377924,44.9046 22.901064,48.02174 23.215984,48.85513 23.268884,48.9951 23.363694,48.67453 23.487184,47.93821 23.591604,47.31555 23.768524,46.3419 23.880334,45.77456 24.055384,44.88642 24.083654,44.07391 24.083764,39.92923 24.083824,37.28163 24.045164,34.65123 23.997964,34.083884 23.950664,33.516546 23.862924,31.618329 23.802854,29.865627 23.742754,28.112924 23.667564,26.636668 23.635664,26.585057 23.603764,26.533447 23.551264,25.646537 23.518924,24.614141 23.486624,23.581744 23.432924,22.324447 23.399624,21.820144 23.341024,20.932663 23.172524,17.366748 23.050314,14.427511 23.017514,13.639539 22.912714,11.834361 22.817344,10.416007 22.633664,7.684302 22.600284,4.394252 22.750544,3.833144 22.800144,3.648137 22.901274,3.476558 22.975374,3.451857 23.072374,3.419517 23.102734,3.65803 23.083744,4.303997 23.069244,4.797375 23.096544,5.897332 23.144444,6.748344 23.356274,10.512654 23.477994,12.239735 23.576554,12.880218 23.792514,14.283367 23.932244,16.412259 24.031694,19.814391 24.087894,21.737048 24.158974,23.423509 24.189634,23.562077 24.220234,23.700648 24.274334,24.757966 24.309784,25.911673 24.345184,27.065382 24.399384,28.344572 24.430064,28.754318 24.460764,29.164063 24.515264,29.989289 24.551154,30.588149 24.616354,31.676038 24.741564,33.247839 24.943874,35.516573 25.057684,36.792767 25.151954,39.66714 25.237104,44.45649 25.293604,47.63656 25.319604,47.99489 25.636174,49.95798 25.996784,52.19429 26.321424,53.58529 26.849054,55.15479 27.127904,55.98427 27.691074,57.67158 28.100524,58.90438 28.509994,60.13718 28.917584,61.24509 29.006294,61.36642 29.157384,61.57305 29.163824,61.56732 29.108114,61.27592 29.075414,61.10481 29.087714,60.8737 29.135314,60.76233 29.183014,60.65096 29.210914,60.41917 29.197314,60.24724 29.183714,60.07532 29.208814,59.87593 29.253114,59.80416 29.297414,59.73236 29.324014,59.18966 29.312014,58.59811 29.300114,58.00656 29.332014,57.52265 29.383014,57.52274 29.433914,57.52284 29.441514,56.71051 29.399614,55.71757 29.208704,51.18307 29.176514,50.57788 29.117694,50.41647 29.083294,50.32187 29.037094,49.26459 29.015164,48.06687 28.955464,44.80395 28.846894,41.93987 28.719844,40.27309 28.517984,37.625226 28.399434,36.266801 28.329744,35.803123 28.301344,35.614011 28.250044,34.221445 28.215794,32.708536 28.181494,31.195624 28.128894,29.106777 28.098754,28.066651 27.981584,24.021074 27.944944,11.88954 28.045754,10.530642 28.250884,7.766177 28.885024,4.34146 29.191774,4.34146 29.393304,4.34146 29.425924,4.584393 29.310754,5.22757 29.072814,6.556276 28.643744,10.170462 28.504274,12.020629 28.422174,13.109373 28.450074,19.603936 28.550874,22.909001 28.573074,23.633937 28.603674,25.439116 28.619074,26.920506 28.660874,30.945404 28.810784,34.475278 29.010984,36.146967 29.109084,36.966463 29.239004,38.049565 29.299624,38.55387 29.360224,39.05817 29.483694,40.01234 29.573984,40.67424 29.664284,41.33614 29.778254,42.78028 29.827284,43.88344 29.928604,46.16352 29.923784,46.06677 30.038264,48.06687 30.085164,48.88636 30.140824,49.76316 30.161894,50.01532 30.285184,51.49114 30.336194,52.38555 30.390654,54.02682 30.528534,58.18117 30.590794,59.18108 30.858084,61.53407 31.174204,64.31686 31.389544,65.75795 32.048354,69.49977 32.170444,70.19319 32.353224,71.37944 32.454524,72.1359 32.555824,72.89236 32.686234,73.82073 32.744324,74.19897 32.802324,74.57719 32.886874,75.40241 32.932024,76.03279 33.071634,77.98176 33.190474,76.68449 33.142024,73.7405 33.104424,71.45765 33.005424,69.82626 32.794194,68.00979 32.764894,67.75763 32.689904,66.77768 32.627614,65.83211 32.565314,64.88654 32.464754,63.62291 32.404114,63.02405 32.303494,62.03019 32.230234,61.07403 32.109944,59.18447 32.049544,58.23623 32.037944,51.91196 32.096344,51.81395 32.122444,51.77025 32.177444,50.98668 32.218744,50.07262 32.330484,47.59796 32.507324,45.34997 32.696604,43.99806 32.843524,42.94879 33.027074,41.57979 33.265214,39.75733 33.483014,38.090543 33.908254,35.609177 34.512494,32.479307 35.084794,29.514842 35.442324,27.540807 35.654234,26.175514 36.020084,23.818457 36.279474,22.028355 36.351764,21.361707 36.444464,20.506799 36.951984,17.699606 37.097734,17.235587 37.237834,16.789565 37.522664,15.332361 37.614074,14.593974 37.701874,13.885237 37.801234,13.70922 38.058124,13.807803 38.198384,13.861623 38.239294,13.970487 38.199604,14.184181 38.168904,14.349542 38.112904,14.742722 38.075124,15.057911 38.010424,15.598219 37.826334,16.592727 37.322064,19.126725 37.076194,20.362257 36.826644,22.063019 36.632584,23.825916 36.497314,25.054695 36.303874,26.269156 35.774544,29.212795 35.384384,31.382541 34.775704,34.861034 34.470944,36.662733 34.337654,37.450705 34.178694,38.31207 34.117694,38.57687 33.967624,39.22835 33.483134,42.46578 33.272084,44.22729 33.041104,46.1552 32.963634,47.65469 32.881274,51.79184 32.728554,59.46365 32.755224,60.27427 33.318704,65.08711 33.381504,65.62294 33.458794,66.68026 33.490634,67.43671 33.522534,68.19317 33.597984,69.32785 33.658464,69.95823 33.718864,70.58861 33.824154,71.6975 33.892284,72.42244 33.960384,73.14738 34.063964,74.07576 34.122384,74.4855 34.285204,75.62723 34.442604,77.37766 34.519194,78.89815 34.614594,80.79186 34.677334,81.69631 34.801504,82.96696 34.932894,84.31149 35.016944,85.52664 35.086914,87.09309 35.188034,89.35692 35.301144,91.73477 35.324094,92.07882 35.336694,92.26793 35.359294,92.83527 35.374394,93.33957 35.408894,94.49783 35.511904,94.13076 35.776304,91.90689 35.877484,91.05588 36.012394,89.92926 36.076124,89.40327 36.238004,88.06702 36.415444,83.63531 36.343004,82.73774 36.310004,82.32799 36.210234,81.16752 36.121464,80.15891 36.032664,79.15031 35.927264,77.80932 35.887194,77.17894 35.847094,76.54856 35.743294,75.60788 35.656464,75.08853 35.569664,74.56919 35.467894,73.61503 35.430384,72.96816 35.392884,72.32131 35.316784,71.66312 35.261284,71.50553 35.135804,71.14915 34.742024,68.60629 34.586844,67.15018 34.476084,66.11091 34.405344,64.72621 34.288234,61.30484 34.259134,60.45382 34.209634,59.24178 34.178364,58.61139 34.147164,57.98102 34.092464,56.76898 34.056994,55.91796 34.021594,55.06695 33.966994,54.09561 33.935704,53.75943 33.871404,53.0681 34.054314,51.06717 34.249504,50.32618 L 34.378964,49.83475 34.599174,50.07113 C 34.809584,50.29698 34.811964,50.35463 34.652274,51.36487 34.499904,52.32936 34.483694,54.70223 34.622374,55.74604 34.647474,55.93515 34.701674,57.12141 34.742794,58.38217 34.783894,59.64293 34.838794,60.8034 34.864704,60.961 34.890604,61.11859 34.942104,61.91802 34.979144,62.73752 35.037444,64.02895 35.383064,67.27184 35.718154,69.67169 36.062054,72.13461 36.305104,73.76245 36.351314,73.91243 36.477704,74.32253 36.969674,78.79518 37.032104,80.10161 37.181464,83.22734 37.128604,87.71562 36.928064,88.92692 36.901964,89.08452 36.847864,89.72922 36.807804,90.3596 36.767704,90.98998 36.686574,91.86678 36.627404,92.30804 36.568204,92.74931 36.472354,93.54874 36.414344,94.08457 36.356344,94.62039 36.254204,95.56167 36.187384,96.17628 35.950734,98.35314 35.847774,99.42567 35.782994,100.38836 35.746994,100.92419 35.694994,101.64625 35.667534,101.99296 35.640034,102.33967 35.587334,103.06174 35.550384,103.59757 35.513484,104.13339 35.462084,104.85546 35.436204,105.20217 35.410404,105.54888 35.359004,107.25091 35.322144,108.98445 35.285244,110.71799 35.229644,112.39145 35.198624,112.70327 35.128424,113.40881 35.258324,113.29903 35.505934,112.44371 36.493114,109.03307 36.571624,108.81468 36.767004,108.93543 36.879934,109.00523 36.832104,113.32764 36.703704,114.65786 36.673204,114.97305 36.621104,115.5404 36.587794,115.91862 36.554494,116.29684 36.478264,117.0447 36.418444,117.58053 36.358644,118.11635 36.278354,118.96737 36.240064,119.47167 36.201764,119.97597 36.121854,120.67225 36.062444,121.01896 36.003044,121.36567 35.923934,122.1651 35.886674,122.79549 35.849374,123.42586 35.771914,124.17373 35.714444,124.45739 35.657044,124.74107 35.507084,125.56629 35.381324,126.29123 35.255564,127.01616 35.102184,127.8156 35.040474,128.06775 34.978774,128.3199 34.768374,129.17091 34.572914,129.95888 34.377454,130.74687 34.116154,131.88152 33.992274,132.48036 33.868384,133.0792 33.509764,134.34282 33.195354,135.28841 32.880944,136.23401 32.570124,137.1882 32.504644,137.40883 32.325644,138.01191 31.710174,139.69329 31.466744,140.24429 31.348684,140.51151 31.252074,140.7619 31.252074,140.8007 31.252074,140.875 30.311044,143.17192 29.800834,144.343 29.340564,145.39946 29.324204,145.43959 29.029584,146.23414 28.877654,146.64389 28.284024,147.88076 27.710424,148.98276 27.136804,150.08475 26.667494,151.04552 26.667494,151.11778 26.667494,151.19008 26.751194,151.44889 26.853464,151.69298 27.071394,152.21306 27.028764,153.52279 26.715924,155.91906 26.627824,156.59412 26.490924,156.89328 26.270214,156.89328 26.182214,156.89328 25.964834,157.20016 25.787134,157.57522 25.609434,157.95028 25.424084,158.25974 25.375244,158.2629 25.326344,158.2669 25.233884,158.13039 25.169624,157.96138 25.019344,157.56609 25.210224,156.63245 25.522424,156.23551 25.891934,155.76575 26.020174,155.08463 26.007884,153.65708 25.995284,152.19199 25.934784,151.85024 25.688194,151.85024 25.599394,151.85024 25.447774,151.72989 25.351394,151.58278 25.106164,151.20854 25.274394,150.78483 26.176004,149.50621 26.930624,148.43604 27.870434,146.62804 28.502424,145.03069 28.701954,144.52638 28.906614,144.0622 28.957224,143.99916 29.112304,143.80603 30.461104,140.61699 30.799324,139.64381 30.974584,139.13951 31.230454,138.44322 31.367934,138.09651 31.505404,137.74981 31.873664,136.58933 32.186274,135.51769 32.498884,134.44604 32.936234,132.95033 33.158144,132.19387 33.769514,130.10982 34.237724,128.18262 34.411184,127.03622 34.496984,126.46888 34.646024,125.64629 34.742284,125.20823 34.955534,124.23786 35.568064,116.89285 35.435754,116.89285 35.418354,116.89285 35.291584,117.39571 35.154124,118.01033 35.016664,118.62496 34.783444,119.54044 34.635854,120.04474 34.488274,120.54904 34.331094,121.14217 34.286554,121.36281 34.242054,121.58344 34.153644,121.82843 34.090164,121.90722 34.026664,121.98602 34.008164,122.0505 34.049064,122.0505 34.089964,122.0505 34.051064,122.19233 33.962664,122.36568 33.874264,122.53904 33.611114,123.24822 33.377864,123.94164 32.690244,125.9859 32.278224,126.96086 31.537304,128.29698 31.152774,128.9904 30.648834,129.92669 30.417434,130.37762 30.186024,130.82856 29.866554,131.44227 29.707494,131.74142 29.548444,132.04056 29.418304,132.32123 29.418304,132.36511 29.418304,132.45801 27.765124,135.52599 27.607034,135.72647 27.548434,135.80067 27.370404,136.09363 27.211354,136.3773 27.052294,136.66097 26.640694,137.35725 26.296684,137.9246 24.284354,141.24328 22.960174,144.12699 23.223044,144.61816 23.289444,144.74222 23.343744,144.95741 23.343744,145.09641 23.343744,145.2354 23.500624,145.8575 23.692364,146.47887 23.998434,147.47069 24.719114,150.51934 24.719114,150.82225 24.719114,151.04034 24.543934,150.92617 24.346614,150.57947 24.236304,150.38565 24.146044,150.13211 24.146044,150.01604 24.146044,149.84949 23.517444,147.97853 23.144974,147.03644 23.107574,146.94194 23.069074,146.83873 23.059574,146.80721 22.802104,145.96019 22.637114,145.47871 22.491634,145.14981 22.392934,144.9267 22.232944,144.56473 22.136064,144.34545 22.039164,144.12618 21.828484,143.59752 21.667834,143.17065 21.507174,142.7438 21.334884,142.34298 21.284964,142.27994 21.235064,142.21694 20.924934,141.52062 20.595814,140.73264 19.964654,139.22154 18.046404,135.41972 16.316394,132.25117 15.748494,131.21105 15.130624,130.05058 14.943354,129.67235 14.756084,129.29413 14.385784,128.62363 14.120454,128.18236 13.855134,127.7411 13.431224,126.99324 13.178424,126.52046 12.434734,125.12956 9.8219836,121.53521 9.8182436,121.89786 9.8177836,121.95026 9.9486136,122.58632 10.109144,123.31125 10.269694,124.03619 10.457944,124.8872 10.527504,125.20239 10.597004,125.51758 10.822424,126.36859 11.028304,127.09353 12.079424,130.79467 12.288184,131.34995 14.690874,136.83575 15.367314,138.38018 16.172454,140.27858 16.480094,141.05439 16.787724,141.83022 17.164124,142.73281 17.316524,143.06015 18.450034,145.49482 18.820574,146.23892 19.419364,147.28306 20.361064,148.92514 21.182414,150.67783 21.252934,151.19576 21.298134,151.52791 21.256934,151.68974 21.080484,151.88345 20.772884,152.21992 20.667544,153.17475 20.819974,154.24497 20.932994,155.03853 21.066854,155.40049 21.639224,156.46038 21.924014,156.98774 22.046194,158.02367 21.863794,158.36447 21.717724,158.6374 21.402964,158.68895 21.188974,158.47496 Z M 23.325004,140.90455 C 23.605514,140.46328 24.126964,139.66384 24.483804,139.12802 24.876914,138.53771 25.115834,138.06348 25.090094,137.92458 24.936504,137.09584 23.121114,132.71797 22.761234,132.30847 22.577924,132.09987 20.905304,129.3077 20.046564,127.77673 19.853464,127.43248 19.438654,126.71241 19.124774,126.17659 18.498084,125.10679 15.829474,120.49556 15.541314,119.98454 15.441914,119.80835 15.281764,119.54351 15.185314,119.396 14.778404,118.77366 10.825784,111.02123 10.375744,109.9628 L 10.085104,109.27926 10.005004,111.17535 C 9.9609036,112.2182 9.9519036,113.27365 9.9847036,113.5208 10.017504,113.76795 10.068404,114.48592 10.097674,115.11629 10.183374,116.96447 11.143804,121.39287 11.713284,122.56624 11.866264,122.88143 12.134594,123.29404 12.309574,123.48315 12.658874,123.86066 13.295804,124.80122 13.202144,124.80122 13.169844,124.80122 13.601844,125.4846 14.162244,126.31986 15.205234,127.87441 15.432854,128.28402 16.471104,130.47463 16.799744,131.16805 17.261404,132.07064 17.497024,132.48039 18.251484,133.79241 20.097334,137.38336 20.590064,138.49765 20.729434,138.81283 21.063554,139.50912 21.332554,140.04494 21.601544,140.58077 21.943754,141.33918 22.092994,141.73032 L 22.364354,142.44147 22.589654,142.07417 C 22.713574,141.87214 23.044454,141.34581 23.324964,140.90455 Z M 27.142904,134.65003 C 27.692964,133.67735 28.261124,132.70101 28.405474,132.48039 28.549814,132.25975 28.727154,131.97608 28.799524,131.85 28.871924,131.72393 29.194134,131.18237 29.515594,130.64655 30.255564,129.41316 30.796914,128.3663 31.135454,127.51411 31.281454,127.14659 31.494964,126.66139 31.609934,126.43591 31.827794,126.00858 33.042144,122.27109 33.351354,121.07625 33.785444,119.39874 34.212154,116.01372 34.406044,112.7094 34.443044,112.07901 34.520224,111.04748 34.577574,110.41711 34.765754,108.34863 34.798844,107.595 34.869354,103.77166 34.907754,101.69261 34.968754,99.93901 35.005144,99.87477 35.041444,99.81047 35.025044,99.80017 34.968644,99.85167 34.912244,99.90317 34.779744,100.23849 34.674294,100.59666 34.352764,101.68864 31.253164,110.69111 30.622204,112.36547 30.455934,112.80673 30.240004,113.39987 30.142394,113.68353 30.044794,113.9672 29.682244,114.844 29.336794,115.63198 28.991334,116.41995 28.581584,117.37412 28.426244,117.75234 28.163094,118.39304 27.923194,118.88296 26.238874,122.21948 25.889624,122.91133 25.305854,123.97928 24.941624,124.59268 24.577394,125.2061 24.242354,125.82629 24.197104,125.9709 24.151904,126.1155 23.927464,126.56905 23.698454,126.97881 23.469454,127.38855 23.062754,128.17432 22.794684,128.72498 L 22.307284,129.72616 22.578114,130.15766 C 22.727064,130.39498 22.980454,130.82126 23.141194,131.10493 23.301924,131.3886 23.730204,132.13286 24.092934,132.75883 24.455654,133.38481 24.865464,134.18424 25.003654,134.53535 25.425934,135.60838 25.898994,136.49969 26.024094,136.45799 26.089394,136.43619 26.592864,135.62261 27.142924,134.64994 Z M 21.819344,128.09639 C 22.121304,127.76461 23.230834,125.98743 24.070474,124.49065 24.594174,123.55709 24.703004,123.27898 24.608694,123.11527 24.543694,123.00241 24.203344,122.26538 23.852414,121.4774 23.150074,119.90036 21.883134,117.44851 21.202314,116.34877 20.961774,115.96024 20.485664,115.18875 20.144264,114.63433 19.802884,114.07992 19.491434,113.60052 19.452174,113.56901 19.333704,113.47391 18.486434,112.19244 17.897854,111.21814 17.593614,110.71453 17.301934,110.2853 17.249664,110.26428 17.197364,110.24328 17.154664,110.16998 17.154664,110.10139 17.154664,110.03289 17.084564,109.89527 16.998954,109.79575 16.913354,109.69625 16.647674,109.25377 16.408644,108.81251 16.169614,108.37123 15.620774,107.42316 15.188984,106.70566 14.757194,105.98816 14.403914,105.35734 14.403914,105.30384 14.403914,105.25034 14.197604,104.76617 13.945454,104.22793 13.693304,103.68968 13.486994,103.22348 13.486994,103.19192 13.486994,103.16032 13.353694,102.92336 13.190754,102.66526 13.027824,102.40716 12.827084,102.00847 12.744664,101.77928 12.662264,101.55009 12.314084,100.76943 11.970974,100.0445 11.627864,99.31956 11.171004,98.32558 10.955724,97.83564 10.598064,97.02164 10.558084,96.97224 10.491934,97.26257 10.322604,98.0056 10.397134,101.2708 10.620894,102.90986 10.909714,105.02599 11.385164,108.02369 11.523134,108.59854 12.419404,112.33284 13.441134,114.9107 15.264844,118.03897 15.748214,118.86811 15.950944,119.23337 16.759774,120.7324 17.065884,121.29975 17.888494,122.64073 18.587804,123.71238 19.287104,124.78403 20.217784,126.26589 20.655984,127.00541 21.094174,127.74492 21.482394,128.35094 21.518684,128.35213 21.554984,128.35302 21.690284,128.23822 21.819374,128.09639 Z M 25.896324,120.96163 C 26.118144,120.45733 26.634184,119.34844 27.043074,118.49743 28.452724,115.56359 29.032014,114.31189 29.297394,113.62631 29.443814,113.24809 29.679954,112.65495 29.822134,112.30825 29.964334,111.96154 30.324794,110.93001 30.623164,110.01596 30.921524,109.1019 31.383854,107.76092 31.650584,107.03598 32.691374,104.20702 34.220134,99.27908 34.388374,98.21067 34.644624,96.58339 34.681174,92.0408 34.462974,88.94441 34.306434,86.72329 34.277864,86.46296 33.995584,84.68616 33.870404,83.89819 33.702824,82.81687 33.623174,82.28323 L 33.478384,81.31297 33.324594,81.99669 C 33.137414,82.82888 32.715504,84.44606 32.264124,86.06154 32.079184,86.72344 31.853424,87.59919 31.762454,88.00768 31.381784,89.71689 30.048064,93.88993 29.472274,95.17339 29.387474,95.3625 29.076794,96.21351 28.781994,97.06452 27.217224,101.58142 26.847124,102.63106 26.559254,103.36832 26.423874,103.71503 26.212374,104.21733 26.089244,104.48456 25.966114,104.75179 25.865374,105.02338 25.865374,105.08811 25.865374,105.20839 25.161264,107.07951 23.924774,110.24519 23.543134,111.22227 23.230514,112.08618 23.230054,112.16497 23.229594,112.24377 23.177654,112.30825 23.114624,112.30825 23.051624,112.30825 23.000014,112.43414 23.000014,112.58801 23.000014,112.74189 22.952414,112.89721 22.894214,112.93317 22.836014,112.96917 22.754464,113.15315 22.712964,113.34209 22.671464,113.53103 22.598734,113.66165 22.551324,113.63235 22.503924,113.60305 22.465124,113.64135 22.465124,113.71795 22.465124,113.79425 22.327584,114.20052 22.159484,114.62071 21.788544,115.54791 21.788904,115.5336 22.123184,116.06422 22.271304,116.29935 22.664464,117.0075 22.996894,117.63788 24.198374,119.91623 24.530194,120.51528 24.981914,121.2215 25.234594,121.61653 25.452964,121.92599 25.467204,121.90919 25.481404,121.89239 25.674574,121.466 25.896394,120.9617 Z M 22.003694,112.36189 C 22.533874,111.3553 23.007564,110.40278 23.056344,110.24519 23.105144,110.08759 23.318604,109.58112 23.530764,109.11972 23.742924,108.65831 23.947384,108.15781 23.985104,108.0075 24.074504,107.6513 23.668514,106.43379 23.049624,105.20215 22.780374,104.66632 22.446144,103.97004 22.306894,103.65486 22.167634,103.33966 22.015974,103.05599 21.969864,103.02447 21.845054,102.93917 20.653574,100.55756 20.306994,99.70065 20.141274,99.29091 19.937274,98.80093 19.853654,98.61182 19.770054,98.42271 19.664424,98.13903 19.618924,97.98144 19.573424,97.82385 19.366474,97.30425 19.159014,96.82679 18.951564,96.34933 18.563484,95.29201 18.296624,94.4772 18.029754,93.66238 17.732874,92.84099 17.636884,92.65187 17.540884,92.46275 17.291064,91.76647 17.081714,91.10457 16.872364,90.44267 16.387734,88.99853 16.004744,87.89537 15.621754,86.79221 15.177614,85.50279 15.017764,85.03001 14.857904,84.55722 14.581864,83.80936 14.404334,83.3681 13.734974,81.7044 13.357164,80.68972 12.898424,79.32381 12.638314,78.54932 12.412974,77.9304 12.397664,77.94843 12.382364,77.96653 12.335864,78.4454 12.294294,79.01275 12.252694,79.58009 12.167794,80.59985 12.105504,81.27888 11.974894,82.70243 12.021504,85.20131 12.292214,91.27649 12.323114,91.96991 12.369014,93.02723 12.394294,93.62609 12.439394,94.69329 12.631644,96.8436 12.753114,97.6376 12.851614,98.28161 13.491174,101.10129 13.623984,101.47718 13.758434,101.85773 14.604854,103.5887 14.744884,103.76947 14.793784,103.83247 15.142494,104.47721 15.519944,105.20215 16.499454,107.08341 16.997694,107.98499 17.691544,109.13173 18.026614,109.68552 18.300784,110.16665 18.300784,110.20091 18.300784,110.29581 20.968214,114.26358 21.006374,114.22542 21.024674,114.20712 21.473514,113.36849 22.003694,112.36189 Z M 25.473114,104.17061 C 25.845684,103.20198 26.340204,101.83791 26.948184,100.10181 27.058554,99.78662 27.214694,99.374 27.295154,99.18489 28.139214,97.20105 30.036834,91.59125 30.384574,90.0519 30.474474,89.65378 30.626934,89.04438 30.723334,88.69767 32.193394,83.40962 32.203264,83.35071 32.190754,79.94143 32.185754,78.37196 32.154054,76.85045 32.121954,76.56031 32.089954,76.27016 32.032854,75.59438 31.995194,75.05855 31.834014,72.7645 31.310474,69.4942 30.545654,66.00401 30.245094,64.63249 30.200004,64.49937 30.138034,64.80056 30.112134,64.92664 29.965444,65.54555 29.812134,66.17593 29.658814,66.80631 29.486004,67.55417 29.428094,67.83784 28.816194,70.83541 28.607414,71.60581 27.611044,74.54279 27.268874,75.5514 26.836594,76.91817 26.650394,77.58007 26.464194,78.24197 26.231634,79.06719 26.133584,79.4139 26.035484,79.76061 25.912844,80.199 25.860964,80.38812 25.622594,81.25688 25.421874,81.90607 25.293954,82.22195 25.217354,82.41106 25.129434,82.72053 25.098524,82.90964 25.067624,83.09875 24.815314,83.93796 24.537854,84.77454 24.260394,85.61113 23.929644,86.69424 23.802854,87.18145 23.676054,87.66866 23.497314,88.29938 23.405654,88.58305 23.313954,88.86673 23.157284,89.45985 23.057394,89.90112 22.877134,90.69752 21.916234,93.93169 21.729324,94.37108 21.551944,94.78811 20.822274,97.77464 20.822824,98.08145 20.823524,98.46344 21.285564,99.60723 21.543354,99.86501 21.651064,99.97274 21.745654,100.13455 21.753534,100.2246 21.779434,100.5209 21.796034,100.55553 22.170394,101.09668 22.374504,101.39171 22.541504,101.69033 22.541504,101.76028 22.541504,101.95873 22.944054,102.70009 23.647094,103.79641 24.882084,105.72226 24.872464,105.71005 24.968314,105.47255 25.015614,105.35535 25.242764,104.76947 25.473114,104.17061 Z M 20.579554,94.54301 C 20.628054,94.32237 20.902754,93.49715 21.189904,92.70918 21.763654,91.13477 22.313584,89.40868 22.312794,89.18478 22.312564,89.10598 22.354794,89.04151 22.406694,89.04151 22.458594,89.04151 22.619724,88.6418 22.764664,88.15325 22.909614,87.66471 23.073424,87.11546 23.128694,86.93269 23.380314,86.10061 23.184794,85.09737 22.199524,82.16465 21.549984,80.23128 20.916674,77.85608 20.075614,74.19894 19.988614,73.82071 19.789244,72.9697 19.632554,72.3078 19.205124,70.50217 18.913104,69.15742 18.699224,68.00976 18.593484,67.44242 18.387284,66.43668 18.240984,65.77478 18.094684,65.11288 17.865204,64.05556 17.731024,63.42519 17.596854,62.7948 17.445434,62.12432 17.394534,61.93519 L 17.302034,61.59135 17.173734,61.90691 C 17.103134,62.08047 16.947214,62.44151 16.827174,62.70922 16.589044,63.24024 16.484804,63.55004 16.406184,63.96045 16.378084,64.10732 16.177574,64.79483 15.960704,65.48824 15.445034,67.13704 14.793104,69.77845 14.687734,70.6459 14.641834,71.02412 14.579634,71.43674 14.549594,71.56281 14.519594,71.68889 14.468794,72.87515 14.436784,74.19894 14.393884,75.97258 14.427784,77.0787 14.565774,78.40306 14.739614,80.07223 15.130044,82.52175 15.254284,82.72277 15.283984,82.77077 15.439864,83.39333 15.600814,84.1063 15.969974,85.74164 16.610994,87.6446 17.977534,91.16188 18.295924,91.98137 18.815254,93.32236 19.131604,94.14186 19.447944,94.96134 19.785214,95.81113 19.881084,96.03027 L 20.055394,96.42872 20.273354,95.68643 C 20.393244,95.27818 20.531044,94.76364 20.579584,94.54301 Z M 24.673384,81.87711 C 24.919794,81.06239 25.295384,79.67932 26.276074,75.97547 26.434634,75.37661 26.634804,74.57717 26.720904,74.19894 26.807004,73.82071 27.029604,72.89234 27.215584,72.13588 27.936824,69.20231 28.314474,67.04303 28.308044,65.8894 28.303044,64.88114 28.040704,62.98911 27.750834,61.86135 27.659334,61.50554 27.584544,61.06396 27.584544,60.88005 27.584544,60.51084 27.215774,59.02569 26.939904,58.28392 26.842804,58.02275 26.692994,57.55119 26.607054,57.23601 26.456064,56.68233 25.795744,54.86257 25.317774,53.68295 25.044474,53.00846 24.609914,51.54823 24.524734,51.01817 24.466434,50.65541 24.260724,50.48814 24.260724,50.80349 24.260724,50.89029 24.109914,51.34158 23.925594,51.80637 23.741274,52.27115 23.502534,53.06404 23.395064,53.56834 23.287604,54.07264 23.155184,54.54158 23.100814,54.61042 23.046414,54.67922 23.025014,54.75859 23.053114,54.78671 23.081214,54.81481 22.999114,55.2227 22.870444,55.69308 22.642974,56.52508 22.056174,59.40825 21.926564,60.33059 21.891164,60.58274 21.781164,61.35639 21.682184,62.04981 21.583184,62.74322 21.478624,63.51687 21.449754,63.76903 21.420854,64.02118 21.347604,64.45958 21.286924,64.74325 21.065104,65.78022 20.802574,69.04834 20.771344,71.16166 20.746644,72.82855 20.889984,73.86602 21.446794,76.0527 22.445144,79.97331 23.106244,82.20716 23.659804,83.53034 L 23.967424,84.26564 24.181614,83.53034 C 24.299414,83.12591 24.520724,82.38196 24.673414,81.87711 Z M 20.005074,65.8894 C 20.198824,65.2275 20.511534,63.70599 20.700004,62.50827 21.089544,60.03271 21.637314,56.93206 21.894664,55.74601 22.508914,52.915 22.532234,52.75751 22.478004,51.80452 22.424804,50.86851 22.252734,49.92254 21.923384,48.75454 L 21.761784,48.18146 21.583074,48.59683 C 21.386064,49.0547 21.221224,49.65521 20.707694,51.78586 20.518574,52.57055 20.363834,53.33435 20.363834,53.48318 20.363834,53.63201 20.317434,53.72512 20.260734,53.69007 20.204034,53.65497 20.132754,53.84539 20.102364,54.11311 20.071964,54.38083 19.986404,54.96091 19.912224,55.40217 19.181594,59.74898 19.102124,60.85104 19.271744,64.2848 19.335044,65.56619 19.537814,67.21553 19.621124,67.12665 19.638524,67.10805 19.811324,66.5513 20.005074,65.8894 Z M 39.826794,0.02240995 C 39.909494,-0.01070005 40.008394,-0.00663005 40.046474,0.03140995 40.084574,0.06948995 40.016874,0.09657995 39.896044,0.09160995 39.762524,0.08610995 39.735364,0.05895995 39.826744,0.02236995 Z"
       style="fill:#a0a1a2;fill-opacity:1" />
    <path
       inkscape:label="caryopsis_cross_section"
       inkscape:connector-curvature="0"
       id="caryopsis_cross_section"
       d="M 74.711144,157.76092 C 74.077264,156.9528 73.754014,156.23541 73.425054,154.90668 73.281894,154.32845 73.164764,153.81468 73.164764,153.76497 73.164764,153.71527 73.391334,153.71997 73.668254,153.77527 74.105794,153.86277 74.194224,153.81687 74.343424,153.42443 74.489154,153.04111 74.460474,152.92867 74.153664,152.68022 73.954874,152.51926 73.638174,152.38756 73.449874,152.38756 72.704834,152.38756 71.875274,151.82229 71.502454,151.06057 71.074204,150.18562 70.824424,148.08663 71.047744,147.23949 71.272894,146.38538 71.912374,145.35662 72.447144,144.98822 72.704834,144.8107 73.307994,144.26632 73.787514,143.77849 74.436204,143.11856 74.659364,142.76787 74.659364,142.40844 74.659364,141.84755 74.621264,141.83384 74.068784,142.19584 73.474484,142.58525 72.428524,142.40898 71.803674,141.81411 71.532134,141.55561 71.038544,140.97046 70.706804,140.51377 70.375064,140.05709 69.614584,139.0856 69.016864,138.3549 67.921554,137.01592 67.695134,136.69442 66.291494,134.48505 63.934874,130.77564 62.576984,126.80559 62.133874,122.32944 62.084074,121.82709 61.971244,120.70615 61.882994,119.83845 61.794794,118.97074 61.673774,117.58824 61.614194,116.7662 61.554594,115.94418 61.481464,115.23121 61.451634,115.18185 61.421834,115.13245 61.351734,114.49727 61.295814,113.77028 61.239914,113.04328 61.010584,110.72967 60.786174,108.62893 60.561764,106.52818 60.304134,103.98736 60.213684,102.98266 60.123184,101.97795 59.978884,100.44598 59.892904,99.57828 59.732084,97.95526 59.642384,96.45825 59.430274,91.85617 59.311034,89.26904 59.270494,67.77768 59.376074,63.1266 59.405074,61.84788 59.527574,59.60598 59.648244,58.14459 59.768904,56.6832 59.911494,54.88968 59.965104,54.15898 60.018704,53.42829 60.171284,51.72308 60.304144,50.36964 60.437004,49.01619 60.591374,47.4095 60.647184,46.7992 60.702984,46.18891 60.927484,44.90491 61.146054,43.94587 61.364624,42.98684 61.773284,41.15595 62.054184,39.87723 62.885044,36.094881 64.531634,30.571719 65.371244,28.750747 65.652044,28.141747 66.749174,25.600028 67.700934,23.353574 68.172254,22.241108 69.821174,19.015191 70.671894,17.541229 71.014554,16.94754 71.578954,15.90132 71.926104,15.216295 72.875444,13.34304 74.410764,11.026736 75.126904,10.387307 76.200434,9.428787 76.305184,9.362021 77.186334,9.074769 L 78.040544,8.796298 78.524584,9.347576 C 79.724504,10.714218 79.586594,12.740326 78.062954,16.129662 77.648134,17.052433 76.997734,19.015503 76.675544,20.31724 76.152424,22.430728 75.974994,24.382248 75.938954,28.418614 75.909054,31.773302 76.087874,37.227872 76.235664,37.467185 76.330464,37.620714 76.689364,42.92799 76.898344,47.2672 76.953344,48.40892 77.067114,50.09035 77.151174,51.00371 77.235174,51.91708 77.349804,53.59851 77.405734,54.74022 77.461634,55.88193 77.536024,56.99398 77.570944,57.21144 77.605844,57.4289 77.678244,58.40039 77.731764,59.37031 77.785264,60.34022 77.863454,61.29729 77.905464,61.49711 77.947464,61.69693 78.056424,63.49046 78.147594,65.48272 78.238794,67.47497 78.349744,69.51602 78.394224,70.01837 78.577794,72.09144 78.803674,75.19164 78.890334,76.82712 78.994594,78.79486 79.408434,85.49903 79.647224,89.08892 79.734324,90.39837 79.833974,91.51932 79.868664,91.57992 79.903364,91.64052 79.985874,93.67045 80.052024,96.09088 80.118224,98.5113 80.225034,101.42577 80.289464,102.56749 80.353864,103.70919 80.425934,107.70726 80.449554,111.45206 L 80.492454,118.26081 80.920854,118.70974 C 81.302104,119.10924 81.337184,119.24636 81.239514,119.95524 81.119364,120.82733 81.497874,121.83125 81.946834,121.83125 82.400094,121.83125 83.324924,122.70432 83.633014,123.42307 83.953964,124.17182 84.024234,125.12941 83.967474,127.98119 83.950074,128.8519 83.984574,130.79488 84.043874,132.29893 84.179194,135.72862 84.027374,136.78646 83.126824,138.69108 82.338114,140.35906 82.141134,141.56757 82.447224,142.86056 82.792664,144.31976 82.817754,144.48518 82.912284,145.92758 83.053924,148.08858 82.669554,149.08392 80.931704,151.0564 79.871804,152.2594 79.283484,154.04823 79.947714,154.04823 80.290884,154.04823 80.803794,154.54111 80.803794,154.87088 80.803794,155.02118 80.654424,155.05627 80.308864,154.98716 79.793624,154.88412 79.475254,155.18987 79.475254,155.78774 79.475254,156.19005 78.830644,156.98029 78.117524,157.45221 77.768234,157.68336 77.482454,157.82248 77.482454,157.76135 77.482454,157.70015 77.351324,157.76835 77.191044,157.91394 77.030774,158.05898 76.520244,158.22799 76.056544,158.28949 75.225844,158.39969 75.206054,158.39192 74.711094,157.7609 Z M 76.871054,157.03371 C 78.115744,156.48312 78.467974,155.851 78.807194,153.55904 79.008774,152.19708 79.311034,151.59292 80.473284,150.22871 81.816184,148.65247 82.314894,147.39307 82.314584,145.57883 82.314474,144.8938 82.273684,144.18387 82.223984,144.0012 81.309934,140.64364 81.309424,140.65562 82.474014,138.21612 83.452144,136.16722 83.707664,134.81405 83.482644,132.87472 83.397944,132.14402 83.326504,130.11925 83.324054,128.37522 83.319054,124.86212 83.240754,124.17286 82.790884,123.69005 82.622384,123.50919 82.529854,123.31591 82.585244,123.26052 82.640644,123.20512 82.533944,123.1598 82.348284,123.1598 82.162574,123.1598 81.627014,123.00038 81.158144,122.80553 L 80.305664,122.45126 80.305664,121.07163 C 80.305664,120.31283 80.238864,119.65074 80.157304,119.60031 79.968154,119.48341 79.869694,119.89682 79.645714,121.74823 79.079904,126.4253 78.630334,127.96402 77.488344,129.13226 76.921774,129.71184 76.363284,129.77609 75.807034,129.32568 75.233054,128.86089 75.325454,128.14861 76.235564,126.02239 76.999494,124.23764 77.026484,124.12288 76.825494,123.51384 76.668114,123.03701 76.661564,122.78831 76.799594,122.53042 76.901194,122.34057 76.981994,122.01218 76.979134,121.80067 76.975134,121.5059 76.887934,121.59277 76.605484,122.17264 75.773074,123.8818 74.821894,126.29465 74.057934,128.635 73.476144,130.41724 73.139914,130.88928 71.890334,131.67811 71.125584,132.16087 70.675134,132.98067 70.588164,134.04802 70.533564,134.71765 70.615064,135.10091 71.203194,136.94336 71.354604,137.41765 72.173724,138.51769 73.253924,139.69741 73.348624,139.80083 73.713984,139.98945 74.065844,140.11659 75.201144,140.52675 75.811704,141.72604 75.491194,142.91632 75.315794,143.56769 74.148014,144.89144 73.006004,145.73343 72.351574,146.21593 72.044284,146.88928 71.912004,148.1306 71.765714,149.50326 72.543294,151.02677 73.532824,151.3063 74.565964,151.59817 74.808954,151.76762 74.927814,152.27918 75.109184,153.05977 74.999314,153.76232 74.643684,154.09624 73.992804,154.70734 74.511774,156.41766 75.537934,157.04335 75.831104,157.2221 76.080144,157.36862 76.091374,157.36897 76.102574,157.3692 76.453464,157.21844 76.871074,157.03371 Z M 75.738794,150.56847 C 74.927484,150.23289 74.327234,149.17633 74.327234,148.0838 74.327234,147.27656 74.566264,146.60403 75.266414,145.44132 75.949894,144.30629 76.153094,143.59826 76.189414,142.22538 76.224514,140.90065 75.853124,140.08729 74.889844,139.37883 73.900064,138.65087 73.164334,137.03351 73.527644,136.38431 73.768704,135.95356 73.912444,136.06152 74.117214,136.82715 74.265024,137.3798 74.535774,137.73919 75.314614,138.41661 76.458244,139.4113 76.620564,139.66081 76.887744,140.83459 77.157104,142.01796 76.968444,142.97405 76.085964,144.8994 75.666684,145.81409 75.323634,146.67744 75.323634,146.81795 75.323634,146.95847 75.267534,147.07359 75.199084,147.07377 75.130484,147.07393 75.056674,147.32567 75.034834,147.63314 74.980034,148.4061 75.570644,149.22775 76.381404,149.50618 77.025404,149.72734 77.814634,149.65807 77.814634,149.38037 77.814634,149.29887 77.912734,149.2323 78.032674,149.2323 78.689464,149.2323 79.898084,147.04204 80.408734,144.92639 80.724764,143.61702 80.738634,143.73252 79.954464,141.14433 79.799794,140.63383 79.790734,140.34387 79.920764,140.0649 81.647824,136.35871 81.855744,135.82536 81.957774,134.83975 82.019774,134.23979 82.001774,133.78809 81.915674,133.78809 81.832674,133.78809 81.805894,133.68081 81.856174,133.54972 81.906474,133.4186 81.876374,133.28758 81.789174,133.25855 81.702074,133.22955 81.600254,133.04717 81.562934,132.85335 81.525634,132.65954 81.426904,132.24877 81.343604,131.94053 81.232854,131.5307 81.302004,130.72755 81.601174,128.95149 82.003984,126.55972 82.011464,125.40846 81.627974,124.82047 81.368424,124.42245 80.869324,125.21192 80.635744,126.39 80.165074,128.76374 79.970294,129.25117 79.266284,129.81692 78.614714,130.34054 78.598234,130.34448 78.689174,129.95465 78.740674,129.73395 79.008634,128.95553 79.284664,128.22484 79.560704,127.49415 79.922004,126.30472 80.087554,125.58167 80.324474,124.54692 80.482694,124.19761 80.830774,123.94089 81.393054,123.5262 81.911894,123.65817 82.458894,124.35506 82.843634,124.84521 82.867524,124.99405 82.851294,126.80001 82.841294,127.85768 82.744154,129.20879 82.634304,129.80248 82.506914,130.49105 82.475454,131.45317 82.547404,132.45955 82.689604,134.44809 82.500304,135.50723 81.534164,138.12993 80.714844,140.35395 80.625254,141.10641 81.035794,142.31562 81.576924,143.90951 81.295284,145.77979 80.202504,147.84907 79.596754,148.99613 78.599224,150.12778 77.852264,150.51531 77.398134,150.75091 76.249564,150.77981 75.738664,150.56851 Z M 74.406274,140.95264 C 74.365374,140.91174 74.088044,140.88524 73.789984,140.89374 73.174324,140.91124 72.722384,140.55428 71.990404,139.47234 71.726464,139.08219 71.429784,138.67117 71.331134,138.55897 70.865754,138.02967 69.192044,135.69677 68.997714,135.30653 68.877494,135.0651 68.654984,134.71811 68.503274,134.53543 67.711374,133.58195 65.541894,129.63633 65.353044,128.80612 65.238764,128.30377 64.971954,127.22019 64.760124,126.39816 64.153484,124.04401 63.694524,120.93721 63.275884,116.3511 63.238384,115.94009 63.167504,115.15542 63.118414,114.6074 63.069314,114.05939 62.955094,112.26586 62.864574,110.62179 62.707834,107.77513 62.485734,105.11001 61.958104,99.74441 61.827864,98.42003 61.678894,96.43969 61.627054,95.34364 61.575254,94.2476 61.495494,92.67826 61.449904,91.85623 61.219674,87.70589 61.049994,58.79269 61.253834,58.4479 61.298434,58.3725 61.386214,57.46908 61.448874,56.44042 61.511574,55.41174 61.590994,54.40289 61.625414,54.19851 61.659914,53.99414 61.729384,53.19171 61.779924,52.41535 61.830524,51.63899 61.900514,50.85432 61.935554,50.67164 61.970654,50.48898 62.166644,49.27584 62.371194,47.97579 62.575754,46.67574 62.807864,45.65209 62.886994,45.701 62.966094,45.7499 62.988124,45.6785 62.935894,45.54233 62.821714,45.2448 63.075974,43.89849 63.629424,41.8701 63.853724,41.04807 64.194874,39.77766 64.387564,39.04696 65.318684,35.515978 67.037744,31.264479 68.785714,28.169578 69.121024,27.575889 69.695724,26.529668 70.062844,25.844642 70.967284,24.156933 71.004504,24.092789 71.821494,22.81392 72.215364,22.197395 72.604004,21.692968 72.685144,21.692968 72.766244,21.692968 72.881574,21.674298 72.941364,21.651458 73.097484,21.591848 73.152664,22.082419 73.170174,23.685776 73.179174,24.462141 73.339554,26.143566 73.527724,27.422281 73.952814,30.310927 73.925284,30.131262 74.049484,30.826654 74.106584,31.146333 74.196164,31.930997 74.248554,32.570356 74.300954,33.209715 74.373574,34.069112 74.409944,34.480124 74.446244,34.891136 74.523254,36.12419 74.580954,37.220227 74.638654,38.31627 74.715544,39.62404 74.751864,40.1264 74.788164,40.62875 74.856074,42.12336 74.902744,43.44774 75.002344,46.27375 75.661244,55.39896 75.906144,57.34436 75.938544,57.60186 76.011254,58.74665 76.067684,59.88837 76.124084,61.03007 76.201624,62.41258 76.239954,62.9606 76.278354,63.50862 76.386874,65.19005 76.481234,66.6971 76.793634,71.68599 76.999334,74.88935 77.158404,77.24236 77.354944,80.14967 77.451634,81.74891 77.565044,83.96806 77.614044,84.9271 77.692574,86.12278 77.739534,86.62513 77.786534,87.12748 77.935874,89.44412 78.071484,91.7732 78.207104,94.10229 78.429274,97.91353 78.565194,100.24262 78.701114,102.57171 78.793354,105.50494 78.770184,106.76091 78.746984,108.01687 78.786684,109.04441 78.858384,109.04432 78.930084,109.04424 78.918784,109.17504 78.833084,109.335 78.747484,109.49496 78.672334,109.99938 78.666094,110.45595 78.651994,111.48647 78.182754,117.28003 78.067554,117.84571 78.020954,118.07406 77.881824,118.74663 77.758154,119.34032 77.561564,120.28423 77.565184,120.46875 77.787054,120.81003 78.002124,121.14094 78.009414,121.31728 77.835054,121.9693 77.693534,122.49842 77.684184,122.75654 77.805054,122.79684 77.901654,122.82904 77.980734,123.05442 77.980734,123.29767 77.980734,123.73823 77.215484,126.24826 76.984834,126.56422 76.781734,126.84246 76.641464,128.11562 76.802914,128.21541 77.149634,128.4297 77.490954,128.04644 77.953194,126.92381 78.695554,125.12086 78.977054,123.59861 78.977764,121.38337 78.978224,119.65011 79.020764,119.3561 79.344344,118.84212 79.692974,118.28843 79.713674,118.04834 79.781074,113.77707 79.841274,109.96165 79.647644,102.96158 79.392894,99.74442 79.353094,99.24207 79.277034,97.18699 79.223814,95.17758 79.140714,92.03977 78.975714,89.18995 78.723854,86.5421 78.621994,85.47127 78.335664,80.58511 78.232404,78.15572 78.124214,75.61044 77.844184,70.97056 77.731274,69.85238 77.689774,69.44136 77.579014,67.64784 77.485154,65.86678 77.288484,62.13466 77.137394,60.09463 76.488874,52.41536 76.307604,50.26894 76.083474,46.71926 75.990814,44.52717 75.898114,42.33509 75.791654,40.38634 75.754134,40.19662 75.716634,40.00692 75.639934,38.9607 75.583724,37.871691 75.527524,36.782695 75.447014,35.480675 75.404824,34.978326 75.330824,34.097724 75.171164,31.483932 75.064884,29.415084 74.952834,27.233791 74.991484,24.018441 75.147884,22.523309 75.323274,20.845596 75.583074,19.96556 76.569614,17.707367 77.635314,15.267989 78.002384,14.043688 78.088244,12.642327 78.157544,11.510569 78.120444,11.236056 77.837594,10.788969 77.528114,10.299788 77.463984,10.273526 76.893114,10.40228 75.946014,10.615882 74.369294,12.572706 72.572404,15.764547 71.920494,16.922586 67.684624,25.43264 67.684624,25.584354 67.684624,25.638174 67.539914,25.998987 67.363064,26.386172 67.186204,26.773359 66.842794,27.575893 66.599934,28.169583 66.357084,28.763272 66.055654,29.473208 65.930104,29.747218 65.804564,30.021228 65.589664,30.682508 65.452544,31.21673 65.176924,32.290558 65.054804,32.684304 64.460434,34.41544 64.237454,35.064883 63.823984,36.559487 63.541624,37.736776 63.259254,38.91406 62.961104,39.99725 62.879044,40.14385 62.700534,40.4628 61.793754,44.84611 61.542834,46.60301 61.445034,47.28804 61.256464,49.04419 61.123874,50.50558 60.991274,51.96697 60.847154,53.31211 60.803604,53.49478 60.760104,53.67746 60.677814,54.5268 60.620854,55.38221 60.563854,56.23763 60.485044,57.09702 60.445634,57.29198 60.182524,58.59367 60.106134,62.92292 60.140544,74.58529 60.174644,86.15375 60.282924,90.68483 60.634464,95.26061 60.680064,95.8543 60.747494,96.97525 60.784284,97.75162 60.895744,100.104 61.202964,104.61147 61.287964,105.14159 61.331964,105.4156 61.408944,106.1629 61.459164,106.80226 61.509364,107.44162 61.581924,108.22628 61.620374,108.54597 61.712674,109.31339 61.852594,110.97542 61.961534,112.59805 62.009934,113.31965 62.083334,113.9646 62.124534,114.03128 62.165734,114.09798 62.274784,114.96481 62.366834,115.9576 62.458934,116.9504 62.569214,117.98687 62.612024,118.26087 62.691524,118.76968 62.955154,121.12097 63.133434,122.91075 63.364064,125.22609 64.956304,130.35183 65.994194,132.12017 68.135364,135.76821 69.503064,137.61187 71.580004,139.64985 73.364554,141.40095 73.410934,141.43084 73.999464,141.2087 74.264134,141.1088 74.447234,140.99359 74.406344,140.95269 Z M 70.093364,132.25139 C 70.258564,132.04619 70.980844,131.31784 71.698444,130.63281 72.991784,129.39817 73.337244,128.82003 73.831854,127.06237 73.908954,126.78836 74.092874,126.15316 74.240554,125.6508 74.388224,125.14845 74.532964,124.58798 74.562184,124.4053 74.591384,124.22264 74.780364,123.62479 74.982064,123.07677 75.183764,122.52874 75.429524,121.85617 75.528184,121.58217 75.626884,121.30815 75.922154,120.80909 76.184404,120.47312 76.661514,119.8619 76.723904,119.62353 77.502344,115.43769 77.660904,114.58509 77.715994,112.23894 77.709024,106.63614 77.704024,102.43465 77.649524,98.77287 77.588434,98.49887 77.527334,98.22485 77.440544,96.76762 77.395554,95.26056 77.149274,87.01081 77.128314,86.61318 76.646984,81.06184 76.472754,79.05244 76.288734,76.39951 76.238034,75.16647 76.187334,73.93342 76.111534,72.25199 76.069544,71.42996 76.027544,70.60793 75.954444,69.00124 75.907014,67.85952 75.859514,66.71781 75.784844,64.92429 75.740874,63.87392 75.618304,60.94578 75.356604,56.98938 75.169674,55.23844 74.848974,52.2346 74.649684,49.83392 74.583774,48.1806 74.448124,44.77834 74.023114,38.38985 73.904304,37.967482 73.865704,37.830475 73.792554,36.812697 73.741614,35.705763 73.644714,33.600713 73.473324,32.385334 72.749044,28.667732 72.508824,27.434686 72.269704,25.878303 72.217654,25.209109 L 72.123054,23.992389 71.650764,24.856034 C 71.391004,25.331043 71.097194,25.817621 70.997844,25.937326 70.634984,26.374546 67.392994,32.942333 66.868324,34.303111 65.923704,36.753069 64.474824,41.33387 64.107264,43.03252 64.067764,43.21519 63.917774,43.88777 63.774004,44.52712 63.630234,45.16648 63.408214,46.43689 63.280624,47.35026 63.153034,48.26363 62.936114,49.72087 62.798594,50.58856 62.361084,53.34906 62.203594,54.95503 62.104784,57.66345 61.959404,61.6485 61.937584,87.77338 62.077884,89.86339 62.145384,90.86809 62.243214,92.66161 62.295394,93.84899 62.423644,96.76743 62.683704,100.91393 62.764064,101.322 62.950144,102.2669 63.066004,103.21355 63.282334,105.55671 63.413044,106.97243 63.596094,108.91541 63.689124,109.87445 63.782124,110.83349 63.977944,112.88856 64.124244,114.44128 64.667914,120.21172 64.845984,121.93074 64.924674,122.16853 64.969074,122.30271 65.043794,122.74878 65.090684,123.1598 65.236094,124.4342 65.482404,125.49893 66.070394,127.39451 66.382034,128.39921 66.667214,129.33334 66.704114,129.47034 66.741014,129.60735 66.808574,129.75681 66.854244,129.80248 66.899944,129.84818 67.255464,130.52205 67.644384,131.30005 68.033294,132.07805 68.631134,133.15597 68.972914,133.69543 L 69.594344,134.67627 69.693644,133.65037 C 69.753144,133.0361 69.913494,132.47477 70.093344,132.25139 Z"
       style="fill:#a0a1a2;fill-opacity:1" />
  </g>
  <g
     inkscape:label="EFO"
     id="LAYER_EFO"
     inkscape:groupmode="layer">
    <g
       transform="matrix(0.23280217,0,0,0.23280217,-23.463399,-14.118829)"
       style="fill:none;stroke:none"
       inkscape:label="anther"
       id="PO_0009066">
      <title
         id="anther">anther</title>
      <path
         d="M 226.5043,549.08648 C 222.21858,538.37219 219.36144,548.37219 219.36144,548.37219 223.64716,559.80076 220.79002,575.51505 220.79002,575.51505 220.79002,582.65791 227.93288,571.94362 227.93288,571.94362 230.79002,558.37219 226.5043,549.08648 226.5043,549.08648 Z"
         id="anther3"
         inkscape:connector-curvature="0"
         inkscape:label="anther3" />
      <path
         d="M 162.21859,573.37219 C 162.21859,570.51505 167.21859,567.65791 167.21859,567.65791 172.93288,566.94362 166.5043,559.08648 166.5043,559.08648 153.64716,559.80076 152.93288,580.51505 152.93288,580.51505 152.93288,588.37219 162.21859,583.37219 162.21859,583.37219 162.93288,579.80076 162.21859,573.37219 162.21859,573.37219 Z"
         id="anther4"
         inkscape:connector-curvature="0"
         inkscape:label="anther4" />
      <path
         d="M 222.02008,446.55864 C 226.28512,450.62107 226.20228,437.14421 226.20228,437.14421 228.41317,427.28759 221.8544,419.60492 221.8544,419.60492 215.27718,421.23538 219.80472,431.05057 219.80472,431.05057 221.43517,437.6278 222.02008,446.55864 222.02008,446.55864 Z"
         id="anther2"
         inkscape:connector-curvature="0"
         inkscape:label="anther2" />
      <path
         d="M 170.07573,440.69363 C 165.07573,432.1222 165.07573,447.83648 165.07573,447.83648 165.07573,461.40791 171.5043,462.83648 171.5043,462.83648 180.79002,462.83648 170.07573,440.69363 170.07573,440.69363 Z"
         id="anther1"
         inkscape:connector-curvature="0"
         inkscape:label="anther1" />
      <path
         inkscape:label="anther3_2"
         inkscape:connector-curvature="0"
         id="anher3_2"
         d="M 236.93488,589.84347 C 233.20304,600.76303 229.83793,590.92233 229.83793,590.92233 233.53322,579.28943 229.87573,563.74193 229.87573,563.74193 229.51022,556.60843 237.19199,566.94317 237.19199,566.94317 240.73985,580.35062 236.93491,589.84347 236.93491,589.84347 Z" />
      <path
         inkscape:label="anther4_2"
         inkscape:connector-curvature="0"
         id="anther4_2"
         d="M 164.67866,588.66405 C 166.02604,586.14456 171.78252,585.98297 171.78252,585.98297 177.15836,588.04785 175.19478,578.08765 175.19478,578.08765 163.52022,572.65433 153.12187,590.58381 153.12187,590.58381 149.41659,597.51241 159.96285,597.48227 159.96285,597.48227 162.27694,594.66975 164.67866,588.66405 164.67866,588.66405 Z" />
      <path
         inkscape:label="anther5_2"
         inkscape:connector-curvature="0"
         id="anther5_2"
         d="M 169.43496,533.06537 C 172.28512,532.86565 175.48479,537.65369 175.48479,537.65369 176.59678,543.30407 183.98532,536.34197 183.98532,536.34197 182.37402,523.56621 161.66047,524.30169 161.66047,524.30169 153.82255,524.85094 159.45943,533.76441 159.45943,533.76441 163.07205,534.2273 169.43496,533.06537 169.43496,533.06537 Z" />
      <path
         d="M 174.14295,548.66405 C 175.49033,546.14456 181.24681,545.98297 181.24681,545.98297 186.62265,548.04785 184.65907,538.08765 184.65907,538.08765 172.98451,532.65433 162.58616,550.58381 162.58616,550.58381 158.88088,557.51241 169.42714,557.48227 169.42714,557.48227 171.74123,554.66975 174.14295,548.66405 174.14295,548.66405 Z"
         id="anther5"
         inkscape:connector-curvature="0"
         inkscape:label="anther5" />
      <path
         d="M 220.32782,508.60108 C 223.17798,508.40136 226.37765,513.1894 226.37765,513.1894 227.48964,518.83978 234.87818,511.87768 234.87818,511.87768 233.26688,499.10192 212.55333,499.8374 212.55333,499.8374 204.71541,500.38665 210.35229,509.30012 210.35229,509.30012 213.96491,509.76301 220.32782,508.60108 220.32782,508.60108 Z"
         id="anther6_2"
         inkscape:connector-curvature="0"
         inkscape:label="anther6_2" />
      <path
         inkscape:label="anther6"
         inkscape:connector-curvature="0"
         id="anther6"
         d="M 225.03581,524.19976 C 226.38319,521.68027 232.13967,521.51868 232.13967,521.51868 237.51551,523.58356 235.55193,513.62336 235.55193,513.62336 223.87737,508.19004 213.47902,526.11952 213.47902,526.11952 209.77374,533.04812 220.32,533.01798 220.32,533.01798 222.63409,530.20546 225.03581,524.19976 225.03581,524.19976 Z" />
      <path
         inkscape:label="anther2_2"
         inkscape:connector-curvature="0"
         id="anther2_2"
         d="M 212.57572,408.55076 C 211.14715,402.83648 204.0043,414.26505 204.0043,414.26505 196.86144,421.40791 198.29002,431.40791 198.29002,431.40791 204.71859,433.55076 206.14716,422.83648 206.14716,422.83648 208.29002,416.40791 212.57572,408.55076 212.57572,408.55076 Z" />
      <path
         inkscape:label="anther1_2"
         inkscape:connector-curvature="0"
         id="anther1_2"
         d="M 172.04002,432.30077 C 167.04002,423.72934 167.04002,439.44362 167.04002,439.44362 167.04002,453.01505 173.46859,454.44362 173.46859,454.44362 182.75431,454.44362 172.04002,432.30077 172.04002,432.30077 Z" />
    </g>
    <g
       transform="matrix(0.23280217,0,0,0.23280217,-23.463399,-14.118829)"
       style="fill:none;stroke:none"
       inkscape:label="carpel"
       id="PO_0009030">
      <title
         id="carpel">carpel</title>
      <path
         d="M 202.04002,643.72933 C 207.93288,656.05076 198.29002,665.15791 198.29002,665.15791 191.14716,666.05076 180.07573,640.15791 180.07573,640.15791 177.7973,625.16122 178.64438,623.36704 176.14716,618.72934 167.88251,607.073 164.9427,612.55992 161.86145,604.08648 161.86145,595.51505 168.29002,594.08648 168.29002,594.08648 179.0043,594.08648 181.5043,607.30076 181.5043,607.30076 181.14716,616.94362 183.64716,626.58648 183.64716,626.58648 186.30246,633.53128 199.61211,638.8334 202.04002,643.72933 Z"
         id="carpel1"
         inkscape:connector-curvature="0"
         sodipodi:nodetypes="ccccccccc"
         inkscape:label="carpel1" />
      <path
         sodipodi:nodetypes="ccccccccc"
         inkscape:connector-curvature="0"
         id="carpel2"
         d="M 205.87904,618.66852 C 200.93045,631.61157 211.42153,640.03286 211.42153,640.03286 218.7141,640.3514 227.78712,613.25958 227.78712,613.25958 228.86371,597.90671 227.86082,596.16153 230.00563,591.26701 237.40587,578.80252 240.82592,584.11102 243.24737,575.28956 242.54648,566.62109 235.93206,565.70233 235.93206,565.70233 225.10275,566.57895 223.65645,580.14736 223.65645,580.14736 224.80594,589.87016 223.06759,599.82674 223.06759,599.82674 220.95166,607.0674 207.93267,613.51852 205.87904,618.66852 Z"
         inkscape:label="carpel2" />
      <path
         sodipodi:nodetypes="ccccccccc"
         inkscape:connector-curvature="0"
         id="carpel3"
         d="M 197.75431,584.08647 C 203.64717,596.4079 194.00431,605.51505 194.00431,605.51505 186.86145,606.4079 175.79002,580.51505 175.79002,580.51505 173.51159,565.51836 174.35867,563.72418 171.86145,559.08648 163.5968,547.43014 160.65699,552.91706 157.57574,544.44362 157.57574,535.87219 164.00431,534.44362 164.00431,534.44362 174.71859,534.44362 177.21859,547.6579 177.21859,547.6579 176.86145,557.30076 179.36145,566.94362 179.36145,566.94362 182.01675,573.88842 195.3264,579.19054 197.75431,584.08647 Z"
         inkscape:label="carpel3" />
      <path
         d="M 201.59333,553.48995 C 196.64474,566.433 207.13582,574.85429 207.13582,574.85429 214.42839,575.17283 223.50141,548.08101 223.50141,548.08101 224.578,532.72814 223.57511,530.98296 225.71992,526.08844 233.12016,513.62395 236.54021,518.93245 238.96166,510.11099 238.26077,501.44252 231.64635,500.52376 231.64635,500.52376 220.81704,501.40038 219.37074,514.96879 219.37074,514.96879 220.52023,524.69159 218.78188,534.64817 218.78188,534.64817 216.66595,541.88883 203.64696,548.33995 201.59333,553.48995 Z"
         id="carpel4"
         inkscape:connector-curvature="0"
         sodipodi:nodetypes="ccccccccc"
         inkscape:label="carpel4" />
      <path
         sodipodi:nodetypes="ccccccccc"
         inkscape:connector-curvature="0"
         id="carpel6"
         d="M 196.41937,481.24411 C 192.47009,494.52622 203.57161,502.12471 203.57161,502.12471 210.86728,501.88736 217.8523,474.18365 217.8523,474.18365 217.7574,458.79337 216.62462,457.12957 218.39073,452.08602 224.82097,439.09452 228.63508,444.12736 230.37819,435.14721 229.01966,426.55721 222.3545,426.14447 222.3545,426.14447 211.62331,427.84266 211.21376,441.48179 211.21376,441.48179 213.09982,451.08892 212.12421,461.14892 212.12421,461.14892 210.56543,468.5296 198.07513,475.95276 196.41937,481.24411 Z"
         inkscape:label="carpel6" />
      <path
         d="M 196.607,520.52398 C 201.52943,533.2642 191.2112,541.59842 191.2112,541.59842 184.02068,541.93625 174.98465,515.2648 174.98465,515.2648 173.87271,500.13683 174.856,498.41352 172.72488,493.5966 165.38634,481.33608 162.03104,486.57924 159.61425,477.8929 160.27706,469.34714 166.79685,468.41995 166.79685,468.41995 177.47905,469.24847 178.94973,482.6165 178.94973,482.6165 177.84799,492.20287 179.59484,502.01018 179.59484,502.01018 181.70516,509.13951 194.56496,515.45497 196.607,520.52398 Z"
         id="carpel5"
         inkscape:connector-curvature="0"
         sodipodi:nodetypes="ccccccccc"
         inkscape:label="carpel5" />
    </g>
    <path
       inkscape:label="caryposis"
       sodipodi:nodetypes="ccsccccccccsc"
       inkscape:connector-curvature="0"
       id="PO_0009001"
       d="M 115.97777,14.312923 C 118.8662,16.629931 123.38549,31.480018 123.38549,31.480018 124.75143,37.792869 126.00186,43.672493 126.34678,48.806493 127.0925,59.906443 126.91298,67.460373 126.91298,67.460373 127.92375,105.83864 126.32507,111.43636 126.32507,111.43636 125.26682,134.01226 119.85801,144.94747 119.85801,144.94747 118.67305,148.55688 117.3719,146.47605 116.91844,146.47605 116.05379,146.73261 114.94684,146.86324 114.94684,146.86324 112.69137,147.54856 109.74589,135.42325 109.74589,135.42325 103.16125,109.7902 103.39641,86.391203 103.39641,86.391203 102.43436,53.718663 104.57224,47.236123 104.57224,47.236123 106.77852,34.366182 110.03278,26.17607 112.40439,21.084645 114.58297,16.407605 115.97777,14.312923 115.97777,14.312923 Z"
       style="fill:none;stroke:none">
      <title
         id="caryopsis">caryopsis</title>
    </path>
    <path
       inkscape:label="plant_embryo"
       inkscape:connector-curvature="0"
       id="PO_0009009"
       d="M 78.90405,119.36346 C 79.98491,118.19945 80.60849,118.73989 80.60849,118.73989 81.23206,119.40503 81.10735,120.19489 81.10735,120.19489 80.81635,121.77463 81.52307,122.06563 81.52307,122.06563 82.89494,122.43978 83.35223,123.60378 83.35223,123.60378 83.80952,124.47679 83.76795,125.72395 83.76795,125.72395 83.68485,131.91815 83.89266,132.8743 83.89266,132.8743 84.05895,136.69891 83.3938,137.77977 83.3938,137.77977 81.56464,141.81224 82.18822,142.56053 82.18822,142.56053 83.64323,147.67386 81.98036,149.79403 81.98036,149.79403 78.77933,153.11977 79.52762,154.15907 79.52762,154.15907 79.48602,154.4085 80.02648,154.32536 80.02648,154.32536 80.60849,154.78265 80.65006,155.19837 80.65006,155.19837 80.52534,155.44779 80.06806,155.23997 80.06806,155.23997 79.56919,155.23997 79.44448,155.4894 79.44448,155.4894 79.31976,156.19612 79.19505,156.48712 79.19505,156.48712 77.94789,158.64885 75.07944,158.60728 75.07944,158.60728 74.58058,158.56568 73.33342,155.82197 73.33342,155.82197 72.95928,154.20067 72.95928,153.86809 72.95928,153.86809 74.08171,154.24224 73.957,153.95119 73.957,153.95119 74.58058,152.99504 73.79071,152.82875 73.79071,152.82875 73.2087,152.49618 72.50198,152.49618 72.50198,152.49618 70.79754,151.99732 70.75597,149.04571 70.75597,149.04571 70.71437,145.76154 72.41884,145.17953 72.41884,145.17953 74.74686,143.43352 74.62214,142.51894 74.62214,142.51894 74.62214,141.06393 73.74913,141.14707 73.74913,141.14707 72.33569,141.10547 71.25483,138.94377 71.25483,138.94377 69.30096,135.2023 69.3841,134.45401 69.3841,134.45401 69.4257,132.37542 70.5481,131.87655 70.5481,131.87655 73.54128,129.42382 73.62442,127.42837 73.62442,127.42837 75.12101,121.56675 75.95245,120.90159 75.95245,120.90159 77.24117,119.90387 77.78161,121.4836 77.78161,121.4836 77.69851,122.19032 77.44903,122.8139 77.44903,122.8139 77.44903,123.27119 77.65689,123.22962 77.65689,123.22962 77.90632,123.72848 77.36589,125.18349 77.36589,125.18349 76.24344,127.59466 76.45131,128.09352 76.45131,128.09352 76.57602,128.96653 77.1996,128.30138 77.1996,128.30138 79.44448,124.39363 78.73775,120.94317 78.73775,120.94317 78.73775,119.94545 78.90405,119.36344 78.90405,119.36344 Z"
       style="fill:none;stroke:none">
      <title
         id="plant embryo">plant embryo</title>
    </path>
    <path
       inkscape:label="endosperm"
       sodipodi:nodetypes="ccscsccccccsc"
       inkscape:connector-curvature="0"
       id="PO_0009089"
       d="M 69.62283,135.31281 C 64.78644,129.31608 64.35891,122.60673 64.35891,122.60673 59.70942,90.360333 60.66832,66.309053 61.61755,52.632943 62.14502,45.033273 63.77099,40.706093 63.77099,40.706093 66.6751,30.484782 70.34694,24.70125 71.97785,22.596904 72.51001,21.91027 72.82487,21.838226 72.82487,21.838226 72.97098,26.935859 73.89739,31.687878 73.89739,31.687878 78.66957,90.069493 78.23368,111.90669 78.23368,111.90669 77.29302,119.66715 76.23477,120.84298 76.23477,120.84298 75.29411,121.19573 74.94849,122.94521 74.94849,122.94521 73.34391,130.1463 72.19538,130.21517 72.19538,130.21517 71.62188,130.85378 70.53179,131.78331 69.82447,132.74053 69.00454,133.85014 69.62283,135.31281 69.62283,135.31281 Z"
       style="fill:none;stroke:none">
      <title
         id="endosperm">endosperm</title>
    </path>
  </g>
</svg>
