<?xml version="1.0" encoding="UTF-8" standalone="no"?>
<!-- Created with Inkscape (http://www.inkscape.org/) -->

<svg
   xmlns:dc="http://purl.org/dc/elements/1.1/"
   xmlns:cc="http://creativecommons.org/ns#"
   xmlns:rdf="http://www.w3.org/1999/02/22-rdf-syntax-ns#"
   xmlns:svg="http://www.w3.org/2000/svg"
   xmlns="http://www.w3.org/2000/svg"
   xmlns:xlink="http://www.w3.org/1999/xlink"
   xmlns:sodipodi="http://sodipodi.sourceforge.net/DTD/sodipodi-0.dtd"
   xmlns:inkscape="http://www.inkscape.org/namespaces/inkscape"
   id="svg3619"
   version="1.1"
   inkscape:version="0.91 r13725"
   width="118.43517"
   height="137.11394"
   viewBox="0 0 118.43517 137.11394"
   preserveAspectRatio="none"
   sodipodi:docname="gallus_gallus.svg">
  <metadata
     id="metadata">
    <rdf:RDF>
      <cc:Work
         rdf:about="">
        <dc:format>image/svg+xml</dc:format>
        <dc:type
           rdf:resource="http://purl.org/dc/dcmitype/StillImage" />
        <dc:title></dc:title>
      </cc:Work>
    </rdf:RDF>
  </metadata>
  <defs
     id="defs3623" />
  <sodipodi:namedview
     pagecolor="#ffffff"
     bordercolor="#666666"
     borderopacity="1"
     objecttolerance="10"
     gridtolerance="10"
     guidetolerance="10"
     inkscape:pageopacity="0"
     inkscape:pageshadow="2"
     inkscape:window-width="1680"
     inkscape:window-height="1001"
     id="namedview3621"
     showgrid="false"
     inkscape:zoom="7.0491283"
     inkscape:cx="61.014769"
     inkscape:cy="48.489934"
     inkscape:window-x="0"
     inkscape:window-y="1"
     inkscape:window-maximized="1"
     inkscape:current-layer="LAYER_OUTLINE"
     fit-margin-top="0"
     fit-margin-left="0"
     fit-margin-right="0"
     fit-margin-bottom="0" />
  <g
     inkscape:label="Outline"
     id="LAYER_OUTLINE"
     inkscape:groupmode="layer"
     transform="translate(-3.2870277,-10.238369)">
    <path
       inkscape:label="#path3001"
       inkscape:connector-curvature="0"
       id="chicken_outline"
       d="M 68.518324,146.89168 C 68.461886,146.05773 68.575364,145.6595 69.344539,143.99176 L 70.105427,142.34208 68.925164,143.15412 C 65.604712,145.43865 61.154115,146.37992 59.475671,145.15261 59.132432,144.90163 59.043755,144.6131 59.163382,144.13647 59.293779,143.61692 59.677768,143.34095 60.913058,142.87899 61.783495,142.55345 62.495674,142.14824 62.495674,141.97849 62.495674,141.2266 65.995337,139.0876 67.887748,138.68281 69.800631,138.27366 70.72208,134.97782 70.761031,128.40576 70.77521,126.01461 70.692822,123.72089 70.577906,123.30862 70.420936,122.74536 70.453649,122.58719 70.709505,122.67232 70.900426,122.73578 71.144905,123.46981 71.266032,124.34313 71.53895,126.31086 71.30507,133.06891 70.897922,134.98143 70.099381,138.73213 67.69556,141.15819 63.022092,142.93012 59.548755,144.24702 59.277711,144.51715 61.132125,144.81368 62.691201,145.06299 64.98993,144.33268 67.673811,142.7354 71.411213,140.5111 71.898963,140.80755 70.260374,144.30744 69.753693,145.38966 69.339137,146.36385 69.339137,146.47231 69.339137,146.85853 71.502524,144.5614 72.659196,142.94701 74.016698,141.05229 74.434542,140.77204 75.902078,140.77204 77.318241,140.77204 77.293184,140.45527 75.663685,137.75758 73.892835,134.82583 73.53589,133.32094 73.538093,128.79599 73.540074,125.44033 73.847295,122.22602 74.200568,121.87275 74.557392,121.51592 74.595096,122.16801 74.320096,123.94041 74.150572,125.03306 74.071111,127.47213 74.136729,129.56953 74.266659,133.7226 74.669362,135.18752 76.31854,137.50608 77.316177,138.90866 77.887722,140.32762 77.676612,140.87776 77.603245,141.06872 76.995503,141.28671 76.325892,141.36219 74.935463,141.51892 74.375734,141.94745 73.143093,143.79896 71.752163,145.88823 70.167947,147.3523 69.298124,147.3523 68.772509,147.3523 68.540214,147.21508 68.518324,146.89168 Z M 65.619641,140.87181 C 66.665235,140.20286 67.469953,139.60476 67.407905,139.54271 67.288186,139.423 63.285302,141.78582 63.285302,141.97621 63.285302,142.26805 63.868687,141.99213 65.619641,140.87181 Z M 45.655834,143.01608 C 45.431419,142.74567 45.389581,142.14714 45.517843,141.042 45.701099,139.46308 45.698874,139.45599 45.019101,139.45599 44.643549,139.45599 43.654751,139.68991 42.821773,139.97581 38.262504,141.54063 33.478133,142.09738 32.137727,141.21913 30.919597,140.42097 31.619449,139.3664 33.672108,138.90704 34.562605,138.70774 35.032811,138.47744 34.95629,138.27802 34.810589,137.89834 36.454188,136.44241 37.821293,135.74017 38.485766,135.39884 39.710577,135.16205 41.557062,135.01794 43.973124,134.82938 44.419295,134.71579 45.258852,134.07543 46.974316,132.76697 50.462667,127.49141 52.376355,123.31137 52.753063,122.48853 53.166405,121.88027 53.294897,121.95968 53.91921,122.34553 48.805945,131.41998 46.773132,133.53377 46.216255,134.11283 45.291622,134.90677 44.718392,135.29809 42.898533,136.54037 38.765461,138.33749 36.043066,139.07022 32.889564,139.919 32.259764,140.20161 32.783185,140.53311 33.842122,141.20375 37.192552,140.67768 43.039556,138.92275 44.340612,138.53224 45.291459,138.38816 45.771849,138.50874 46.507322,138.69333 46.508409,138.69694 46.377793,140.52249 46.305828,141.52834 46.335456,142.35132 46.443663,142.35132 46.654703,142.35132 48.371846,140.43824 49.15005,139.33612 49.737995,138.50344 50.661323,138.46757 52.344277,139.21203 54.464247,140.14979 54.788751,138.95352 53.093346,136.4506 51.128226,133.54951 51.179788,132.85978 53.771586,127.37816 54.908726,124.97313 55.911786,122.79809 56.000611,122.54476 56.246006,121.84486 56.77631,121.97124 56.552794,122.67636 56.449541,123.00208 55.465035,125.16369 54.364998,127.47994 51.936268,132.5939 51.837766,133.35321 53.319188,135.54163 54.886623,137.8571 55.148363,138.6682 54.702815,139.82929 54.489648,140.38479 53.220763,140.36733 51.600679,139.78663 L 50.312854,139.32501 49.626605,140.23513 C 48.467312,141.77261 46.793308,143.40417 46.375116,143.40417 46.156645,143.40417 45.832969,143.22955 45.65583,143.0161 Z M 39.662205,137.02622 C 41.073668,136.44479 42.228503,135.85732 42.228503,135.72073 42.228503,135.58413 42.021224,135.52923 41.767885,135.59874 41.514546,135.6683 40.655822,135.86997 39.859612,136.04702 38.28395,136.3974 36.940129,137.02231 35.911461,137.88297 L 35.253437,138.43352 36.174673,138.25843 C 36.68135,138.16216 38.25074,137.60763 39.662205,137.02622 Z M 66.312225,122.24238 C 64.712225,121.73636 63.602269,121.09169 62.360845,119.94737 L 61.233375,118.90811 60.654666,119.84448 C 60.012251,120.88393 59.150785,121.42069 57.682995,121.69605 56.604773,121.89833 56.284493,121.45713 57.32075,121.19705 58.005983,121.02507 60.653207,118.96354 60.653207,118.6019 60.653207,118.47505 60.360233,117.94012 60.002151,117.41316 59.64407,116.88619 59.403021,116.40313 59.466487,116.33964 59.529965,116.27618 60.471471,117.05504 61.558753,118.07043 63.725047,120.09351 67.28723,122.08414 68.741205,122.08414 69.197739,122.08414 69.644476,122.20259 69.733946,122.34735 69.965417,122.72186 67.598776,122.64926 66.312225,122.24238 Z M 48.746646,122.09993 C 46.82107,121.4809 44.561564,119.37004 43.472455,117.1727 43.125156,116.472 42.448486,114.91036 41.968738,113.70239 41.488994,112.49442 40.602244,110.8362 39.998182,110.01745 37.574265,106.73207 32.673115,102.99629 25.430391,98.91354 16.427773,93.838708 10.506378,87.026132 7.9359078,78.786087 6.3655024,73.7519 6.282802,67.151842 7.7198862,61.54584 10.083792,52.324325 11.338053,48.908268 15.472556,40.430929 19.25529,32.674847 19.440916,32.171164 19.451963,29.63295 19.457372,28.392829 19.563925,27.629827 19.724046,27.684829 19.872904,27.735957 19.975369,28.678783 19.959893,29.85498 19.926996,32.355489 19.538856,33.403581 15.559049,41.738549 11.837095,49.533493 11.014937,51.806437 8.7276995,60.624601 7.6430879,64.806183 7.6353642,64.869459 7.6355722,69.573736 7.6357626,73.908325 7.6962313,74.530694 8.346101,76.886967 8.7367762,78.30345 9.420362,80.336627 9.8651786,81.405132 10.626622,83.2342 13.256294,87.427738 14.798469,89.272241 17.295847,92.259202 22.143471,96.178418 25.777876,98.148856 31.608589,101.31006 37.912366,106.12697 40.198316,109.16796 40.833718,110.01323 41.682824,111.51811 42.085213,112.51212 43.511357,116.03511 44.685334,118.24315 45.74147,119.38892 47.453331,121.24607 49.545146,122.0784 51.289949,121.59664 52.169521,121.35377 52.815409,121.59054 52.241049,121.946 51.771672,122.23609 49.483702,122.33688 48.746646,122.09993 Z M 75.129752,121.95184 C 75.129752,121.87916 75.609273,121.38634 76.195355,120.85686 76.781429,120.32736 77.740402,119.21065 78.326385,118.37527 79.792846,116.28469 80.912258,115.57575 83.52495,115.08299 84.714423,114.85863 86.078384,114.5118 86.555969,114.31226 87.746722,113.81474 88.99882,112.31545 89.349739,110.96697 89.510338,110.34981 89.753066,109.4145 89.889126,108.88849 90.241333,107.52684 90.692696,107.24385 92.223115,107.4251 93.074186,107.5259 93.602801,107.47089 93.773457,107.26381 93.915878,107.09098 94.211296,105.91 94.429934,104.63945 95.098487,100.75432 95.846143,99.529098 100.18862,95.202356 102.36021,93.038666 105.01429,90.051644 106.39087,88.222127 107.71434,86.463203 109.15571,84.768771 109.59396,84.456714 110.0322,84.144665 111.5113,83.494054 112.88083,83.010945 115.55832,82.066432 117.76049,80.843925 119.54644,79.310641 121.62984,77.521983 120.95681,77.013938 116.06835,76.685151 114.62588,76.588182 113.0565,76.346147 112.58082,76.147401 111.82329,75.830888 111.71594,75.664734 111.71594,74.808696 111.71594,73.744373 112.23448,72.743582 114.49945,69.436347 115.29179,68.27939 116.59085,66.086279 117.38624,64.562762 118.56928,62.296735 118.78194,61.698437 118.55504,61.274473 118.4025,60.989427 118.05342,60.756205 117.77931,60.756205 117.50522,60.756205 117.09481,60.570057 116.86729,60.342543 116.49122,59.966465 116.51563,59.823074 117.13607,58.764369 117.76116,57.697744 117.7798,57.585002 117.35782,57.423086 117.10444,57.325812 116.22762,57.384574 115.40933,57.553602 112.71324,58.110464 112.58842,58.065117 112.45129,56.479041 112.32676,55.038618 110.92819,52.33348 110.308,52.33348 110.13753,52.33348 109.38247,52.748039 108.6301,53.254718 106.34529,54.793392 105.90069,54.451607 107.29845,52.230997 108.44119,50.415498 108.45979,48.998635 107.36419,47.222784 106.12618,45.216111 104.90116,44.360281 103.07816,44.22841 101.6767,44.127042 101.28934,44.238428 98.226537,45.617734 94.232247,47.417135 93.211914,48.045641 90.156317,50.588813 86.002076,54.046391 81.516015,56.691347 78.288292,57.586142 76.021362,58.214588 70.753492,58.64084 65.182497,58.646626 58.98515,58.652645 56.144061,57.81401 50.34252,54.264 44.927634,50.950598 43.515842,49.918181 42.325101,48.401062 39.84437,45.240352 38.872454,42.455832 38.139458,36.409277 37.711559,32.87976 36.365582,27.039215 35.232979,23.797466 33.740025,19.5243 30.676269,15.922604 27.169248,14.317891 20.421136,11.230155 13.954845,12.160436 10.209876,16.757786 8.8311742,18.450283 7.606233,20.754377 7.3450888,22.146386 7.2449252,22.680312 7.0577078,23.11717 6.9290522,23.11717 6.5787897,23.11717 6.6595024,22.349719 7.164345,20.879892 7.5927862,19.6325 7.5923581,19.515768 7.1562236,18.642605 6.2380101,16.804541 6.8488484,15.239683 8.8954148,14.1871 9.5729468,13.838623 10.653505,12.990954 11.296656,12.30337 11.939806,11.615793 12.733718,10.865719 13.060905,10.636556 13.876103,10.065573 14.940397,10.113874 15.514192,10.747907 16.126316,11.4243 15.811712,11.768994 15.138393,11.159643 14.407373,10.498078 13.803441,10.795846 12.247152,12.585143 11.406988,13.551107 10.296434,14.462345 9.3345494,14.975035 7.569433,15.915825 7.157921,16.643282 7.5576212,18.116185 L 7.8076141,19.037414 8.3700477,18.273402 C 10.912427,14.819856 12.384925,13.621127 15.395331,12.554269 18.770811,11.358045 24.513607,12.046191 28.404245,14.113108 29.13125,14.499332 30.62593,15.706084 31.725753,16.794765 33.342065,18.394711 33.960328,19.253581 34.950638,21.274692 36.502527,24.441922 38.360612,31.369421 38.939415,36.14607 39.47618,40.575771 39.914132,42.244744 41.23775,44.904647 42.511413,47.464167 44.239887,49.329848 46.859673,50.972853 57.031258,57.351961 58.415028,57.851464 65.917451,57.852155 71.115004,57.852681 75.733867,57.497615 77.893497,56.931624 81.146019,56.079206 85.785556,53.343617 90.478956,49.510901 92.997825,47.45395 93.830558,46.954577 97.634253,45.220032 100.44545,43.938087 101.40181,43.647549 102.81043,43.647549 105.1013,43.647549 106.79976,44.90615 108.17724,47.624475 109.02262,49.292757 108.98892,50.281935 108.02881,51.983188 107.59327,52.754904 107.30507,53.386321 107.38834,53.386321 107.47168,53.386321 107.9267,53.091188 108.39962,52.730482 108.87253,52.369768 109.62888,52.000763 110.08038,51.910457 110.85941,51.754656 110.95555,51.831784 111.96417,53.421729 112.77379,54.697973 113.02765,55.363735 113.02954,56.215834 113.03335,57.515448 113.10443,57.536097 115.40369,56.896847 117.94963,56.189011 118.90214,56.978629 117.88203,58.951267 117.65422,59.39183 117.50614,59.770887 117.55301,59.793626 119.09766,60.543061 119.22003,60.671814 119.29987,61.63163 119.40007,62.835842 117.61825,66.347931 114.51984,71.053487 112.46096,74.180339 112.15459,75.030983 112.96624,75.367282 113.21959,75.472259 115.0018,75.711825 116.92673,75.899661 119.20031,76.121536 120.65283,76.389444 121.0723,76.664284 122.10016,77.337766 121.91616,78.257518 120.46774,79.686176 118.5646,81.56337 116.50476,82.756866 113.4412,83.757459 110.52748,84.70911 109.65583,85.377137 107.49076,88.317953 106.44775,89.734635 103.59732,92.919923 101.15643,95.396348 96.164752,100.46076 95.694839,101.20301 95.041089,105.05573 94.537729,108.02216 94.360864,108.23654 92.569455,108.05165 90.942341,107.88373 90.66357,108.15134 90.151601,110.37268 89.741631,112.15149 88.858249,113.65539 87.807351,114.36358 87.32898,114.68596 86.027888,115.13819 84.916048,115.36855 80.738128,116.23417 80.606136,116.31596 78.114695,119.58365 76.958127,121.10055 75.931531,122.06387 75.458822,122.07582 75.277857,122.08115 75.129806,122.02462 75.129806,121.95184 Z M 12.333189,33.675718 C 11.41952,33.118561 11.099024,32.448171 10.52308,29.889446 10.302463,28.909319 9.9271039,27.810007 9.6889503,27.446538 9.4507952,27.083068 9.3393088,26.70231 9.4412019,26.600415 9.762897,26.278726 10.629389,27.667152 11.045455,29.170997 11.834519,32.023032 12.849471,33.382355 14.189895,33.382355 14.389712,33.382355 15.350441,32.966819 16.324846,32.458914 17.299254,31.951017 18.15375,31.592721 18.223731,31.662707 18.641508,32.080487 14.961797,34.165634 13.80182,34.168432 13.439906,34.169194 12.779023,33.947586 12.333189,33.675718 Z M 3.2881262,29.368405 C 3.2961752,28.89792 3.5100439,28.002511 3.7633023,27.378616 4.2610463,26.152434 6.0122222,24.170011 6.5976244,24.170011 7.1496534,24.170011 7.0453147,24.356029 5.9261887,25.36709 5.2983157,25.934342 4.7312723,26.777227 4.478533,27.518976 3.8937079,29.235352 3.9488989,29.345287 4.9184821,28.39542 5.3889697,27.934503 6.3957474,27.201087 7.155768,26.76562 7.9157864,26.330136 8.5376198,25.9108 8.5376198,25.833759 8.5376198,25.756727 8.2366412,25.335967 7.8687767,24.898789 6.9842884,23.847632 7.2775075,23.609729 8.2771545,24.567454 9.4924063,25.731743 9.3276142,26.346837 7.4698384,27.58081 6.5930288,28.163199 5.5757219,28.996128 5.2091557,29.431776 4.8075069,29.90911 4.2904983,30.223846 3.9080468,30.223846 3.3645137,30.223846 3.2755306,30.101061 3.2881262,29.368405 Z M 13.497598,28.540962 C 12.342707,28.128423 10.212067,26.905859 9.972522,26.518261 9.6293974,25.963082 10.116152,25.960052 11.050893,26.511328 12.684881,27.475418 14.992271,28.117931 16.820433,28.117931 18.807061,28.117931 19.108668,28.494804 17.318419,28.740177 15.558659,28.981387 14.589573,28.930798 13.497598,28.540739 Z M 12.219868,22.059302 C 11.890878,21.44457 12.322627,20.321829 13.065369,19.860626 13.679822,19.479091 14.008392,19.881181 13.428596,20.305135 12.697008,20.84008 12.975146,21.913337 13.872086,22.016442 14.877865,22.13206 14.5014,22.590757 13.400732,22.590757 12.770847,22.590757 12.419718,22.432728 12.219868,22.059302 Z"
       style="fill:#a0a1a2;fill-opacity:1" />
    <a
       transform="matrix(1.4958541,0,0,1.4958541,-71.256496,63.221116)"
       id="a4174"
       xlink:href="https://www.ebi.ac.uk/gxa/licence.html">
      <g
         id="g3"
         transform="matrix(0.07645089,0,0,0.07645089,123.6957,51.617633)">
        <circle
           id="circle5"
           r="28.275999"
           cy="28.806"
           cx="37.637001"
           style="fill:#ffffff" />
        <g
           id="g7">
          <path
             style="fill:#009600;fill-opacity:1"
             id="path9"
             d="M 37.443,-3.5 C 46.431,-3.5 54.013,-0.415 60.185,5.757 66.393,11.967 69.5,19.548 69.5,28.5 69.5,37.491 66.451,44.976 60.355,50.956 53.879,57.319 46.242,60.5 37.443,60.5 28.794,60.5 21.29,57.356 14.929,51.07 8.644,44.784 5.5,37.262 5.5,28.5 5.5,19.739 8.644,12.158 14.929,5.758 21.101,-0.415 28.604,-3.5 37.443,-3.5 Z M 37.557,2.272 C 30.281,2.272 24.129,4.825 19.1,9.929 13.88,15.263 11.271,21.454 11.271,28.501 11.271,35.587 13.861,41.721 19.041,46.899 24.222,52.081 30.393,54.67 37.555,54.67 44.678,54.67 50.889,52.063 56.184,46.842 61.213,42.004 63.727,35.89 63.727,28.499 63.727,21.223 61.174,15.034 56.071,9.928 50.967,4.824 44.795,2.272 37.557,2.272 Z M 46.129,20.557 46.129,33.642 42.473,33.642 42.473,49.184 32.529,49.184 32.529,33.643 28.873,33.643 28.873,20.557 C 28.873,19.985 29.073,19.5 29.472,19.1 29.873,18.701 30.359,18.5 30.929,18.5 L 44.073,18.5 C 44.606,18.5 45.083,18.7 45.501,19.1 45.918,19.5 46.129,19.986 46.129,20.557 Z M 33.042,12.329 C 33.042,9.321 34.527,7.815 37.5,7.815 40.473,7.815 41.957,9.319 41.957,12.329 41.957,15.3 40.471,16.786 37.5,16.786 34.529,16.786 33.042,15.3 33.042,12.329 Z"
             inkscape:connector-curvature="0" />
        </g>
      </g>
    </a>
  </g>
  <g
     inkscape:label="EFO"
     id="LAYER_EFO"
     inkscape:groupmode="layer"
     transform="translate(-3.2870277,-10.238369)">
    <path
       inkscape:label="UBERON_0000955"
       inkscape:connector-curvature="0"
       id="UBERON_0000955"
       d="M 26.888444,23.126197 C 26.663467,22.961817 26.126683,22.628507 25.695584,22.385497 25.264483,22.142477 24.831439,21.897277 24.733265,21.840617 24.565463,21.743817 24.510054,21.743717 23.808603,21.839857 22.939224,21.958237 22.346898,21.927957 22.101724,21.752557 21.887287,21.599167 21.671998,21.303427 21.556922,21.004167 L 21.459382,20.750507 20.483354,20.634887 C 19.552998,20.524667 19.236734,20.445757 19.25044,20.327117 19.26388,20.210657 19.536326,20.076197 19.952685,19.980607 20.193116,19.925507 20.391422,19.866897 20.393373,19.850757 20.395473,19.834457 20.297533,19.780857 20.176061,19.731777 19.796809,19.578007 18.771526,18.698557 18.152373,17.995987 17.953477,17.770277 17.951939,17.764397 17.977375,17.325627 18.002275,16.896217 18.009275,16.875657 18.210461,16.639947 18.880919,15.854467 20.071975,14.976687 20.652617,14.840107 21.333342,14.680017 22.787306,14.758907 23.634376,15.001897 24.885813,15.360867 25.647584,16.269787 25.53295,17.267227 25.51061,17.461507 25.45209,17.762867 25.40288,17.936937 25.35367,18.111017 25.32248,18.265057 25.33357,18.279287 25.3446,18.293387 25.42462,18.261087 25.511242,18.207387 25.698159,18.091417 26.069108,18.116487 26.211718,18.254687 26.338104,18.377347 26.384509,18.379487 26.397939,18.262687 26.415879,18.107337 26.593869,17.943147 26.727164,17.958947 26.794864,17.966947 26.94135,18.058247 27.052707,18.161957 27.223031,18.320497 27.278251,18.344517 27.400534,18.313317 27.730687,18.229117 28.112088,18.418047 28.205494,18.712267 28.230494,18.791067 28.284524,18.859467 28.325526,18.864317 28.366526,18.869317 28.467995,18.919417 28.551003,18.976227 28.740151,19.105477 28.801476,19.323527 28.705173,19.524427 28.641603,19.657027 28.648633,19.681817 28.774113,19.767567 29.026925,19.940317 29.074355,20.092547 28.965144,20.380597 28.919094,20.502107 28.932154,20.530357 29.064474,20.595377 29.25763,20.690377 29.28309,20.868217 29.145094,21.158747 29.04373,21.372187 29.043778,21.390617 29.146394,21.590187 29.275922,21.842227 29.2744,21.858767 29.094854,22.150077 29.016554,22.277127 28.868465,22.557017 28.765775,22.772067 28.580537,23.159967 28.576229,23.164167 28.220582,23.303827 27.992041,23.393627 27.759788,23.441067 27.579821,23.434887 27.324378,23.426887 27.258627,23.396687 26.88849,23.126317 L 26.88849,23.126317 Z"
       style="fill:none;stroke:none">
      <title
         id="brain">brain</title>
    </path>
    <path
       inkscape:label="UBERON_0000948"
       inkscape:connector-curvature="0"
       id="UBERON_0000948"
       d="M 33.915469,84.75233 C 32.748638,83.85425 32.096221,82.9941 31.725585,81.86518 31.178161,80.19778 30.702216,78.30089 30.526215,77.08511 30.391383,76.1537 30.424073,75.99647 30.835949,75.59563 31.10109,75.33759 31.689225,75.07144 32.222391,74.96823 32.840205,74.84866 33.218902,74.66211 33.360342,74.40775 33.592254,73.99062 34.062931,74.04729 35.671052,74.68597 36.568765,75.0425 36.571493,75.04963 35.931928,75.36664 35.677301,75.49283 35.482689,75.6258 35.499451,75.66211 35.516221,75.69841 36.024198,75.91193 36.628308,76.13652 37.659052,76.51973 37.743371,76.57807 37.997792,77.08393 38.540791,78.16358 38.453024,80.17237 37.7269,83.28414 37.394455,84.70883 36.965722,85.25497 36.006755,85.47524 35.34,85.62841 34.820304,85.44874 33.915469,84.75233 Z"
       style="fill:none;stroke:none">
      <title
         id="heart">heart</title>
    </path>
    <path
       inkscape:label="UBERON_0002113"
       inkscape:connector-curvature="0"
       id="UBERON_0002113"
       d="M 78.352935,66.84728 C 69.023657,66.26044 67.545439,66.17094 64.856458,66.03003 62.661294,65.91488 62.123156,65.87296 61.643898,65.7792 60.514495,65.55828 59.847494,65.13288 59.716115,64.54974 59.680005,64.38968 59.693875,64.073987 59.741665,63.967997 59.783825,63.874497 59.961187,63.728627 60.207203,63.585317 61.097899,63.066457 62.614334,62.828087 64.647207,62.887337 67.734992,62.977337 74.95955,63.542737 78.621113,63.980947 80.016783,64.147987 80.493401,64.245317 80.997378,64.46629 81.351885,64.62171 81.517857,64.73417 81.741704,64.97064 82.004812,65.24858 82.065593,65.38411 82.066439,65.69475 82.066964,65.91229 82.059439,65.94578 81.977209,66.10791 81.865757,66.32681 81.664832,66.52158 81.401915,66.66556 81.158669,66.79877 81.005611,66.85278 80.719092,66.90649 80.412086,66.96399 80.073906,66.95559 78.352893,66.84729 Z"
       style="fill:none;stroke:none">
      <title
         id="kidney">kidney</title>
    </path>
    <path
       inkscape:label="UBERON_0002107"
       inkscape:connector-curvature="0"
       id="UBERON_0002107"
       d="M 51.80635,104.74974 C 51.268713,104.60528 50.948931,104.39008 50.302771,103.73788 49.829677,103.26035 48.481732,102.06278 47.749163,101.46913 45.835032,99.91803 44.5388,99.10358 43.035129,98.50723 41.602529,97.93907 39.935227,96.7231 38.03514,94.86067 37.253594,94.09461 34.754402,91.17105 34.30403,90.49599 33.69216,89.57889 33.275578,88.57323 33.106883,87.60606 32.983475,86.89851 32.996102,86.76418 33.216131,86.44411 33.656789,85.80303 34.364334,85.30727 34.840964,85.30563 34.943478,85.30539 35.027053,85.30469 35.026689,85.29963 35.026425,85.2987 34.981589,85.14885 34.927289,84.97155 34.42418,83.32885 35.14703,81.86103 36.739338,81.29196 37.407634,81.05313 37.80535,81.01831 38.623709,81.12702 39.383471,81.22779 39.703353,81.32426 40.645234,81.73565 41.412006,82.07055 42.723999,82.75641 43.328348,83.13826 44.918043,84.14269 46.215026,85.55149 48.578492,88.84109 49.711985,90.41873 52.962832,95.10935 53.164455,95.45812 53.674432,96.34028 54.418328,97.25278 56.578425,99.64581 57.523146,100.69243 57.898767,101.19371 58.098548,101.67527 58.297053,102.15349 58.248551,102.38743 57.912809,102.57117 57.262605,102.927 56.628966,103.10334 56.065219,103.08539 L 55.734064,103.07539 55.702074,103.28088 C 55.600759,103.93167 54.5823,104.59634 53.382572,104.79466 53.164807,104.83076 52.855519,104.85506 52.695262,104.84896 52.535003,104.84296 52.33159,104.83476 52.243219,104.83126 52.154859,104.82626 51.958264,104.79136 51.806353,104.75056 L 51.806353,104.75056 Z"
       style="fill:none;stroke:none">
      <title
         id="liver">liver</title>
    </path>
    <g
       inkscape:label="UBERON_0014892"
       transform="matrix(0.26130833,-0.03158279,0.03158279,0.26130833,-23.682251,0.64112685)"
       style="fill:none;stroke:none"
       id="UBERON_0014892">
      <title
         id="skeletal muscle organ">skeletal muscle organ</title>
      <path
         d="M 299.99168,492.88016 C 299.39907,492.09553 297.86074,489.60588 296.57317,487.34761 294.85031,484.32588 292.97545,482.13684 289.47311,479.05774 278.30673,469.24076 256.66765,445.7894 254.09971,440.72182 251.40927,435.4125 250.15804,429.65586 250.14103,422.50887 250.12343,415.10388 251.024,410.92524 253.99341,404.63432 L 255.86831,400.66219 264.45486,417.68557 C 272.39172,433.42089 274.19283,436.46931 288.25874,457.97424 296.62827,470.77015 304.82008,483.22414 306.46278,485.64977 309.30394,489.8451 309.67906,491.16984 308.02585,491.16984 307.62011,491.16984 305.88887,491.87564 304.17864,492.7383 L 301.06914,494.30677 299.99168,492.88016 299.99168,492.88016 Z"
         id="path3037"
         inkscape:connector-curvature="0" />
      <path
         d="M 296.03043,465.25582 C 284.16561,447.08598 275.11569,432.23776 271.46796,424.95612 269.24988,420.52834 265.15666,412.94396 262.37192,408.10193 L 257.30875,399.29823 258.6495,398.41974 C 259.38692,397.93656 260.20606,397.54124 260.46982,397.54124 262.17359,397.54124 275.49559,416.35311 282.57147,428.75077 291.07441,443.64879 295.63876,453.26063 297.46102,460.10591 298.43778,463.77509 299.61078,467.8367 300.06768,469.1317 300.52459,470.42671 300.78959,471.59509 300.65657,471.7281 300.52356,471.86112 298.44179,468.94859 296.03043,465.25582 Z"
         id="path3039"
         inkscape:connector-curvature="0" />
      <path
         d="M 310.09823,484.77031 C 305.95138,477.90612 301.9293,467.78208 298.10007,454.56957 296.55708,449.24557 286.90787,430.16027 281.34073,421.42105 276.3053,413.5165 270.2053,405.16295 265.80679,400.14832 264.19013,398.30521 262.86742,396.61351 262.86742,396.38899 262.86742,395.44014 275.10778,393.5739 281.34828,393.57128 295.08489,393.56528 306.60565,401.70842 314.08778,416.71165 316.2604,421.71632 317.06272,424.40402 317.22993,429.19547 317.49999,436.93404 316.55663,443.33773 313.95961,451.39512 311.43736,459.22049 310.71589,467.58041 311.61211,478.59616 312.00165,483.38422 312.22319,487.3989 312.10441,487.51768 311.98564,487.63645 311.08285,486.40014 310.09823,484.77031 Z"
         id="path3041"
         inkscape:connector-curvature="0"
         sodipodi:nodetypes="csssscccsssc" />
    </g>
    <path
       inkscape:label="UBERON_0001155"
       sodipodi:nodetypes="cccscccc"
       inkscape:connector-curvature="0"
       id="UBERON_0001155"
       d="M 99.337291,87.63107 C 94.396591,86.65764 92.863494,87.76099 91.961537,88.5091 89.307718,90.89641 85.967888,98.68767 85.967888,98.68767 85.663965,99.55421 85.111566,100.78645 85.194465,101.17311 85.40315,102.14646 86.710141,101.69258 86.710141,101.69258 89.253029,98.56927 90.237532,92.4065 93.486548,91.16901 94.763302,91.16901 96.76805,91.6949 96.76805,91.6949 99.039411,91.32575 99.795046,88.5042 99.337291,87.63107 Z"
       style="fill:none;stroke:none">
      <title
         id="colon">colon</title>
    </path>
    <path
       inkscape:label="UBERON_0002106"
       inkscape:connector-curvature="0"
       id="UBERON_0002106"
       d="M 48.871103,84.85617 C 47.66528,84.85617 47.239696,85.70734 47.239696,85.70734 46.459458,86.62944 47.026904,87.6934 47.026904,87.6934 47.949003,88.97016 49.225757,88.18992 49.225757,88.18992 50.928095,87.19689 50.715303,85.99107 50.715303,85.99107 50.502511,84.71431 48.871103,84.85617 48.871103,84.85617 Z"
       style="fill:none;stroke:none">
      <title
         id="spleen">spleen</title>
    </path>
    <path
       inkscape:label="UBERON_0002048"
       sodipodi:nodetypes="ccccccccccccccccccccccc"
       inkscape:connector-curvature="0"
       id="UBERON_0002048"
       d="M 38.911276,59.485207 C 37.950771,61.563117 38.717456,63.239737 38.717456,63.239737 39.782906,65.62413 44.229409,65.9368 44.229409,65.9368 45.901581,66.13 47.238283,66.62782 47.238283,66.62782 49.379632,67.56197 52.377968,66.70672 52.377968,66.70672 L 52.377968,66.70672 C 53.249602,66.56542 54.131572,66.56877 55.009395,66.49574 56.028938,66.27019 56.146837,64.99622 56.146837,64.99622 56.398354,62.278417 55.944899,61.367637 55.944899,61.367637 55.654433,60.493127 54.395094,59.825557 53.935596,60.029527 53.235641,60.635347 53.786302,61.693047 53.722361,62.140897 53.62018,63.244997 52.967553,62.826237 52.967553,62.826237 52.405997,62.496537 52.618866,59.953247 52.618866,59.953247 52.4138,58.848747 51.455311,58.414577 51.455311,58.414577 49.18657,56.949327 49.252954,58.189987 49.252954,58.189987 49.177614,58.760927 48.936401,59.069937 48.842053,59.259317 48.51971,60.252147 48.616708,60.864227 48.616708,60.864227 48.020127,59.760917 47.517064,58.989947 47.279917,57.877077 46.87016,56.682557 45.565768,56.477237 45.565768,56.477237 44.583657,56.317097 43.708138,57.387157 43.125743,58.770477 42.271123,56.922167 41.52982,56.186177 40.937148,55.856567 39.364564,55.417347 38.958353,56.486307 38.958353,56.486307 38.805394,56.895137 39.386333,58.826787 38.911273,59.485247 Z"
       style="fill:none;stroke:none">
      <title
         id="title4184">lung</title>
    </path>
  </g>
</svg>
