<?xml version="1.0" encoding="UTF-8" standalone="no"?>
<svg
   xmlns:dc="http://purl.org/dc/elements/1.1/"
   xmlns:cc="http://creativecommons.org/ns#"
   xmlns:rdf="http://www.w3.org/1999/02/22-rdf-syntax-ns#"
   xmlns:svg="http://www.w3.org/2000/svg"
   xmlns="http://www.w3.org/2000/svg"
   xmlns:xlink="http://www.w3.org/1999/xlink"
   xmlns:sodipodi="http://sodipodi.sourceforge.net/DTD/sodipodi-0.dtd"
   xmlns:inkscape="http://www.inkscape.org/namespaces/inkscape"
   version="1.1"
   id="svg2"
   preserveAspectRatio="none"
   viewBox="0 0 33.433189 27.061121"
   height="27.061121"
   width="33.433189"
   inkscape:version="0.91 r13725"
   sodipodi:docname="macaca_mulatta.svg">
  <sodipodi:namedview
     pagecolor="#ffffff"
     bordercolor="#666666"
     borderopacity="1"
     objecttolerance="10"
     gridtolerance="10"
     guidetolerance="10"
     inkscape:pageopacity="0"
     inkscape:pageshadow="2"
     inkscape:window-width="1629"
     inkscape:window-height="842"
     id="namedview27"
     showgrid="false"
     inkscape:zoom="8.7209987"
     inkscape:cx="-9.2787617"
     inkscape:cy="13.53056"
     inkscape:window-x="0"
     inkscape:window-y="0"
     inkscape:window-maximized="0"
     inkscape:current-layer="LAYER_OUTLINE" />
  <defs
     id="defs4" />
  <metadata
     id="metadata">
    <rdf:RDF>
      <cc:Work
         rdf:about="">
        <dc:format>image/svg+xml</dc:format>
        <dc:type
           rdf:resource="http://purl.org/dc/dcmitype/StillImage" />
        <dc:title></dc:title>
      </cc:Work>
    </rdf:RDF>
  </metadata>
  <g
     id="LAYER_OUTLINE"
     inkscape:label="Outline"
     inkscape:groupmode="layer"
     transform="scale(0.29153969,0.29153969)">
    <path
       style="fill:#a0a1a2;fill-opacity:1"
       d="M 89.85235,92.438603 C 87.5438,92.109453 86.35398,91.721973 86.67975,91.194873 86.76585,91.055553 88.14825,90.497563 89.39421,89.954873 93.20474,88.295183 94.52442,87.034613 94.33953,85.224377 94.33808,83.702197 93.32044,82.213467 91.18921,80.248967 88.65371,77.911817 86.90154,74.473407 82.69601,67.115847 80.16106,62.680967 79.69877,61.191927 80.15036,58.916203 80.31919,58.065387 80.42864,57.339629 80.39358,57.303405 80.35853,57.267182 79.2668,58.285003 77.96752,59.565227 75.41829,62.077087 75.6105,61.688617 74.01204,67.559507 73.61363,69.022797 72.76914,71.433747 72.13539,72.917177 70.39702,76.986227 70.34008,78.517887 70.34008,82.957817 70.44321,84.262777 70.71001,86.659273 69.0196,88.148273 67.38288,90.145673 62.92337,91.759183 60.42246,91.300633 59.80189,91.186843 59.87517,90.560673 55.60391,91.010243 51.8657,91.403703 51.50554,90.933453 51.3864,90.342843 51.26195,89.725943 52.31783,88.675093 55.92715,87.362343 57.59961,86.754043 60.12596,85.792177 61.22841,85.090777 62.33086,84.389367 63.64834,83.748067 64.15616,83.665657 L 64.6772,83.186717 64.42782,81.447487 C 63.9413,78.054417 62.98666,74.531167 63.69128,67.794997 64.67613,58.379926 65.4624,56.581078 67.96018,53.307783 70.43452,50.065192 72.82371,47.343059 72.92601,47.649952 72.98574,47.829138 72.45884,48.655751 71.75512,49.486865 69.40444,52.263104 67.23426,55.32834 66.6448,56.704861 65.62518,59.085897 64.28796,69.602647 64.29035,75.221787 64.47464,77.744787 64.92253,79.859237 65.07043,80.940727 65.23825,82.167797 65.80661,83.654377 64.82988,84.008477 64.31704,84.194407 62.80861,84.759207 61.80994,85.443017 60.81127,86.126817 58.71314,87.176643 57.14744,87.775953 53.92018,89.011273 52.33771,89.874643 52.58056,90.267573 52.67845,90.425973 54.21844,90.457313 56.33739,90.344033 59.06816,90.198043 60.0357,90.241173 60.37659,90.524083 61.46394,91.426503 66.67943,89.858863 68.20397,88.171383 69.54667,86.685183 69.82424,85.441717 69.61714,81.840777 69.4086,78.214977 69.79775,76.235507 71.50715,72.226957 72.63474,69.582737 74.73868,62.618727 75.14282,60.192907 75.37526,58.797714 75.79229,58.567384 75.92934,59.758497 76.01906,60.538207 76.06955,60.510197 78.33781,58.422333 79.95842,56.93061 80.80761,55.902085 81.16368,54.99968 81.78639,53.42154 81.91228,49.715695 81.56771,43.106284 81.41331,40.14475 81.42468,38.400223 81.59839,38.400223 81.91868,38.400223 82.40076,46.051947 82.37384,50.708381 82.36151,52.840027 82.08347,54.325265 81.86504,55.473738 81.57663,56.81518 81.18925,57.592945 80.95268,59.050537 80.60727,61.198207 80.91218,62.236367 83.0005,66.023027 87.71324,74.568417 89.84049,77.893287 91.97791,80.054667 94.36954,82.473117 94.99002,83.567267 94.99002,85.366207 94.99002,86.352163 94.7932,86.870853 94.09989,87.711953 93.18817,88.818023 91.16039,90.173473 90.11671,90.374473 89.79516,90.436393 89.17127,90.676103 88.73027,90.907173 L 87.92846,91.327283 88.7804,91.489533 C 89.24897,91.578773 90.93557,91.805503 92.52839,91.993373 96.0523,92.409013 97.69177,92.094073 98.35855,90.873403 98.59257,90.444993 99.41783,88.972223 100.19247,87.600563 101.60957,85.091317 101.74539,84.690597 101.68425,83.199307 101.71349,82.192937 100.40242,81.319987 99.68991,80.544637 97.81963,78.525407 96.42404,76.318517 95.37499,73.721337 94.36989,71.232977 93.04113,64.956017 92.63356,60.771107 L 92.28795,57.222444 91.68416,58.087267 C 91.35208,58.562921 90.89727,58.954343 90.67348,58.957095 90.33938,58.961207 90.34643,58.87143 90.71287,58.455292 90.95832,58.176549 91.4998,57.26863 91.91617,56.437693 92.58095,55.11098 92.67319,54.574794 92.67319,52.037011 92.67319,47.657114 93.2143,42.10515 93.99747,38.449467 94.38409,36.644802 94.70042,34.614448 94.70042,33.937575 94.70042,32.523454 93.02853,26.210397 92.08583,24.064851 91.09409,21.8077 91.20545,18.279556 92.37377,14.942333 94.57948,8.6418883 97.9698,4.1313913 101.43046,2.8932683 104.97673,1.6245203 110.53226,4.5216723 112.40459,9.2950603 114.0921,13.597273 113.98096,11.900836 113.11727,9.1360203 112.24311,6.3376593 109.816,3.0612393 107.95168,1.8649063 103.5567,-0.52621769 98.40937,1.7191773 95.62862,4.6577663 91.53655,9.0395113 88.68846,14.432194 88.04127,18.19814 87.4591,21.585785 86.87462,22.075902 85.10262,22.602129 83.21633,23.162298 80.97784,23.167186 76.88979,22.620055 68.96166,21.559002 61.85037,22.306333 52.12867,25.222217 46.00515,27.058878 42.47528,27.484717 39.87104,26.700954 38.45164,26.273777 34.45225,23.718441 32.69841,22.118132 32.12618,21.595993 31.18386,20.765329 30.60438,20.272215 30.02489,19.779098 28.659399,18.541042 27.569941,17.520979 22.81221,13.066291 21.506511,12.047732 18.925638,10.777683 15.340182,9.0132763 11.260314,8.6592063 7.077434,9.7494403 4.588099,10.398265 3.983986,10.733695 4.821711,11.001924 5.608999,11.254 7.240093,13.802226 7.240093,14.780118 7.240093,15.442653 6.812829,16.026172 5.212867,17.548741 4.097893,18.609779 3.185641,19.565127 3.185641,19.671736 3.185641,19.778345 3.446285,19.865571 3.764849,19.865571 4.083413,19.865571 4.344056,19.995892 4.344056,20.155174 4.344056,20.314456 4.156558,20.444778 3.927395,20.444778 3.655772,20.444778 3.442899,20.897133 3.315862,21.744285 3.052386,23.501259 3.307868,24.323707 4.26471,24.798869 L 5.068065,25.197809 4.271655,25.302159 C 3.561767,25.395177 3.475245,25.5254 3.475245,26.500806 3.475245,28.179346 4.284314,28.713138 8.36931,29.729717 10.882824,30.355223 11.937089,30.096792 13.058275,28.580308 13.686979,27.729942 14.190583,27.428349 14.190583,27.902201 14.190583,28.021735 13.684349,28.673344 13.065623,29.35022 12.291005,30.197641 11.704772,30.580908 11.183199,30.580908 10.208963,30.580908 10.228766,30.715945 11.366946,31.833861 11.884613,32.342313 13.770286,34.349713 15.557333,36.294755 L 18.806504,39.831193 19.121268,38.608894 C 20.113083,34.75744 20.653738,34.733238 19.859066,38.575865 19.608477,39.787584 19.40345,41.800014 19.40345,43.047931 19.40345,46.136671 20.404427,54.474162 21.286279,58.730677 21.684261,60.651647 22.009883,62.401817 22.009883,62.619937 22.009883,63.241577 21.491148,63.084077 21.27281,62.396157 21.096482,61.840597 20.984217,61.923107 20.198273,63.185837 19.278329,64.663857 15.638601,72.339177 15.638601,72.801097 13.043155,79.390247 12.92756,80.282667 9.631629,83.769677 8.552806,84.889047 7.435784,85.623377 5.181636,86.695093 2.136827,88.142743 0.156702,89.663503 1.325137,89.656933 1.631645,89.655193 2.522165,89.459723 3.304069,89.222523 5.405161,88.585133 7.648837,88.648543 8.145982,89.359343 8.519192,89.892963 8.650394,89.904513 10.307391,89.549633 12.370571,89.107773 12.423209,89.080193 14.406691,87.401893 16.776431,85.396767 18.066123,83.200787 19.432016,78.845217 20.274667,76.158167 21.122433,74.181437 22.308111,72.139047 23.232798,70.546217 24.248615,68.656557 24.565485,67.939787 29.379716,57.049788 32.16944,50.353985 32.34619,49.264834 32.43706,48.70488 32.62467,48.246735 32.76311,48.246735 33.16254,48.246735 33.06606,48.859357 32.26663,51.399254 31.39253,54.176371 31.40489,54.206325 33.88509,55.319371 39.73669,57.538534 44.62574,57.672934 49.95664,55.815392 56.83812,52.928834 64.26102,49.141202 70.44158,47.258373 73.4079,46.362866 74.90292,46.09937 80.29263,45.522126 80.88994,45.458155 81.37865,45.514365 81.37865,45.647021 81.37865,45.779685 80.6293,45.966077 79.71342,46.061229 73.27427,46.730196 67.87136,48.606724 60.49208,52.183316 54.1801,55.242605 50.65506,56.787412 47.85523,57.556855 43.81061,58.668389 36.98936,57.56172 32.91745,55.481497 31.98784,55.006581 31.17333,54.618017 31.10743,54.618017 30.80382,54.618017 31.04784,55.867906 31.68026,57.551975 33.05985,61.225737 33.98381,63.716507 34.01076,70.435047 34.02547,74.101357 33.55939,75.922877 33.01242,77.477217 32.652,78.501437 32.4561,80.688707 32.21706,82.292247 31.79028,85.155017 31.26806,88.401283 30.04478,89.298063 29.83999,89.448183 29.407798,89.660063 28.979454,89.660063 28.55111,89.660063 27.166109,89.933373 25.901676,90.267413 22.003955,91.297123 17.072574,90.665143 17.354833,89.134973 17.414599,88.810993 18.550955,88.402603 20.008707,87.922443 22.809737,86.999833 24.420431,85.933327 24.889349,84.690777 25.090181,84.158607 25.5556,83.006417 25.923617,82.130367 27.262912,78.942207 27.538404,76.945667 26.834704,75.527507 25.348354,72.175277 25.656107,70.902697 25.101122,68.205007 L 24.183376,69.882417 C 22.363376,72.767977 21.143478,75.947467 20.24591,79.081097 19.126742,82.990457 18.11707,84.736017 15.941023,87.069983 13.989589,89.163033 11.890877,90.140683 9.514186,90.413743 8.040396,90.583063 7.84604,90.540763 7.54917,89.986053 7.130936,89.204573 6.517341,89.205783 3.457599,89.994103 0.845924,90.666973 0,90.601373 0,89.725963 0,88.792053 1.796346,87.412383 4.923264,85.944687 7.446569,84.760327 8.006759,84.098997 9.475455,82.563277 10.448914,81.545387 11.528117,80.101737 11.936889,79.228757 14.489897,73.825747 16.288234,68.220427 19.733386,62.982417 21.0685,60.735087 21.011095,60.263277 20.219874,56.934847 19.400979,53.489999 18.859406,50.448158 18.685093,46.074707 18.449625,40.166954 18.45721,41.032373 15.493799,37.505773 14.605153,36.448242 12.799538,34.273428 11.630315,32.981578 L 9.504453,30.632762 6.996655,30.0095 C 3.049119,29.028421 2.651867,28.519188 2.582793,24.351408 2.492423,18.89874 2.492243,18.899366 4.720596,16.869875 5.917517,15.779766 6.36368,14.965499 6.357266,14.611331 6.246115,12.282086 3.748465,11.639962 3.187109,10.851654 3.394468,10.194158 7.948649,8.8435483 10.534197,8.6632523 16.523737,8.2455853 20.779554,9.8289483 27.543396,16.048333 32.80777,20.888952 36.26228,24.027471 38.72612,25.265687 40.78788,26.301837 40.85524,26.31444 43.50458,26.15976 46.0349,26.012027 48.17271,25.172767 55.45911,23.12897 61.67692,21.384907 70.44692,20.935668 76.60018,21.827184 81.71038,22.567573 85.68777,22.487252 86.28128,21.335032 87.3734,20.987516 86.55147,15.322667 92.07772,7.6504993 95.46411,2.6711213 98.49594,0.73458031 102.32472,0.13849431 108.08038,-0.75757669 112.07398,2.7039893 113.98758,10.247616 114.80038,13.4518 114.90437,14.952649 114.25255,14.952649 113.77385,14.952649 113.42973,14.358846 112.89861,12.227978 112.11624,9.0890683 109.75043,6.4610393 107.05261,4.7302893 104.87915,3.3359343 103.5161,3.1998723 101.82334,3.7766523 99.15247,4.6867093 96.47272,7.6430083 94.60762,11.622207 92.87837,15.311584 92.26775,16.542443 92.2526,19.720769 92.23974,22.420287 92.60053,22.948446 94.01778,27.504095 95.75116,33.075937 95.6103,34.438418 94.70061,38.400209 93.63381,43.628981 93.66246,48.449646 93.44834,53.945722 92.96157,62.007947 94.74336,74.589237 100.69652,80.570437 102.43902,82.133427 102.24859,82.489947 102.17974,84.216337 102.08308,85.690487 101.8546,86.373053 100.98768,87.777643 100.39781,88.733333 99.73004,89.908873 99.50374,90.389953 98.39001,92.757583 95.85846,93.294933 89.85235,92.438593 Z M 26.134581,89.660073 C 27.284158,89.341513 28.517218,89.080873 28.874713,89.080873 30.02225,89.080873 30.76554,87.002173 31.41183,81.985587 31.63755,80.233477 32.11434,77.952847 32.47135,76.917517 33.72841,73.272087 33.1875,64.058817 31.37894,58.310479 30.99056,57.076043 30.63101,56.06605 30.57994,56.06605 30.52887,56.06605 30.2557,56.685078 29.97291,57.441668 29.69011,58.198258 28.750893,60.240977 27.885751,61.981037 25.320433,67.140677 25.335675,67.057317 26.22819,71.047607 26.647475,72.922157 27.173097,74.895347 27.396243,75.432467 27.619385,75.969587 27.800961,76.946997 27.799745,77.604497 27.797428,78.898707 26.998185,81.748687 26.246406,83.143997 25.988948,83.621847 25.777497,84.230877 25.776515,84.497397 25.771534,85.852227 23.15477,87.750293 20.053204,88.648803 19.056672,88.937493 18.316674,89.250553 18.408768,89.344483 19.361376,90.316153 23.201067,90.472993 26.134581,89.660073 Z M 9.415924,24.697814 C 8.865697,23.380937 8.864536,21.905678 9.41213,19.865585 10.165288,17.059603 10.027364,16.269243 8.499513,14.635849 6.983357,13.01495 6.953383,12.587261 8.424839,13.570286 10.400281,14.890005 10.869306,17.140133 9.931627,20.799027 9.506706,22.457101 9.486234,22.946445 9.7937,24.096029 10.237941,25.756991 10.010118,26.119905 9.415932,24.697814 Z M 17.738228,23.149031 C 17.161204,22.916195 17.319696,22.51146 17.925825,22.669966 19.189235,23.000357 20.200508,21.734476 21.640299,18.020306 22.812187,14.997231 22.452751,14.363114 19.56729,14.363114 18.560897,14.363114 17.955431,14.240024 17.955431,14.035424 17.955431,13.570613 22.141253,13.871268 22.754379,14.380117 23.466396,14.971039 23.091092,16.922838 21.721273,19.75288 20.269898,22.751417 19.140133,23.714711 17.738228,23.149031 Z M 18.601024,20.485821 C 18.350256,20.330836 18.329136,20.002921 18.525765,19.317316 18.676098,18.793133 18.723706,17.987291 18.63156,17.526557 18.506926,16.903391 18.589295,16.64079 18.953203,16.501146 19.22225,16.397902 19.590009,16.461056 19.770441,16.641488 20.014783,16.885832 20.00917,16.969548 19.748431,16.969548 19.496233,16.969548 19.448657,17.397351 19.578243,18.499907 19.765532,20.093445 19.345911,20.946192 18.601013,20.485821 Z M 5.792075,18.272765 C 6.332412,17.715278 6.904828,17.259152 7.06411,17.259152 7.223392,17.259152 6.911619,17.715278 6.371282,18.272765 5.830945,18.830252 5.258529,19.286378 5.099247,19.286378 4.939965,19.286378 5.251738,18.830252 5.792075,18.272765 Z M 7.658904,16.365107 C 7.386401,15.924189 7.978166,15.409392 8.51896,15.616913 8.779143,15.716754 8.896082,15.976491 8.797046,16.234574 8.599395,16.749652 7.943086,16.824923 7.658904,16.365107 Z"
       id="outline"
       inkscape:connector-curvature="0" />
    <a
       xlink:href="https://www.ebi.ac.uk/gxa/licence.html"
       id="a4174"
       transform="matrix(1.4483386,0,0,1.4483386,-72.170765,11.362616)">
      <g
         transform="matrix(0.07645089,0,0,0.07645089,123.6957,51.617633)"
         id="g3">
        <circle
           style="fill:#ffffff"
           cx="37.637001"
           cy="28.806"
           r="28.275999"
           id="circle5" />
        <g
           id="g7">
          <path
             d="M 37.443,-3.5 C 46.431,-3.5 54.013,-0.415 60.185,5.757 66.393,11.967 69.5,19.548 69.5,28.5 69.5,37.491 66.451,44.976 60.355,50.956 53.879,57.319 46.242,60.5 37.443,60.5 28.794,60.5 21.29,57.356 14.929,51.07 8.644,44.784 5.5,37.262 5.5,28.5 5.5,19.739 8.644,12.158 14.929,5.758 21.101,-0.415 28.604,-3.5 37.443,-3.5 Z M 37.557,2.272 C 30.281,2.272 24.129,4.825 19.1,9.929 13.88,15.263 11.271,21.454 11.271,28.501 11.271,35.587 13.861,41.721 19.041,46.899 24.222,52.081 30.393,54.67 37.555,54.67 44.678,54.67 50.889,52.063 56.184,46.842 61.213,42.004 63.727,35.89 63.727,28.499 63.727,21.223 61.174,15.034 56.071,9.928 50.967,4.824 44.795,2.272 37.557,2.272 Z M 46.129,20.557 46.129,33.642 42.473,33.642 42.473,49.184 32.529,49.184 32.529,33.643 28.873,33.643 28.873,20.557 C 28.873,19.985 29.073,19.5 29.472,19.1 29.873,18.701 30.359,18.5 30.929,18.5 L 44.073,18.5 C 44.606,18.5 45.083,18.7 45.501,19.1 45.918,19.5 46.129,19.986 46.129,20.557 Z M 33.042,12.329 C 33.042,9.321 34.527,7.815 37.5,7.815 40.473,7.815 41.957,9.319 41.957,12.329 41.957,15.3 40.471,16.786 37.5,16.786 34.529,16.786 33.042,15.3 33.042,12.329 Z"
             id="path9"
             style="fill:#009600;fill-opacity:1"
             inkscape:connector-curvature="0" />
        </g>
      </g>
    </a>
  </g>
  <g
     transform="scale(0.29153969,0.29153969)"
     id="LAYER_EFO"
     inkscape:label="EFO"
     inkscape:groupmode="layer">
    <path
       style="fill:none;stroke:none"
       d="M 22.059878,21.641221 C 23.118404,21.43635 23.946273,17.836721 23.44813,17.33597 23.774728,16.897105 22.030143,13.966354 21.327536,13.851339 21.158797,13.823719 21.154744,13.776549 21.144532,13.619036 21.083902,12.68402 15.418166,11.017786 15.169733,11.180683 9.8559112,9.9601731 8.8215597,11.842336 8.8215597,11.842336 7.5453338,13.469685 9.9311473,14.954921 9.9311473,14.954921 10.509383,15.169053 10.728897,15.53692 10.966048,15.853335 11.078561,16.003452 10.852427,16.023247 10.831854,16.186568 10.785634,16.553465 10.675448,17.839391 10.622367,18.171572 10.197868,19.152357 10.754353,19.401621 10.754353,19.401621 11.284771,19.784143 12.393977,19.576265 13.236042,19.940907 14.131553,20.328702 14.315979,20.777076 14.979205,20.851579 15.900044,20.964882 17.446246,21.811038 17.446246,21.811038 18.870569,22.632726 21.451271,22.916693 22.059878,21.641221 Z"
       id="UBERON_0000955"
       inkscape:connector-curvature="0">
      <title
         id="brain">brain</title>
    </path>
    <path
       style="fill:none;stroke:none"
       d="M 12.031252,10.782582 C 9.4166409,10.608884 8.6761392,12.016753 8.6761392,12.016753 7.8167915,13.333201 9.4623507,14.61308 9.4623507,14.61308 9.9011662,14.997045 10.029154,15.015329 10.029154,15.015329 L 10.394834,15.1616 C 10.870218,15.417577 10.979922,15.34444 10.979922,15.34444 12.224169,14.175198 12.263752,11.14307 12.031252,10.782582 Z"
       id="UBERON_0000451"
       inkscape:connector-curvature="0">
      <title
         id="prefrontal cortex">prefrontal cortex</title>
    </path>
    <path
       style="fill:none;stroke:none"
       d="M 22.083204,21.642817 21.922894,21.871828 C 21.922894,21.871828 21.740055,22.292358 20.80757,22.475199 20.80757,22.475199 19.326566,22.804311 17.223907,21.725556 17.059351,21.579282 17.443315,21.305024 17.443315,21.305024 18.613492,20.82964 20.112779,21.140466 20.112779,21.140466 20.771002,21.433011 21.721771,21.433011 21.721771,21.433011 22.050882,21.433011 22.083204,21.642817 22.083204,21.642817 Z"
       id="UBERON_0002037"
       inkscape:connector-curvature="0">
      <title
         id="cerebellum">cerebellum</title>
    </path>
    <path
       style="fill:none;stroke:none"
       d="M 27.662751,45.324954 C 27.280828,46.307224 27.192093,47.213284 27.787167,48.168914 28.946238,49.906064 32.61977,52.100554 33.691479,51.697504 34.154464,51.484194 34.481326,49.918164 34.166017,49.331234 32.935971,47.710654 33.094443,46.322284 32.040538,45.265384 30.507939,43.938744 29.914265,43.935184 29.914265,43.935184 28.424478,43.780164 27.662751,45.324954 27.662751,45.324954 Z"
       id="UBERON_0000948"
       inkscape:connector-curvature="0">
      <title
         id="heart">heart</title>
    </path>
    <path
       style="fill:none;stroke:none"
       d="M 53.552994,34.19879 C 52.321101,33.624174 52.834391,32.223545 52.834391,32.223545 54.217793,29.713789 57.383414,29.418435 59.917777,29.170893 61.902494,29.170893 62.347344,29.637769 62.347344,29.637769 63.036212,30.032818 62.891378,31.110223 62.655318,31.397531 60.762482,33.547942 54.841534,34.922807 53.552994,34.19879 Z"
       id="UBERON_0002113"
       inkscape:connector-curvature="0">
      <title
         id="kidney">kidney</title>
    </path>
    <path
       style="fill:none;stroke:none"
       d="M 49.770839,53.444944 C 50.967061,54.335754 56.682956,51.147364 56.682956,51.147364 58.290174,49.752594 59.514871,50.009894 59.321347,49.124554 59.224477,48.017784 57.563686,46.568964 56.854485,46.344374 54.232995,45.176164 51.416343,43.743454 51.100542,43.260134 50.282878,42.386114 49.969573,40.503724 49.969573,40.503724 48.564344,37.611908 47.738466,40.411404 47.738466,40.411404 46.37793,45.175714 48.97323,53.051904 49.770839,53.444944 Z"
       id="UBERON_0002107"
       inkscape:connector-curvature="0">
      <title
         id="liver">liver</title>
    </path>
    <ellipse
       style="fill:none;stroke:none"
       id="UBERON_0000473"
       transform="matrix(0.97836337,0.20689399,-0.20689406,0.97836335,0,0)"
       cx="98.343117"
       cy="20.11804"
       rx="1.4480187"
       ry="1.9651681">
      <title
         id="testis">testis</title>
    </ellipse>
  </g>
</svg>
