<?xml version="1.0" encoding="UTF-8" standalone="no"?>
<!-- Created with Inkscape (http://www.inkscape.org/) -->

<svg
   xmlns:dc="http://purl.org/dc/elements/1.1/"
   xmlns:cc="http://creativecommons.org/ns#"
   xmlns:rdf="http://www.w3.org/1999/02/22-rdf-syntax-ns#"
   xmlns:svg="http://www.w3.org/2000/svg"
   xmlns="http://www.w3.org/2000/svg"
   xmlns:xlink="http://www.w3.org/1999/xlink"
   xmlns:sodipodi="http://sodipodi.sourceforge.net/DTD/sodipodi-0.dtd"
   xmlns:inkscape="http://www.inkscape.org/namespaces/inkscape"
   width="120.96103"
   height="139.71811"
   viewBox="0 0 120.96103 139.71811"
   preserveAspectRatio="none"
   id="svg2"
   version="1.1"
   inkscape:version="0.91 r13725"
   sodipodi:docname="oryza_sativa_flower_parts.svg">
  <defs
     id="defs4" />
  <sodipodi:namedview
     id="base"
     pagecolor="#ffffff"
     bordercolor="#666666"
     borderopacity="1.0"
     inkscape:pageopacity="0.0"
     inkscape:pageshadow="2"
     inkscape:zoom="2.8"
     inkscape:cx="-1.6828071"
     inkscape:cy="57.65439"
     inkscape:document-units="px"
     inkscape:current-layer="LAYER_OUTLINE"
     showgrid="false"
     inkscape:window-width="1680"
     inkscape:window-height="1006"
     inkscape:window-x="14"
     inkscape:window-y="0"
     inkscape:window-maximized="0"
     fit-margin-top="0"
     fit-margin-left="0"
     fit-margin-right="0"
     fit-margin-bottom="0" />
  <metadata
     id="metadata">
    <rdf:RDF>
      <cc:Work
         rdf:about="">
        <dc:format>image/svg+xml</dc:format>
        <dc:type
           rdf:resource="http://purl.org/dc/dcmitype/StillImage" />
        <dc:title></dc:title>
      </cc:Work>
    </rdf:RDF>
  </metadata>
  <g
     id="LAYER_OUTLINE"
     inkscape:groupmode="layer"
     inkscape:label="Outline">
    <path
       inkscape:label="endosperm_embryo_outline"
       inkscape:connector-curvature="0"
       id="endosperm_embryo_outline"
       d="M 71.308797,76.066296 71.568957,72.43023 67.660817,68.236399 C 59.809259,59.810891 58.480533,54.811399 58.464358,33.633804 58.450957,16.055871 59.020281,14.453298 67.27747,8.8270978 70.698209,6.4963131 72.085592,5.1612671 73.432742,2.9040577 75.599806,-0.72696364 76.872579,-0.95159277 77.296188,2.222212 77.503752,3.7773222 78.239035,5.223686 79.720298,6.9906226 82.904259,10.788627 86.120408,16.548585 87.041305,20.102171 88.315213,25.017971 88.103592,32.210454 86.49791,38.571111 84.536313,46.341629 79.996685,60.868027 78.451044,64.320364 77.584609,66.255624 77.013261,68.72771 76.797752,71.473792 76.589769,74.123943 76.222871,75.751208 75.801947,75.890388 75.292019,76.059005 75.260903,75.780834 75.669492,74.706166 75.963212,73.933634 76.203522,71.992702 76.203522,70.392987 76.203522,68.363547 76.670191,66.387746 77.747473,63.856176 79.486128,59.770406 82.830484,48.957468 85.210556,39.726627 86.921856,33.089538 87.267046,27.283375 86.269347,21.917552 85.60967,18.369688 82.967674,13.03404 80.177198,9.6141405 76.942857,5.6502614 76.210816,4.3697397 76.189779,2.6391458 L 76.170459,1.0496742 74.938014,3.0543675 C 73.145232,5.9705157 71.538183,7.5548715 68.256178,9.641863 59.856588,14.983058 58.912739,17.998827 59.43023,37.842326 59.609245,44.706827 59.993589,51.634548 60.284331,53.237263 61.090019,57.678642 64.095333,63.21644 67.972651,67.404305 72.010695,71.765763 72.685107,73.239391 72.213242,76.67025 71.675675,80.578825 71.017382,80.139244 71.308799,76.066296 Z M 71.435113,69.190903 C 71.435113,68.722555 74.209958,67.542488 75.311241,67.542488 76.147472,67.542488 75.533837,67.963442 73.394739,68.857221 72.316944,69.307552 71.435113,69.457704 71.435113,69.190903 Z M 68.6106,65.29074 C 66.713727,62.756728 65.876813,60.905829 64.323931,55.810449 62.318695,49.230745 61.527934,44.02359 61.117088,34.69345 60.784699,27.144836 60.848869,26.183498 61.911187,22.797421 63.78064,16.838657 66.968672,14.538032 73.289494,14.586314 77.313153,14.617046 80.986862,16.07753 82.416685,18.214824 83.403581,19.690039 83.622301,20.742374 83.628015,24.04288 83.644704,33.673802 77.227238,64.566353 74.848586,66.305665 74.316795,66.694515 72.985722,67.012666 71.890634,67.012666 70.261928,67.012666 69.664991,66.699293 68.6106,65.29074 Z M 74.688043,64.893371 C 76.507816,62.421254 74.612967,57.475849 71.845992,57.475849 67.934672,57.475849 66.863845,64.445387 70.542557,65.959304 72.310523,66.686883 73.614642,66.351551 74.688043,64.893371 Z M 79.620454,46.349561 C 80.86097,39.91028 82.56787,27.718704 82.564511,25.32155 82.561326,23.107966 82.555612,23.101553 80.309651,22.82494 79.071192,22.672402 76.065834,22.28345 73.631077,21.960589 68.25441,21.247628 65.843095,21.605645 63.752675,23.427289 L 62.163208,24.812397 62.304203,33.87969 C 62.381749,38.866703 62.626414,44.008538 62.84791,45.30599 63.24428,47.62784 63.289073,47.670499 65.69149,48.014149 69.852192,48.60931 72.388281,51.098277 72.649923,54.843284 72.710287,55.707229 73.020749,56.41457 73.339834,56.415147 73.956827,56.416175 75.57263,58.001595 75.635945,58.667952 75.656718,58.886503 75.683576,59.720973 75.695682,60.522331 75.72117,62.210978 78.493238,52.200694 79.620454,46.349561 Z M 67.72635,59.653835 C 67.72635,58.302124 69.338963,56.396094 70.641068,56.208786 71.313198,56.1121 71.752399,55.589922 71.843396,54.779313 72.00077,53.377376 70.202226,50.058323 69.285154,50.058323 68.968316,50.058323 69.203232,50.686529 69.80719,51.454333 70.938791,52.892932 71.284834,54.826732 70.410659,54.826732 70.138609,54.826732 69.840583,54.178779 69.748378,53.38683 69.553728,51.715005 66.691843,49.5285 64.698268,49.5285 63.73115,49.5285 63.480475,49.756187 63.677458,50.455692 65.488181,56.885765 66.794932,60.654788 67.213561,60.654788 67.495592,60.654788 67.72635,60.204358 67.72635,59.653835 Z M 66.717932,19.425534 C 67.039245,18.458952 67.15254,17.518515 66.969706,17.335673 66.449164,16.815139 64.676678,18.864493 63.780147,21.023457 L 62.966323,22.983245 64.550025,22.083103 C 65.465848,21.562567 66.380098,20.44182 66.717932,19.425534 Z M 81.761914,19.658312 C 80.654488,17.324578 78.211906,16.149638 74.467752,16.149638 71.643404,16.149638 71.558911,16.192925 71.236431,17.805337 70.675844,20.608254 70.801079,20.918048 72.494761,20.918048 73.778848,20.918048 74.091383,20.689008 74.121471,19.725946 74.141963,19.070287 74.383335,18.057002 74.657884,17.474197 75.02705,16.690548 75.103955,17.064233 74.953156,18.908883 L 74.749249,21.403216 76.933403,21.686328 C 80.904356,22.201051 82.294506,22.246986 82.465137,21.86912 82.557893,21.663704 82.241441,20.668839 81.761914,19.658312 Z M 78.92479,20.388222 C 78.877157,19.951117 78.689783,18.997437 78.508413,18.268931 78.253743,17.245971 78.325142,17.080473 78.821977,17.542108 79.17581,17.870857 79.363177,18.824541 79.238356,19.661402 79.113532,20.498258 78.972427,20.825327 78.92479,20.388222 Z M 69.753708,19.990856 C 70.015054,19.480901 70.389803,18.391329 70.586484,17.569584 70.917656,16.185931 70.838034,16.088041 69.509191,16.245026 68.367389,16.379921 68.031794,16.736522 67.866229,17.990816 67.751793,18.85776 67.405886,19.871045 67.097557,20.242566 66.6678,20.760395 66.856894,20.918048 67.907747,20.918048 68.679033,20.918048 69.486356,20.512542 69.753708,19.990856 Z"
       style="fill:#a0a1a2;fill-opacity:1" />
    <path
       inkscape:label="reproduction_outline"
       sodipodi:nodetypes="sssssssssssssssscsssssssscsssssccssssssssssssscsscssssscsscsscscssscsssssssscccccssssssssssssssssssssscssssscscssscsscsccsssscssscssssssssssssccsssssssscscsssssssscscccsssssssscssssscssscssssssscssscssssscscccssscscsssssscssssccscccssssssccscsssssscccsccsccsssssscsscssssssssssscccccscssssssssssssccscssscscsssssscsssscsssscsssssssssssssssssssscsscssssssscssssssssssssssssssscsssscsssscsssssssssssscccss"
       inkscape:connector-curvature="0"
       id="reproduction_outline"
       d="M 11.866514,119.83049 C 9.0106206,119.33659 7.6531752,118.75381 7.2054276,118.25905 6.8905481,117.91111 6.5164128,116.42726 6.2307809,114.39354 5.6877,110.52676 5.5497471,110.07832 3.3640001,105.07445 2.4508187,102.98389 1.3190789,100.48946 1.1027884,99.531286 0.55193211,97.090982 -0.33493615,71.553005 0.13057377,65.737359 0.49123621,61.231579 3.2257193,48.173428 4.5938708,43.100125 5.0167035,41.5322 5.8540076,38.791749 6.4545458,37.39087 7.1137744,35.853078 7.9616729,34.842784 7.9616729,34.050329 7.9616729,32.248057 8.441081,30.489915 9.2021484,30.489915 9.5446086,30.489915 9.9283855,31.280388 10.054991,31.485239 10.202886,31.724539 11.596766,29.764511 13.9539,27.308678 15.971699,25.206389 17.928132,24.121481 18.301538,24.009619 19.216244,23.735589 20.91483,25.71221 22.560074,28.965232 23.339514,30.506362 23.94636,31.353213 24.201198,31.255422 24.903857,30.985787 25.744272,32.942013 25.978288,35.39194 26.101613,36.683026 26.276415,37.813269 26.366739,37.903596 26.457063,37.993922 26.995956,36.930554 27.564274,35.540556 28.132597,34.150562 28.726831,33.013294 28.884797,33.013294 29.8524,33.013294 29.599132,36.674517 28.377849,40.34169 27.924735,41.702261 27.600062,43.134193 27.656354,43.523763 27.8291,44.719331 30.750473,38.402789 31.018992,36.253117 31.226709,34.590243 31.311678,34.438681 32.036184,34.438681 32.806755,34.438681 32.829041,34.503752 32.918112,37.013679 33.027339,40.091581 32.346466,43.663883 31.245014,45.791811 30.777638,46.694746 30.448375,47.867294 30.444489,48.64258 30.44083,49.36691 30.249257,50.859877 30.018704,51.960284 29.661002,53.66756 29.406599,54.387492 30.077635,56.394816 32.77487,64.463269 30.575817,86.726164 29.515462,89.515102 29.209606,90.319574 29.233216,90.394233 29.732489,90.201344 30.837515,89.774436 33.484854,89.379079 34.795889,89.445165 36.365432,89.524288 37.233067,90.156758 37.098136,92.680626 36.943212,96.735352 30.973945,104.16466 27.679102,106.89093 24.701544,109.23732 24.230329,109.28522 25.513662,112.95042 26.750084,116.48164 26.644703,117.19319 21.314518,118.89508 18.549799,119.77784 13.891031,120.18061 11.866514,119.83049 Z M 20.988751,117.93151 C 25.019959,116.68007 25.075396,116.65323 25.402051,115.79407 25.615178,115.23349 25.486355,114.49953 24.902656,112.94878 23.59129,109.4648 23.806943,108.52666 26.388238,106.48627 27.275785,105.7847 28.427476,104.60989 28.947553,103.87556 29.467628,103.14124 30.577673,101.82774 31.414315,100.95667 32.25096,100.0856 33.659341,98.173434 34.54406,96.707409 35.864063,94.520082 36.152632,93.778028 36.152632,92.570977 36.152632,90.317776 35.684016,89.894779 33.429129,90.112576 32.400959,90.211886 30.605846,90.593166 29.439994,90.959869 L 27.320267,91.626596 27.121624,93.124113 C 26.469221,98.042461 24.30287,106.38813 23.446275,107.2831 23.284066,107.45257 23.439698,106.7532 23.792073,105.72894 24.144471,104.70467 24.421542,103.42571 24.40779,102.88679 24.379362,101.77294 24.39219,101.74379 23.37088,105.24451 23.089468,106.20911 22.649313,107.27815 22.39276,107.62015 22.136203,107.96216 22.292792,107.32468 22.740733,106.20353 23.543454,104.19442 23.556474,104.02809 23.645919,94.642075 L 23.736671,85.119053 23.463316,93.037862 C 23.280589,98.331189 23.031565,101.53428 22.712221,102.69881 22.449469,103.65699 22.3032,104.01333 22.38718,103.49069 22.471163,102.96805 22.621845,101.47139 22.722025,100.16479 22.892409,97.942602 22.84713,97.702897 22.021023,96.453861 21.535289,95.719448 21.075273,95.181164 20.998773,95.257668 20.922267,95.334173 20.749393,98.286937 20.614603,101.81937 L 20.369534,108.24197 20.484697,101.4318 C 20.656808,91.254066 21.207664,77.410385 21.738793,69.914943 21.99803,66.256454 22.354646,60.412372 22.531258,56.928097 22.707876,53.443819 22.942291,50.236703 23.052174,49.801168 23.194975,49.235189 23.15273,49.100755 22.904092,49.329912 22.38696,49.806531 21.938947,54.42004 21.58182,62.94639 21.40669,67.127523 21.122529,73.11414 20.950349,76.24999 20.778174,79.385837 20.492641,86.227688 20.315832,91.454102 20.139024,96.680515 19.788663,102.23952 19.537249,103.80744 18.819478,108.28378 18.2927,110.61762 18.000108,110.61762 17.851912,110.61762 17.813643,110.22564 17.915062,109.74655 18.016483,109.26746 17.968789,108.44786 17.80908,107.92522 L 17.518694,106.97496 17.484316,108.0836 17.449937,109.19223 16.331344,107.4501 15.212757,105.70796 15.356894,107.76685 C 15.436173,108.89924 15.588425,110.18208 15.69524,110.61762 15.80205,111.05315 15.68447,110.91061 15.433933,110.30087 14.80871,108.77919 14.79526,98.044862 15.407135,88.920081 15.806997,82.95715 16.022716,69.923779 15.698107,71.340326 15.638224,71.601647 15.343578,74.808765 15.043338,78.467256 14.642003,83.35758 14.512102,88.075883 14.552794,96.284811 14.600474,105.90354 14.5374,107.62737 14.097586,108.72658 13.81678,109.42839 13.283454,110.16032 12.91242,110.35309 12.237875,110.70357 12.237879,110.70353 12.929418,109.94791 13.948974,108.83388 14.296716,107.65656 14.296716,105.31877 14.296716,103.39145 14.148447,102.93627 12.392752,99.473587 11.345567,97.408275 10.35516,94.972803 10.191838,94.061418 9.9762279,92.858231 9.9231423,94.2263 9.9980146,99.056155 10.086723,104.77833 10.192465,105.97252 10.754644,107.60097 11.57774,109.98525 11.443803,110.20495 10.504142,108.01187 9.8398123,106.46139 9.7635876,105.60238 9.4424454,96.047011 9.252153,90.385062 9.1015513,83.61448 9.1077585,81.001274 9.1141506,78.302949 8.3851612,70.060914 9.1199262,62.521183 9.9487314,54.016258 12.424807,46.481886 12.292977,47.899588 12.195775,48.944871 10.155861,55.534806 9.6166794,62.504664 9.247177,67.281114 9.5459836,75.468594 9.5466352,77.881387 9.5474573,81.695871 9.6297206,82.402607 10.175486,83.297728 10.5207,83.863923 10.888392,84.327174 10.992578,84.327174 11.096767,84.327174 11.080111,81.784793 10.955571,78.677438 10.787261,74.477944 10.830951,72.719194 11.125781,71.825859 11.612574,70.350856 13.343217,68.382216 14.616909,67.854634 15.47291,67.500068 15.564643,67.321787 15.573092,65.996298 15.578231,65.189921 15.713814,60.716763 15.87438,56.055958 L 16.166318,47.581767 15.410896,46.826346 C 14.362927,45.778375 14.168804,44.308165 14.594693,40.644788 14.805298,38.833238 14.866266,36.450301 14.738172,35.036782 L 14.51544,32.578841 13.822703,34.142267 C 13.441699,35.002149 12.751256,36.153655 12.288391,36.701167 L 11.446814,37.696642 12.264746,40.502194 C 13.373126,44.303995 13.563115,46.312303 12.923593,47.466662 11.832317,49.215595 12.291795,48.057786 11.937366,47.969714 11.77085,47.803206 10.371905,52.407824 9.7449682,55.185958 7.9647785,63.074516 7.7835316,72.159689 8.7244377,106.34146 8.8084686,109.39418 8.7714517,110.13444 8.6056529,108.7171 8.4731835,107.58471 8.2707666,101.26756 8.1558294,94.678991 L 7.9468558,82.699769 7.1623927,81.853759 C 6.2203726,80.837834 6.2637425,81.230289 6.2392777,73.500669 6.2159207,66.125477 6.6252333,66.378447 6.9883395,73.963632 7.1282903,76.887268 7.313206,79.349743 7.3992594,79.435796 7.4853148,79.52185 7.6384548,76.203282 7.7395739,72.061205 7.9770366,62.334132 9.0255671,54.997895 10.963303,49.505763 11.425514,48.195717 11.419258,48.069826 10.8612,47.451113 10.14802,46.660432 9.5584905,45.004283 9.510424,43.65642 9.3967303,40.468217 6.4228677,59.282493 5.9106356,66.430667 5.810762,67.824375 5.4345303,71.590154 5.0745605,74.79906 4.5161283,79.777202 4.4421809,81.938776 4.5706978,89.528043 4.7331835,99.123271 5.0098397,101.37901 6.6432114,106.42665 7.8976549,110.30328 10.194527,115.31815 10.788845,115.47801 11.227888,115.59611 11.225882,115.61657 10.772074,115.64891 10.093068,115.6973 9.7010166,114.95488 8.2437669,111.78613 3.8697098,102.27488 3.5232494,97.629285 3.8407495,84.327174 3.942627,80.058937 4.1686846,75.640242 4.3431016,74.507851 4.9292083,67.891844 5.426689,61.184228 6.1617908,54.869206 6.543202,51.129849 7.0616828,49.585174 8.2977042,44.207159 8.9133247,41.528547 9.3961733,39.970048 9.2120325,39.24825 8.4778554,36.370449 8.3413904,36.270789 7.5057121,38.002145 5.9954105,41.131181 4.8428014,45.851683 1.8791006,61.045876 1.0813537,65.135734 1.1062214,96.168955 1.9099843,99.605871 2.1029199,100.43086 3.1047157,102.99655 4.1362031,105.30741 6.1727029,109.86982 6.5458166,111.05422 6.8568075,113.94352 7.3456189,118.48489 7.7537332,118.75075 14.336974,118.81643 17.574468,118.84873 18.378905,118.74171 20.988771,117.93151 Z M 12.810612,114.09885 C 11.730647,113.66384 11.012586,112.37762 11.4223,111.61206 11.608274,111.26457 11.66696,110.7205 11.552722,110.403 11.285979,109.66167 11.564376,109.92654 12.06815,110.89341 12.320309,111.37736 12.335563,111.56778 12.111056,111.42903 11.893201,111.29439 11.762703,111.51066 11.762703,112.00635 11.762703,114.3149 16.443629,114.39419 22.453093,112.18743 23.367715,111.85156 24.116043,111.68242 24.116043,111.81156 24.116043,112.05073 23.84478,112.16035 19.692631,113.59924 17.258,114.44294 14.213546,114.66396 12.810612,114.09885 Z M 20.656775,108.84909 C 20.671985,108.48008 20.747029,108.40503 20.848144,108.65771 20.939649,108.88637 20.928391,109.15957 20.823156,109.26482 20.717903,109.37008 20.643037,109.18299 20.656793,108.84909 Z M 21.298321,108.24197 C 21.286853,107.89355 21.475805,106.89578 21.718186,106.02471 22.290696,103.96724 22.319672,104.86634 21.753921,107.13334 21.514795,108.09152 21.309776,108.5904 21.298321,108.24197 Z M 19.165936,103.79285 C 19.427462,101.88452 19.720138,98.897252 19.81633,97.154464 19.971822,94.337223 19.919449,93.867751 19.344165,92.921774 18.988288,92.336579 18.652978,91.909494 18.599029,91.972696 18.545082,92.035896 18.41889,95.72234 18.31861,100.16479 18.21316,104.83622 18.25311,108.03548 18.413359,107.75225 18.565751,107.48291 18.904409,105.70118 19.165936,103.79285 Z M 17.167974,106.7374 C 17.168179,106.17121 17.250315,102.31238 17.350172,98.162233 L 17.531733,90.616515 16.805332,89.843292 C 16.405807,89.41802 15.967041,89.181953 15.830295,89.318699 15.69355,89.455444 15.48531,92.913892 15.367547,97.004138 L 15.153427,104.44095 15.997421,106.1039 C 16.461616,107.01852 16.914746,107.76685 17.004374,107.76685 17.094006,107.76685 17.167622,107.3036 17.167974,106.7374 Z M 17.691118,104.36176 C 17.618543,103.88267 17.559162,104.27465 17.559162,105.23283 17.559162,106.191 17.618543,106.58298 17.691118,106.1039 17.763696,105.62481 17.763696,104.84085 17.691118,104.36176 Z M 18.017994,89.493776 C 17.964691,86.913466 17.920957,88.935919 17.920807,93.98812 17.920657,99.040319 17.964265,101.15148 18.017721,98.679591 18.071174,96.207704 18.071295,92.074086 18.017926,89.493776 Z M 25.592473,98.343465 C 25.694648,97.428841 25.704688,96.680515 25.614773,96.680515 25.243764,96.680515 24.387649,101.10516 24.62324,101.80503 24.846134,102.46716 24.897489,102.4142 25.138742,101.27343 25.28611,100.57657 25.490287,99.258087 25.592473,98.343465 Z M 14.062139,93.829743 C 13.82643,87.777234 13.807477,87.651065 13.119377,87.553224 12.254359,87.430236 12.225095,87.259457 11.742955,79.52172 11.403763,74.078177 11.634815,73.547722 11.939868,72.07804 12.322816,70.233068 12.892974,69.714413 13.163651,69.4851 13.162418,69.531764 13.704297,69.375911 13.417802,69.534701 11.396061,71.547199 11.945082,77.359086 12.086266,79.713552 12.287141,83.035005 12.578537,86.073272 12.73381,86.465254 12.896596,86.876186 13.287235,87.177944 13.656426,87.177944 14.235272,87.177944 14.297183,86.972756 14.301507,85.039867 14.303912,83.863923 14.584309,79.630366 14.924101,75.631967 15.26389,71.633565 15.493443,68.313684 15.434214,68.254457 15.374983,68.195228 14.916647,68.487756 14.415684,68.904519 13.914721,69.321278 13.321885,69.573708 13.18809,69.555288 13.005926,69.53021 12.514989,69.980918 12.079455,70.631882 11.290496,71.811091 11.287882,71.839702 11.371124,78.388065 11.420734,82.290561 11.334956,84.960678 11.15998,84.960678 10.997899,84.960678 10.572836,84.568698 10.215395,84.089609 9.60244,83.268042 9.564934,83.257655 9.5554711,83.90687 9.5499423,84.285447 9.9730524,85.022809 10.495693,85.54545 11.57285,86.622611 11.664136,87.276755 10.939885,88.728553 10.55841,89.493233 10.463019,90.421528 10.55242,92.499059 10.664497,95.103451 10.766434,95.443945 12.404683,98.686003 14.473127,102.7794 14.417077,102.94361 14.062139,93.829743 Z M 25.005707,97.076455 C 27.015206,88.425535 26.938346,89.813681 26.606085,68.172804 L 26.491797,60.729124 27.554318,56.514147 28.616845,52.299172 28.064443,49.703975 C 27.760624,48.276615 27.450889,46.609891 27.37614,46.000139 27.129537,43.988466 26.959337,43.890855 26.282295,45.372815 25.725022,46.592628 25.682817,46.980898 25.981906,48.136366 26.967431,51.943735 26.564129,60.462648 24.763423,73.874348 24.265477,77.583032 24.140734,80.479626 24.11547,88.920081 24.098266,94.66914 24.091356,99.479812 24.100116,99.610473 24.148896,100.33788 24.43238,99.54464 25.005707,97.076455 Z M 23.750263,77.358621 C 23.943943,75.70359 24.409117,71.712513 24.783984,68.489556 25.499472,62.33814 25.732442,50.672774 25.18043,48.638611 24.911583,47.647915 24.898539,47.642067 24.209035,48.203077 23.379946,48.877665 23.05678,51.595608 22.531361,62.312886 22.352,65.971377 22.063288,71.102764 21.889775,73.715971 21.716262,76.329177 21.44502,82.078536 21.287013,86.492323 L 20.999735,94.517387 22.003571,95.943144 23.00741,97.368903 23.202767,88.868335 C 23.310215,84.193022 23.556589,79.013654 23.750263,77.358621 Z M 26.551657,93.275428 C 26.471985,92.970554 26.406798,93.219997 26.406798,93.829743 26.406798,94.439491 26.471985,94.688935 26.551657,94.384061 26.631326,94.079184 26.631326,93.5803 26.551657,93.275428 Z M 20.113369,86.54444 C 20.222774,83.147272 20.452757,77.802073 20.624442,74.666226 20.796124,71.53038 21.081098,65.858532 21.25771,62.062119 21.624339,54.181282 22.086864,49.545984 22.563977,48.971101 22.793288,48.694794 22.778783,48.36125 22.516118,47.870449 21.959225,46.829892 22.363502,44.354402 23.343978,42.801228 L 24.190582,41.460125 23.678184,39.128222 C 23.396367,37.845676 23.165787,35.674362 23.165787,34.303084 L 23.165787,31.809855 21.380501,30.178203 C 19.771785,28.707927 19.469529,28.55598 18.32441,28.641848 17.294186,28.719098 16.871746,28.962456 16.092985,29.927327 15.246473,30.976137 15.190444,31.164261 15.621315,31.511089 16.600753,32.299472 18.082879,45.036437 17.391359,46.722315 17.264166,47.032403 17.098601,50.453327 17.023441,54.324372 16.948279,58.195411 16.779599,62.574207 16.648599,64.055025 16.428414,66.544026 16.450227,66.714579 16.937333,66.312697 17.279215,66.030625 17.475333,65.363253 17.49582,64.412183 17.521802,63.206065 17.57232,63.086678 17.780996,63.738271 18.243618,65.182813 18.106997,65.922959 17.1836,66.974651 L 16.269453,68.015808 16.154156,78.382586 16.038859,88.749363 16.751552,89.248624 17.464244,89.747885 17.471767,86.166459 C 17.482968,80.83314 19.543916,56.963188 19.970354,57.228243 20.072821,57.291937 20.114048,55.235064 20.061969,52.657418 19.977618,48.48252 19.899798,47.909711 19.349277,47.411496 18.77502,46.891801 18.731764,46.401637 18.738232,40.487069 18.744357,34.88559 18.818497,33.960416 19.356249,32.775731 19.786067,31.828819 20.159804,31.429533 20.616303,31.429533 21.355555,31.429533 21.370544,31.577195 20.953894,34.755433 20.772047,36.142582 20.779905,38.099287 20.974898,39.981846 21.375064,43.845533 21.391164,47.204302 21.011812,47.683108 20.848001,47.889864 20.632565,51.551224 20.533064,55.819462 20.43356,60.087703 20.135598,65.717973 19.870927,68.331181 19.410487,72.877246 18.999212,78.728372 18.552983,87.081359 18.357723,90.736379 18.384385,90.997215 19.048637,91.930068 19.434746,92.472312 19.787514,92.872119 19.832568,92.818536 19.877623,92.764951 20.003998,89.941608 20.113404,86.54444 Z M 10.789248,87.997776 C 11.265417,87.424025 11.014019,86.508295 10.170855,85.745242 9.5548196,85.187735 9.545478,85.207308 9.548189,87.049663 9.5496278,88.078397 9.6526152,89.704044 9.7768837,90.66222 L 10.002822,92.404358 10.199889,90.437403 C 10.30828,89.355583 10.57349,88.257748 10.789248,87.997776 Z M 28.058339,90.783329 C 29.003434,90.420665 29.3161,89.253775 29.533646,85.277428 29.652787,83.099759 29.925106,79.03741 30.138794,76.24999 30.361666,73.342824 30.243428,68.813461 30.14085,65.906294 29.96033,60.79209 29.562793,55.819462 29.145874,55.819462 28.824984,55.819462 28.338144,58.30783 27.937431,61.996134 27.669401,64.46318 27.264859,90.979917 27.495264,90.97915 27.524567,90.979054 27.777973,90.890935 28.058378,90.783329 Z M 19.386228,69.281437 C 19.755447,65.274521 20.008567,61.568519 19.948711,61.045876 19.771462,59.498126 18.314704,75.889809 18.231541,80.36777 L 18.155072,84.485549 18.434994,80.526145 C 18.588952,78.348473 19.017009,73.288355 19.386228,69.281437 Z M 7.5176598,80.461237 C 7.2496546,79.887186 6.8897444,78.491012 6.7178556,77.358621 L 6.4053376,75.29973 6.5185319,77.890827 C 6.6013029,79.785413 6.7891885,80.692842 7.217511,81.266597 7.9714399,82.276505 8.1462165,81.807544 7.5176598,80.461237 Z M 28.338721,57.086472 C 28.790705,55.083014 29.308357,52.945878 29.489049,52.337276 29.669743,51.728679 29.80887,51.015985 29.798213,50.753517 29.752389,49.624534 27.563604,57.825557 27.128273,60.757363 26.611768,64.235852 26.507265,69.395986 26.887626,72.640061 27.072974,74.220888 27.168239,73.134588 27.321056,67.697677 27.486267,61.819682 27.64553,60.159057 28.338721,57.086472 Z M 16.62465,55.185958 C 16.732205,50.895841 16.698723,48.815513 16.540537,49.959543 16.396003,51.004828 16.212715,55.209714 16.13323,59.303737 16.05374,63.397763 16.091591,65.749648 16.217339,64.530154 16.34309,63.310657 16.52638,59.105768 16.62465,55.185958 Z M 20.216612,58.115918 C 20.136938,57.811044 20.071749,58.060487 20.071749,58.670235 20.071749,59.279982 20.136938,59.529425 20.216612,59.224551 20.296279,58.919679 20.296279,58.420792 20.216612,58.115918 Z M 26.039945,51.226553 25.727003,49.009288 25.869532,51.226553 C 25.947916,52.44605 26.041388,54.44159 26.077243,55.661087 L 26.142431,57.878355 26.247658,55.661087 C 26.305527,54.44159 26.212058,52.44605 26.039945,51.226553 Z M 29.643285,48.613347 C 29.819718,47.804806 29.764577,47.583901 29.386317,47.583901 28.65179,47.583901 28.476814,48.110857 28.725096,49.57523 28.967009,51.002058 29.167985,50.791524 29.643285,48.613347 Z M 25.565453,45.186323 C 27.517202,41.696272 29.555051,35.136805 28.977762,34.202727 28.868656,34.026197 28.333053,35.005321 27.78753,36.378565 27.242006,37.75181 25.984306,40.086465 24.992639,41.566689 23.072043,44.433492 22.420133,46.527071 23.167604,47.427713 23.715782,48.08823 24.19107,47.643952 25.565453,45.186323 Z M 12.653964,45.900327 C 12.708628,45.238574 12.391695,43.244222 11.949674,41.468426 11.507658,39.692633 11.003983,37.155617 10.8304,35.830613 10.35766,32.22208 9.7282089,30.921107 8.9239134,31.890221 8.2862207,32.658595 8.4388387,35.5493 9.2052807,37.21944 9.6769382,38.247225 9.985886,39.772554 10.167632,41.970725 10.314855,43.751371 10.542292,45.493337 10.673049,45.841764 11.366238,47.688915 12.503453,47.722536 12.653964,45.900327 Z M 20.712787,45.920938 C 20.793945,45.180529 20.722304,43.291893 20.553551,41.723968 20.255332,38.952866 20.398418,33.899713 20.815892,32.458963 21.102769,31.46893 20.509443,31.562499 19.81164,32.61734 19.295443,33.397645 19.243529,34.148501 19.313384,39.823454 19.356275,43.30773 19.466255,46.407943 19.557784,46.712817 19.876427,47.774173 20.561105,47.304745 20.712787,45.920938 Z M 30.094261,46.043028 C 31.328079,44.722223 32.126426,41.901906 32.287948,38.293397 32.44465,34.792709 31.946544,33.395446 31.598269,36.358723 31.469547,37.453953 30.771357,39.543668 29.810444,41.709745 28.943305,43.664452 28.233823,45.643252 28.233823,46.10707 28.233823,47.233511 29.007049,47.206894 30.094261,46.043028 Z M 17.008312,45.190627 C 17.242281,43.630436 17.192973,42.999637 16.322656,36.418367 16.005881,34.022929 15.634262,32.063022 15.496839,32.063022 15.188113,32.063022 15.225975,31.407456 15.112663,38.714823 15.038336,43.507972 15.115376,45.086602 15.456817,45.762561 16.128287,47.092068 16.757985,46.859943 17.008312,45.190627 Z M 25.35993,37.783218 C 25.329554,35.054423 24.9475,32.451033 24.513755,32.017287 23.900661,31.404192 23.700589,34.373073 24.122752,37.819349 24.472225,40.672201 24.567673,40.975852 24.950416,40.45242 25.219024,40.085078 25.374287,39.073087 25.35993,37.783218 Z M 14.032086,32.614696 C 15.477531,29.641097 16.532192,28.37791 17.802392,28.098925 18.760214,27.888552 20.301156,28.522492 21.502835,29.621279 22.373947,30.417797 22.400326,30.179769 21.610998,28.645321 20.696256,26.867078 19.094033,24.777727 18.645128,24.777727 18.42573,24.777727 16.578563,26.452553 14.540312,28.499564 L 10.834406,32.221403 11.177703,34.512871 11.521002,36.804335 12.142054,36.014793 C 12.483637,35.580545 13.334149,34.0505 14.032086,32.614696 Z"
       style="fill:#a0a1a2;fill-opacity:1" />
    <path
       sodipodi:nodetypes="ssssssssssssssssscsssssssssss"
       inkscape:connector-curvature="0"
       id="path3050"
       d="M 97.121898,139.46749 C 96.002299,139.14746 95.220385,138.33529 94.324413,137.37944 92.720975,135.66886 92.695832,135.45651 92.725084,123.87218 92.778854,102.56702 95.747999,86.398777 100.55699,81.223759 102.73164,78.883583 107.4204,75.790367 108.80672,75.78134 110.48819,75.770405 116.11672,82.085304 118.05822,86.161035 120.83328,91.986613 121.88408,108.5505 120.03284,117.28693 118.78019,123.19843 116.32465,127.61013 111.01873,133.48201 108.74285,136.00065 105.98763,137.7421 104.95995,139.34813 104.696,139.76062 103.84665,139.71493 103.50255,139.67457 102.97496,139.61269 102.4487,138.82679 101.95798,138.87499 101.50229,138.91975 100.91422,139.78722 100.48839,139.71369 99.836673,139.60115 99.221086,139.10377 98.645201,138.73407 98.238281,138.47283 97.612499,139.60773 97.121898,139.46749 Z M 109.0128,133.92428 C 118.82626,123.85172 121.12398,115.41661 119.02576,97.165801 118.05937,88.759924 116.76944,85.600093 112.41166,80.963809 L 108.62156,76.931493 105.20624,79.38515 C 99.638615,83.385093 97.85093,87.426871 95.670252,100.94507 94.854936,105.99931 94.138315,114.4828 93.900201,121.89918 93.545483,132.94751 93.628899,134.55732 94.635761,136.09398 95.380355,137.23038 96.078138,138.14496 97.087144,138.5515 97.507565,138.72089 98.08956,137.97923 98.652946,138.00551 99.231249,138.03248 99.795854,138.82528 100.61027,138.83828 101.07704,138.84574 101.5064,137.96653 101.91808,138.03498 102.50479,138.13254 103.35344,139.08283 104.04174,138.86333 104.62773,138.67645 105.19014,138.04875 105.91237,137.25541 106.72533,136.36241 107.73099,135.23994 109.0128,133.92428 Z"
       style="fill:#a0a1a2;fill-opacity:1" />
    <path
       sodipodi:nodetypes="ccccccccc"
       inkscape:connector-curvature="0"
       id="path4061"
       d="M 98.835075,137.19104 C 97.220156,133.8144 97.29356,130.07073 97.29356,130.07073 97.146751,128.52921 97.660588,127.13451 97.660588,127.13451 98.174426,121.70252 101.11064,92.487195 101.11064,92.487195 101.69788,86.394552 107.93734,78.833801 107.93734,78.833801 106.22469,82.316173 104.21311,87.251836 103.24025,89.437231 101.59324,99.768466 100.89567,110.48496 99.789342,120.96847 99.128696,126.9877 98.394642,128.60262 98.394642,128.60262 97.587184,134.47505 98.835075,137.19104 98.835075,137.19104 Z"
       style="fill:#a0a1a2;fill-opacity:1" />
    <path
       style="fill:#a0a1a2;fill-opacity:1"
       d="M 102.50883,137.58527 C 104.5918,134.913 105.5184,131.83779 106.64614,128.56333 107.61889,124.51108 110.94946,111.28897 111.35994,91.016749 111.20189,84.727661 109.24244,78.96828 109.24244,78.96828 109.46851,82.526131 109.75646,86.625799 109.77317,89.928137 109.6226,101.67849 108.40312,109.6267 106.83008,120.38091 105.82826,126.17452 104.86704,129.82905 104.86704,129.82905 103.67422,135.43917 102.50883,137.58527 102.50883,137.58527 Z"
       id="path4063"
       inkscape:connector-curvature="0"
       sodipodi:nodetypes="cccccccc" />
    <a
       transform="matrix(1.5277373,0,0,1.5277373,-76.130889,53.793715)"
       id="a4174"
       xlink:href="https://www.ebi.ac.uk/gxa/licence.html">
      <g
         id="g3"
         transform="matrix(0.07645089,0,0,0.07645089,123.6957,51.617633)">
        <circle
           id="circle5"
           r="28.275999"
           cy="28.806"
           cx="37.637001"
           style="fill:#ffffff" />
        <g
           id="g7">
          <path
             style="fill:#009600;fill-opacity:1"
             id="path9"
             d="M 37.443,-3.5 C 46.431,-3.5 54.013,-0.415 60.185,5.757 66.393,11.967 69.5,19.548 69.5,28.5 69.5,37.491 66.451,44.976 60.355,50.956 53.879,57.319 46.242,60.5 37.443,60.5 28.794,60.5 21.29,57.356 14.929,51.07 8.644,44.784 5.5,37.262 5.5,28.5 5.5,19.739 8.644,12.158 14.929,5.758 21.101,-0.415 28.604,-3.5 37.443,-3.5 Z M 37.557,2.272 C 30.281,2.272 24.129,4.825 19.1,9.929 13.88,15.263 11.271,21.454 11.271,28.501 11.271,35.587 13.861,41.721 19.041,46.899 24.222,52.081 30.393,54.67 37.555,54.67 44.678,54.67 50.889,52.063 56.184,46.842 61.213,42.004 63.727,35.89 63.727,28.499 63.727,21.223 61.174,15.034 56.071,9.928 50.967,4.824 44.795,2.272 37.557,2.272 Z M 46.129,20.557 46.129,33.642 42.473,33.642 42.473,49.184 32.529,49.184 32.529,33.643 28.873,33.643 28.873,20.557 C 28.873,19.985 29.073,19.5 29.472,19.1 29.873,18.701 30.359,18.5 30.929,18.5 L 44.073,18.5 C 44.606,18.5 45.083,18.7 45.501,19.1 45.918,19.5 46.129,19.986 46.129,20.557 Z M 33.042,12.329 C 33.042,9.321 34.527,7.815 37.5,7.815 40.473,7.815 41.957,9.319 41.957,12.329 41.957,15.3 40.471,16.786 37.5,16.786 34.529,16.786 33.042,15.3 33.042,12.329 Z"
             inkscape:connector-curvature="0" />
        </g>
      </g>
    </a>
  </g>
  <g
     inkscape:label="EFO"
     id="LAYER_EFO"
     inkscape:groupmode="layer">
    <path
       inkscape:label="PO_0009010"
       sodipodi:nodetypes="cccccccccccccccccc"
       inkscape:connector-curvature="0"
       id="PO_0009010"
       d="M 108.63802,76.915989 C 104.27797,79.511261 101.63079,82.443917 101.63079,82.443917 L 100.90412,83.274404 C 98.620279,86.077296 96.959306,92.825 96.959306,92.825 94.156414,105.38611 93.533548,124.79873 93.533548,124.79873 93.637358,136.84079 94.052602,135.38744 94.052602,135.38744 L 94.9869,136.73698 96.12882,137.98271 C 97.270737,139.33225 98.308846,138.19033 98.308846,138.19033 L 99.035521,137.98271 C 100.17744,139.43606 101.11174,138.60557 101.11174,138.60557 102.04603,137.35984 102.56509,138.50176 102.56509,138.50176 103.91463,139.95511 105.16036,137.8789 105.16036,137.8789 L 105.16036,137.8789 106.61371,136.42554 C 117.94906,126.0549 119.0102,116.59768 119.0102,116.59768 120.30781,110.5768 120.6139,91.798943 115.25627,84.431344 112.67021,80.770851 108.63802,76.915989 108.63802,76.915989 Z"
       style="fill:none;stroke:none">
      <title
         id="seed">seed</title>
    </path>
    <g
       transform="matrix(0.20553494,0,0,0.20553494,3.5668931e-7,0.02938277)"
       style="fill:none;stroke:none"
       inkscape:label="PO_0009066"
       id="PO_0009066">
      <title
         id="anther">anther</title>
      <path
         d="M 43.125,155.31361 C 45.178572,153.08146 46.339286,153.70646 46.339286,153.70646 48.434327,154.59932 49.590555,158.61718 49.590555,158.61718 50.670958,161.21807 51.696429,167.90289 51.696429,167.90289 53.177303,176.82775 54.259564,183.94816 54.259564,183.94816 55.955992,192.07316 57.946429,200.58146 57.946429,200.58146 60,209.15289 60.751269,214.33146 60.751269,214.33146 62.804841,226.02789 60.357143,228.08146 60.357143,228.08146 58.839286,230.58146 57.5,229.86718 57.5,229.86718 53.571429,229.06361 51.696429,222.45646 51.696429,222.45646 50.625,219.95646 50.089286,211.38503 50.089286,211.38503 48.928572,194.77789 47.589286,190.04575 47.589286,190.04575 46.607143,185.76003 45.446429,182.54575 45.446429,182.54575 42.373731,175.96476 41.964286,170.58146 41.964286,170.58146 40.372462,158.44309 43.125,155.31361 43.125,155.31361 Z"
         id="path3759"
         inkscape:connector-curvature="0"
         sodipodi:nodetypes="ccccccccccccccc" />
      <path
         d="M 74.017857,160.40289 C 74.107147,153.52789 75.625,156.47432 75.625,156.47432 78.596736,164.6886 84.306766,207.72432 83.214286,216.74218 81.875001,232.27789 76.696429,225.22432 76.696429,225.22432 71.142826,217.27193 73.077647,201.78592 73.660714,186.47432 73.571424,172.01003 74.017857,160.40289 74.017857,160.40289 Z"
         id="path3761"
         inkscape:connector-curvature="0"
         sodipodi:nodetypes="cccccc" />
      <path
         d="M 94.642857,162.90289 C 95.089286,157.63503 99.910715,154.68861 99.910715,154.68861 101.78571,153.52789 101.60714,156.29575 101.60714,156.29575 100.26786,162.18861 99.910715,166.02789 99.910715,166.02789 98.57123,178.52802 100.1624,208.03272 100.71429,210.22432 102.05357,234.59932 96.607143,229.68861 96.607143,229.68861 93.858497,229.15006 94.243241,212.1314 93.928572,183.52789 93.482143,166.29575 94.642857,162.90289 94.642857,162.90289 Z"
         id="path3763"
         inkscape:connector-curvature="0"
         sodipodi:nodetypes="cccccccc" />
      <path
         d="M 119.46429,156.02789 C 125.08929,165.84932 123.84098,191.0279 122.14286,195.31361 120.08929,200.22432 119.28571,196.47432 119.28571,196.47432 114.10714,171.29575 116.69643,158.43861 116.69643,158.43861 L 116.69643,158.43861 117.14286,156.92075 C 118.125,154.24218 119.46429,156.02789 119.46429,156.02789 Z"
         id="path3765"
         inkscape:connector-curvature="0"
         sodipodi:nodetypes="ccccccc" />
      <path
         d="M 140.80357,166.29575 C 142.41071,167.72432 140.625,175.93861 140.625,175.93861 135.98214,197.01003 130.35714,207.36718 130.35714,207.36718 125.98214,217.45646 124.19643,220.22432 124.19643,220.22432 119.55357,228.70647 117.76786,230.22432 117.76786,230.22432 114.91071,233.61718 112.94643,231.20646 112.94643,231.20646 109.55357,226.92075 112.14286,220.58146 112.14286,220.58146 114.73214,212.01003 118.66071,206.65289 118.66071,206.65289 122.23214,201.56361 125,196.92075 125,196.92075 130.80357,187.01004 132.85714,182.36718 132.85714,182.36718 136.42857,173.97432 137.67857,171.29575 137.67857,171.29575 139.82143,166.47432 140.80357,166.29575 140.80357,166.29575 Z"
         id="path3767"
         inkscape:connector-curvature="0"
         sodipodi:nodetypes="cccccccccccc" />
      <path
         d="M 156.07143,169.42075 C 157.85714,172.54575 157.14286,187.54575 157.14286,187.54575 156.16071,204.15289 152.76786,212.54575 152.76786,212.54575 148.92857,223.08147 144.64286,225.76003 144.64286,225.76003 140.625,229.59932 139.375,228.26003 139.375,228.26003 134.91071,227.01003 139.01786,217.99218 139.01786,217.99218 142.94643,207.27789 145.17857,202.72432 145.17857,202.72432 153.03571,183.26003 153.03571,180.13503 153.03571,180.13503 153.83929,175.93861 153.92857,174.68861 153.92857,174.68861 155.08928,167.09932 156.07143,169.42075 156.07143,169.42075 Z"
         id="path3769"
         inkscape:connector-curvature="0"
         sodipodi:nodetypes="cccccccccc" />
    </g>
    <path
       inkscape:label="PO_0009009"
       sodipodi:nodetypes="ccccccc"
       inkscape:connector-curvature="0"
       id="PO_0009009"
       d="M 64.229668,49.532333 C 63.201993,49.532333 63.715831,50.70682 63.715831,50.70682 63.818078,51.272298 66.511202,61.175331 67.239287,60.689945 67.826529,60.689945 67.826529,59.221838 67.826529,59.221838 68.413773,57.093082 70.450771,56.248923 70.450771,56.248923 72.726336,56.102112 71.570202,52.982385 71.570202,52.982385 69.900231,47.770607 64.229668,49.532333 64.229668,49.532333 Z"
       style="fill:none;stroke:none">
      <title
         id="plant embryo">plant embryo</title>
    </path>
    <path
       inkscape:label="PO_0009089"
       sodipodi:nodetypes="cccccccccc"
       inkscape:connector-curvature="0"
       id="PO_0009089"
       d="M 62.234588,24.777007 C 65.712249,20.468858 71.681372,21.766494 71.681372,21.766494 76.197141,22.233642 82.010549,23.116034 82.010549,23.116034 82.944845,23.167944 82.529603,25.296061 82.529603,25.296061 81.285021,45.339587 75.857846,61.590517 75.729993,60.69555 75.970083,57.19845 73.76808,56.761234 73.134722,56.335497 72.356141,56.07597 72.408047,53.169266 72.408047,53.169266 70.954697,48.779628 66.283209,48.148454 64.933668,47.92682 62.756891,48.16596 62.885184,45.384472 62.805547,44.916307 61.611722,28.92944 62.234588,24.777007 62.234588,24.777007 Z"
       style="fill:none;stroke:none">
      <title
         id="endosperm">endosperm</title>
    </path>
    <path
       inkscape:label="PO_0009030"
       sodipodi:nodetypes="cccccccccccccccccccccc"
       inkscape:connector-curvature="0"
       id="PO_0009030"
       d="M 17.47047,108.99066 C 9.9097206,94.01597 10.570369,94.23618 10.570369,94.23618 9.5426939,89.171213 11.304422,87.629701 11.304422,87.629701 11.304422,86.455217 9.7629098,85.060515 9.7629098,85.060515 6.3862645,85.207326 5.2117791,83.665814 5.2117791,83.665814 3.7436725,79.922141 4.4777257,74.636958 4.4777257,74.636958 4.6979418,66.855994 5.8724272,65.754912 5.8724272,65.754912 7.7075605,64.507021 9.1756671,65.461291 9.1756671,65.461291 10.056531,67.51664 9.6160991,70.52626 9.6160991,70.52626 11.377827,65.754912 13.286366,65.608103 13.286366,65.608103 15.415121,63.405942 16.222579,61.056971 16.222579,61.056971 18.204523,58.561189 19.819441,60.983571 19.819441,60.983571 20.993927,65.901728 19.966251,67.736861 19.966251,67.736861 18.424739,69.571994 15.341715,71.333722 15.341715,71.333722 13.359771,72.067776 14.240635,81.463657 14.240635,81.463657 13.947014,84.106251 12.625718,84.766898 12.625718,84.766898 12.625718,87.042463 13.21296,87.482896 13.21296,87.482896 17.030038,88.951003 19.232198,92.180837 19.232198,92.180837 22.902464,95.55748 24.664193,103.11823 24.664193,103.11823 L 24.664193,103.11823 24.664193,104.36612 C 22.82906,109.5779 17.47047,108.99066 17.47047,108.99066 Z"
       style="fill:none;stroke:none">
      <title
         id="carpel">carpel</title>
    </path>
  </g>
</svg>
