<?xml version="1.0" encoding="UTF-8" standalone="no"?>
<!-- Created with Inkscape (http://www.inkscape.org/) -->

<svg
   xmlns:dc="http://purl.org/dc/elements/1.1/"
   xmlns:cc="http://creativecommons.org/ns#"
   xmlns:rdf="http://www.w3.org/1999/02/22-rdf-syntax-ns#"
   xmlns:svg="http://www.w3.org/2000/svg"
   xmlns="http://www.w3.org/2000/svg"
   xmlns:xlink="http://www.w3.org/1999/xlink"
   xmlns:sodipodi="http://sodipodi.sourceforge.net/DTD/sodipodi-0.dtd"
   xmlns:inkscape="http://www.inkscape.org/namespaces/inkscape"
   width="123.11169"
   height="89.384377"
   viewBox="0 0 123.11169 89.384377"
   preserveAspectRatio="none"
   id="svg2"
   version="1.1"
   inkscape:version="0.91 r13725"
   sodipodi:docname="rattus_norvegicus.svg">
  <defs
     id="defs4" />
  <sodipodi:namedview
     id="base"
     pagecolor="#ffffff"
     bordercolor="#666666"
     borderopacity="1.0"
     inkscape:pageopacity="0.0"
     inkscape:pageshadow="2"
     inkscape:zoom="2.8"
     inkscape:cx="-67.78728"
     inkscape:cy="-28.671213"
     inkscape:document-units="px"
     inkscape:current-layer="LAYER_OUTLINE"
     showgrid="false"
     inkscape:window-width="1680"
     inkscape:window-height="1006"
     inkscape:window-x="38"
     inkscape:window-y="3"
     inkscape:window-maximized="0"
     fit-margin-top="0"
     fit-margin-left="0"
     fit-margin-right="0"
     fit-margin-bottom="0" />
  <metadata
     id="metadata">
    <rdf:RDF>
      <cc:Work
         rdf:about="">
        <dc:format>image/svg+xml</dc:format>
        <dc:type
           rdf:resource="http://purl.org/dc/dcmitype/StillImage" />
        <dc:title></dc:title>
      </cc:Work>
    </rdf:RDF>
  </metadata>
  <g
     id="LAYER_OUTLINE"
     inkscape:groupmode="layer"
     inkscape:label="Outline">
    <path
       inkscape:label="rat_outline"
       inkscape:connector-curvature="0"
       id="rat_outline"
       d="M 81.284793,89.327184 C 80.527532,89.290984 77.751631,89.137384 75.116127,88.985484 72.480624,88.833484 67.730517,88.708384 64.560343,88.707284 57.394778,88.707284 52.901491,88.347084 48.29691,87.412284 45.567121,86.857984 42.549657,85.564484 42.549657,84.948484 42.549657,84.581384 42.823772,84.597184 44.223845,85.044984 48.611364,86.448184 50.521931,86.683484 59.071749,86.874384 68.937246,87.094684 92.842888,87.097784 96.745128,86.883884 98.490234,86.786284 101.56394,86.616784 103.5756,86.507484 111.89046,86.055584 116.33488,84.416884 118.29628,81.079784 118.77555,80.264384 118.82667,80.017284 118.82667,78.515684 118.82667,76.968584 118.77988,76.759684 118.14784,75.486684 117.33075,73.840784 115.45722,71.460284 113.9042,70.094684 112.23205,68.624284 106.25083,64.034384 104.07764,62.553884 103.04017,61.847084 100.60754,60.091784 98.67178,58.653084 94.251432,55.368084 93.015896,54.751684 90.850368,54.751684 90.031222,54.751684 89.450686,54.919584 87.944474,55.591884 85.65532,56.613584 84.2307,56.786884 81.861145,56.331584 79.62368,55.901884 78.894969,55.954584 76.71143,56.703884 74.063033,57.612684 73.043893,57.840984 70.996215,57.984084 L 69.244057,58.106384 68.929184,58.867684 C 68.52338,59.848884 67.645123,60.908984 66.804051,61.433084 64.589341,62.812684 59.983921,63.978884 55.514334,64.291484 53.683948,64.419484 52.598434,64.608384 50.994279,65.077784 49.833149,65.417484 48.730549,65.781284 48.544066,65.885984 48.237846,66.057884 48.271218,66.115484 48.888519,66.479684 L 49.572041,66.882984 52.073274,66.049284 C 54.180139,65.347184 54.798784,65.215784 55.997021,65.215784 56.779411,65.215784 57.419545,65.286284 57.419545,65.373184 57.419545,65.459884 56.944529,65.531684 56.363964,65.532884 55.72463,65.532884 54.584475,65.753284 53.472593,66.088184 52.462916,66.392384 51.116542,66.789184 50.480668,66.969984 49.844794,67.150684 49.282297,67.366884 49.230675,67.450484 49.03595,67.765484 52.212976,67.601584 53.663259,67.221684 54.46245,67.012384 55.306076,66.877384 55.538005,66.921684 55.769924,66.965484 56.004855,66.931184 56.060078,66.839684 56.225262,66.572484 57.982271,65.739584 58.214276,65.818684 58.332499,65.858684 57.954216,66.196684 57.373651,66.569084 56.241824,67.295184 56.196064,67.365784 56.54754,67.844484 56.756874,68.129484 56.887075,68.082984 58.030976,67.314984 59.487758,66.336884 60.871106,65.782784 63.510326,65.120084 65.813184,64.541884 70.286516,63.090684 71.241047,62.612184 72.110603,62.176384 72.595092,61.396384 72.747449,60.186984 72.905562,58.931884 73.198594,58.028984 73.406194,58.157284 73.509055,58.221184 73.507378,58.389184 73.402382,58.586184 73.306935,58.764484 73.174275,59.358484 73.107578,59.905984 72.917093,61.469784 72.425105,62.331484 71.414817,62.870684 70.405416,63.409484 65.795278,64.951284 62.743775,65.770584 60.672016,66.326884 59.409321,66.906084 57.92618,67.980484 56.962101,68.678884 56.410896,68.680384 56.05173,67.989984 55.899801,67.696184 55.674953,67.422284 55.552061,67.381384 55.429169,67.340384 54.581283,67.501084 53.667862,67.738184 52.391969,68.069684 51.623911,68.157484 50.353554,68.117384 L 48.699997,68.064984 48.692374,67.539584 C 48.686656,67.155984 48.547487,66.942084 48.176295,66.747584 47.543556,66.415984 47.577576,65.779584 48.245098,65.460684 48.499821,65.338984 49.761773,64.950784 51.049454,64.597784 52.853567,64.103284 53.905499,63.928784 55.634748,63.837484 58.174881,63.703384 61.885682,63.064784 63.66155,62.456284 66.332665,61.541084 67.705483,60.586084 68.453557,59.122784 69.027681,57.999884 68.973925,57.938584 67.287234,57.793684 63.125192,57.436084 60.693467,56.656684 53.219271,53.284184 L 51.496978,52.507084 48.996955,52.589984 C 46.175265,52.683384 45.50781,52.887984 43.92683,54.146784 42.447367,55.324784 40.044459,59.829984 38.800652,63.757984 38.436816,64.906884 37.955786,66.114584 37.73171,66.441684 37.219691,67.188884 36.095935,67.832284 35.435628,67.756384 34.991725,67.704884 34.934872,67.625384 34.959944,67.088684 34.983482,66.585184 34.935549,66.502284 34.684571,66.612084 32.640305,67.506184 30.938815,67.653884 30.837717,66.945984 30.788354,66.600084 30.690057,66.569584 29.877011,66.647684 29.124648,66.720084 28.94982,66.679084 28.844291,66.403684 28.683443,65.984484 29.107238,65.693384 31.058791,64.882484 31.869979,64.545484 32.755488,64.111784 33.026592,63.918684 33.297697,63.725784 33.627722,63.567784 33.759982,63.567784 34.247072,63.567784 33.45743,64.108984 31.350822,65.219184 29.611948,66.135584 29.369766,66.310684 29.974841,66.214284 30.609771,66.113184 32.60496,65.512484 33.600515,65.122884 33.777211,65.053284 33.921783,65.077084 33.921783,65.176184 33.921783,65.274684 33.302204,65.591684 32.544943,65.880884 31.514615,66.274184 31.168094,66.492284 31.168094,66.747384 31.168094,67.046384 31.263799,67.072284 31.948312,66.958084 32.846771,66.808084 35.186593,66.002184 35.532533,65.723484 35.661181,65.619784 35.820371,65.588984 35.886287,65.654884 35.952231,65.720684 35.865226,65.877684 35.693038,66.003684 35.520831,66.129584 35.361641,66.479784 35.339275,66.781984 35.290865,67.436584 35.628323,67.444984 36.604581,66.813384 37.137251,66.468684 37.365968,66.047084 38.26578,63.751784 39.86216,59.679384 40.82865,57.558384 41.537415,56.571784 41.892389,56.077684 42.182829,55.606984 42.182829,55.525784 42.182829,55.282784 43.693872,53.752384 44.406048,53.273984 45.66841,52.426184 48.100945,49.937384 49.849816,47.704284 50.078409,47.412384 50.317104,47.225284 50.380256,47.288384 50.443436,47.351284 50.256382,47.714984 49.964637,48.095984 49.672891,48.476984 49.248772,49.060484 49.022142,49.392684 48.483659,50.182084 48.318437,50.376684 47.256147,51.472784 L 46.363138,52.394384 46.980773,52.297584 C 48.510742,52.057884 50.43202,52.002784 51.313374,52.173384 51.842079,52.275684 53.659514,52.970384 55.352104,53.717184 59.565519,55.576084 59.549776,55.572784 58.422648,54.368084 57.23372,53.097184 56.811354,52.388884 56.306101,50.818484 55.836211,49.357984 55.751894,46.807584 56.111061,44.919384 56.401615,43.391894 57.396836,40.253634 57.590666,40.253634 57.67748,40.253634 57.592572,40.756064 57.401029,41.370134 55.64565,47.010184 56.074839,51.209484 58.698764,54.067884 60.388571,55.908684 62.151955,56.616884 66.559219,57.224484 70.593232,57.780684 72.666458,57.587484 76.43639,56.304584 78.577447,55.575884 79.858438,55.501184 82.136986,55.972484 84.405671,56.441684 85.606138,56.261384 88.315734,55.044884 L 90.585181,54.025884 91.671991,54.302084 C 93.255458,54.704584 95.090799,55.664584 97.072894,57.127084 99.076278,58.605284 104.27171,62.342584 105.5681,63.237984 107.9834,64.906284 113.13613,68.979384 114.57208,70.355284 116.5584,72.258684 117.66411,73.695284 118.53217,75.500784 119.13251,76.749384 119.19414,77.022884 119.19414,78.438084 119.19414,79.762484 119.11905,80.151484 118.69765,81.009384 117.44393,83.562184 114.66424,85.216884 110.10699,86.123284 104.82113,87.174784 99.848749,87.343684 74.584487,87.330584 52.307242,87.319184 51.094138,87.280984 47.721586,86.501884 45.961775,86.094984 45.464241,86.064584 46.440594,86.423784 47.559032,86.834884 50.557733,87.396084 53.289341,87.705484 57.142161,88.141784 60.380995,88.290884 66.858731,88.329784 70.081223,88.348784 73.798695,88.449184 75.119777,88.551884 80.391184,88.962084 95.90619,89.115684 100.80201,88.806084 101.69189,88.749884 104.50064,88.587284 107.04369,88.445084 111.70165,88.184384 113.3576,87.947184 115.47214,87.237684 119.89373,85.754084 122.77393,82.481184 122.77393,78.940384 122.77393,76.193284 121.24667,72.797684 118.84101,70.196384 117.87635,69.153284 115.51607,67.294484 110.65832,63.752084 105.2421,59.802384 103.51765,58.335584 102.17966,56.540084 100.04905,53.681084 99.177089,51.250184 97.786367,44.292584 97.675368,43.737284 97.143508,42.043784 96.604453,40.529254 96.065399,39.014724 95.19731,36.433384 94.675361,34.792934 92.187984,26.975154 86.522627,18.268654 81.376905,14.355924 79.149892,12.662534 75.514145,10.790084 72.473114,9.7703738 70.045068,8.9562038 65.809106,8.2646238 63.110812,8.2418538 60.090718,8.2164038 58.505935,8.6324938 54.803243,10.423194 50.771689,12.372964 49.533256,12.756984 46.947048,12.859344 45.164357,12.929864 44.594809,12.879834 43.367258,12.544434 41.884051,12.139234 39.392614,11.004284 39.031723,10.569434 38.694874,10.163564 39.139406,10.287534 40.473572,10.971544 42.726638,12.126654 44.025002,12.444184 46.405135,12.422174 48.258658,12.405014 48.738554,12.329924 50.33763,11.806844 51.33937,11.479154 53.198106,10.700854 54.468158,10.077284 59.426331,7.6429538 62.133659,7.3155438 68.402384,8.3921638 71.459691,8.9172538 72.512376,9.2030538 74.664773,10.092394 79.543556,12.108224 82.689439,14.296814 85.620204,17.714084 88.496546,21.067904 90.142384,23.606654 92.437161,28.229474 93.977088,31.331654 94.254529,32.033594 95.339528,35.572624 95.803852,37.087154 96.459691,39.069804 96.796939,39.978514 97.591727,42.120064 98.25821,44.520384 98.632014,46.587384 99.332549,50.461184 100.40879,53.450784 101.92521,55.735384 103.26986,57.761184 104.93251,59.175484 112.49352,64.725084 113.95756,65.799784 115.23802,66.745884 115.33899,66.827784 115.43995,66.909784 115.93562,67.289284 116.44046,67.671384 119.7266,70.158184 121.86052,73.138684 122.79593,76.548284 124.28933,81.991784 120.38621,86.753084 113.18847,88.268284 112.45286,88.423084 110.48792,88.630284 108.82194,88.728784 107.15596,88.827184 104.59503,88.997084 103.131,89.106284 100.56719,89.297584 84.110095,89.471184 81.285117,89.336784 Z M 27.211165,64.550884 C 27.619351,63.553884 27.607792,63.547384 26.336416,64.051784 25.677518,64.313184 25.008034,64.477084 24.848672,64.415884 24.450625,64.263084 24.485551,63.815784 24.930244,63.371184 25.24487,63.056484 25.258878,62.983384 25.022013,62.892484 24.646132,62.748284 24.668145,62.210584 25.063753,61.872784 25.240448,61.722084 25.921978,61.302584 26.578274,60.940684 29.19509,59.497884 30.082419,57.689684 30.608733,52.727684 30.932354,49.676584 31.492564,46.805384 31.735013,46.955184 31.830213,47.014284 31.86956,47.124384 31.822494,47.200584 31.658005,47.466684 31.34196,49.721284 31.082863,52.477084 30.544542,58.202484 29.730466,59.742984 26.160768,61.791584 25.358509,62.251884 25.159753,62.640984 25.726814,62.640984 25.852403,62.640984 26.644399,62.307684 27.486787,61.900284 28.329184,61.492884 29.103264,61.187884 29.206964,61.222484 29.421787,61.293884 27.994508,62.196384 26.76185,62.768084 26.059403,63.094084 25.033029,63.926084 25.333475,63.926084 25.602883,63.926084 27.160183,63.297984 28.098847,62.810684 29.026971,62.328984 29.193994,62.293184 29.427057,62.526284 29.66012,62.759384 29.590107,62.853484 28.870268,63.275384 27.524952,64.063784 27.779494,64.308684 29.522438,63.902784 31.218496,63.507884 32.168538,63.066384 32.816905,62.371884 33.236393,61.922584 33.282221,61.697484 33.390523,59.554484 33.499159,57.405184 34.060665,54.370484 34.483813,53.645584 34.739813,53.207084 34.700733,53.682684 34.310281,55.757084 34.120282,56.766584 33.911396,58.253484 33.84609,59.061184 33.602364,62.075784 33.517847,62.737184 33.354588,62.907184 33.249801,63.016284 33.187107,62.999584 33.187107,62.862384 33.187107,62.741784 32.82391,62.920484 32.380007,63.259384 31.590384,63.862084 29.470483,64.574484 27.786937,64.802784 27.135301,64.891384 27.081421,64.867584 27.211137,64.550784 Z M 34.108208,62.962284 C 34.12012,62.103184 34.52357,59.016384 34.770222,57.897084 35.109405,56.357984 35.052151,53.823784 34.661871,53.101784 34.527486,52.853184 33.886257,51.076984 33.236927,49.154784 32.059073,45.667984 30.471698,41.864684 29.526078,40.263544 28.874404,39.160144 27.144764,36.652804 25.840282,34.920514 24.035692,32.524124 23.227744,31.037224 22.607823,28.971644 22.468911,28.508764 22.236192,28.360044 20.845573,27.845494 18.671134,27.040914 16.907169,26.580824 13.443915,25.914944 10.110291,25.273984 8.7914665,24.926444 7.807566,24.429634 7.0317609,24.037894 6.1308623,22.818134 6.24372,22.312274 6.3004204,22.058004 6.3858999,22.131674 6.6014665,22.620744 7.1522613,23.870294 8.2345633,24.424764 11.249465,25.001944 12.360117,25.214574 13.929719,25.514884 14.737457,25.669314 18.109714,26.314014 21.915724,27.655724 23.686932,28.824214 24.562768,29.402014 24.595493,29.762744 23.723144,29.223614 23.364445,29.001924 23.033791,28.857714 22.988354,28.903154 22.841381,29.050124 23.588445,30.989354 24.111728,31.819164 24.391485,32.262814 25.498926,33.782344 26.57269,35.195924 30.346557,40.164044 31.313324,42.005314 33.271652,47.954684 33.952982,50.024584 34.62666,51.965884 34.768716,52.268684 34.910762,52.571684 35.155098,53.437584 35.311668,54.193084 35.619623,55.679184 35.575025,56.376084 35.006057,58.969384 34.817755,59.827584 34.661909,60.997984 34.659718,61.570384 34.657812,62.142684 34.60559,62.741684 34.544316,62.901384 34.411903,63.246384 34.103653,63.289384 34.108189,62.962384 Z M 73.627021,60.134384 C 73.684865,60.040984 74.047862,59.943584 74.433587,59.918484 75.440177,59.852784 76.450379,59.555284 76.778851,59.226784 77.07458,58.931084 77.125191,58.679784 77.065917,57.801284 77.043047,57.462884 77.101558,57.319684 77.230044,57.398984 77.339824,57.466684 77.429639,57.969984 77.429639,58.516984 77.429639,59.383984 77.368746,59.551584 76.955213,59.822484 76.437915,60.161384 73.436469,60.442684 73.627021,60.134384 Z M 7.1189367,22.114904 C 4.7392998,21.350874 2.3688967,19.948774 1.3569318,18.706664 0.17764816,17.259194 -0.25839255,15.481914 0.14905976,13.783444 0.33309316,13.016294 0.57996406,12.613664 1.320129,11.873504 2.150052,11.043584 2.4268265,10.891584 3.7246857,10.552944 4.5313569,10.342464 5.509959,10.116144 5.8993529,10.050034 6.2887468,9.9838938 8.0362642,9.5227038 9.7827329,9.0251038 13.761371,7.8915338 14.602996,7.7157638 19.441993,7.0077638 24.831014,6.2192738 30.433447,6.0441238 30.433447,6.6641338 30.433447,6.7677838 30.226219,6.7820038 29.928613,6.6988138 29.008331,6.4414638 24.873706,6.6037138 22.172401,7.0032138 15.232504,8.0295538 13.881795,8.3049638 9.9045489,9.5046338 8.7609722,9.8495738 6.8284112,10.337954 5.6099709,10.589944 3.0072675,11.128204 1.997828,11.571024 1.2729104,12.492504 0.47487296,13.506924 0.38610576,13.954524 0.94109356,14.165534 1.6507545,14.435354 2.6316533,14.074814 3.1940931,13.337394 3.7918115,12.553754 3.9358687,12.624184 3.5198208,13.496644 3.013252,14.558924 2.0873385,14.895784 0.69367946,14.524824 0.47230946,14.465934 0.42329936,14.640954 0.44373056,15.417504 0.47946616,16.773814 1.2085863,18.173554 2.4608277,19.289654 3.4977601,20.213864 5.7178829,21.431864 6.7371187,21.635704 7.0522875,21.698694 7.358022,21.827754 7.416514,21.922394 7.5591895,22.153244 7.452726,22.222124 7.1189367,22.114954 Z M 31.857963,17.526434 C 31.701422,17.349734 31.140068,16.255144 30.610495,15.094014 29.854779,13.437024 29.628634,12.723384 29.559298,11.776744 29.34699,8.8782438 30.910884,5.6528238 33.095347,4.4838638 33.457973,4.2898238 34.122607,4.1868938 35.041221,4.1825238 36.275166,4.1768138 36.540314,4.2395138 37.33596,4.7263538 39.402229,5.9906938 39.62742,8.7158038 37.91965,11.789584 37.228753,13.033114 34.067317,17.173964 33.511672,17.563144 32.97236,17.940904 32.210153,17.923984 31.857963,17.526454 Z M 33.12952,17.122514 C 33.451226,16.926354 33.814528,16.575564 33.936868,16.342994 34.059198,16.110404 34.374262,15.706354 34.636999,15.445084 35.421305,14.665204 35.917048,14.029954 35.818379,13.931284 35.767397,13.880304 35.980886,13.571584 36.292786,13.245214 36.824264,12.689074 38.036206,10.420314 38.278407,9.5281238 38.493716,8.7350138 38.457352,7.1015238 38.214369,6.6493738 37.902278,6.0687338 37.30193,5.3643238 37.119135,5.3643238 37.042328,5.3643238 36.834804,5.2334438 36.658032,5.0734538 36.434118,4.8708138 35.949067,4.7776638 35.059051,4.7663538 33.917037,4.7518638 33.688167,4.8119038 32.902108,5.3325938 32.418458,5.6529538 32.098868,5.9163338 32.191904,5.9178738 32.284912,5.9197838 32.270999,5.9813438 32.160934,6.0555538 31.698048,6.3675938 30.809986,7.8333138 30.545581,8.7216438 29.94528,10.738464 29.851596,11.627664 30.125626,12.707484 30.228954,13.114644 30.943503,14.624984 31.112985,14.794474 31.193605,14.875094 31.266277,14.996104 31.274501,15.063414 31.365793,15.810184 32.161534,17.481354 32.425043,17.479854 32.490797,17.479474 32.807805,17.318664 33.129501,17.122514 Z M 32.589008,16.424954 C 32.550985,16.349194 32.497143,15.956824 32.46926,15.552954 32.441434,15.149084 32.33356,14.715374 32.229641,14.589164 32.098858,14.430324 32.102432,14.359694 32.241267,14.359694 32.351552,14.359694 32.235549,14.055944 31.983723,13.684694 31.373074,12.784844 31.284821,12.351374 31.528233,11.447414 32.065839,9.4508738 34.893343,9.2707638 35.69199,11.182184 35.847444,11.554234 35.922642,12.062294 35.861224,12.325524 35.800426,12.586084 35.726687,12.902454 35.697345,13.028574 35.667995,13.154694 35.209779,13.650354 34.679053,14.130044 34.109866,14.644504 33.702957,15.171624 33.686938,15.415264 33.671977,15.642454 33.58097,15.828324 33.484665,15.828324 33.388351,15.828324 33.363345,15.882164 33.429108,15.947854 33.494862,16.013604 33.40538,16.176184 33.230228,16.309174 32.863333,16.587784 32.686733,16.619674 32.589055,16.424954 Z M 33.697459,14.174704 C 33.927653,13.771604 34.192916,13.441794 34.286934,13.441794 34.679758,13.441794 35.162436,12.664754 35.124185,12.093924 35.013776,10.446084 33.540965,9.9008338 32.397798,11.084564 31.989069,11.507784 32.053479,12.520864 32.54765,13.441794 32.737286,13.795184 32.904853,14.166934 32.920033,14.267894 32.935185,14.368874 32.960248,14.554744 32.97559,14.680954 33.025811,15.093114 33.2713,14.920954 33.697459,14.174704 Z M 18.584273,15.194134 C 18.336439,14.946314 18.124437,14.595214 18.113145,14.413924 18.1019,14.232644 18.06159,13.815834 18.023567,13.487694 17.922393,12.613384 18.251008,12.757784 18.369288,13.639624 18.589867,15.284144 19.498027,15.559634 21.667538,14.640144 22.364659,14.344694 21.943998,14.899374 21.196534,15.261204 20.106313,15.788974 19.154651,15.764544 18.584254,15.194114 Z M 21.714586,13.259194 C 21.248575,12.855864 20.657927,12.473314 20.402051,12.409094 19.900848,12.283294 18.244928,12.413864 17.720615,12.620214 17.54392,12.689774 17.399357,12.664524 17.399357,12.563894 17.399357,12.268114 19.681317,11.729074 20.379209,11.859994 20.783831,11.935944 21.336112,12.303784 21.9545,12.909314 22.478222,13.422144 22.906715,13.875664 22.906715,13.917114 22.906715,14.151424 22.461821,13.905874 21.714586,13.259154 Z M 28.415874,5.3184338 C 28.419685,3.7000138 29.902531,1.6262138 31.729295,0.68480384 33.165523,-0.05534616 35.069953,-0.22230616 35.940347,0.31561384 36.331933,0.55763384 36.042665,1.9375138 35.406505,2.8621538 35.084866,3.3296238 34.739098,3.7121238 34.638124,3.7121238 34.537159,3.7121238 34.711882,3.3380438 35.026489,2.8808338 35.725848,1.8643438 35.915704,0.95133384 35.499542,0.60594384 35.064244,0.24468384 33.463605,0.43763384 32.237084,0.99924384 30.233785,1.9165238 28.815893,3.6782338 28.75115,5.3304838 28.711602,6.3389538 28.413558,6.3282338 28.415874,5.3183838 Z"
       style="fill:#a0a1a2;fill-opacity:1"
       sodipodi:nodetypes="cccsscscccsscccsscsccsccccsccsscsccccccccccsscccccccsccccccccsccscccscccscccccscccsssccccccssscccssccccccssscsccccccscsssccsccccccscscsscsssscsccsssssssssssssccssssscccccccccsccscssccscscccscsscscccccscssscsssccssssscsscsscccccccccscccsssscssscssssscsccscccccssscssccccccssscssccccsscccccccsscssscscsccccsssscccscccssscccccscsscccsccscssccc" />
    <a
       transform="matrix(1.5549198,0,0,1.5549198,-192.99071,1.9311593)"
       id="a4174"
       xlink:href="https://www.ebi.ac.uk/gxa/licence.html">
      <g
         id="g3"
         transform="matrix(0.07645089,0,0,0.07645089,123.6957,51.617633)">
        <circle
           id="circle5"
           r="28.275999"
           cy="28.806"
           cx="37.637001"
           style="fill:#ffffff" />
        <g
           id="g7">
          <path
             style="fill:#009600;fill-opacity:1"
             id="path9"
             d="M 37.443,-3.5 C 46.431,-3.5 54.013,-0.415 60.185,5.757 66.393,11.967 69.5,19.548 69.5,28.5 69.5,37.491 66.451,44.976 60.355,50.956 53.879,57.319 46.242,60.5 37.443,60.5 28.794,60.5 21.29,57.356 14.929,51.07 8.644,44.784 5.5,37.262 5.5,28.5 5.5,19.739 8.644,12.158 14.929,5.758 21.101,-0.415 28.604,-3.5 37.443,-3.5 Z M 37.557,2.272 C 30.281,2.272 24.129,4.825 19.1,9.929 13.88,15.263 11.271,21.454 11.271,28.501 11.271,35.587 13.861,41.721 19.041,46.899 24.222,52.081 30.393,54.67 37.555,54.67 44.678,54.67 50.889,52.063 56.184,46.842 61.213,42.004 63.727,35.89 63.727,28.499 63.727,21.223 61.174,15.034 56.071,9.928 50.967,4.824 44.795,2.272 37.557,2.272 Z M 46.129,20.557 46.129,33.642 42.473,33.642 42.473,49.184 32.529,49.184 32.529,33.643 28.873,33.643 28.873,20.557 C 28.873,19.985 29.073,19.5 29.472,19.1 29.873,18.701 30.359,18.5 30.929,18.5 L 44.073,18.5 C 44.606,18.5 45.083,18.7 45.501,19.1 45.918,19.5 46.129,19.986 46.129,20.557 Z M 33.042,12.329 C 33.042,9.321 34.527,7.815 37.5,7.815 40.473,7.815 41.957,9.319 41.957,12.329 41.957,15.3 40.471,16.786 37.5,16.786 34.529,16.786 33.042,15.3 33.042,12.329 Z"
             inkscape:connector-curvature="0" />
        </g>
      </g>
    </a>
  </g>
  <g
     inkscape:label="EFO"
     id="LAYER_EFO"
     inkscape:groupmode="layer">
    <path
       inkscape:label="UBERON_0000955"
       inkscape:connector-curvature="0"
       id="UBERON_0000955"
       d="M 34.662608,15.879166 34.390264,15.647086 33.573369,15.623986 C 32.075285,15.581686 31.96703,15.570486 31.640721,15.424896 31.26364,15.256606 30.927668,14.998286 30.72146,14.718066 L 30.55881,14.497056 30.243537,14.615096 C 29.83212,14.769146 28.816677,14.971876 28.370678,14.988996 27.913148,15.006496 26.995925,14.850466 26.471661,14.665816 25.623622,14.367116 24.656503,13.815366 23.919969,13.210036 23.502016,12.866536 23.106961,12.686796 22.521727,12.573876 22.015416,12.476176 21.318095,12.479676 21.008902,12.581876 20.833483,12.639476 20.689091,12.645576 20.367977,12.608576 20.011393,12.567376 19.918442,12.538376 19.702713,12.400656 19.410158,12.213886 19.006508,11.734446 18.833624,11.368376 18.585952,10.843986 18.614951,10.492566 18.928054,10.223746 L 19.108438,10.068906 19.458437,10.142006 C 19.967035,10.248226 20.52392,10.435056 20.940968,10.639416 L 21.306043,10.818306 21.336913,10.560346 C 21.395043,10.074796 21.643058,9.796566 22.261311,9.523296 23.392738,9.023216 25.762465,8.635476 28.027976,8.579716 28.819352,8.560216 30.396273,8.718896 30.901155,8.868796 31.83837,9.147056 32.330406,9.605696 32.266282,10.141276 32.239032,10.368506 32.302782,10.397436 32.44032,10.220276 32.654829,9.944076 33.11455,9.733866 33.530493,9.721776 33.796451,9.713776 34.30444,9.885326 34.654782,10.100856 35.25493,10.470056 35.608588,11.336306 35.683871,12.621506 35.687671,12.683006 35.750011,12.751046 35.850132,12.802546 36.168217,12.966196 36.533187,13.529156 36.710359,14.129446 L 36.792499,14.407756 36.661678,14.733016 C 36.589738,14.911916 36.468383,15.154266 36.392013,15.271576 36.160075,15.627896 35.483033,16.045846 35.054168,16.097456 34.964688,16.108256 34.866856,16.053856 34.662564,15.879746 L 34.662564,15.879746 Z"
       style="fill:none;stroke:none">
      <title
         id="brain">brain</title>
    </path>
    <path
       inkscape:label="UBERON_0002113"
       inkscape:connector-curvature="0"
       id="UBERON_0002113"
       d="M 72.537146,25.865976 C 72.336846,25.799676 72.141644,25.696536 71.943278,25.552276 71.516872,25.242176 71.238724,24.926266 70.785331,24.237086 70.444166,23.718496 70.211646,23.414426 69.846229,23.008996 69.340975,22.448426 68.828365,21.979166 68.201411,21.503296 67.578448,21.030436 67.378416,20.919246 66.890277,20.774436 65.635196,20.402136 64.769556,19.972036 64.249341,19.462276 64.014363,19.232026 63.849131,18.961226 63.807563,18.738256 63.761153,18.489486 63.894953,17.874216 64.083862,17.467266 64.332162,16.932426 64.846383,16.456236 65.406793,16.242136 66.187363,15.943946 66.891849,15.900286 68.075316,16.076796 70.443927,16.430006 72.269139,17.080826 73.52867,18.021296 73.953495,18.338496 74.295194,18.684876 74.467134,18.972616 74.808928,19.544596 74.972035,20.685806 74.918098,22.127936 74.871028,23.387576 74.658715,24.614416 74.40808,25.075876 74.34785,25.186806 74.04211,25.485096 73.856304,25.614256 73.677349,25.738636 73.436682,25.850396 73.257156,25.892466 73.097014,25.930066 72.684682,25.914866 72.537146,25.865966 Z"
       style="fill:none;stroke:none">
      <title
         id="kidney">kidney</title>
    </path>
    <path
       inkscape:label="CL_0000336"
       inkscape:connector-curvature="0"
       id="CL_0000336"
       d="M 64.011485,19.471726 C 63.890489,19.431326 63.595066,19.200296 63.442117,19.026416 63.288417,18.851696 63.080311,18.517306 62.980566,18.284816 62.950546,18.215016 62.902516,18.054316 62.873788,17.927766 62.828908,17.730356 62.826908,17.676686 62.859588,17.549866 62.917438,17.325756 63.02321,17.153736 63.225493,16.954806 63.433912,16.749846 63.626465,16.630846 63.983439,16.486346 64.356576,16.335296 65.239607,16.150836 65.475062,16.174756 65.532912,16.180756 65.514032,16.199856 65.365358,16.286066 64.550977,16.758666 64.081707,17.473236 63.975968,18.401776 63.928228,18.820926 63.953388,18.923276 64.193278,19.286726 L 64.354327,19.530706 64.215511,19.512206 C 64.139171,19.502106 64.047334,19.483806 64.011446,19.471806 Z"
       style="fill:none;stroke:none">
      <title
         id="adrenal medulla chromaffin cell">adrenal medulla chromaffin cell</title>
    </path>
    <path
       inkscape:label="UBERON_0001388"
       inkscape:connector-curvature="0"
       id="UBERON_0001388"
       d="M 71.933491,59.821246 C 71.933491,59.777846 72.37322,58.491376 72.910664,56.962506 73.530404,55.199526 73.924297,53.928376 73.987506,53.487336 74.167489,52.231536 73.983706,50.127496 73.466652,47.531516 73.337365,46.882146 73.231588,46.169056 73.231588,45.946886 73.231588,45.504786 73.651496,44.552856 73.97608,44.259106 74.160285,44.092406 74.17194,44.096766 74.559198,44.476826 75.428545,45.330026 76.106253,46.934166 76.105577,48.137146 76.104624,50.130346 75.272138,53.310226 74.008356,56.149486 73.731171,56.772226 73.35733,57.731896 73.177595,58.282086 72.997868,58.832266 72.800884,59.328136 72.739857,59.384016 72.529074,59.577046 71.933491,59.899976 71.933491,59.821246 Z"
       style="fill:none;stroke:none">
      <title
         id="gastrocnemius">gastrocnemius</title>
    </path>
    <path
       inkscape:label="UBERON_0000948"
       sodipodi:nodetypes="cssssssccscsscsssccscccsssscc"
       inkscape:connector-curvature="0"
       id="UBERON_0000948"
       d="M 41.902656,38.993426 C 41.615036,38.976026 41.128517,38.887276 40.821516,38.796326 40.354142,38.657876 40.195619,38.566396 39.847297,38.234156 39.618485,38.015916 39.321746,37.676696 39.187876,37.480336 38.954689,37.138336 38.936783,37.069256 38.761717,35.836906 38.607272,34.749756 38.545693,34.481626 38.364118,34.105986 38.033569,33.422126 37.680187,32.504556 37.71738,32.426686 37.77741,32.300876 38.303301,31.990166 38.415015,32.014456 38.475045,32.027556 38.572938,32.112156 38.632631,32.202706 38.794908,32.448746 39.126296,32.375186 39.593374,31.989416 L 39.974049,31.675026 39.912009,31.213846 C 39.854649,30.787186 39.863219,30.744716 40.026744,30.646636 40.307835,30.478046 40.47666,30.487676 40.618525,30.680436 40.690565,30.778336 40.936495,30.970236 41.164975,31.106866 41.393454,31.243506 41.595517,31.437286 41.648492,31.519386 41.755898,31.685846 41.888739,32.073786 42.409354,32.003736 43.006624,31.923436 43.450641,32.112056 43.465764,32.224426 43.446514,32.435526 43.457164,32.431756 43.523224,32.626196 43.667576,32.729956 43.798693,32.902276 43.663459,33.053496 43.482503,33.255846 43.330566,33.449496 43.246772,33.228326 43.037381,32.895396 42.963261,32.989046 42.625088,32.959746 42.784154,33.348826 42.762703,33.318916 42.787309,33.634116 42.801029,33.732216 42.955723,33.842776 43.279192,33.985316 43.69221,34.167296 43.808059,34.266366 44.205897,34.777726 44.782688,35.519116 45.078655,36.091486 45.21039,36.720336 45.397873,37.615226 45.21809,38.206846 44.658147,38.534446 44.238631,38.780026 42.67589,39.040346 41.902705,38.993436 Z"
       style="fill:none;stroke:none">
      <title
         id="heart">heart</title>
    </path>
    <path
       inkscape:label="UBERON_0002107"
       inkscape:connector-curvature="0"
       id="UBERON_0002107"
       d="M 62.274203,55.305746 C 61.590615,55.052786 61.41026,54.944496 60.490368,54.234746 57.781116,52.144406 55.262158,50.762546 53.56102,50.433406 53.066545,50.337806 52.452789,49.846376 52.141832,49.297206 L 51.883183,48.840426 51.957133,46.912446 C 52.010883,45.509316 52.079283,44.705786 52.208436,43.960756 52.963181,39.607046 54.291563,35.610796 56.57601,30.821426 57.40415,29.085246 57.53177,28.863896 57.774209,28.743356 58.102824,28.579936 58.495181,28.589556 58.680311,28.765556 58.918014,28.991526 59.366653,31.424806 59.431072,32.837506 59.483872,33.994086 59.689102,35.140666 59.957339,35.776846 60.41079,36.852326 61.400941,40.367806 61.383178,40.839236 61.377478,40.983716 61.529037,41.690106 61.719408,42.409016 62.400633,44.981616 63.077664,47.729256 63.367847,49.098976 63.559894,50.005466 63.725736,50.585636 63.842787,50.760476 64.127766,51.186186 64.196903,51.681866 64.142575,52.909646 64.088255,54.137086 63.915754,54.783576 63.503423,55.304876 63.257314,55.616046 63.113047,55.616146 62.274328,55.305616 L 62.274328,55.305616 Z"
       style="fill:none;stroke:none">
      <title
         id="liver">liver</title>
    </path>
    <path
       inkscape:label="UBERON_0002048"
       inkscape:connector-curvature="0"
       id="UBERON_0002048"
       d="M 48.431422,34.784426 C 48.342132,34.775426 48.029248,34.746526 47.736017,34.719326 45.753559,34.535546 43.533255,34.038816 42.474081,33.542086 41.410504,33.043306 39.518015,31.726706 38.616478,30.858366 37.776568,30.049386 37.427808,29.485216 37.423253,28.928076 37.421353,28.651966 37.439163,28.592606 37.626812,28.264656 38.988928,25.883656 42.29304,23.421356 46.531613,21.628616 48.678521,20.720566 49.632394,20.489166 51.22703,20.489566 52.252822,20.489756 53.058083,20.643726 53.739222,20.969706 54.021409,21.104756 54.084199,21.158666 54.215706,21.378796 55.198892,23.024626 55.325958,25.874566 54.55121,28.903856 53.957667,31.224636 52.945358,33.244826 51.852354,34.289746 51.526199,34.601566 51.343899,34.678786 50.726274,34.766756 50.429488,34.809056 48.816165,34.821456 48.431422,34.784356 Z"
       style="fill:none;stroke:none">
      <title
         id="lung">lung</title>
    </path>
    <path
       inkscape:label="UBERON_0002106"
       sodipodi:nodetypes="ccsscssscccssccc"
       inkscape:connector-curvature="0"
       id="UBERON_0002106"
       d="M 69.741204,33.085836 C 69.649144,31.616316 68.531464,29.212566 67.717255,28.235946 66.180625,26.534996 64.24634,24.032826 62.055435,22.730306 61.677104,22.505386 61.433225,22.315996 61.051074,21.950326 L 60.820775,21.729956 60.773985,21.536906 C 60.580488,20.738616 60.61752,19.976156 60.885871,19.233236 61.004703,18.904216 61.161796,18.613696 61.270852,18.521226 61.469371,18.352886 61.855801,18.234756 62.160049,18.249406 62.395761,18.260806 62.66778,18.340806 63.197734,18.554826 65.361947,19.618716 67.422918,20.569476 69.108227,21.974756 70.619594,23.242896 71.93371,24.937436 72.938405,26.456096 73.425761,27.192756 74.031484,28.290096 74.246422,29.212346 74.575494,30.624346 74.82876,31.739666 74.82305,33.293966 74.7755,35.173496 73.307882,36.915136 72.181905,36.849416 70.099426,36.644256 69.676174,34.416836 69.741213,33.085836 Z"
       style="fill:none;stroke:none">
      <title
         id="spleen">spleen</title>
    </path>
    <path
       inkscape:label="UBERON_0002370"
       inkscape:connector-curvature="0"
       id="UBERON_0002370"
       d="M 37.29085,33.098836 C 37.054643,33.032536 36.159814,32.638096 35.583538,32.346246 34.382851,31.738176 33.608046,31.117236 33.394567,30.591996 33.345487,30.471256 33.344247,30.457606 33.378367,30.419856 33.434117,30.358256 33.579458,30.328056 33.812882,30.329556 34.132873,30.331556 34.376819,30.371456 34.764173,30.484896 35.087928,30.579696 35.316131,30.599296 36.073858,30.597506 36.823505,30.595506 36.981904,30.586006 38.333938,30.458036 39.56106,30.341916 39.792217,30.330976 39.917119,30.383036 40.237349,30.516616 40.43176,30.746046 40.43176,30.990356 40.43176,31.236626 40.33694,31.373106 39.898614,31.757676 39.175802,32.391846 38.430444,32.874456 37.928287,33.033416 37.735143,33.094616 37.398762,33.129016 37.290831,33.098716 L 37.290831,33.098716 Z"
       style="fill:none;stroke:none">
      <title
         id="thymus">thymus</title>
    </path>
    <path
       inkscape:label="UBERON_0000995"
       sodipodi:nodetypes="ssssscsccccsssss"
       inkscape:connector-curvature="0"
       id="UBERON_0000995"
       d="M 79.683166,48.857296 C 76.360301,47.056726 74.255636,45.737776 72.701739,44.482196 71.907351,43.840316 71.490598,43.416796 71.183797,42.939646 70.975358,42.615486 70.892061,41.945486 70.900256,41.580226 70.913786,40.977936 70.967146,40.187436 71.308385,40.059506 71.412781,40.020306 71.683361,40.007506 71.819509,40.030806 72.311117,40.115206 75.240385,41.572036 76.47311,42.345206 76.724441,42.502846 76.944668,42.617426 76.962497,42.599836 77.053887,42.509636 75.679256,41.296536 74.570501,40.488806 73.583093,39.689016 73.85414,38.496356 74.183718,38.116816 74.358936,37.852526 75.231837,37.902696 75.812831,38.223896 L 76.478647,38.790676 C 77.311343,39.499496 79.161312,41.354976 79.588996,41.910286 80.762161,43.433516 81.586262,45.160806 81.964734,46.889816 82.278778,48.324476 82.233399,49.149586 81.821667,49.491296 81.469754,49.783356 81.298471,49.732576 79.683166,48.857286 Z"
       style="fill:none;stroke:none">
      <title
         id="uterus">uterus</title>
    </path>
    <path
       inkscape:label="UBERON_0000473"
       sodipodi:end="6.275538"
       sodipodi:start="0"
       transform="matrix(0.98317496,0.18266638,-0.18266637,0.98317496,0,0)"
       d="M 95.418077,37.507164 A 3.0357144,1.9642859 0 0 1 92.388166,39.471446 3.0357144,1.9642859 0 0 1 89.34667,37.514675 3.0357144,1.9642859 0 0 1 92.364951,35.54291 3.0357144,1.9642859 0 0 1 95.417988,37.492143 L 92.382362,37.507164 Z"
       sodipodi:ry="1.9642859"
       sodipodi:rx="3.0357144"
       sodipodi:cy="37.507164"
       sodipodi:cx="92.382362"
       id="UBERON_0000473"
       style="fill:none;stroke:none"
       sodipodi:type="arc">
      <title
         id="testis">testis</title>
    </path>
    <path
       inkscape:label="UBERON_0001155"
       sodipodi:nodetypes="ccsssscccssc"
       inkscape:connector-curvature="0"
       id="UBERON_0001155"
       d="M 85.158065,53.771846 C 85.324484,53.086816 85.130295,52.460746 84.671223,52.202206 84.251196,51.965666 80.421028,49.846026 75.310928,48.417866 70.200826,46.989706 65.635184,47.430566 64.610875,45.946206 63.924962,44.952226 64.225569,42.833966 65.597772,41.549366 66.871636,40.356836 66.641862,39.566226 64.89831,39.142646 63.043769,38.692106 61.72117,39.970486 61.013015,42.898036 60.583129,44.675176 60.634216,45.663216 61.221011,46.921116 61.918126,49.733696 66.158033,49.616476 69.576193,50.097986 75.76089,50.700916 77.815835,53.133716 80.322906,53.764506 84.849958,54.903516 84.883125,54.903546 85.15806,53.771506 Z"
       style="fill:none;stroke:none">
      <title
         id="colon">colon</title>
    </path>
  </g>
</svg>
