<?xml version="1.0" encoding="UTF-8" standalone="no"?>
<!-- Created with Inkscape (http://www.inkscape.org/) -->

<svg
   xmlns:dc="http://purl.org/dc/elements/1.1/"
   xmlns:cc="http://creativecommons.org/ns#"
   xmlns:rdf="http://www.w3.org/1999/02/22-rdf-syntax-ns#"
   xmlns:svg="http://www.w3.org/2000/svg"
   xmlns="http://www.w3.org/2000/svg"
   xmlns:xlink="http://www.w3.org/1999/xlink"
   xmlns:sodipodi="http://sodipodi.sourceforge.net/DTD/sodipodi-0.dtd"
   xmlns:inkscape="http://www.inkscape.org/namespaces/inkscape"
   width="78.069733"
   height="158.28831"
   viewBox="0 0 78.069733 158.28831"
   preserveAspectRatio="none"
   id="svg2"
   version="1.1"
   inkscape:version="0.91 r13725"
   sodipodi:docname="triticum_aestivum_whole_plant.svg">
  <defs
     id="defs4" />
  <sodipodi:namedview
     id="base"
     pagecolor="#ffffff"
     bordercolor="#666666"
     borderopacity="1.0"
     inkscape:pageopacity="0.0"
     inkscape:pageshadow="2"
     inkscape:zoom="3.959798"
     inkscape:cx="-64.977903"
     inkscape:cy="69.811417"
     inkscape:document-units="px"
     inkscape:current-layer="LAYER_OUTLINE"
     showgrid="false"
     inkscape:window-width="1680"
     inkscape:window-height="1000"
     inkscape:window-x="0"
     inkscape:window-y="1"
     inkscape:window-maximized="0"
     fit-margin-top="0"
     fit-margin-left="0"
     fit-margin-right="0"
     fit-margin-bottom="0"
     units="px" />
  <metadata
     id="metadata">
    <rdf:RDF>
      <cc:Work
         rdf:about="">
        <dc:format>image/svg+xml</dc:format>
        <dc:type
           rdf:resource="http://purl.org/dc/dcmitype/StillImage" />
        <dc:title></dc:title>
      </cc:Work>
    </rdf:RDF>
  </metadata>
  <g
     id="LAYER_OUTLINE"
     inkscape:groupmode="layer"
     inkscape:label="Outline">
    <path
       inkscape:connector-curvature="0"
       id="path4249"
       d="M 29.271033,158.13237 C 29.03985,157.7004 28.755415,156.14651 28.755415,155.3155 28.755415,154.80383 28.688815,154.21799 28.594475,153.89999 28.134226,152.34847 27.656643,151.30738 27.656643,151.85562 27.656643,152.11357 27.349013,152.93266 26.905021,153.8569 26.667491,154.35133 26.442406,154.98063 26.404831,155.25531 26.338501,155.74032 25.932003,156.6038 25.770034,156.6038 25.600246,156.6038 25.359208,156.22586 25.359208,155.95962 25.359208,155.52275 25.866035,153.60944 26.114176,153.10955 26.398946,152.53587 26.857536,150.71322 26.857536,150.15508 26.857536,149.67433 27.242866,148.70969 28.060715,147.143 28.585211,146.13827 28.593003,146.11064 28.573212,145.32534 28.562202,144.88674 28.511592,144.42437 28.460818,144.29785 28.403038,144.15383 28.366148,144.12695 28.362198,144.22585 28.352498,144.46693 27.706083,145.06347 26.969295,145.51118 25.897251,146.16264 25.3254,146.644 25.060022,147.11831 24.815317,147.55567 24.810608,147.60566 24.801555,149.86123 24.791855,152.27106 24.704455,152.84677 24.279417,153.29934 24.186567,153.39824 23.984995,153.64283 23.831465,153.84296 23.677937,154.04311 23.36796,154.3009 23.142629,154.41586 22.503486,154.74194 21.961647,155.30032 21.64968,155.95443 21.492465,156.28404 21.363799,156.60738 21.363756,156.67294 21.363712,156.73854 21.264166,156.86184 21.142554,156.94702 20.957027,157.07698 20.909001,157.07969 20.844215,156.96392 20.727096,156.75465 20.916895,155.48507 21.123213,155.09772 21.223396,154.90964 21.307243,154.72399 21.309546,154.68517 21.311946,154.64627 21.650612,154.23187 22.062354,153.76414 22.987776,152.71286 23.530877,151.82989 23.620764,151.23047 23.658494,150.97888 23.648334,150.25321 23.598184,149.6179 23.495047,148.31138 23.571944,147.27679 23.805816,146.82454 24.049301,146.3537 24.549632,145.82596 25.2044,145.34936 25.53129,145.11141 25.766578,144.91673 25.727265,144.91673 25.665795,144.91673 25.05375,145.21045 23.679536,145.8994 23.062868,146.20857 22.827981,146.79525 22.41271,149.06355 22.148981,150.50409 22.045933,150.90933 21.790737,151.50937 21.466279,152.2723 21.029962,153.10757 20.955914,153.10757 20.779712,153.10757 20.765573,152.68539 20.920224,152.04207 21.077968,151.38591 21.149856,149.1646 21.017634,149.03237 20.986364,149.00117 20.907611,149.02937 20.842597,149.09377 20.777597,149.15877 20.625007,149.21196 20.503531,149.21196 20.268795,149.21196 19.865869,149.62706 19.598239,150.1446 19.488047,150.35769 19.412817,150.90569 19.356484,151.90565 19.311504,152.70407 19.244608,153.53712 19.207824,153.75689 19.137034,154.17976 18.395063,155.39651 18.20471,155.40189 18.005961,155.40789 17.962539,154.80351 18.1222,154.25428 18.21611,153.93121 18.26472,153.44385 18.246717,153.00563 L 18.217197,152.28687 17.867587,152.78402 C 17.483107,153.33073 16.27933,154.42578 16.12007,154.37367 15.855988,154.28727 15.968876,153.78067 16.397325,153.12942 16.955183,152.28148 17.0745,152.04747 17.462743,151.03992 17.847113,150.04243 18.484037,149.23422 19.207563,148.82589 19.79096,148.49666 20.855382,147.39539 21.111119,146.85646 21.371207,146.30837 22.06234,145.68832 23.02541,145.13907 23.863203,144.66127 24.972415,144.11766 25.109552,144.11766 25.297138,144.11766 26.158327,143.67646 26.158327,143.58035 26.158327,143.51805 26.291469,143.40826 26.454197,143.33623 26.882966,143.14645 27.518583,142.14395 27.653518,141.44465 27.714368,141.12931 27.824298,140.68025 27.897804,140.44675 27.971304,140.21326 27.997941,140.02222 27.956984,140.02222 27.916034,140.02222 27.65813,140.20089 27.383868,140.41927 26.967391,140.75086 26.648363,140.88374 25.447968,141.22551 24.560639,141.47814 23.724078,141.7907 23.261559,142.04237 22.61861,142.39222 21.936003,142.8379 21.763232,143.02061 21.735772,143.04971 21.600914,143.15145 21.463566,143.24684 21.32622,143.34224 21.011572,143.57627 20.764346,143.76696 20.008242,144.35018 19.785545,144.43624 18.925639,144.47763 18.172621,144.51383 18.078332,144.54393 17.547825,144.91642 16.915556,145.36041 16.722677,145.40363 16.578201,145.13368 16.429026,144.85493 16.742409,144.42814 17.531365,143.83558 18.013908,143.47315 18.309695,143.32018 18.52927,143.31951 19.084409,143.31751 19.644782,143.04299 20.480764,142.36254 21.562478,141.48209 22.543181,140.8614 23.132321,140.68437 25.785484,139.88718 27.245912,139.27024 27.710556,138.75034 27.846418,138.59833 28.124199,138.20425 28.327843,137.87462 28.531489,137.54499 29.05081,136.81042 29.481897,136.24225 30.366223,135.07667 30.413988,134.9799 30.500534,134.17844 30.705579,132.27961 31.120645,131.00377 31.995262,129.58389 32.66733,128.49282 34.50538,124.85787 34.80178,124.03366 35.095983,123.21557 35.109355,122.9696 35.162522,117.3975 35.217832,111.60004 34.890276,99.519085 34.666424,99.100825 34.607854,98.991385 34.299,98.683125 33.980081,98.415775 32.601921,97.260562 29.547121,94.140289 28.156083,92.466987 27.90886,92.169597 27.477607,91.678982 27.197747,91.376729 26.917886,91.074478 26.258655,90.287785 25.732793,89.628521 25.206931,88.969256 24.276891,87.823035 23.666036,87.081364 23.055183,86.339694 22.309305,85.431327 22.008534,85.062776 21.198104,84.069715 18.466903,81.203362 18.466903,81.34589 18.466903,81.37287 18.127055,81.056199 17.711682,80.642172 17.29631,80.228146 16.911583,79.889396 16.856735,79.889396 16.801885,79.889396 16.784795,79.844456 16.818735,79.789506 16.852695,79.734576 16.825135,79.689616 16.757585,79.689616 16.689985,79.689616 16.562086,79.623916 16.47334,79.543594 16.3846,79.463284 16.143648,79.327234 15.937896,79.241267 L 15.563807,79.084961 15.010348,79.608398 C 14.423461,80.163455 13.151584,81.891443 12.357757,83.212248 11.94459,83.899696 10.566242,86.620796 10.018417,87.830527 9.6114665,88.729164 8.7317605,90.939945 8.0707985,92.725061 7.6843075,93.768897 7.3312495,94.712838 7.2862325,94.822714 7.2412025,94.932591 7.1503735,95.155819 7.0843645,95.318763 6.9613535,95.622434 6.4468525,97.478153 6.0172025,99.167865 5.7798835,100.10117 5.6279785,100.62116 5.4773615,101.0158 5.4354215,101.12566 5.3074715,101.57517 5.1930205,102.01468 5.0785685,102.45419 4.9147045,103.08349 4.8288765,103.41312 4.7430565,103.74275 4.5624705,104.43947 4.4275875,104.96138 4.2927065,105.48331 4.1102585,106.15756 4.0221465,106.45971 3.9340365,106.76188 3.6613355,107.77325 3.4161485,108.7072 2.6804565,111.50957 2.2051325,112.76915 1.4497235,113.9181 1.1356065,114.39586 0.97950948,114.54369 0.75422848,114.57675 0.49949848,114.61415 0.44541848,114.57579 0.31475448,114.26277 -0.19980852,113.03125 -0.08069052,110.36126 0.65173548,106.70944 0.79497848,105.99523 0.96829948,105.09623 1.0368915,104.71167 1.4223755,102.55041 3.2267505,95.551994 4.0114605,93.174558 4.7509695,90.934066 6.1177725,87.280335 6.6904715,86.013042 6.7946185,85.782567 6.8798405,85.570283 6.8798405,85.541303 6.8798405,85.377303 8.5689935,81.887989 9.0839815,80.988168 9.5864395,80.110241 10.441271,78.858002 10.872741,78.367826 11.327092,77.851656 11.864397,77.570947 13.066218,77.22187 13.731667,77.028588 13.958371,76.9999 14.145727,77.085265 14.319477,77.164435 14.441458,77.161735 14.60193,77.075155 14.981918,76.870179 16.86615,76.848984 18.046938,77.036395 18.635017,77.129735 19.294143,77.258269 19.51166,77.32202 20.468763,77.602542 22.515944,79.351647 24.036377,81.187924 24.514012,81.764779 25.597618,83.158222 26.444389,84.284465 27.291161,85.410707 28.022699,86.347162 28.070028,86.365474 28.117348,86.383784 28.156068,86.442544 28.156068,86.496065 28.156068,86.585295 28.436987,87.007102 29.432444,88.412576 29.633724,88.696762 29.827614,88.951753 29.863311,88.979223 29.950271,89.046133 30.753166,90.365029 30.753166,90.440954 30.753166,90.473824 30.904291,90.709024 31.088996,90.963607 31.273703,91.218193 31.536346,91.628762 31.672646,91.875987 31.927848,92.33888 32.998947,93.977485 33.566154,94.772753 33.742483,95.019978 34.21554,95.733856 34.617391,96.359146 35.019247,96.984444 35.34946,97.433944 35.351198,97.358039 35.352898,97.282129 35.370558,96.81547 35.390368,96.32102 35.455688,94.689994 35.58046,87.271255 35.579356,85.083573 35.577156,80.887412 35.488136,79.06385 35.181568,76.942664 34.953154,75.362249 34.954219,73.662316 35.183968,73.221818 35.277068,73.043269 35.388273,72.897181 35.431097,72.897181 35.496397,72.897181 35.738905,70.045038 35.804794,68.502091 35.821724,68.105781 35.975208,55.256002 35.9784,53.968323 35.9824,52.35084 35.829769,49.691882 35.723101,49.521083 35.656922,49.415153 35.354447,49.230855 35.050915,49.111537 33.730717,48.592575 32.252101,47.66779 31.002942,46.579774 30.618371,46.244813 30.078973,45.794265 29.80428,45.578557 29.046264,44.983307 28.302286,44.193695 27.17316,42.786042 25.470532,40.66342 24.769708,39.483276 23.996536,37.4368 23.861621,37.079698 23.661468,36.635356 23.551754,36.449372 23.363753,36.130686 22.411148,33.606782 21.982829,32.292544 21.382928,30.451828 20.988145,29.02621 20.461465,26.79868 20.22765,25.809783 19.955996,24.686039 19.857791,24.301468 19.307751,22.147528 19.202316,19.311802 19.577387,16.759892 19.678322,16.073157 19.761936,15.312756 19.763199,15.07011 19.766299,14.496754 19.825869,14.573601 20.074538,15.47096 20.298098,16.2777 20.901619,17.763103 21.16642,18.158328 21.25844,18.295675 21.775255,19.262096 22.314891,20.305931 22.854526,21.349764 23.392673,22.361135 23.51077,22.55342 23.929211,23.23473 25.05958,25.640251 25.05958,25.849424 25.05958,25.915054 25.12303,26.088058 25.200575,26.233881 25.444893,26.69331 26.45802,28.842258 26.45802,28.901049 26.45802,28.931949 26.54342,29.145813 26.647816,29.376288 27.497505,31.252285 28.3431,33.466739 28.562392,34.390202 28.627622,34.664895 28.805907,35.271716 28.958583,35.738694 29.111259,36.205672 29.358326,36.96982 29.507619,37.4368 29.656913,37.903776 29.85756,38.443173 29.953502,38.63546 30.049452,38.827746 30.402476,39.546942 30.738013,40.233677 31.073552,40.920408 31.596034,41.79693 31.899082,42.1815 32.202133,42.56607 32.626365,43.105468 32.841823,43.38016 35.354771,46.583988 36.025265,47.381096 36.124107,47.282255 36.152677,47.253695 36.192317,45.015532 36.212217,42.308581 36.270227,34.411858 36.317521,32.711264 36.547727,30.244829 36.591307,29.777851 36.625717,28.345346 36.624197,27.061485 L 36.621397,24.727193 36.309377,24.564275 C 35.87813,24.339105 35.3204,23.756392 35.108274,23.30937 34.907517,22.886302 34.779602,21.454648 34.942564,21.454648 34.998694,21.454648 35.072938,21.56752 35.107563,21.705475 35.177963,21.986001 35.57375,22.306195 35.974379,22.406746 36.119854,22.443256 36.291179,22.536146 36.355099,22.613165 36.536522,22.831768 36.653647,22.777584 36.538224,22.528455 36.480954,22.404843 36.286304,22.192878 36.105667,22.057419 35.63729,21.70619 35.344097,21.135884 35.238364,20.370366 35.171874,19.889059 35.091991,19.668937 34.947716,19.569563 34.838289,19.494183 34.748751,19.393051 34.748751,19.344814 34.748751,19.208148 35.077443,19.247644 35.292256,19.410114 35.586681,19.632807 35.667665,19.586651 35.516917,19.282078 35.442127,19.130995 35.324557,18.737685 35.255624,18.408053 35.186694,18.07842 35.014682,17.638461 34.873376,17.430364 34.687499,17.156627 34.646651,17.021814 34.725655,16.942809 34.804665,16.863799 34.930663,16.938209 35.181362,17.211853 L 35.527872,17.590088 35.439112,17.114943 C 35.277811,16.25154 35.151655,15.894888 34.939701,15.703073 34.652069,15.44277 34.525355,15.18807 34.646295,15.113323 34.700115,15.080063 34.99339,15.30208 35.298014,15.606704 35.602634,15.911327 35.923298,16.160562 36.010598,16.160562 36.138568,16.160562 36.129881,16.126692 35.965768,15.985758 35.72139,15.77589 35.348077,15.083757 35.348077,14.840542 35.348077,14.60015 35.059662,13.889046 34.779467,13.438603 34.464274,12.93189 34.712927,12.93189 35.153971,13.438603 35.482648,13.816223 35.92506,14.160919 36.082615,14.162135 36.129515,14.162595 36.037565,14.014373 35.878292,13.832973 35.695146,13.62438 35.505966,13.211333 35.363607,12.709227 35.239801,12.272569 35.095475,11.847879 35.042881,11.765471 34.845409,11.456067 34.819656,11.3343 34.91854,11.177536 35.090062,10.905621 35.288877,10.996379 35.495325,11.440834 35.725252,11.935835 35.900256,12.019345 35.704652,11.540724 35.631672,11.362173 35.539497,10.946857 35.499795,10.617799 35.460095,10.28874 35.342291,9.8522707 35.238011,9.6478677 34.871016,8.9284927 35.074119,8.7098437 35.504806,9.3606517 35.647503,9.5762837 35.82794,9.7771467 35.905776,9.8070147 36.090318,9.8778347 36.085047,9.8431147 35.851066,9.4465327 35.743133,9.2636087 35.624859,8.8452537 35.58822,8.5168537 35.55154,8.1884567 35.43757,7.7311969 35.334912,7.5007209 35.133292,7.048073 35.091325,6.6711614 35.242552,6.6711614 35.343656,6.6711614 35.913987,7.8696172 35.872397,7.9946827 35.858687,8.0358827 35.916057,8.0696027 35.999883,8.0696027 36.134849,8.0696027 36.133977,8.0342027 35.992183,7.7601684 35.79055,7.3702936 35.765215,7.243149 35.645848,6.0219845 35.592148,5.4725981 35.458209,4.7085945 35.348209,4.3241988 35.238209,3.9398032 35.149639,3.5127801 35.151388,3.3752585 35.156988,2.9331806 35.388466,3.3777785 35.583586,4.2054264 35.740429,4.8707221 36.051177,5.4020346 36.197729,5.2554821 36.224899,5.2283061 36.207529,4.9936587 36.158949,4.7340428 36.110459,4.4744268 36.092899,4.0977926 36.119939,3.8970779 36.181659,3.4391347 36.783937,1.3806822 36.943386,1.0827498 37.155607,0.68621159 37.158264,0.93540919 36.950086,1.7122036 36.740165,2.4955455 36.698988,3.0399439 36.816759,3.4748292 36.873399,3.6839744 36.910219,3.6202278 37.043428,3.0825047 37.208292,2.4172781 37.445702,2.146641 37.445702,2.6240182 37.445702,2.7695547 37.497712,2.9858094 37.561277,3.1045844 37.674234,3.3156439 37.678602,3.316061 37.754035,3.1229894 37.971784,2.5656468 37.840405,1.8294183 37.260462,0.35684909 37.192992,0.18554209 37.189052,0.06382769 37.249792,0.02631659 37.379067,-0.05358041 37.54564,0.05867659 37.54564,0.22569649 37.54564,0.30010449 37.77571,0.96046069 38.056905,1.6931558 38.3381,2.425851 38.623493,3.2051281 38.691113,3.4248825 L 38.814057,3.8244364 38.883467,3.3249941 C 39.031121,2.2624581 39.056723,2.1638911 39.174562,2.2042703 39.251622,2.2306743 39.276059,2.3828666 39.243752,2.6352104 39.188742,3.0648365 39.189152,4.2909191 39.244671,5.2228745 39.264291,5.5525066 39.249171,5.9570547 39.211181,6.1218706 39.162501,6.3327578 39.215881,6.2735723 39.391418,5.9220937 39.528588,5.6474006 39.641395,5.3215144 39.642102,5.1979026 39.642868,5.0742907 39.693052,4.9731535 39.753765,4.9731535 39.826785,4.9731535 39.843085,5.1168071 39.801915,5.3976793 39.767685,5.6311686 39.712865,6.1355714 39.680098,6.5185745 39.647328,6.9015777 39.559886,7.4164031 39.485785,7.6626304 39.411665,7.9088587 39.366289,8.1255587 39.384917,8.1441867 39.403547,8.1628167 39.58162,7.9513997 39.780641,7.6743772 39.979611,7.3973541 40.18747,7.1706993 40.242502,7.1706993 40.372565,7.1706993 40.371711,7.3406678 40.241302,7.4213026 39.966815,7.590944 39.720184,8.3350357 39.681833,9.1092377 39.659893,9.5522517 39.614913,10.005274 39.581873,10.115952 39.542643,10.247407 39.698758,10.145312 40.032101,9.8214977 40.585527,9.2839077 40.686761,9.3091847 40.294172,9.8869377 39.942417,10.404591 39.66588,11.153245 39.635005,11.67146 39.620475,11.915509 39.545655,12.242973 39.468783,12.39916 39.391903,12.555346 39.349503,12.703641 39.374563,12.728702 39.399623,12.753762 39.637022,12.586552 39.902112,12.357116 40.404043,11.922699 40.628545,11.954088 40.214546,12.400816 39.96836,12.666456 39.746523,13.260741 39.738896,13.675059 39.736496,13.80603 39.674366,14.081751 39.600836,14.287772 39.527316,14.49379 39.496923,14.662355 39.533296,14.662355 39.569666,14.662355 39.749692,14.503053 39.933337,14.308354 40.375931,13.839119 40.438143,13.938125 40.052711,14.49833 39.76363,14.918495 39.361592,16.311728 39.491842,16.441978 39.520302,16.470438 39.723365,16.349248 39.943098,16.17266 40.385305,15.817293 40.477097,15.88651 40.101325,16.291976 39.68209,16.744335 39.543571,16.995318 39.541312,17.30665 39.540112,17.472978 39.452402,17.800098 39.346419,18.033588 39.240429,18.267078 39.17463,18.458114 39.200187,18.458114 39.225747,18.458114 39.377157,18.312057 39.536659,18.133547 39.91133,17.714215 40.03467,17.837772 39.729705,18.326931 39.599826,18.535253 39.444653,18.988112 39.384874,19.333287 L 39.276188,19.960876 39.509734,19.741469 C 39.730494,19.534077 39.743108,19.532588 39.740104,19.714289 39.738304,19.820009 39.670924,19.993758 39.590272,20.1004 39.383847,20.373319 39.408078,20.685307 39.647312,20.834705 39.853132,20.963242 39.857504,21.096619 39.683462,21.938091 39.656902,22.066564 39.304592,22.493771 38.900576,22.887436 38.339967,23.433679 38.138557,23.705112 38.050114,24.033557 37.986374,24.270258 37.905521,24.539776 37.870434,24.632482 37.811084,24.789272 37.818624,24.789162 37.978333,24.630982 38.272124,24.339831 39.01122,23.752298 39.083684,23.752298 39.121614,23.752298 39.273863,23.639923 39.421985,23.502578 39.828639,23.125508 40.178654,23.231311 39.794715,23.615247 39.713125,23.696837 39.530711,24.142784 39.389347,24.606243 39.093355,25.576641 38.813462,25.961996 38.275721,26.139468 37.908962,26.26051 37.89382,26.283329 37.882602,26.731903 37.876202,26.988505 37.822002,29.086342 37.762187,31.393765 37.702377,33.701187 37.633557,36.960049 37.609262,38.635679 37.584962,40.311306 37.531112,43.149827 37.489615,44.943504 L 37.414145,48.204732 37.82296,48.413295 C 38.271688,48.642219 38.262603,48.55396 37.939816,49.548489 37.767382,50.079758 37.764448,50.113561 37.702397,52.282193 37.669577,53.429446 37.619337,54.817605 37.590757,55.36699 37.562177,55.916378 37.519587,56.882799 37.496117,57.514594 37.472637,58.146388 37.426147,59.360033 37.39279,60.211581 37.35942,61.06313 37.31724,62.613898 37.29905,63.657732 37.28085,64.701566 37.23922,65.937687 37.20654,66.404664 L 37.14713,67.253717 37.405785,66.454609 C 37.731395,65.448639 39.275154,60.87954 39.447613,60.411357 39.518443,60.219072 39.630819,59.9269 39.697341,59.762083 39.763861,59.597267 40.1416,58.495996 40.536761,57.314817 40.931923,56.133635 41.314184,55.032364 41.386233,54.867548 41.458283,54.702733 41.644031,54.275711 41.799015,53.918609 42.525641,52.244371 44.605895,49.678229 46.282499,48.387897 47.720405,47.281275 48.439486,46.907134 49.665107,46.6279 50.700272,46.39206 51.813893,46.373479 53.078404,46.57095 55.303108,46.918367 56.609083,47.389731 58.344367,48.471584 58.909222,48.823737 59.663552,49.279278 60.020652,49.483896 60.377752,49.688515 60.692392,49.88679 60.719872,49.924502 60.747372,49.962212 61.039512,50.140601 61.369152,50.320911 61.698782,50.501221 62.013422,50.682149 62.068372,50.722977 62.123272,50.763797 62.482622,50.96859 62.866852,51.178057 63.251092,51.387526 63.610682,51.597787 63.665962,51.645305 63.721262,51.692815 63.911632,51.807969 64.089042,51.901187 64.897112,52.325762 65.992392,52.96529 66.281992,53.181629 66.456872,53.312275 66.632722,53.419166 66.672762,53.419166 66.769262,53.419166 68.346432,54.337435 68.413852,54.432861 68.442752,54.473751 68.600062,54.530851 68.763462,54.559771 68.926862,54.588681 69.397682,54.678849 69.809712,54.760136 70.696382,54.935056 72.672562,54.895616 74.054982,54.675416 76.191232,54.33513 76.977982,54.188946 77.382472,54.057133 77.761262,53.933697 77.831712,53.935269 77.966602,54.070153 78.104522,54.208076 78.104352,54.247405 77.964602,54.460265 77.614422,54.994725 76.583952,55.681518 75.543242,56.074066 73.986302,56.661343 72.568152,56.759547 71.457602,56.356986 70.720812,56.08991 70.682132,56.083642 68.710672,55.911852 67.068922,55.768795 65.986462,55.57825 64.752722,55.215129 64.196542,55.051433 63.648562,54.917498 63.534982,54.917498 63.421402,54.917498 63.300692,54.872558 63.266752,54.817608 63.232852,54.762668 63.106532,54.71665 62.986162,54.715359 62.773762,54.713059 61.757362,54.220916 58.122491,52.360335 55.191344,50.859972 54.006804,50.339969 51.979354,49.663565 51.040856,49.350461 50.742151,49.295533 49.931639,49.287004 48.787822,49.274974 48.042632,49.479183 47.522152,49.94731 47.153642,50.278754 46.420832,51.569939 45.835168,52.919731 45.656383,53.331772 45.340312,54.014006 45.132792,54.43581 44.925282,54.85761 44.72403,55.307108 44.685576,55.434693 44.647156,55.562276 44.490402,55.936363 44.33732,56.265995 43.868349,57.275778 43.638672,57.800551 43.638672,57.862265 43.638672,57.894695 43.037446,59.144515 42.302612,60.639649 41.56778,62.134783 40.88956,63.605299 40.79546,63.90746 40.608615,64.507425 40.180921,65.524825 39.730877,66.439894 39.572741,66.761431 39.443357,67.061706 39.443357,67.107172 39.443357,67.203852 38.953122,68.299297 38.535757,69.135245 38.375673,69.455881 38.243856,69.770529 38.242827,69.834465 38.241727,69.898405 38.088302,70.251931 37.901722,70.620089 37.145131,72.11298 37.149521,72.065423 37.101336,79.290282 37.084296,81.844929 37.044136,84.74419 37.012086,85.733086 36.980036,86.721982 36.931156,88.250275 36.903479,89.129293 36.76674,93.470774 36.723487,94.691051 36.678654,95.47221 36.625924,96.390909 36.610434,97.356234 36.632504,98.347365 36.645884,98.947995 36.660954,98.983575 36.982178,99.173105 37.4256,99.434725 37.391883,99.731165 36.844921,100.37981 36.546004,100.73431 36.457031,100.90809 36.529649,100.99559 36.588229,101.06609 36.635189,101.83297 36.64121,102.81744 36.64691,103.75241 36.66909,104.62858 36.69046,104.76447 36.71182,104.90037 36.75814,105.57342 36.793383,106.26015 36.828623,106.94689 36.897373,108.00321 36.946149,108.60754 36.994929,109.21185 37.061116,110.40303 37.093234,111.25458 37.125344,112.10612 37.184064,113.27482 37.223697,113.85168 37.263327,114.42853 37.295767,116.19013 37.295767,117.76634 L 37.295767,120.6322 37.544623,120.41339 C 37.681493,120.29305 37.816343,120.16697 37.844288,120.13322 37.872238,120.09942 38.190726,119.85162 38.552052,119.58247 39.000306,119.24856 39.450711,119.01894 39.96984,118.85965 L 40.730671,118.62622 41.420165,118.83962 C 42.279157,119.10546 43.010216,119.48178 43.993007,120.16403 44.412934,120.45554 44.994796,120.85135 45.286042,121.04364 45.982813,121.50369 47.168982,122.50749 48.177904,123.49091 48.403355,123.71066 48.699139,123.96963 48.835212,124.06639 49.999497,124.89432 50.791452,125.37516 52.079263,126.03599 55.060107,127.56564 56.173548,128.38694 56.667483,129.42038 56.828082,129.75638 56.980534,130.01022 57.006281,129.98447 57.032011,129.95877 57.186548,130.19523 57.349663,130.51004 57.929053,131.62826 59.289862,133.83088 59.728292,134.36012 61.015212,135.91358 61.226992,136.11544 61.794342,136.32936 62.109722,136.44829 62.614992,136.58186 62.917152,136.62618 64.118442,136.80241 64.547652,137.02637 64.912242,137.66721 65.525082,138.74438 65.997402,139.07424 66.830662,139.00699 67.377432,138.96289 67.439842,139.1662 66.944582,139.37813 66.436052,139.5957 66.316542,139.61033 65.963752,139.49831 65.287532,139.28357 64.829632,139.00809 64.173352,138.4211 L 63.481712,137.80251 62.824852,137.86711 C 61.251242,138.02174 59.718912,136.97465 57.533098,134.25109 56.221146,132.61636 55.591608,131.92491 55.280985,131.77752 54.861472,131.57844 54.326635,131.06731 54.128484,130.67609 53.924626,130.2736 53.264701,129.35435 52.88927,128.94994 52.214707,128.22327 51.014609,127.62854 49.731876,127.38525 48.557526,127.16251 47.608602,126.95264 46.785171,126.73354 46.400596,126.6312 45.70898,126.45406 45.24824,126.33986 44.787501,126.22564 44.27058,126.03626 44.099525,125.91897 43.459467,125.48017 42.562139,124.68583 41.690858,123.78678 40.573833,122.6341 40.150536,122.3415 39.604234,122.34444 39.008965,122.34744 38.473864,122.63802 37.809749,123.31833 37.315686,123.82444 37.203572,124.00829 37.087117,124.50328 37.011297,124.82552 36.948576,125.2326 36.947718,125.40791 36.946797,125.58322 36.905128,125.75202 36.854968,125.78301 36.804808,125.81401 36.732069,126.03018 36.693322,126.26337 36.583839,126.92237 36.389875,127.21152 35.298074,128.3435 34.490648,129.18061 33.821067,130.44868 33.218854,132.28113 32.826067,133.47633 32.71749,134.30601 32.782206,135.61763 32.848626,136.96377 32.948332,137.36082 33.325514,137.78104 33.620872,138.11012 34.788012,138.59757 35.494716,138.68701 35.716156,138.71501 36.122086,138.84504 36.396779,138.97588 36.850392,139.19196 36.918817,139.27072 37.142475,139.83422 37.34638,140.34795 37.390979,140.64101 37.401812,141.53841 37.413122,142.47634 37.453272,142.71949 37.700019,143.34509 38.074895,144.29554 38.487343,144.92488 39.253914,145.71614 40.266179,146.761 40.134825,146.93163 38.68199,146.45907 37.781912,146.16631 37.445444,145.89052 36.800791,144.91703 36.228489,144.0528 36.055876,143.3425 36.113746,142.08978 36.141086,141.49822 36.113848,140.97375 36.045036,140.76516 35.93663,140.43667 35.366342,139.88924 35.183972,139.93861 34.888576,140.01861 33.36124,139.39608 32.775832,138.95717 L 32.451195,138.71378 32.451195,139.10062 C 32.451195,139.74275 32.723069,140.3635 33.200153,140.81066 33.441034,141.03643 33.664734,141.22115 33.697264,141.22115 33.784604,141.22115 34.36212,141.81675 34.678155,142.23275 35.019575,142.68216 35.48113,143.93947 35.645204,144.86709 35.713224,145.25166 35.840821,145.74611 35.928747,145.96586 36.162578,146.55026 36.97934,147.35476 37.686498,147.69721 39.306,148.48149 39.882006,148.73801 40.630216,149.00817 41.076234,149.16924 41.441155,149.27245 41.441155,149.23753 41.441155,149.20263 41.497345,149.24553 41.566015,149.33183 41.675937,149.47067 42.292587,149.8487 42.892377,150.14494 43.135371,150.26494 43.638701,150.89006 43.638701,151.07183 43.638701,151.20327 43.051642,151.01503 41.890653,150.51141 41.241408,150.22976 40.642047,150.02275 40.642047,150.08016 40.642047,150.10506 40.711927,150.19543 40.797326,150.28083 41.063444,150.54694 41.952697,151.91104 42.142868,152.34487 42.429173,152.99801 42.459526,153.66282 42.221458,154.0663 42.000135,154.44142 41.797875,154.49996 41.653724,154.2306 41.540838,154.01969 41.183228,153.03916 40.983015,152.39158 40.817453,151.85609 40.152487,150.92931 39.506829,150.33415 39.034961,149.89921 38.543266,149.61792 37.895112,149.41211 37.380331,149.24866 36.29289,148.60711 35.765601,148.15577 35.187096,147.66059 34.692878,146.60903 34.454721,145.36658 34.349416,144.8172 34.193769,144.17415 34.108844,143.93757 33.859554,143.24316 33.163559,142.33557 32.656382,142.04355 32.406182,141.89949 32.061162,141.67708 31.889674,141.54929 L 31.577876,141.31697 31.431738,141.5438 C 31.169149,141.95132 31.052755,142.4379 31.052755,143.12806 31.052755,143.78279 31.071235,143.83365 31.582921,144.58651 31.874513,145.01555 32.170796,145.50941 32.241322,145.68399 32.311852,145.85858 32.453633,146.0775 32.556394,146.17049 32.995348,146.56774 33.145591,147.07154 33.235001,148.446 33.321491,149.7755 33.402151,150.05317 33.832181,150.50182 33.906411,150.57922 34.075177,150.804 34.207207,151.00125 34.339235,151.1985 34.646846,151.64138 34.890785,151.98543 35.187406,152.40379 35.37255,152.79517 35.44975,153.16704 35.51324,153.47288 35.54264,153.74565 35.51507,153.77323 35.408214,153.88006 35.033614,153.58016 34.78804,153.19114 34.553398,152.81945 33.774219,152.0134 33.646666,152.01041 33.617456,152.00945 33.583866,152.12597 33.572056,152.26877 33.548696,152.55103 33.310103,153.07581 32.849919,153.8571 32.688121,154.13179 32.481494,154.5813 32.390746,154.85598 32.211183,155.39953 31.995005,155.70502 31.789956,155.70502 31.448354,155.70502 31.446601,155.07131 31.784556,153.80715 31.865376,153.505 32.003441,152.98985 32.09138,152.66241 32.320278,151.81012 32.292879,151.29927 31.979841,150.58275 31.736994,150.02688 31.707341,149.83522 31.698255,148.76279 31.685805,147.29239 31.571453,146.87031 31.017513,146.24991 30.779932,145.98383 30.437524,145.56386 30.256603,145.31663 L 29.927661,144.86714 29.989061,145.34365 C 30.066911,145.94784 29.898671,146.38425 29.143373,147.53742 28.829139,148.01716 28.517724,148.57428 28.451337,148.77542 28.306073,149.21557 28.383417,150.15336 28.581314,150.35123 28.834492,150.60441 29.516494,152.14442 29.617965,152.69207 29.641745,152.82043 29.723259,153.16369 29.799102,153.45485 30.1092,154.64539 30.176197,155.43029 30.089224,156.85375 L 30.003784,158.25218 29.685783,158.28288 C 29.459305,158.30478 29.339869,158.26158 29.270794,158.13245 Z M 29.591118,154.35632 C 29.338033,153.11315 29.041382,152.20924 28.517926,151.08628 28.076814,150.13997 27.958027,149.64211 28.05452,149.144 28.179037,148.50126 28.431881,147.93717 29.120946,146.76481 29.652671,145.86014 29.682733,145.72329 29.563426,144.75051 29.410058,143.49999 29.425093,142.80595 29.611306,142.5401 29.820582,142.24132 29.95408,142.34724 29.95408,142.81208 29.95408,143.59185 30.548671,144.98873 31.296428,145.96569 31.464625,146.18544 31.627087,146.38772 31.657457,146.41519 31.687827,146.44269 31.81638,146.63577 31.943131,146.84431 32.143996,147.17479 32.176751,147.37358 32.198229,148.39258 32.222809,149.55931 32.304768,149.93628 32.680254,150.60989 32.911974,151.02558 32.979996,152.21553 32.775924,152.28362 32.707254,152.30662 32.651064,152.4345 32.651064,152.568 32.651064,152.70153 32.606134,152.88881 32.551214,152.98422 32.278354,153.45822 31.890933,154.95515 32.069709,154.84466 32.114759,154.81676 32.151619,154.74029 32.151619,154.67465 32.151619,154.60885 32.325641,154.19585 32.538334,153.75656 32.982372,152.83949 33.081971,152.47327 33.092805,151.71784 33.097105,151.41196 33.149495,151.1606 33.213211,151.13923 33.330838,151.09983 33.731959,151.47484 34.634853,152.46852 35.156635,153.04279 35.165135,153.04754 34.968801,152.65547 34.805338,152.32905 33.592148,150.83206 32.897607,150.09976 32.725013,149.91777 32.659295,149.41203 32.619223,147.95747 32.588633,146.84652 32.636383,146.96076 31.483174,145.24083 30.208654,143.34 30.159142,143.02012 30.8919,141.42077 31.156192,140.84391 31.383991,140.35965 31.398118,140.34462 31.482198,140.25522 31.751287,140.47853 31.851809,140.72121 31.916729,140.87793 32.200605,141.20059 32.482649,141.43821 33.417907,142.22621 34.046284,142.84349 33.995994,142.92487 33.968694,142.96897 33.992694,143.03382 34.049384,143.06887 34.235857,143.1841 35.048383,145.35415 35.048383,145.7369 35.048383,146.02272 35.60685,147.18391 35.956816,147.62578 36.318194,148.08206 37.503724,148.90183 38.094981,149.10428 38.72423,149.31976 39.863911,150.0952 40.192638,150.53154 40.918692,151.49531 41.5554,152.58846 41.759148,153.22107 41.880401,153.59754 42.010518,153.85556 42.048297,153.79445 42.086077,153.73335 42.005627,153.3207 41.869527,152.87752 41.613341,152.04332 41.024301,151.0736 40.249744,150.21096 40.027767,149.96372 39.845447,149.72775 39.844589,149.68653 39.841389,149.53601 40.470819,149.61793 41.246031,149.86884 41.683029,150.0103 42.040574,150.15805 42.040574,150.19718 42.040574,150.23638 42.130474,150.27508 42.240353,150.28338 42.350229,150.29138 42.440127,150.28346 42.440127,150.26518 42.440127,150.12367 39.778143,148.97888 39.64314,149.06233 39.57211,149.10623 38.993834,148.88098 38.045036,148.4398 37.418241,148.14836 36.706447,147.67095 36.374314,147.31924 36.065726,146.99247 35.447938,145.85689 35.447938,145.61643 35.447938,145.37687 34.646776,143.14048 34.409247,142.71697 34.271316,142.47104 33.748639,141.84592 33.247744,141.32781 32.74685,140.80969 32.241538,140.20286 32.124832,139.97932 31.870663,139.49245 31.827766,138.49436 32.043632,138.09019 32.206693,137.78488 32.292194,137.76292 32.472311,137.9801 33.107517,138.74599 33.87855,139.17865 34.798658,139.28552 35.301368,139.34392 35.982277,139.71883 36.272736,140.09718 36.54473,140.45147 36.547934,140.4728 36.530396,141.81238 36.515346,142.96143 36.544046,143.25499 36.718049,143.73228 37.079442,144.72357 37.554371,145.22766 38.794195,145.93597 38.959011,146.03007 39.138809,146.10768 39.193749,146.10831 39.248689,146.10927 39.203749,146.05871 39.093859,145.99677 38.983983,145.93477 38.643285,145.66865 38.336755,145.40534 37.368585,144.57375 36.898646,143.16866 37.019214,141.46598 37.072764,140.70968 36.942284,140.06089 36.67026,139.73095 36.475642,139.49489 35.598736,139.14469 35.011038,139.06831 34.035562,138.94153 32.785051,138.09964 32.440105,137.33748 32.021422,136.4124 32.233986,133.74441 32.86517,132.0023 33.479694,130.30616 34.135599,129.11761 35.247032,127.68614 35.588282,127.24662 35.95894,126.70839 36.070714,126.49006 36.234243,126.17063 36.646591,124.92331 36.646591,124.74808 36.646591,124.64496 35.947499,125.5098 35.886552,125.68836 35.849062,125.79824 35.488636,126.27688 35.085632,126.75197 34.423131,127.533 34.199829,127.76337 33.3433,128.54936 32.985334,128.87784 32.318589,129.79018 32.010829,130.37264 31.868733,130.64157 31.713722,130.91126 31.666361,130.97197 31.44483,131.25591 31.13644,132.48076 31.047551,133.42973 30.90191,134.98459 30.878152,135.15442 30.768096,135.42749 30.643372,135.73695 30.217668,136.2266 30.073337,136.2266 29.942534,136.2266 29.178091,137.16489 28.323647,138.3742 27.391309,139.69376 26.839115,140.00687 23.760983,140.96137 22.398195,141.38396 21.582553,141.84238 20.654045,142.70751 19.854079,143.45288 19.648673,143.57152 18.828433,143.76192 18.195769,143.90879 17.268234,144.36418 17.268234,144.5279 17.268234,144.5792 17.457948,144.5249 17.68982,144.40623 17.939488,144.27884 18.377379,144.17163 18.763622,144.14328 19.538929,144.08648 19.995474,143.85124 21.030794,142.97541 21.949023,142.19863 23.250129,141.46292 24.436858,141.04946 24.952052,140.86996 25.665649,140.5879 26.02263,140.42267 26.379609,140.25743 26.715291,140.12225 26.768586,140.12225 26.909495,140.12225 27.573571,139.75647 27.807225,139.55015 27.917517,139.45275 28.181396,139.15957 28.393616,138.89862 29.006451,138.14504 29.295183,138.32846 28.80711,139.16129 28.670732,139.394 28.486004,139.9414 28.396604,140.37774 28.307214,140.81408 28.199896,141.21603 28.158147,141.27097 28.116397,141.32577 28.050044,141.54911 28.010703,141.76694 27.916423,142.28906 27.746223,142.60355 27.242707,143.18609 26.72589,143.78401 26.603645,143.85809 25.059532,144.50901 24.372799,144.7985 23.511117,145.21085 23.144682,145.42534 22.460392,145.82587 21.693237,146.59611 21.362854,147.21433 21.260099,147.40662 21.056267,147.69878 20.909905,147.8636 20.763539,148.02842 20.569772,148.25511 20.47931,148.36736 20.38884,148.47959 20.045133,148.77156 19.715501,149.01616 18.38359,150.00445 18.000894,150.50122 17.409909,152.00898 17.313009,152.2562 17.08472,152.69446 16.902609,152.98289 16.720498,153.27131 16.612164,153.50731 16.661868,153.50731 16.711588,153.50731 16.979845,153.24883 17.258026,152.93294 17.627152,152.51378 17.860738,152.10933 18.122545,151.43607 18.319848,150.92869 18.525982,150.48591 18.58062,150.45214 18.752108,150.34622 18.793675,150.48894 18.68342,150.80522 18.61263,151.0083 18.61102,151.10997 18.67862,151.10997 18.7344,151.10997 18.75285,151.19577 18.71963,151.30036 18.68641,151.40505 18.64328,152.06807 18.62378,152.7737 18.6043,153.47933 18.55395,154.16487 18.511904,154.29705 18.357102,154.78374 18.651937,154.40243 18.833862,153.88069 18.979163,153.46399 19.016305,153.05245 19.016305,151.85915 L 19.016305,150.36081 19.341819,149.89205 C 19.520852,149.63422 19.992826,149.15717 20.390648,148.83194 20.78847,148.50669 21.309075,148.02874 21.547544,147.76981 21.786013,147.51087 22.002185,147.32009 22.027927,147.34584 22.053667,147.37154 21.976357,147.6784 21.856121,148.02767 21.691122,148.50698 21.625697,148.98114 21.589321,149.96126 21.562811,150.67547 21.568311,151.23391 21.601541,151.20224 21.680791,151.12674 21.849359,150.24959 21.96482,149.31199 22.160347,147.72423 22.341661,146.74543 22.495269,146.44836 22.691354,146.06917 23.194223,145.63455 23.661125,145.44069 23.85341,145.36079 24.378893,145.12046 24.828863,144.90644 25.278833,144.69244 25.681058,144.51735 25.722696,144.51735 25.764336,144.51735 26.099888,144.31507 26.468368,144.06784 27.226816,143.55898 27.401396,143.51208 27.305028,143.8431 27.215328,144.15121 25.640246,145.72254 25.478901,145.66488 25.407371,145.63918 25.370698,145.65368 25.397401,145.69698 25.424111,145.74028 25.222825,145.99131 24.950127,146.25502 24.07226,147.10397 23.822955,147.89353 23.971143,149.35552 24.160856,151.22723 23.739914,152.52895 22.499619,153.90606 21.736579,154.75326 21.453711,155.18581 21.230548,155.84668 20.996425,156.54004 21.106509,156.53962 21.413261,155.84572 21.613472,155.39301 21.902028,155.03877 22.704893,154.26007 23.708424,153.28673 23.745215,153.23539 23.960375,152.50818 24.082287,152.09613 24.208785,151.71486 24.241488,151.66089 24.339598,151.49898 24.356049,151.24091 24.391274,149.31176 24.423874,147.52613 24.433654,147.45035 24.681458,147.06427 24.979739,146.59951 25.374097,146.22556 26.208284,145.61642 26.987769,145.04724 27.818471,144.25781 28.100829,143.81789 28.224245,143.6256 28.38102,143.23452 28.449219,142.94882 28.517419,142.6631 28.638567,142.37511 28.718439,142.30883 28.844591,142.20413 28.854782,142.32563 28.796039,143.23415 28.751399,143.92465 28.765449,144.34916 28.837369,144.48355 28.897289,144.59555 28.975039,144.95652 29.010157,145.28581 29.062797,145.77943 29.034177,145.97928 28.847048,146.42444 28.722217,146.7214 28.543726,147.07675 28.450402,147.2141 28.190517,147.59657 27.454929,149.07314 27.342857,149.43729 27.288027,149.61547 27.205329,150.23323 27.159089,150.81007 27.085839,151.72396 27.020995,151.981 26.655146,152.80785 26.140291,153.97145 25.758786,155.21531 25.758786,155.73035 25.758786,156.26908 25.90156,156.12273 26.047422,155.43448 26.216867,154.63493 26.391608,154.1695 27.014779,152.85779 27.217058,152.43201 27.395004,151.84607 27.469801,151.35947 27.602117,150.49868 27.728543,150.20608 27.871068,150.43077 27.916288,150.50197 27.953958,150.66879 27.954808,150.8013 27.955574,150.93383 28.063809,151.22599 28.195159,151.45056 28.467184,151.91568 28.77892,152.88883 28.697883,153.01995 28.668113,153.06815 28.685453,153.10745 28.736393,153.10745 28.787333,153.10745 28.857222,153.27602 28.891688,153.48204 28.926158,153.68807 29.00398,154.08137 29.064645,154.35608 29.125305,154.63075 29.187889,155.20368 29.203715,155.62922 29.238745,156.57111 29.322289,157.04336 29.535126,157.50256 L 29.69717,157.85215 29.756,156.65349 C 29.80545,155.64593 29.77917,155.27967 29.591146,154.35608 Z M 64.081702,137.57729 C 63.708372,137.24752 63.033692,136.98584 62.313612,136.89152 61.143242,136.73822 59.866692,135.67451 58.758522,133.92913 58.566672,133.62698 58.251986,133.13253 58.059204,132.83036 57.866422,132.52821 57.4694,131.78353 57.176941,131.17551 56.627535,130.03334 56.054592,129.06104 55.686845,128.6468 55.230722,128.13299 52.571982,126.64721 50.245288,125.60586 49.146575,125.11411 48.833558,124.88005 47.025031,123.19797 46.338415,122.55937 45.779268,122.06818 44.743025,121.19336 44.547805,121.02855 44.320614,120.82939 44.238181,120.7508 43.58191,120.12517 41.60721,119.11841 41.036335,119.11841 40.626943,119.11841 40.04281,119.31407 40.04281,119.45123 40.04281,119.49603 39.96416,119.52833 39.868005,119.52313 39.771865,119.51713 39.421079,119.67482 39.088485,119.87225 38.16424,120.42082 36.670604,122.18286 35.724686,123.84054 35.552262,124.1427 35.381396,124.4124 35.344985,124.43986 35.308575,124.46736 34.997883,125.0292 34.654568,125.68847 L 34.030356,126.88714 34.614289,126.28059 C 35.254608,125.61546 35.61717,125.2115 36.446825,124.23886 37.222974,123.32893 38.332885,122.21483 38.742923,121.93407 39.024917,121.741 39.195531,121.70106 39.639435,121.72422 40.331189,121.76032 40.872679,122.1402 42.290299,123.58394 43.550265,124.86711 44.990638,125.95149 45.181533,125.7606 45.218043,125.724 45.279153,125.7405 45.317359,125.797 45.460983,126.00929 46.75286,126.33184 48.283162,126.53752 49.154124,126.65458 50.043969,126.81141 50.2606,126.88605 50.47722,126.96065 50.706218,127.00189 50.769477,126.97755 50.832717,126.95335 51.19829,127.13376 51.58182,127.3786 53.196599,128.4095 53.299613,128.51125 54.421389,130.18345 54.753087,130.67791 55.086683,131.17342 55.162725,131.28461 55.238775,131.39581 55.544705,131.61006 55.842601,131.76079 56.43974,132.06292 57.313487,132.90701 57.828767,133.67955 58.011977,133.95425 58.211803,134.22394 58.272814,134.27888 58.333804,134.33368 58.498522,134.53609 58.638792,134.72837 59.081022,135.33455 60.679472,136.8023 61.169212,137.05191 61.696932,137.32089 62.350952,137.45849 62.990872,137.43521 63.588212,137.41341 64.215812,137.62418 64.215812,137.84646 64.215812,137.88966 64.272012,137.92296 64.340672,137.92056 64.409272,137.91856 64.292872,137.76382 64.081702,137.57733 Z M 36.175584,121.98579 C 36.756793,121.29626 36.796435,121.04474 36.796435,118.04687 36.796435,114.11271 36.666902,109.8993 36.495489,108.25781 36.302021,106.40512 36.249661,105.63854 36.178232,103.613 36.065782,100.42414 36.067726,100.39851 36.448611,100.05063 36.8121,99.718625 36.796088,99.538045 36.396921,99.467635 36.183258,99.429935 35.983545,99.233855 35.583021,98.668525 34.638145,97.334841 33.5191,95.637892 33.145794,94.972649 32.496177,93.815005 31.92428,92.830758 31.752839,92.575327 31.660649,92.43798 31.278644,91.853633 30.903922,91.276778 30.529204,90.699923 30.094767,90.035598 29.938508,89.800502 29.782254,89.565407 29.654406,89.352569 29.654406,89.327534 29.654406,89.202924 28.944428,88.135023 28.360368,87.381127 27.998588,86.914149 27.626081,86.419702 27.532576,86.282355 27.128796,85.689258 26.683361,85.08597 26.358088,84.691649 26.165801,84.458549 25.652261,83.83334 25.216887,83.302297 24.473541,82.395605 23.208042,80.947077 22.518446,80.213573 22.218015,79.894013 21.106133,78.953911 20.51546,78.520037 19.935878,78.09431 19.441121,77.87703 18.752556,77.74583 L 18.057901,77.613469 17.152764,78.059899 16.247631,78.506328 18.231288,80.511821 C 20.650602,82.957764 20.921267,83.241989 21.252439,83.684352 22.137041,84.865948 23.86135,86.891916 24.568811,87.580904 24.879074,87.883066 25.418005,88.48989 25.766434,88.929398 26.114866,89.368909 26.671464,90.012567 27.003318,90.359753 27.335174,90.706938 27.630568,91.057613 27.659748,91.139033 27.837349,91.634567 32.782177,96.847771 34.323865,98.164855 35.142547,98.864255 35.482107,99.459475 35.408964,100.06696 35.353154,100.53046 35.340454,105.49931 35.393254,106.2101 35.409574,106.42985 35.452224,107.84577 35.488024,109.35658 35.523824,110.86739 35.604115,112.9126 35.666441,113.9015 35.796891,115.97123 35.832706,121.15997 35.723661,122.19224 35.656831,122.82489 35.662531,122.86293 35.783561,122.5918 35.857131,122.42699 36.033526,122.15428 36.175551,121.98579 Z M 1.5713215,113.05245 C 2.0458545,111.94442 2.4442845,110.69822 3.2319945,107.85826 3.4834225,106.95176 3.7339985,106.05277 3.7888295,105.86048 3.8436595,105.6682 4.1300595,104.56692 4.4252715,103.41321 4.7204825,102.25951 5.1051335,100.84359 5.2800505,100.26673 5.4549675,99.689885 5.6867765,98.880795 5.7951805,98.468735 6.0097035,97.653358 6.5525245,95.931465 6.9445455,94.822819 7.0805305,94.438246 7.3633425,93.606675 7.5730155,92.97488 7.7826875,92.343087 8.1787705,91.286766 8.4531985,90.627502 8.7276275,89.968239 9.1863385,88.799545 9.4725585,88.030403 10.01904,86.561868 10.806652,84.860604 11.226371,84.242113 11.362958,84.04084 11.474714,83.841162 11.474714,83.798385 11.474714,83.720235 12.089331,82.710883 12.760075,81.687487 13.101485,81.166575 13.731069,80.378277 14.729055,79.222138 15.169958,78.711361 16.335756,77.773742 16.918634,77.461118 L 17.2183,77.300393 16.61897,77.302293 C 16.003596,77.304393 15.595482,77.361283 14.479208,77.601128 13.974911,77.709478 13.82898,77.712555 13.796638,77.615538 13.747358,77.467688 13.40984,77.450937 13.322651,77.592018 13.288691,77.646948 13.159638,77.691908 13.035852,77.691908 12.662281,77.691908 11.970616,78.083501 11.413451,78.610443 10.877045,79.117753 10.325995,79.888192 9.6055885,81.138059 9.3839285,81.522631 9.0852665,82.039552 8.9418925,82.286777 8.6275255,82.828852 7.3792895,85.345971 7.3792895,85.437824 7.3792895,85.473654 7.3171995,85.644599 7.2413065,85.817717 7.1654065,85.990836 7.0340725,86.289803 6.9494335,86.482089 6.8647835,86.674372 6.6997905,87.0753 6.5827595,87.373037 6.4657295,87.670773 6.2861145,88.098464 6.1836165,88.323462 6.0811205,88.548459 5.8645715,89.113953 5.7024035,89.580114 5.5402335,90.046278 5.2850345,90.719856 5.1352965,91.076958 4.6614485,92.207 4.6185595,92.31484 4.4400805,92.825005 4.2524855,93.361229 3.8182285,94.731945 3.6805815,95.222327 3.0401145,97.504104 2.8198225,98.415645 2.3528785,100.71619 2.0518035,102.19953 1.7740915,103.6604 1.7357405,103.96256 1.6973905,104.26472 1.5836145,104.87155 1.4829085,105.31105 0.88061448,107.93966 0.63681748,109.94137 0.63681748,112.25797 0.63681748,113.20889 0.66901748,113.46043 0.82022048,113.69099 0.99710048,113.96067 1.0095345,113.96406 1.1698295,113.78619 1.2612495,113.68475 1.4419145,113.35455 1.5713215,113.05238 Z M 36.286986,97.120247 C 36.322456,96.296176 36.419172,94.408276 36.501886,92.924937 36.610404,90.978749 36.658434,87.733618 36.674411,81.267935 36.686581,76.339926 36.668811,72.339393 36.634761,72.377864 36.600781,72.416324 36.492006,72.665335 36.393033,72.931204 36.273585,73.252077 36.13321,73.44497 35.975513,73.504927 35.491819,73.688827 35.421975,74.124509 35.547193,76.176696 35.609413,77.196478 35.705419,78.258004 35.760532,78.535644 35.97479,79.615012 36.068876,89.332135 35.897437,92.675216 35.842497,93.746517 35.797647,95.387183 35.797757,96.32114 35.79791,97.774721 35.824177,98.067325 35.979927,98.353165 36.079997,98.536825 36.175511,98.671675 36.192172,98.652835 36.208832,98.633935 36.251492,97.944325 36.286982,97.120247 Z M 36.394178,71.676569 C 36.628478,70.887595 36.83557,68.541072 36.841825,66.604331 36.845025,65.642906 36.912475,63.597689 36.991928,62.059407 37.071378,60.521126 37.162488,57.644337 37.194392,55.666545 37.226292,53.688755 37.269712,51.913237 37.290882,51.720953 37.312042,51.528668 37.357552,51.0214 37.39202,50.593692 37.42649,50.165985 37.47867,49.753525 37.507994,49.677116 37.544264,49.582596 37.472124,49.527846 37.282334,49.505827 37.07672,49.481987 36.839607,49.277805 36.380573,48.729364 35.974736,48.244482 35.451143,47.774718 34.877563,47.38087 33.471073,46.415109 32.292507,45.526944 30.927514,44.404123 30.543482,44.088228 30.198307,43.829765 30.160457,43.829765 30.122607,43.829765 30.002986,43.751115 29.894632,43.654961 28.892283,42.765576 26.85754,41.178279 26.85754,41.285733 26.85754,41.312493 27.156981,41.727279 27.522965,42.207489 29.054516,44.21706 30.906612,46.006547 32.906348,47.408891 33.826497,48.054161 35.008379,48.655069 35.447946,48.701126 35.640231,48.721276 35.954879,48.863763 36.147164,49.017767 L 36.496774,49.297778 36.481154,50.434449 C 36.472554,51.059619 36.440574,53.121888 36.410074,55.017272 36.379574,56.912655 36.330294,60.913186 36.300556,63.907342 36.270836,66.901499 36.220586,69.576012 36.188904,69.850706 36.118704,70.459476 36.082903,70.72451 35.9969,71.271946 35.92258,71.745054 36.01611,72.329019 36.152685,72.244609 36.201735,72.214299 36.310397,71.958682 36.394176,71.676569 Z M 37.902438,69.150683 C 38.016294,68.986309 38.190289,68.672022 38.289093,68.452266 38.387893,68.232513 38.641025,67.693116 38.851601,67.253607 39.062174,66.814097 39.396293,66.04995 39.59408,65.555501 39.791869,65.061054 40.04117,64.465959 40.148084,64.233069 40.254995,64.000177 40.342471,63.789804 40.342471,63.765568 40.342471,63.741328 40.471409,63.437432 40.628999,63.090233 40.786591,62.743033 41.101239,62.05029 41.328218,61.550802 41.555199,61.051314 41.740909,60.590577 41.740909,60.526945 41.740909,60.463315 41.785849,60.411248 41.840799,60.411248 41.895739,60.411248 41.940689,60.317048 41.940689,60.201919 41.940689,60.086788 42.027969,59.870029 42.134624,59.720234 42.241288,59.570438 42.505337,59.046576 42.721401,58.556096 42.937465,58.065618 43.530003,56.81027 44.038154,55.766435 44.995075,53.800744 45.404185,52.919393 45.637801,52.320284 46.041879,51.284005 47.754604,48.413333 48.2856,47.882334 48.426842,47.741089 48.514498,47.625527 48.480381,47.625527 48.365202,47.625527 46.989127,48.456544 46.435676,48.860329 45.556446,49.5018 44.068069,51.089852 43.343239,52.159861 42.949687,52.740829 41.940689,54.685621 41.940689,54.863202 41.940689,54.96864 41.517068,56.031914 40.665505,58.06387 40.36822,58.773239 39.332746,61.868689 38.510296,64.506675 38.106193,65.802823 37.903364,66.513818 37.551375,67.868056 37.492095,68.096126 37.377575,68.75304 37.296885,69.327861 37.216195,69.902682 37.12493,70.457752 37.094077,70.561348 37.063237,70.664944 37.185897,70.457165 37.366705,70.099622 37.547505,69.74208 37.788586,69.315057 37.902442,69.150683 Z M 74.354482,55.960172 C 74.684132,55.876162 75.126382,55.763361 75.337282,55.709514 75.851412,55.578243 76.381792,55.299381 76.780652,54.950626 L 77.109152,54.66339 76.331152,54.69601 C 75.903262,54.71396 74.609212,54.860887 73.455492,55.022529 72.301782,55.184173 71.144332,55.32383 70.883372,55.332877 70.332162,55.351987 70.270762,55.464615 70.733532,55.607689 70.912082,55.662889 71.305402,55.798384 71.607562,55.908788 72.284572,56.156152 73.496592,56.178824 74.354492,55.960168 Z M 68.955512,55.232519 C 68.826452,55.117702 66.307472,53.626794 65.564302,53.225369 65.234672,53.047315 64.897552,52.849493 64.815142,52.785764 64.625242,52.638909 64.340622,52.474832 63.466652,52.008376 63.082082,51.803128 62.565162,51.52099 62.317932,51.381406 62.070712,51.241823 61.691492,51.03118 61.475222,50.913307 61.258952,50.795433 60.582352,50.393127 59.971662,50.019291 59.360982,49.645455 58.366452,49.095709 57.761623,48.797631 57.156777,48.499552 56.372507,48.0951 56.01879,47.898854 54.894733,47.27519 53.340919,46.826419 52.305631,46.826419 50.774003,46.826419 49.190959,47.521292 48.455093,48.516591 L 48.245316,48.800333 48.664019,48.704053 C 48.894299,48.651103 49.395828,48.637663 49.778527,48.674203 50.56546,48.749343 53.16819,49.434689 53.784034,49.728924 54.007404,49.835645 54.222788,49.922958 54.262668,49.922958 54.508473,49.922958 58.512402,51.909892 59.171442,52.358914 60.661002,53.373789 61.674692,53.872929 63.416712,54.449262 64.586802,54.836383 65.242802,54.986392 66.563192,55.16877 67.619442,55.314665 69.091972,55.3539 68.955512,55.23253 Z M 37.289757,34.889751 C 37.360377,30.252384 37.424897,27.630645 37.487629,26.848729 37.509259,26.57921 37.468369,26.311089 37.385526,26.179094 37.281929,26.014024 37.273102,25.891269 37.350246,25.688358 37.421036,25.502165 37.420816,25.385445 37.349478,25.314159 37.292488,25.257189 37.245858,25.077209 37.245858,24.914223 37.245858,24.75124 37.221408,24.642339 37.191528,24.672224 37.161658,24.702094 37.117988,25.507458 37.094528,26.461891 37.042088,28.594731 36.859563,32.312277 36.79233,32.616905 36.658758,33.222105 36.56052,44.316877 36.666356,46.844233 36.724746,48.238268 36.765496,48.54455 36.916076,48.720617 37.089991,48.923964 37.098135,48.770757 37.158632,44.157879 37.193062,41.532647 37.252032,37.361989 37.28969,34.889751 Z M 35.159172,46.941611 C 35.043303,46.778885 34.9485,46.61182 34.9485,46.570355 34.9485,46.500625 34.185916,45.440806 34.054638,45.328092 34.022638,45.300632 33.570141,44.786319 33.049075,44.185192 32.528006,43.584067 31.852791,42.819922 31.548595,42.487089 31.2444,42.154257 30.814554,41.634717 30.593381,41.332555 29.700685,40.112967 29.587884,39.826232 28.471411,35.938578 27.878843,33.875207 27.338745,32.078739 27.052424,31.218764 26.779728,30.399712 25.623992,27.618266 25.464883,27.398116 25.425173,27.343176 25.332659,27.140904 25.259288,26.948618 25.050793,26.402214 23.537857,23.377195 22.854498,22.140399 22.515007,21.525965 21.902486,20.535773 21.493333,19.939971 21.084186,19.34417 20.600936,18.515214 20.41945,18.097848 20.237963,17.680481 20.066574,17.377287 20.038585,17.424081 19.905064,17.647307 19.745377,20.485928 19.79144,21.817376 19.84549,23.379699 20.046475,24.432999 20.665728,26.399232 20.82145,26.893679 21.046095,27.635352 21.164939,28.047392 21.595528,29.540287 22.292946,31.695995 22.382306,31.810262 22.432606,31.874572 22.626725,32.399062 22.813678,32.975777 23.327867,34.561954 23.837353,35.811657 24.286264,36.587853 25.344355,38.417364 25.707874,39.010092 26.084392,39.519763 26.543229,40.140871 27.743749,41.34722 28.223393,41.669153 29.342575,42.420338 31.611437,44.220221 32.443416,45.016882 32.694969,45.257759 33.377755,45.807504 33.960716,46.23854 34.543679,46.669579 35.078243,47.091643 35.148639,47.176467 35.370799,47.444151 35.379464,47.250987 35.159209,46.941611 Z M 38.390736,25.687693 C 38.479976,25.653453 38.634568,25.462411 38.734272,25.263167 38.930382,24.871261 39.076193,24.151741 38.959502,24.151741 38.919982,24.151741 38.670511,24.365254 38.405135,24.626213 37.967525,25.056535 37.745376,25.403469 37.745376,25.656572 37.745376,25.762359 38.145837,25.78167 38.390736,25.687692 Z M 37.645287,24.214587 C 37.704757,23.941769 37.698337,23.859163 37.623477,23.934013 37.565137,23.992353 37.504001,24.278727 37.487631,24.570389 37.471261,24.862049 37.481131,24.988308 37.509441,24.850961 37.537811,24.713613 37.598931,24.427245 37.645287,24.214587 Z M 36.812702,23.895652 C 36.911842,23.637315 36.685536,23.285553 36.380525,23.223868 36.224704,23.192358 35.99796,23.073586 35.876643,22.959937 35.524166,22.629734 35.42675,22.719726 35.654154,23.165473 36.028975,23.900183 36.658669,24.29705 36.812702,23.895652 Z M 37.542422,22.936278 C 37.546422,22.210705 37.477832,22.007692 37.291417,22.194108 37.197307,22.288218 37.167987,22.521464 37.194437,22.965676 37.215287,23.31585 37.235387,23.667134 37.239137,23.746308 37.244037,23.851309 37.285607,23.837808 37.392594,23.696368 37.480314,23.58039 37.540524,23.274946 37.542425,22.936283 Z M 39.009658,22.253861 C 39.196339,22.253861 39.476519,21.784819 39.403501,21.594537 39.346821,21.446815 39.319711,21.447426 39.084185,21.601737 38.773069,21.805589 38.652963,21.723762 38.835132,21.43206 39.021687,21.133337 39.148251,20.655635 39.040843,20.655635 38.751499,20.655635 37.945152,21.876935 37.945152,22.31518 37.945152,22.94172 38.025432,22.985421 38.472866,22.602433 38.696849,22.410713 38.938407,22.253851 39.009658,22.253851 Z M 36.748613,21.450793 C 36.835213,21.288974 36.810233,21.15074 36.627266,20.778975 36.500554,20.52153 36.300538,20.263097 36.182785,20.204678 36.065034,20.146258 35.89647,20.038525 35.808204,19.965269 35.672382,19.852545 35.647719,19.856223 35.647719,19.989219 35.647719,20.473361 35.890123,21.186526 36.130417,21.409338 36.452376,21.707873 36.605527,21.718142 36.748613,21.450798 Z M 38.422125,20.721162 C 38.821517,20.444383 38.965815,20.144526 39.096135,19.320553 L 39.157215,18.934401 38.838793,19.161137 C 38.027621,19.738742 37.545607,20.425625 37.545607,21.003955 37.545607,21.430146 37.635767,21.494069 37.85098,21.220465 37.94941,21.095333 38.206428,20.870648 38.422132,20.721162 Z M 36.708056,19.680205 C 36.769326,19.639835 36.848165,19.51466 36.88326,19.402024 36.95583,19.169105 36.501402,18.611791 35.913752,18.213001 L 35.565467,17.97665 35.749784,18.641342 C 35.871827,19.081474 36.022589,19.382156 36.196031,19.531344 36.479329,19.775025 36.538159,19.792129 36.708056,19.680205 Z M 38.511648,19.050928 C 38.646195,18.999768 38.729264,18.914203 38.696246,18.860775 38.663216,18.807345 38.706916,18.626849 38.793396,18.459666 38.966384,18.125145 39.155061,17.259439 39.05498,17.259439 38.95989,17.259439 38.444595,17.755276 38.444595,17.846778 38.444595,17.890678 38.33419,17.976894 38.199256,18.038374 37.984366,18.136284 37.736734,18.551188 37.508111,19.196364 37.471301,19.300243 37.468201,19.47037 37.501211,19.574416 37.556271,19.747902 37.590521,19.737897 37.914127,19.453764 38.108207,19.283359 38.377085,19.102083 38.511635,19.050928 Z M 37.001484,17.815854 C 37.103419,17.272463 36.715806,16.780822 35.916443,16.439626 35.751785,16.369346 35.741619,16.404676 35.802408,16.835925 35.874128,17.34477 36.01811,17.630871 36.365139,17.954177 36.700323,18.266447 36.926162,18.217356 37.001484,17.815854 Z M 38.464198,17.295798 C 38.673171,17.150981 38.844149,17.024052 38.844149,17.013737 38.844149,16.994217 39.301913,15.454857 39.407203,15.120319 39.451363,14.980001 39.337813,15.033249 38.981107,15.320093 38.28799,15.877487 38.253574,15.915535 38.091351,16.303791 37.942744,16.659452 37.887813,17.559105 38.014711,17.559105 38.052961,17.559105 38.255238,17.440617 38.464209,17.295798 Z M 37.087218,15.910778 C 37.214373,15.404148 36.68477,14.712203 35.917712,14.382776 35.563154,14.230505 35.498592,14.231569 35.62247,14.387576 35.67697,14.456246 35.774615,14.67721 35.839445,14.878599 35.970409,15.285421 36.690306,16.160597 36.893985,16.160597 36.965775,16.160597 37.052722,16.048147 37.087218,15.910709 Z M 39.119648,14.736429 C 39.188778,14.596459 39.263648,14.209704 39.286052,13.876977 39.308452,13.544251 39.355692,13.225244 39.391031,13.168071 39.426361,13.110911 39.412471,13.064125 39.360181,13.064125 39.307881,13.064125 39.239989,13.129525 39.209318,13.209445 39.178648,13.289375 38.975815,13.445442 38.758574,13.556268 38.008068,13.939149 37.773246,14.53893 38.056136,15.350435 L 38.167113,15.668783 38.580551,15.329852 C 38.807942,15.143442 39.05054,14.876401 39.119657,14.73643 Z M 37.126905,14.210532 C 37.140955,13.836442 37.043385,13.680482 36.401732,13.051485 35.817366,12.47865 35.712719,12.557125 35.994803,13.356638 36.126837,13.730856 36.846366,14.56245 37.038123,14.56245 37.079673,14.56245 37.119633,14.404088 37.126893,14.210532 Z M 38.816906,13.064124 C 38.814706,13.036664 38.904666,12.811905 39.016697,12.564682 39.128719,12.317458 39.243607,11.836666 39.272016,11.496254 39.318556,10.938656 39.307336,10.887703 39.158827,10.982042 38.8294,11.191309 38.293168,11.97364 38.228333,12.339578 38.191803,12.545794 38.186463,12.904079 38.216503,13.135765 L 38.271083,13.557017 38.54594,13.335542 C 38.69711,13.213732 38.819049,13.091594 38.816918,13.064124 Z M 37.032889,12.272779 C 37.045239,12.002354 36.990099,11.631519 36.910393,11.4487 36.771722,11.13065 36.038848,10.267247 35.907554,10.267247 35.872964,10.267247 35.864164,10.39086 35.888014,10.541941 35.911864,10.693023 35.962684,11.018909 36.000927,11.266134 36.039167,11.513357 36.11559,11.801421 36.170745,11.906275 36.295642,12.14372 36.855283,12.764459 36.94446,12.764459 36.98076,12.764459 37.02055,12.543203 37.03288,12.272779 Z M 38.711312,11.041383 C 39.020207,10.713578 39.243701,10.054796 39.243701,9.4720977 L 39.243701,9.1649667 38.792866,9.6354847 C 38.320636,10.128332 38.084631,10.712617 38.189315,11.129714 38.267635,11.441792 38.346596,11.428432 38.711312,11.041384 Z M 37.345822,10.190853 C 37.345822,9.7981347 36.997924,9.2000007 36.513303,8.7595147 36.205911,8.4801177 36.088399,8.4208827 36.063458,8.5327637 36.023788,8.7107027 36.262587,9.5680287 36.351812,9.5680287 36.385442,9.5680287 36.558222,9.7703017 36.735764,10.017527 37.106908,10.534335 37.345822,10.602213 37.345822,10.190853 Z M 38.828788,8.4692557 C 38.990507,8.0572157 39.153968,7.4860728 39.192035,7.2000489 L 39.261245,6.6800056 38.790833,7.150105 C 38.532107,7.4086593 38.235984,7.7274025 38.132785,7.8584237 37.91912,8.1296887 37.888319,8.7100477 38.055605,9.3125967 L 38.164955,9.7064397 38.349854,9.4624307 C 38.451543,9.3282227 38.667063,8.8812947 38.828784,8.4692557 Z M 37.44571,8.2863007 C 37.44571,8.1307367 37.3525,7.7065308 37.238595,7.3436196 37.07487,6.8220133 36.954546,6.62603 36.664237,6.4081097 36.462253,6.2564902 36.263969,6.0851119 36.223607,6.0272691 36.183237,5.9694271 36.149537,6.2009213 36.148687,6.5417029 36.146587,7.345009 36.318187,7.7359847 36.93588,8.3364737 37.260827,8.6523727 37.445707,8.6341787 37.445707,8.2862937 Z M 38.728301,6.4784301 C 38.830157,6.2823258 38.944879,5.9533153 38.983235,5.7472955 39.056576,5.3533503 38.972333,4.6734947 38.850106,4.6734947 38.810676,4.6734947 38.670061,4.9094811 38.537635,5.197909 38.405208,5.4863369 38.254602,5.7524411 38.202952,5.7892518 38.085776,5.8727638 38.043758,6.0637333 37.975921,6.8210962 L 37.922241,7.4204268 38.232675,7.127705 C 38.403412,6.9667077 38.626444,6.6745341 38.728301,6.4784301 Z M 37.507225,6.1092582 C 37.466514,5.4422753 37.397797,5.2216332 36.954988,4.3362384 L 36.449242,3.3250006 36.448042,4.0444918 C 36.446742,4.8294042 36.532112,5.0928397 37.008066,5.7722675 37.181253,6.0194914 37.354144,6.3678525 37.392269,6.5464029 37.50865,7.0914293 37.55615,6.9108016 37.507232,6.1092582 Z M 38.319734,4.977573 C 38.627495,4.4385948 38.607807,4.1645706 38.183063,3.0752796 38.101833,2.8669598 37.805024,3.9255386 37.804965,4.4237734 37.80491,4.8866197 37.916246,5.3730584 38.021971,5.3719445 38.062121,5.3715306 38.196123,5.1940542 38.319734,4.977573 Z M 37.545599,3.624666 C 37.545599,3.4938041 37.500659,3.3589547 37.445709,3.3250006 37.386149,3.2881886 37.345819,3.4091676 37.345819,3.624666 37.345819,3.8401632 37.386159,3.9611426 37.445709,3.9243312 37.500649,3.8903772 37.545599,3.755528 37.545599,3.624666 Z"
       style="fill:#a0a1a2;fill-opacity:1" />
    <a
       transform="matrix(0.98613142,0,0,0.98613142,-49.150132,102.82541)"
       id="a4174"
       xlink:href="https://www.ebi.ac.uk/gxa/licence.html">
      <g
         id="g3"
         transform="matrix(0.07645089,0,0,0.07645089,123.6957,51.617633)">
        <circle
           id="circle5"
           r="28.275999"
           cy="28.806"
           cx="37.637001"
           style="fill:#ffffff" />
        <g
           id="g7">
          <path
             style="fill:#009600;fill-opacity:1"
             id="path9"
             d="M 37.443,-3.5 C 46.431,-3.5 54.013,-0.415 60.185,5.757 66.393,11.967 69.5,19.548 69.5,28.5 69.5,37.491 66.451,44.976 60.355,50.956 53.879,57.319 46.242,60.5 37.443,60.5 28.794,60.5 21.29,57.356 14.929,51.07 8.644,44.784 5.5,37.262 5.5,28.5 5.5,19.739 8.644,12.158 14.929,5.758 21.101,-0.415 28.604,-3.5 37.443,-3.5 Z M 37.557,2.272 C 30.281,2.272 24.129,4.825 19.1,9.929 13.88,15.263 11.271,21.454 11.271,28.501 11.271,35.587 13.861,41.721 19.041,46.899 24.222,52.081 30.393,54.67 37.555,54.67 44.678,54.67 50.889,52.063 56.184,46.842 61.213,42.004 63.727,35.89 63.727,28.499 63.727,21.223 61.174,15.034 56.071,9.928 50.967,4.824 44.795,2.272 37.557,2.272 Z M 46.129,20.557 46.129,33.642 42.473,33.642 42.473,49.184 32.529,49.184 32.529,33.643 28.873,33.643 28.873,20.557 C 28.873,19.985 29.073,19.5 29.472,19.1 29.873,18.701 30.359,18.5 30.929,18.5 L 44.073,18.5 C 44.606,18.5 45.083,18.7 45.501,19.1 45.918,19.5 46.129,19.986 46.129,20.557 Z M 33.042,12.329 C 33.042,9.321 34.527,7.815 37.5,7.815 40.473,7.815 41.957,9.319 41.957,12.329 41.957,15.3 40.471,16.786 37.5,16.786 34.529,16.786 33.042,15.3 33.042,12.329 Z"
             inkscape:connector-curvature="0" />
        </g>
      </g>
    </a>
  </g>
  <g
     inkscape:label="EFO"
     id="LAYER_EFO"
     inkscape:groupmode="layer">
    <path
       inkscape:label="PO_0009047"
       sodipodi:nodetypes="cccccc"
       inkscape:connector-curvature="0"
       id="PO_0009047"
       d="M 36.831428,24.905007 C 37.488482,24.247951 37.707501,24.905007 37.707501,24.905007 37.205582,56.940424 36.247858,94.161618 36.940937,124.22977 36.758421,124.52179 36.575907,124.81382 36.393392,125.10585 35.736336,125.43438 35.2983,122.91567 35.2983,122.91567 35.079283,101.99942 36.831428,24.905007 36.831428,24.905007 Z"
       style="fill:none;stroke:none">
      <title
         id="stem">stem</title>
    </path>
    <g
       transform="matrix(0.15331275,0,0,0.15331275,-15.075891,-2.1773726)"
       style="fill:none;stroke:none"
       inkscape:label="PO_0025034"
       id="PO_0025034">
      <title
         id="leaf">leaf</title>
      <path
         d="M 344.28572,337.3622 C 327.14286,336.64792 318.57143,330.21934 318.57143,330.21934 275,307.71934 252.85714,254.50506 252.85714,254.50506 227.14286,197.3622 223.57143,144.8622 223.57143,144.8622 224.28571,119.8622 228.21429,111.64792 228.21429,111.64792 242.14286,145.93363 247.85715,153.07649 247.85715,153.07649 284.28572,227.3622 289.64286,256.29078 289.64286,256.29078 301.07143,284.86221 307.14286,291.29077 307.14286,291.29077 317.31729,300.54932 325.20547,313.31323 331.16119,320.81989 335.96744,326.87775 348.1796,327.80035 346.83186,331.10986 Z"
         id="leaf1"
         inkscape:connector-curvature="0"
         sodipodi:nodetypes="ccccccccssc"
         inkscape:label="leaf1" />
      <path
         d="M 329.28572,494.50506 C 337.85714,491.64792 344.64286,474.14792 344.64286,474.14792 383.92857,384.8622 392.85714,369.14792 392.85714,369.14792 408.21428,336.29078 411.78572,336.64792 411.78572,336.64792 424.64286,332.71934 440.35714,337.71934 440.35714,337.71934 512.14286,372.71934 515.35714,372.71934 515.35714,372.71934 535,378.79077 550.35715,378.07649 550.35715,378.07649 L 566.42857,382.00506 C 577.85714,385.93363 593.57143,378.43363 593.57143,378.43363 603.57143,373.79077 607.5,367.00506 607.5,367.00506 607.5,365.21934 603.21429,365.57649 603.21429,365.57649 567.14286,374.8622 552.5,370.57649 552.5,370.57649 543.92857,370.57649 513.21429,350.93363 513.21429,350.93363 453.57143,307.00506 422.5,317.71934 422.5,317.71934 384.28572,329.14792 367.85714,372.71934 367.85714,372.71934 333.21429,470.93363 329.28572,494.50506 329.28572,494.50506 Z"
         id="leaf2"
         inkscape:connector-curvature="0"
         sodipodi:nodetypes="cccccccccccccccc"
         inkscape:label="leaf2" />
      <path
         d="M 338.92857,665.57649 C 323.57143,662.3622 300,635.93363 300,635.93363 252.14286,581.64792 236.07143,560.57649 236.07143,560.57649 204.64286,529.50506 200,528.43363 200,528.43363 160.71429,566.64792 132.85714,675.93363 132.85714,675.93363 113.92857,757.00506 103.92857,760.21935 103.92857,760.21935 90.714286,764.14792 109.28571,682.00506 109.28571,682.00506 137.14286,555.93364 171.07143,524.50506 171.07143,524.50506 181.42857,509.50506 225,517.3622 225,517.3622 257.85715,530.57649 323.21429,640.57649 323.21429,640.57649 330,654.14791 340.35714,661.29077 340.35714,661.29077 342.85714,664.8622 338.92857,665.57649 338.92857,665.57649 Z"
         id="leaf3"
         inkscape:connector-curvature="0"
         sodipodi:nodetypes="cccccccccccc"
         inkscape:label="leaf3" />
      <path
         d="M 313.92857,851.64792 C 322.10831,846.53558 332.48925,832.37799 341.09012,822.73602 347.51046,815.53852 353.57143,811.64791 353.57143,811.64791 361.42857,807.3622 373.57143,824.50506 373.57143,824.50506 386.42857,842.36221 420.35714,843.43363 420.35714,843.43363 431.42857,845.21934 444.28572,853.79078 444.28572,853.79078 451.42857,863.43363 453.21428,869.86221 453.21428,869.86221 457.14286,873.07649 465.71429,878.43363 465.71429,878.43363 492.50001,916.29077 504.28571,912.71934 504.28571,912.71934 512.14286,912.3622 515.71429,913.79078 515.71429,913.79078 520.00001,920.93364 529.64286,924.8622 529.64286,924.8622 534.28572,924.50506 537.85715,919.8622 537.85715,919.8622 L 527.85715,919.50506 C 524.64286,919.50506 520.35714,908.79078 520.35714,908.79078 517.5,906.29078 503.57143,903.43363 503.57143,903.43363 495,903.43363 481.42857,880.93363 481.42857,880.93363 463.92857,846.29078 460,848.79078 460,848.79078 456.57771,844.92048 438.62356,837.64435 424.88025,829.46341 415.46422,823.85836 408.21429,815.93363 408.21429,815.93363 378.92857,787.00506 363.57143,788.43363 363.57143,788.43363 341.78572,790.57649 325,825.21935 325,825.21935 316.07143,842.71935 313.92857,851.64792 313.92857,851.64792 Z"
         id="leaf4"
         inkscape:connector-curvature="0"
         sodipodi:nodetypes="cscccccccccccccccscccc"
         inkscape:label="leaf4" />
    </g>
    <path
       inkscape:label="PO_0009005"
       sodipodi:nodetypes="ccccccccccccccccccccccccccccccccccccccccccsccccccccccccccccccccccccccccccccccccccccccccccccc"
       inkscape:connector-curvature="0"
       id="PO_0009005"
       d="M 32.806968,135.8925 C 32.314176,135.07118 30.315636,135.12593 30.315636,135.12593 28.180208,137.64464 27.851681,138.54808 27.851681,138.54808 26.564948,139.53367 24.977067,140.02645 24.977067,140.02645 22.184583,140.8204 21.335888,141.69648 21.335888,141.69648 19.474234,142.95582 19.20046,143.1201 19.20046,143.1201 17.612579,143.25699 16.544864,144.7901 16.544864,144.7901 16.435359,145.33767 17.119787,145.09125 17.119787,145.09125 18.214879,144.16043 18.51603,144.37944 18.51603,144.37944 19.775384,144.59846 20.651457,143.77715 20.651457,143.77715 23.443939,141.58696 24.894936,141.36795 24.894936,141.36795 26.701836,140.92992 27.988568,139.94433 27.988568,139.94433 27.879061,140.62876 27.577908,141.58696 27.577908,141.58696 27.030363,143.31174 25.551989,143.94141 25.551989,143.94141 21.500153,145.58404 21.226378,146.65176 21.226378,146.65176 20.131289,148.18489 18.81718,149.03359 18.81718,149.03359 17.612579,150.23818 17.338805,151.44279 17.338805,151.44279 16.134207,153.24969 16.024696,154.15312 16.024696,154.15312 16.18896,154.59117 17.503069,153.14018 17.503069,153.14018 L 18.269634,152.04508 C 18.269634,152.70213 18.050616,155.22085 18.050616,155.22085 18.433898,155.33038 19.20046,153.63297 19.20046,153.63297 19.364725,152.48313 19.364725,150.23818 19.364725,150.23818 19.528988,149.69065 20.952606,148.8967 20.952606,148.8967 21.226378,149.82752 20.733589,152.97592 20.733589,152.97592 20.843095,153.3592 21.938189,151.169 21.938189,151.169 22.376226,149.69065 22.978526,146.7339 22.978526,146.7339 23.252297,145.91258 23.964107,145.58404 23.964107,145.58404 25.004443,145.25552 25.935272,144.70797 25.935272,144.70797 24.785426,145.58404 24.018862,146.40536 24.018862,146.40536 23.526071,146.78864 23.580826,148.4039 23.580826,148.4039 23.936731,152.29149 22.595244,153.1128 22.595244,153.1128 20.322928,155.35773 20.897854,156.75397 20.897854,156.75397 20.952604,157.30152 21.445397,156.37069 21.445397,156.37069 21.71917,155.05659 22.786884,154.53641 22.786884,154.53641 24.265258,153.82461 24.566407,152.59264 24.566407,152.59264 25.113953,151.55228 24.840182,147.50046 24.840182,147.50046 24.840182,146.95291 25.853138,146.13159 25.853138,146.13159 28.015944,145.00913 28.453981,144.05092 28.453981,144.05092 28.837262,146.46012 27.961191,147.17192 27.961191,147.17192 26.537572,149.6085 26.619703,151.74394 26.619703,151.74394 26.223003,152.93709 25.427206,154.69866 25.442481,155.87789 25.442481,155.87789 25.606743,155.00182 25.442481,155.87789 25.278217,156.75397 25.880517,156.4802 25.880517,156.4802 26.45544,155.74102 26.674458,154.12576 26.674458,154.12576 27.358891,152.83903 27.687416,151.38803 27.687416,151.38803 29.001526,154.29002 28.727754,155.33037 28.727754,155.33037 28.837261,157.73956 29.603826,158.2871 29.603826,158.2871 30.151372,158.3418 30.151372,156.53496 30.151372,156.53496 L 30.096611,154.89233 C 29.932347,152.75689 28.563484,150.21081 28.563484,150.21081 28.070692,149.6085 28.618234,148.21226 28.618234,148.21226 30.260871,146.13159 30.041852,145.25552 30.041852,145.25552 29.987102,144.26994 29.822833,144.35206 29.822833,144.35206 30.671529,146.02668 31.355963,146.17691 31.492849,146.87078 31.602355,147.63734 31.793998,149.52638 31.793998,149.52638 31.793998,150.51196 32.232034,151.33328 32.232034,151.33328 32.396299,152.31885 31.629734,154.45428 31.629734,154.45428 31.410716,155.3851 31.684484,155.71364 31.684484,155.71364 32.446151,155.20903 34.113916,151.37515 33.491385,151.77131 L 33.984176,152.15459 C 34.75074,153.19492 35.517303,153.85199 35.517303,153.85199 35.681567,153.3592 34.695986,151.55228 34.695986,151.55228 33.874668,150.07392 33.381875,149.7454 33.381875,149.7454 33.190235,148.95145 33.05335,146.98028 33.05335,146.98028 33.05335,146.4875 31.191694,143.88666 31.191694,143.88666 30.808412,143.01057 31.164324,141.99762 31.164324,141.99762 31.328588,141.28581 31.629738,141.23106 31.629738,141.23106 33.108112,142.16188 33.874675,143.33911 33.874675,143.33911 34.476976,144.59846 34.805501,146.62439 34.805501,146.62439 35.079276,147.99325 37.269456,148.97883 37.269456,148.97883 L 38.309794,149.41687 C 40.77375,150.73098 41.485557,153.68772 41.485557,153.68772 41.814085,154.50904 42.142613,153.96149 42.142613,153.96149 42.744914,153.08541 41.759331,151.6618 41.759331,151.6618 41.074899,150.4572 40.582109,149.99178 40.582109,149.99178 41.731953,150.21081 42.963932,150.89524 42.963932,150.89524 43.785249,151.27852 43.401967,150.29294 43.401967,150.29294 39.95243,148.48604 37.762248,147.63734 37.762248,147.63734 36.366006,146.8434 35.681575,145.22814 35.681575,145.22814 35.243537,142.21664 33.81992,141.14892 33.81992,141.14892 32.451057,140.16334 32.478436,139.61581 32.478436,139.61581 L 32.451056,138.57546 C 32.478436,139.61581 35.681574,140.13598 35.681574,140.13598 36.311253,140.40973 36.146989,143.12009 36.146989,143.12009 36.146989,144.81748 37.871755,146.07683 37.871755,146.07683 39.185865,146.8434 39.842921,146.54224 39.842921,146.54224 39.842921,146.10422 38.309793,144.4342 38.309793,144.4342 37.43372,143.94141 37.43372,141.47746 37.43372,141.47746 37.37896,138.84924 36.283875,138.73973 36.283875,138.73973 33.765164,138.35645 33.108109,137.48038 33.108109,137.48038 32.834337,137.15185 32.80696,135.8925 32.80696,135.8925 Z"
       style="fill:none;stroke:none">
      <title
         id="root">root</title>
    </path>
    <path
       inkscape:label="PO_0009049"
       sodipodi:nodetypes="cccccccccccccccsccccccccccccscccscscccsccccccccccsccccccccccccccccscscccccsccccccccccsccccssscccsscscccccc"
       inkscape:connector-curvature="0"
       id="PO_0009049"
       d="M 37.187332,25.835833 C 37.680124,26.383378 38.104472,26.123295 38.104472,26.123295 38.788904,25.986408 39.117431,25.315665 39.117431,25.315665 39.363825,24.713363 39.541778,24.083687 39.541778,24.083687 39.788173,23.56352 39.98666,23.262368 39.98666,23.262368 39.822395,23.002284 39.22694,23.56352 39.22694,23.56352 38.138693,24.289017 37.81701,24.76812 37.81701,24.76812 L 38.11816,23.837291 C 38.255045,23.317122 39.240629,22.523182 39.240629,22.523182 39.706042,21.893505 39.685509,21.900349 39.685509,21.900349 39.918215,20.901078 39.740269,20.825791 39.740269,20.825791 39.302232,20.606773 39.514404,20.196114 39.514404,20.196114 39.836088,19.758077 39.760801,19.511681 39.760801,19.511681 39.576005,19.491151 39.2817,19.908651 39.2817,19.908651 39.404898,19.073645 39.623913,18.471345 39.623913,18.471345 39.836089,18.088063 40.013988,17.840307 39.883998,17.793756 39.720861,17.735336 39.185878,18.416591 39.185878,18.416591 39.336454,17.964866 39.514404,17.51314 39.514404,17.51314 L 39.582854,16.992972 C 39.748369,16.532955 40.452258,15.936781 40.363105,15.877349 40.226219,15.815749 39.569165,16.376984 39.569165,16.376984 39.534595,16.349334 39.472005,16.480379 39.487025,16.171653 39.487025,15.569354 40.061948,14.419508 40.061948,14.419508 40.308343,14.090981 40.308343,13.933562 40.308343,13.933562 40.150924,13.974622 39.521247,14.611148 39.521247,14.611148 39.515647,14.394187 39.603407,14.161702 39.706044,13.926716 39.706044,13.735076 39.801864,13.242286 39.801864,13.242286 39.957288,12.531446 40.569782,12.00784 40.411009,11.976086 40.356559,11.898946 39.940585,12.250116 39.652542,12.472518 39.506111,12.58558 39.377515,12.639986 39.377515,12.639986 39.383015,12.514377 39.561426,12.230179 39.610223,11.900798 39.610223,11.517516 39.788175,10.833084 39.788175,10.833084 39.896468,10.464877 40.33714,9.7590764 40.499336,9.4745974 40.542166,9.3994974 40.527366,9.3410234 40.527366,9.3410234 40.291138,9.4544104 40.098123,9.6958704 39.890147,9.8800524 39.702236,10.046462 39.56916,10.121276 39.56916,10.121276 39.733423,9.1904474 39.733423,8.5881474 39.733423,8.5881474 39.883997,7.499901 40.308346,7.2945719 40.308346,7.2945719 40.401746,7.1502157 40.312346,7.0975407 40.225836,7.1147307 40.172886,7.1252567 40.116701,7.1919077 40.116701,7.1919077 39.671819,7.7120757 39.377515,8.1227344 39.377515,8.1227344 39.699197,6.7812484 39.733418,5.9325531 39.733418,5.9325531 39.904526,5.0633244 39.760798,4.8853721 39.760798,4.8853721 39.654863,4.9103761 39.610915,5.3171475 39.521247,5.5698039 39.391205,5.9188644 39.185873,6.1515711 39.185873,6.1515711 39.327919,5.7789265 39.183373,3.3662467 39.206413,3.1742923 39.206413,2.9005195 39.247483,2.4282615 39.247483,2.4282615 39.302233,1.93547 39.062683,2.1750211 39.062683,2.1750211 38.891577,3.1058487 38.802601,3.7971248 38.802601,3.7971248 38.715814,3.2938155 38.161631,1.8910685 37.797596,0.93152714 37.587385,0.37744754 37.467949,-0.02884976 37.467949,-0.02884976 37.214709,-0.15204766 37.187332,0.10119224 37.187332,0.10119224 38.036027,2.2913744 37.837542,2.7704768 37.837542,2.7704768 37.748571,3.2153575 37.625369,3.1948245 37.625369,3.1948245 37.461106,2.9484292 37.406351,2.2913744 37.406351,2.2913744 37.132578,2.3050636 36.913559,3.3864654 36.913559,3.3864654 36.776674,3.6054835 36.749297,2.8115426 36.749297,2.8115426 36.749297,2.4008835 37.1052,1.1962832 37.1052,1.1962832 37.18734,0.78562404 37.0436,0.81984554 37.0436,0.81984554 36.735735,1.2012814 36.076911,3.819036 36.099084,4.064053 36.069094,4.3857361 36.320687,5.2344317 36.160684,5.2344317 35.857544,5.0890649 35.805688,4.8310656 35.681581,4.536311 35.48994,3.6876155 35.216168,3.1126928 35.216168,3.1126928 35.024527,3.1400698 35.270918,4.125652 35.270918,4.125652 35.76371,6.288457 35.736332,6.8086251 35.736332,6.8086251 35.797932,7.4383025 36.105924,7.9584714 36.105924,7.9584714 35.791089,8.1774894 35.772141,7.3843071 35.572071,7.0823979 35.151878,6.4483138 35.243545,6.6032955 35.243545,6.6032955 34.921862,6.7264935 35.489723,7.4841474 35.626826,8.7524124 35.676156,9.2086794 36.064863,9.7653714 36.064863,9.7653714 35.845845,9.7653714 35.407808,9.1630724 35.407808,9.1630724 35.079282,8.8071654 35.024525,8.9166764 35.024525,8.9166764 35.051905,9.2071364 35.48994,10.069623 35.48994,10.696198 35.599447,11.27112 35.818468,11.818667 35.818468,11.818667 35.728548,11.818667 35.604493,11.539715 35.485827,11.32437 35.387697,11.146309 35.284609,11.024725 35.284609,11.024725 35.038214,10.805707 34.860263,11.188988 34.860263,11.188988 34.887643,11.572271 35.243545,12.229325 35.243545,12.229325 35.38043,12.667362 35.59945,13.29704 35.59945,13.29704 35.59945,13.48868 36.174372,14.118358 36.174372,14.118358 35.575666,14.110558 35.169213,12.977346 34.586492,12.982201 34.682112,13.246976 35.328384,14.312756 35.325677,14.802789 35.325677,15.158693 36.092239,16.082679 36.092239,16.082679 35.791089,16.144279 34.860263,15.10394 34.860263,15.10394 34.531735,14.857545 34.600179,15.268202 34.600179,15.268202 34.714735,15.377171 34.9242,15.565761 35.093436,15.812365 35.215382,15.990061 35.353053,16.623378 35.353053,16.623378 35.48994,17.362565 35.531006,17.567896 35.531006,17.567896 35.175102,17.047727 34.750753,16.801331 34.750753,16.801331 34.531735,16.856081 34.928706,17.472074 34.928706,17.472074 35.103976,17.799018 35.226133,18.307061 35.346528,18.749036 35.405768,18.966524 35.541102,19.226529 35.58197,19.370961 35.61853,19.500124 35.56719,19.528635 35.51732,19.484305 35.024531,19.046267 34.723379,19.224222 34.723379,19.224222 L 34.796859,19.367611 C 34.902771,19.489466 35.041391,19.480511 35.11351,19.737545 35.21112,19.960208 35.2114,20.346238 35.301962,20.718721 35.414613,21.182055 35.653616,21.618723 35.845853,21.777152 36.768166,22.537256 36.550819,22.707979 36.550819,22.707979 36.550819,22.707979 36.397984,22.524145 36.171219,22.406988 36.000424,22.318748 35.76604,22.243197 35.613146,22.167278 35.209333,22.023547 34.983469,21.387024 34.983469,21.387024 34.819205,21.304884 34.853426,21.83875 34.853426,21.83875 34.867126,23.782535 36.105937,24.35746 36.105937,24.35746 L 36.632951,24.665454 C 37.098363,25.076111 37.187339,25.835833 37.187339,25.835833 Z"
       style="fill:none;stroke:none">
      <title
         id="inflorescence">inflorescence</title>
    </path>
  </g>
</svg>
